<svg width="112" height="27" viewBox="0 0 112 27" fill="none" xmlns="http://www.w3.org/2000/svg">
<path d="M1.41216 13.3386C1.41216 9.92613 0.273784 5.94644 1.78082 2.5C1.9584 2.3431 4.3667 2.15411 4.87833 2.15411C6.80807 2.15411 8.83479 1.80453 10.6553 1.55494C16.9048 0.698153 24.0937 1.08893 30.5481 1.08893H99.6707C110.704 1.08893 110.704 1.91202 110.704 2.61378C110.704 3.50952 110.325 8.9977 110.704 9.87578C110.704 11.4896 110.304 12.9591 110.704 14.3137C111.058 15.5123 111.617 26.417 108.807 25.9877H90.5416C70.8518 25.9877 64.3497 25.8545 44.664 25.8545C33.1372 25.8545 21.6127 25.8009 10.086 25.7214C5.86233 25.6922 1.87784 26.2486 1.41216 24.5C1.10002 23.328 1.41216 19 1.41216 19C1.78082 17 1.41216 15.2922 1.41216 13.3386Z" fill="#FFD686" stroke="black" stroke-width="2" stroke-linecap="round"/>
<path d="M30.4853 17.256C30.3653 17.36 30.1973 17.464 29.9813 17.568C29.7653 17.664 29.5253 17.752 29.2613 17.832C29.0053 17.912 28.7373 17.976 28.4573 18.024C28.1853 18.072 27.9293 18.096 27.6893 18.096C26.9933 18.096 26.3653 17.988 25.8053 17.772C25.2533 17.556 24.7773 17.256 24.3773 16.872C23.9853 16.488 23.6813 16.036 23.4653 15.516C23.2573 14.996 23.1533 14.432 23.1533 13.824C23.1533 13.104 23.2693 12.46 23.5013 11.892C23.7413 11.316 24.0653 10.832 24.4733 10.44C24.8893 10.04 25.3653 9.74 25.9013 9.54C26.4373 9.332 27.0053 9.228 27.6053 9.228C28.1093 9.228 28.5773 9.288 29.0093 9.408C29.4413 9.528 29.8213 9.68 30.1493 9.864L29.7533 10.932C29.5933 10.836 29.3933 10.748 29.1533 10.668C28.9213 10.588 28.6813 10.524 28.4333 10.476C28.1853 10.42 27.9533 10.392 27.7373 10.392C27.2253 10.392 26.7613 10.472 26.3453 10.632C25.9293 10.784 25.5733 11.008 25.2773 11.304C24.9813 11.592 24.7533 11.944 24.5933 12.36C24.4333 12.768 24.3533 13.228 24.3533 13.74C24.3533 14.212 24.4333 14.644 24.5933 15.036C24.7533 15.428 24.9813 15.768 25.2773 16.056C25.5733 16.336 25.9253 16.556 26.3333 16.716C26.7493 16.868 27.2053 16.944 27.7013 16.944C27.9973 16.944 28.2893 16.916 28.5773 16.86C28.8653 16.796 29.1133 16.708 29.3213 16.596V14.868H27.5933V13.752H30.4853V17.256ZM35.021 9.324C35.653 9.324 36.193 9.432 36.641 9.648C37.089 9.856 37.433 10.16 37.673 10.56C37.921 10.96 38.045 11.444 38.045 12.012C38.045 12.356 37.993 12.696 37.889 13.032C37.785 13.36 37.617 13.66 37.385 13.932C37.161 14.196 36.865 14.408 36.497 14.568C36.129 14.728 35.681 14.808 35.153 14.808H33.869V18H32.705V9.324H35.021ZM35.141 13.692C35.485 13.692 35.769 13.636 35.993 13.524C36.217 13.412 36.393 13.272 36.521 13.104C36.649 12.928 36.741 12.744 36.797 12.552C36.853 12.36 36.881 12.188 36.881 12.036C36.881 11.86 36.853 11.68 36.797 11.496C36.741 11.304 36.645 11.132 36.509 10.98C36.381 10.82 36.209 10.692 35.993 10.596C35.785 10.492 35.525 10.44 35.213 10.44H33.869V13.692H35.141ZM39.2058 9.324H44.9658V10.44H42.6378V18H41.4738V10.44H39.2058V9.324ZM49.5193 16.092V16.08L54.3313 10.008H54.3433V15.204H55.3633V16.092H54.3433V18H53.1793V16.092H49.5193ZM53.2513 12.636L51.2233 15.264L51.0433 15.204H53.1793V12.42L53.2513 12.636ZM60.194 9.324H65.954V10.44H63.626V18H62.462V10.44H60.194V9.324ZM68.3838 18.192C67.9358 18.192 67.5638 18.056 67.2678 17.784C66.9798 17.504 66.8278 17.144 66.8118 16.704V13.032H67.9278V16.308C67.9438 16.58 68.0198 16.8 68.1558 16.968C68.2998 17.136 68.5238 17.224 68.8278 17.232C69.1078 17.232 69.3558 17.152 69.5718 16.992C69.7958 16.824 69.9758 16.6 70.1118 16.32C70.2478 16.032 70.3158 15.708 70.3158 15.348V13.032H71.4318V18H70.4118L70.3158 16.776L70.3758 16.992C70.2798 17.224 70.1318 17.432 69.9318 17.616C69.7398 17.792 69.5118 17.932 69.2478 18.036C68.9838 18.14 68.6958 18.192 68.3838 18.192ZM74.3586 13.032L74.4666 14.472L74.4066 14.28C74.5346 13.976 74.7186 13.72 74.9586 13.512C75.2066 13.296 75.4626 13.132 75.7266 13.02C75.9986 12.9 76.2346 12.84 76.4346 12.84L76.3746 13.944C75.9986 13.92 75.6666 13.992 75.3786 14.16C75.0986 14.328 74.8746 14.552 74.7066 14.832C74.5466 15.112 74.4666 15.412 74.4666 15.732V18H73.3626V13.032H74.3586ZM80.8983 18.12C80.4423 18.12 80.0383 18.02 79.6863 17.82C79.3423 17.62 79.0663 17.368 78.8583 17.064L78.9903 16.716V18H77.8743V8.712H78.9783V14.172L78.9423 13.752C79.1423 13.48 79.4263 13.26 79.7943 13.092C80.1703 12.916 80.5863 12.828 81.0423 12.828C81.4903 12.828 81.8983 12.936 82.2663 13.152C82.6343 13.368 82.9263 13.672 83.1423 14.064C83.3663 14.448 83.4783 14.908 83.4783 15.444C83.4783 16.004 83.3583 16.484 83.1183 16.884C82.8863 17.284 82.5743 17.592 82.1823 17.808C81.7903 18.016 81.3623 18.12 80.8983 18.12ZM80.6703 17.172C80.9903 17.172 81.2783 17.096 81.5343 16.944C81.7903 16.792 81.9903 16.588 82.1343 16.332C82.2783 16.068 82.3503 15.768 82.3503 15.432C82.3503 15.112 82.2743 14.824 82.1223 14.568C81.9783 14.304 81.7783 14.096 81.5223 13.944C81.2743 13.792 80.9903 13.716 80.6703 13.716C80.3983 13.716 80.1463 13.768 79.9143 13.872C79.6823 13.976 79.4863 14.12 79.3263 14.304C79.1663 14.48 79.0543 14.688 78.9903 14.928V15.924C79.0543 16.164 79.1623 16.38 79.3143 16.572C79.4663 16.756 79.6583 16.904 79.8903 17.016C80.1223 17.12 80.3823 17.172 80.6703 17.172ZM84.5556 15.468C84.5556 14.972 84.6716 14.524 84.9036 14.124C85.1436 13.724 85.4716 13.408 85.8876 13.176C86.3036 12.944 86.7756 12.828 87.3036 12.828C87.8476 12.828 88.3236 12.944 88.7316 13.176C89.1396 13.408 89.4556 13.724 89.6796 14.124C89.9036 14.524 90.0156 14.972 90.0156 15.468C90.0156 15.964 89.9036 16.416 89.6796 16.824C89.4556 17.224 89.1356 17.54 88.7196 17.772C88.3116 18.004 87.8356 18.12 87.2916 18.12C86.7636 18.12 86.2916 18.012 85.8756 17.796C85.4676 17.572 85.1436 17.264 84.9036 16.872C84.6716 16.472 84.5556 16.004 84.5556 15.468ZM85.6716 15.48C85.6716 15.8 85.7436 16.092 85.8876 16.356C86.0316 16.612 86.2236 16.816 86.4636 16.968C86.7116 17.12 86.9836 17.196 87.2796 17.196C87.5916 17.196 87.8676 17.12 88.1076 16.968C88.3556 16.816 88.5476 16.612 88.6836 16.356C88.8196 16.092 88.8876 15.8 88.8876 15.48C88.8876 15.16 88.8196 14.872 88.6836 14.616C88.5476 14.352 88.3556 14.144 88.1076 13.992C87.8676 13.832 87.5916 13.752 87.2796 13.752C86.9756 13.752 86.6996 13.832 86.4516 13.992C86.2116 14.152 86.0196 14.364 85.8756 14.628C85.7396 14.884 85.6716 15.168 85.6716 15.48Z" fill="black"/>
</svg>
