<svg width="112" height="27" viewBox="0 0 112 27" fill="none" xmlns="http://www.w3.org/2000/svg">
<path d="M1.41216 13.3386C1.41216 9.92613 0.273784 5.94644 1.78082 2.5C1.9584 2.3431 4.3667 2.15411 4.87833 2.15411C6.80807 2.15411 8.83479 1.80453 10.6553 1.55494C16.9048 0.698153 24.0937 1.08893 30.5481 1.08893H99.6707C110.704 1.08893 110.704 1.91202 110.704 2.61378C110.704 3.50952 110.325 8.9977 110.704 9.87578C110.704 11.4896 110.304 12.9591 110.704 14.3137C111.058 15.5123 111.617 26.417 108.807 25.9877H90.5416C70.8518 25.9877 64.3497 25.8545 44.664 25.8545C33.1372 25.8545 21.6127 25.8009 10.086 25.7214C5.86233 25.6922 1.87784 26.2486 1.41216 24.5C1.10002 23.328 1.41216 19 1.41216 19C1.78082 17 1.41216 15.2922 1.41216 13.3386Z" fill="#FF8686" stroke="black" stroke-width="2" stroke-linecap="round"/>
<path d="M26.4072 17.256C26.2872 17.36 26.1192 17.464 25.9032 17.568C25.6872 17.664 25.4472 17.752 25.1832 17.832C24.9272 17.912 24.6592 17.976 24.3792 18.024C24.1072 18.072 23.8512 18.096 23.6112 18.096C22.9152 18.096 22.2872 17.988 21.7272 17.772C21.1752 17.556 20.6992 17.256 20.2992 16.872C19.9072 16.488 19.6032 16.036 19.3872 15.516C19.1792 14.996 19.0752 14.432 19.0752 13.824C19.0752 13.104 19.1912 12.46 19.4232 11.892C19.6632 11.316 19.9872 10.832 20.3952 10.44C20.8112 10.04 21.2872 9.74 21.8232 9.54C22.3592 9.332 22.9272 9.228 23.5272 9.228C24.0312 9.228 24.4992 9.288 24.9312 9.408C25.3632 9.528 25.7432 9.68 26.0712 9.864L25.6752 10.932C25.5152 10.836 25.3152 10.748 25.0752 10.668C24.8432 10.588 24.6032 10.524 24.3552 10.476C24.1072 10.42 23.8752 10.392 23.6592 10.392C23.1472 10.392 22.6832 10.472 22.2672 10.632C21.8512 10.784 21.4952 11.008 21.1992 11.304C20.9032 11.592 20.6752 11.944 20.5152 12.36C20.3552 12.768 20.2752 13.228 20.2752 13.74C20.2752 14.212 20.3552 14.644 20.5152 15.036C20.6752 15.428 20.9032 15.768 21.1992 16.056C21.4952 16.336 21.8472 16.556 22.2552 16.716C22.6712 16.868 23.1272 16.944 23.6232 16.944C23.9192 16.944 24.2112 16.916 24.4992 16.86C24.7872 16.796 25.0352 16.708 25.2432 16.596V14.868H23.5152V13.752H26.4072V17.256ZM30.9429 9.324C31.5749 9.324 32.1149 9.432 32.5629 9.648C33.0109 9.856 33.3549 10.16 33.5949 10.56C33.8429 10.96 33.9669 11.444 33.9669 12.012C33.9669 12.356 33.9149 12.696 33.8109 13.032C33.7069 13.36 33.5389 13.66 33.3069 13.932C33.0829 14.196 32.7869 14.408 32.4189 14.568C32.0509 14.728 31.6029 14.808 31.0749 14.808H29.7909V18H28.6269V9.324H30.9429ZM31.0629 13.692C31.4069 13.692 31.6909 13.636 31.9149 13.524C32.1389 13.412 32.3149 13.272 32.4429 13.104C32.5709 12.928 32.6629 12.744 32.7189 12.552C32.7749 12.36 32.8029 12.188 32.8029 12.036C32.8029 11.86 32.7749 11.68 32.7189 11.496C32.6629 11.304 32.5669 11.132 32.4309 10.98C32.3029 10.82 32.1309 10.692 31.9149 10.596C31.7069 10.492 31.4469 10.44 31.1349 10.44H29.7909V13.692H31.0629ZM35.1276 9.324H40.8876V10.44H38.5596V18H37.3956V10.44H35.1276V9.324ZM50.5292 10.104L48.4172 13.5L47.7212 13.176C47.8252 13.12 47.9412 13.08 48.0692 13.056C48.1972 13.032 48.3252 13.02 48.4532 13.02C48.7492 13.004 49.0372 13.036 49.3172 13.116C49.5972 13.196 49.8492 13.328 50.0732 13.512C50.2972 13.696 50.4732 13.94 50.6012 14.244C50.7372 14.548 50.8052 14.924 50.8052 15.372C50.8052 15.932 50.6772 16.416 50.4212 16.824C50.1652 17.232 49.8252 17.548 49.4012 17.772C48.9852 17.988 48.5212 18.096 48.0092 18.096C47.6252 18.096 47.2412 18.02 46.8572 17.868C46.4812 17.708 46.1692 17.5 45.9212 17.244L46.5092 16.284C46.6612 16.46 46.8692 16.62 47.1332 16.764C47.4052 16.908 47.6852 16.98 47.9732 16.98C48.2772 16.98 48.5492 16.912 48.7892 16.776C49.0372 16.64 49.2332 16.448 49.3772 16.2C49.5292 15.944 49.6052 15.648 49.6052 15.312C49.6052 14.848 49.4692 14.484 49.1972 14.22C48.9332 13.956 48.5692 13.824 48.1052 13.824C47.8732 13.824 47.6772 13.844 47.5172 13.884C47.3572 13.916 47.2132 13.956 47.0852 14.004L47.0492 13.956L48.9092 11.064L49.2692 11.22H46.3772V10.104H50.5292ZM51.9744 17.364C51.9744 17.188 52.0384 17.04 52.1664 16.92C52.3024 16.792 52.4504 16.728 52.6104 16.728C52.7544 16.728 52.8904 16.792 53.0184 16.92C53.1544 17.04 53.2224 17.188 53.2224 17.364C53.2224 17.556 53.1544 17.712 53.0184 17.832C52.8904 17.944 52.7544 18 52.6104 18C52.4504 18 52.3024 17.944 52.1664 17.832C52.0384 17.712 51.9744 17.556 51.9744 17.364ZM56.522 18.096C56.098 18.096 55.69 18.02 55.298 17.868C54.914 17.716 54.602 17.52 54.362 17.28L54.986 16.38C55.146 16.564 55.358 16.712 55.622 16.824C55.894 16.936 56.162 16.992 56.426 16.992C56.722 16.992 56.982 16.928 57.206 16.8C57.438 16.664 57.618 16.484 57.746 16.26C57.874 16.028 57.938 15.764 57.938 15.468C57.938 15.148 57.878 14.864 57.758 14.616C57.646 14.368 57.474 14.176 57.242 14.04C57.018 13.896 56.734 13.824 56.39 13.824C56.11 13.824 55.85 13.864 55.61 13.944C55.37 14.016 55.122 14.128 54.866 14.28H54.854V10.104H58.634V11.22H55.862V13.236L55.706 12.996C55.842 12.948 55.994 12.912 56.162 12.888C56.338 12.856 56.506 12.84 56.666 12.84C57.202 12.84 57.65 12.96 58.01 13.2C58.378 13.432 58.654 13.744 58.838 14.136C59.03 14.528 59.126 14.96 59.126 15.432C59.126 15.928 59.014 16.38 58.79 16.788C58.566 17.188 58.258 17.508 57.866 17.748C57.474 17.98 57.026 18.096 56.522 18.096ZM64.2722 9.324H70.0322V10.44H67.7042V18H66.5402V10.44H64.2722V9.324ZM72.462 18.192C72.014 18.192 71.642 18.056 71.346 17.784C71.058 17.504 70.906 17.144 70.89 16.704V13.032H72.006V16.308C72.022 16.58 72.098 16.8 72.234 16.968C72.378 17.136 72.602 17.224 72.906 17.232C73.186 17.232 73.434 17.152 73.65 16.992C73.874 16.824 74.054 16.6 74.19 16.32C74.326 16.032 74.394 15.708 74.394 15.348V13.032H75.51V18H74.49L74.394 16.776L74.454 16.992C74.358 17.224 74.21 17.432 74.01 17.616C73.818 17.792 73.59 17.932 73.326 18.036C73.062 18.14 72.774 18.192 72.462 18.192ZM78.4368 13.032L78.5448 14.472L78.4848 14.28C78.6128 13.976 78.7968 13.72 79.0368 13.512C79.2848 13.296 79.5408 13.132 79.8048 13.02C80.0768 12.9 80.3128 12.84 80.5128 12.84L80.4528 13.944C80.0768 13.92 79.7448 13.992 79.4568 14.16C79.1768 14.328 78.9528 14.552 78.7848 14.832C78.6248 15.112 78.5448 15.412 78.5448 15.732V18H77.4408V13.032H78.4368ZM84.9765 18.12C84.5205 18.12 84.1165 18.02 83.7645 17.82C83.4205 17.62 83.1445 17.368 82.9365 17.064L83.0685 16.716V18H81.9525V8.712H83.0565V14.172L83.0205 13.752C83.2205 13.48 83.5045 13.26 83.8725 13.092C84.2485 12.916 84.6645 12.828 85.1205 12.828C85.5685 12.828 85.9765 12.936 86.3445 13.152C86.7125 13.368 87.0045 13.672 87.2205 14.064C87.4445 14.448 87.5565 14.908 87.5565 15.444C87.5565 16.004 87.4365 16.484 87.1965 16.884C86.9645 17.284 86.6525 17.592 86.2605 17.808C85.8685 18.016 85.4405 18.12 84.9765 18.12ZM84.7485 17.172C85.0685 17.172 85.3565 17.096 85.6125 16.944C85.8685 16.792 86.0685 16.588 86.2125 16.332C86.3565 16.068 86.4285 15.768 86.4285 15.432C86.4285 15.112 86.3525 14.824 86.2005 14.568C86.0565 14.304 85.8565 14.096 85.6005 13.944C85.3525 13.792 85.0685 13.716 84.7485 13.716C84.4765 13.716 84.2245 13.768 83.9925 13.872C83.7605 13.976 83.5645 14.12 83.4045 14.304C83.2445 14.48 83.1325 14.688 83.0685 14.928V15.924C83.1325 16.164 83.2405 16.38 83.3925 16.572C83.5445 16.756 83.7365 16.904 83.9685 17.016C84.2005 17.12 84.4605 17.172 84.7485 17.172ZM88.6338 15.468C88.6338 14.972 88.7498 14.524 88.9818 14.124C89.2218 13.724 89.5498 13.408 89.9658 13.176C90.3818 12.944 90.8538 12.828 91.3818 12.828C91.9258 12.828 92.4018 12.944 92.8098 13.176C93.2178 13.408 93.5338 13.724 93.7578 14.124C93.9818 14.524 94.0938 14.972 94.0938 15.468C94.0938 15.964 93.9818 16.416 93.7578 16.824C93.5338 17.224 93.2138 17.54 92.7978 17.772C92.3898 18.004 91.9138 18.12 91.3698 18.12C90.8418 18.12 90.3698 18.012 89.9538 17.796C89.5458 17.572 89.2218 17.264 88.9818 16.872C88.7498 16.472 88.6338 16.004 88.6338 15.468ZM89.7498 15.48C89.7498 15.8 89.8218 16.092 89.9658 16.356C90.1098 16.612 90.3018 16.816 90.5418 16.968C90.7898 17.12 91.0618 17.196 91.3578 17.196C91.6698 17.196 91.9458 17.12 92.1858 16.968C92.4338 16.816 92.6258 16.612 92.7618 16.356C92.8978 16.092 92.9658 15.8 92.9658 15.48C92.9658 15.16 92.8978 14.872 92.7618 14.616C92.6258 14.352 92.4338 14.144 92.1858 13.992C91.9458 13.832 91.6698 13.752 91.3578 13.752C91.0538 13.752 90.7778 13.832 90.5298 13.992C90.2898 14.152 90.0978 14.364 89.9538 14.628C89.8178 14.884 89.7498 15.168 89.7498 15.48Z" fill="black"/>
</svg>
