<svg width="98" height="25" viewBox="0 0 98 25" fill="none" xmlns="http://www.w3.org/2000/svg">
<rect x="1" y="1" width="96" height="23" rx="2" fill="#9EDD80" stroke="black" stroke-width="2"/>
<path fill-rule="evenodd" clip-rule="evenodd" d="M85 12L88.7279 15.4483L92.4558 12H85Z" fill="#505050"/>
<path d="M24.0386 7.324C24.9106 7.324 25.5946 7.504 26.0906 7.864C26.5946 8.216 26.8466 8.768 26.8466 9.52C26.8466 9.976 26.7426 10.372 26.5346 10.708C26.3266 11.044 26.0346 11.308 25.6586 11.5C25.2906 11.692 24.8546 11.8 24.3506 11.824L24.1826 11.224C24.7666 11.24 25.2906 11.344 25.7546 11.536C26.2186 11.728 26.5866 11.996 26.8586 12.34C27.1306 12.684 27.2666 13.092 27.2666 13.564C27.2666 13.996 27.1866 14.368 27.0266 14.68C26.8666 14.984 26.6506 15.236 26.3786 15.436C26.1066 15.628 25.7986 15.772 25.4546 15.868C25.1106 15.956 24.7546 16 24.3866 16H21.8066V7.324H24.0386ZM24.2786 11.128C24.7586 11.128 25.1066 10.996 25.3226 10.732C25.5386 10.46 25.6466 10.132 25.6466 9.748C25.6466 9.292 25.5066 8.96 25.2266 8.752C24.9466 8.544 24.5706 8.44 24.0986 8.44H22.9706V11.128H24.2786ZM24.3266 14.92C24.6466 14.92 24.9386 14.872 25.2026 14.776C25.4746 14.68 25.6866 14.532 25.8386 14.332C25.9986 14.132 26.0786 13.88 26.0786 13.576C26.0786 13.24 25.9866 12.976 25.8026 12.784C25.6266 12.592 25.3986 12.456 25.1186 12.376C24.8386 12.288 24.5506 12.244 24.2546 12.244H22.9706V14.92H24.3266ZM31.2526 16.12C30.6846 16.12 30.1966 16.008 29.7886 15.784C29.3806 15.552 29.0646 15.24 28.8406 14.848C28.6246 14.448 28.5166 13.992 28.5166 13.48C28.5166 12.992 28.6406 12.548 28.8886 12.148C29.1366 11.748 29.4686 11.428 29.8846 11.188C30.3006 10.948 30.7646 10.828 31.2766 10.828C31.9326 10.828 32.4766 11.02 32.9086 11.404C33.3406 11.788 33.6326 12.316 33.7846 12.988L29.6926 14.428L29.4286 13.768L32.7886 12.544L32.5486 12.7C32.4526 12.436 32.2926 12.208 32.0686 12.016C31.8446 11.816 31.5526 11.716 31.1926 11.716C30.8886 11.716 30.6166 11.792 30.3766 11.944C30.1366 12.088 29.9486 12.288 29.8126 12.544C29.6766 12.8 29.6086 13.092 29.6086 13.42C29.6086 13.764 29.6806 14.068 29.8246 14.332C29.9686 14.588 30.1646 14.792 30.4126 14.944C30.6686 15.088 30.9566 15.16 31.2766 15.16C31.4926 15.16 31.7006 15.12 31.9006 15.04C32.1086 14.96 32.3006 14.856 32.4766 14.728L32.9926 15.556C32.7446 15.724 32.4646 15.86 32.1526 15.964C31.8486 16.068 31.5486 16.12 31.2526 16.12ZM37.5709 18.46C37.2029 18.46 36.8789 18.416 36.5989 18.328C36.3189 18.248 36.0629 18.132 35.8309 17.98C35.6069 17.828 35.3909 17.656 35.1829 17.464L35.8309 16.708C36.0949 16.956 36.3629 17.148 36.6349 17.284C36.9069 17.42 37.2109 17.488 37.5469 17.488C37.9229 17.488 38.2389 17.424 38.4949 17.296C38.7589 17.176 38.9589 17.004 39.0949 16.78C39.2309 16.564 39.2989 16.312 39.2989 16.024L39.3109 14.68L39.4069 14.896C39.2629 15.24 39.0029 15.532 38.6269 15.772C38.2509 16.004 37.7949 16.12 37.2589 16.12C36.8029 16.12 36.3829 16.004 35.9989 15.772C35.6229 15.54 35.3189 15.228 35.0869 14.836C34.8629 14.436 34.7509 13.988 34.7509 13.492C34.7509 12.972 34.8709 12.516 35.1109 12.124C35.3509 11.724 35.6669 11.408 36.0589 11.176C36.4509 10.944 36.8789 10.828 37.3429 10.828C37.7829 10.828 38.1829 10.92 38.5429 11.104C38.9109 11.28 39.1789 11.508 39.3469 11.788L39.2869 11.992L39.4069 11.032H40.4269V16.036C40.4269 16.484 40.3109 16.892 40.0789 17.26C39.8469 17.628 39.5189 17.92 39.0949 18.136C38.6709 18.352 38.1629 18.46 37.5709 18.46ZM35.8669 13.468C35.8669 13.788 35.9429 14.08 36.0949 14.344C36.2469 14.608 36.4509 14.816 36.7069 14.968C36.9709 15.12 37.2629 15.196 37.5829 15.196C37.8789 15.196 38.1429 15.144 38.3749 15.04C38.6149 14.928 38.8149 14.78 38.9749 14.596C39.1349 14.404 39.2469 14.184 39.3109 13.936V12.952C39.2389 12.712 39.1189 12.504 38.9509 12.328C38.7829 12.144 38.5829 12.004 38.3509 11.908C38.1189 11.804 37.8629 11.752 37.5829 11.752C37.2629 11.752 36.9709 11.824 36.7069 11.968C36.4509 12.112 36.2469 12.316 36.0949 12.58C35.9429 12.836 35.8669 13.132 35.8669 13.468ZM42.3548 11.032H43.4708V16H42.3548V11.032ZM42.2708 9.232C42.2708 9.056 42.3388 8.908 42.4748 8.788C42.6188 8.668 42.7748 8.608 42.9428 8.608C43.1108 8.608 43.2588 8.668 43.3868 8.788C43.5228 8.908 43.5908 9.056 43.5908 9.232C43.5908 9.416 43.5228 9.568 43.3868 9.688C43.2588 9.8 43.1108 9.856 42.9428 9.856C42.7748 9.856 42.6188 9.796 42.4748 9.676C42.3388 9.556 42.2708 9.408 42.2708 9.232ZM46.3977 11.032L46.4937 12.244L46.4457 12.052C46.6057 11.684 46.8657 11.392 47.2257 11.176C47.5857 10.952 48.0017 10.84 48.4737 10.84C48.9457 10.84 49.3297 10.98 49.6257 11.26C49.9297 11.532 50.0857 11.888 50.0937 12.328V16H48.9657V12.724C48.9577 12.452 48.8777 12.232 48.7257 12.064C48.5817 11.888 48.3537 11.8 48.0417 11.8C47.7537 11.8 47.4937 11.88 47.2617 12.04C47.0297 12.2 46.8457 12.42 46.7097 12.7C46.5817 12.98 46.5177 13.304 46.5177 13.672V16H45.4017V11.032H46.3977ZM53.0305 11.032L53.1265 12.244L53.0785 12.052C53.2385 11.684 53.4985 11.392 53.8585 11.176C54.2185 10.952 54.6345 10.84 55.1065 10.84C55.5785 10.84 55.9625 10.98 56.2585 11.26C56.5625 11.532 56.7185 11.888 56.7265 12.328V16H55.5985V12.724C55.5905 12.452 55.5105 12.232 55.3585 12.064C55.2145 11.888 54.9865 11.8 54.6745 11.8C54.3865 11.8 54.1265 11.88 53.8945 12.04C53.6625 12.2 53.4785 12.42 53.3425 12.7C53.2145 12.98 53.1505 13.304 53.1505 13.672V16H52.0345V11.032H53.0305ZM60.9713 16.12C60.4033 16.12 59.9153 16.008 59.5073 15.784C59.0993 15.552 58.7833 15.24 58.5593 14.848C58.3433 14.448 58.2353 13.992 58.2353 13.48C58.2353 12.992 58.3593 12.548 58.6073 12.148C58.8553 11.748 59.1873 11.428 59.6033 11.188C60.0193 10.948 60.4833 10.828 60.9953 10.828C61.6513 10.828 62.1953 11.02 62.6273 11.404C63.0593 11.788 63.3513 12.316 63.5033 12.988L59.4113 14.428L59.1473 13.768L62.5073 12.544L62.2673 12.7C62.1713 12.436 62.0113 12.208 61.7873 12.016C61.5633 11.816 61.2713 11.716 60.9113 11.716C60.6073 11.716 60.3353 11.792 60.0953 11.944C59.8553 12.088 59.6673 12.288 59.5313 12.544C59.3953 12.8 59.3273 13.092 59.3273 13.42C59.3273 13.764 59.3993 14.068 59.5433 14.332C59.6873 14.588 59.8833 14.792 60.1313 14.944C60.3873 15.088 60.6753 15.16 60.9953 15.16C61.2113 15.16 61.4193 15.12 61.6193 15.04C61.8273 14.96 62.0193 14.856 62.1953 14.728L62.7113 15.556C62.4633 15.724 62.1833 15.86 61.8713 15.964C61.5673 16.068 61.2673 16.12 60.9713 16.12ZM65.8977 11.032L66.0057 12.472L65.9457 12.28C66.0737 11.976 66.2577 11.72 66.4977 11.512C66.7457 11.296 67.0017 11.132 67.2657 11.02C67.5377 10.9 67.7737 10.84 67.9737 10.84L67.9137 11.944C67.5377 11.92 67.2057 11.992 66.9177 12.16C66.6377 12.328 66.4137 12.552 66.2457 12.832C66.0857 13.112 66.0057 13.412 66.0057 13.732V16H64.9017V11.032H65.8977Z" fill="black"/>
</svg>
