<svg width="32" height="32" viewBox="0 0 32 32" fill="none" xmlns="http://www.w3.org/2000/svg">
<g clip-path="url(#clip0_7_944)">
<path fill-rule="evenodd" clip-rule="evenodd" d="M21.2259 9.00519C20.9991 9.00817 20.7645 9.01125 20.5172 9.01125H7.31714C6.76485 9.01125 6.31714 8.56354 6.31714 8.01125C6.31714 7.45897 6.76485 7.01125 7.31714 7.01125H20.5172C20.7075 7.01125 20.9097 7.00864 21.1193 7.00593C21.6521 6.99905 22.2326 6.99156 22.7864 7.02478C23.0476 7.04046 23.3072 7.07334 23.5278 7.10128C23.5682 7.10639 23.6073 7.11134 23.6448 7.11599C23.9037 7.14805 24.1157 7.16969 24.3196 7.16969C24.7525 7.16969 25.1077 7.21636 25.476 7.27675C25.5308 7.28573 25.5812 7.29564 25.619 7.30319C25.6284 7.30507 25.6369 7.30677 25.6447 7.30833C25.6722 7.31385 25.6911 7.31763 25.7111 7.3213C25.7373 7.3261 25.7502 7.32769 25.7542 7.32814C26.3038 7.3312 26.7485 7.77773 26.7485 8.32812C26.7485 8.88041 26.3008 9.32812 25.7485 9.32812C25.5857 9.32812 25.4457 9.30598 25.3503 9.28849C25.2777 9.27517 25.2481 9.26887 25.226 9.26418C25.2049 9.25969 25.1908 9.25668 25.1525 9.2504C24.8312 9.19773 24.5968 9.16969 24.3196 9.16969C23.9838 9.16969 23.6676 9.13408 23.3991 9.10084C23.3513 9.09493 23.3054 9.08914 23.261 9.08355C23.0403 9.05575 22.8562 9.03257 22.6666 9.02119C22.189 8.99254 21.7265 8.99861 21.2259 9.00519Z" fill="black"/>
<path fill-rule="evenodd" clip-rule="evenodd" d="M10.8539 14.3343C9.56584 14.32 8.32173 14.3062 7.07129 14.3955C6.52041 14.4349 6.04193 14.0202 6.00258 13.4693C5.96324 12.9184 6.37791 12.4399 6.9288 12.4006C8.26811 12.3049 9.63587 12.3202 10.9509 12.3348C11.4209 12.3401 11.8842 12.3452 12.337 12.3452H25.3258C25.878 12.3452 26.3258 12.793 26.3258 13.3452C26.3258 13.8975 25.878 14.3452 25.3258 14.3452H12.337C11.8345 14.3452 11.3411 14.3398 10.8539 14.3343Z" fill="black"/>
<path fill-rule="evenodd" clip-rule="evenodd" d="M22.4397 19.3605C21.6287 19.3579 20.8327 19.3554 20.0325 19.3738C16.2218 19.4616 12.4044 19.5208 8.58738 19.5208C8.55021 19.5208 8.49953 19.5239 8.3925 19.5303L8.38303 19.5309C8.28564 19.5368 8.15194 19.5446 8.01245 19.5438C7.78886 19.5426 7.29117 19.527 6.8754 19.2152C6.43357 18.8838 6.34403 18.257 6.6754 17.8152C6.97954 17.4097 7.53256 17.3009 7.963 17.542C7.97922 17.543 7.99919 17.5437 8.02347 17.5438C8.09011 17.5442 8.16479 17.5404 8.2624 17.5346C8.27123 17.534 8.28062 17.5334 8.29049 17.5328C8.37168 17.5278 8.48535 17.5208 8.58738 17.5208C12.3842 17.5208 16.1853 17.462 19.9864 17.3744C20.8151 17.3553 21.6494 17.3579 22.468 17.3606C22.7499 17.3615 23.0299 17.3624 23.3072 17.3624H25.4843C26.0365 17.3624 26.4843 17.8101 26.4843 18.3624C26.4843 18.9147 26.0365 19.3624 25.4843 19.3624H23.3072C23.0156 19.3624 22.7267 19.3614 22.4397 19.3605Z" fill="black"/>
<path fill-rule="evenodd" clip-rule="evenodd" d="M7.16211 23.5908C7.16211 23.0385 7.60982 22.5908 8.16211 22.5908C8.5036 22.5908 8.82262 22.6434 9.07377 22.6886C9.12952 22.6986 9.18146 22.7082 9.23045 22.7172C9.4246 22.7529 9.57221 22.7801 9.72531 22.7949C10.7474 22.8937 11.8146 22.8826 12.8969 22.8437C13.3553 22.8272 13.8092 22.7904 14.2889 22.7515C14.3714 22.7448 14.4547 22.738 14.5389 22.7313C15.1017 22.6863 15.6969 22.6436 16.3069 22.6436H18.9123C19.9808 22.6436 21.0561 22.6305 22.1372 22.6172L22.1441 22.6172C23.2208 22.604 24.3034 22.5908 25.3788 22.5908C25.9311 22.5908 26.3788 23.0385 26.3788 23.5908C26.3788 24.143 25.9311 24.5908 25.3788 24.5908C24.3157 24.5908 23.2433 24.6039 22.1624 24.6171C21.0834 24.6303 19.9951 24.6436 18.9123 24.6436H16.3069C15.7831 24.6436 15.2565 24.6803 14.6983 24.7249C14.6191 24.7312 14.5391 24.7377 14.4584 24.7443C13.9805 24.7832 13.4761 24.8242 12.9687 24.8424C11.8642 24.8821 10.6903 24.8975 9.5329 24.7856C9.28537 24.7617 9.03361 24.715 8.83435 24.6781C8.79359 24.6705 8.75503 24.6634 8.71915 24.6569C8.48232 24.6142 8.31279 24.5908 8.16211 24.5908C7.60982 24.5908 7.16211 24.143 7.16211 23.5908Z" fill="black"/>
<path fill-rule="evenodd" clip-rule="evenodd" d="M15.9905 31.9905C14.8082 32.0112 13.4603 32.0348 12.176 31.6998C11.5722 31.5424 10.9777 31.4275 10.3493 31.3061C10.0411 31.2466 9.7247 31.1854 9.3951 31.1169C9.10966 31.0576 8.80269 30.981 8.52112 30.9107C8.37677 30.8747 8.23909 30.8403 8.11442 30.8108C7.71378 30.716 7.35625 30.6468 7.00965 30.6243C5.86751 30.5503 4.71997 30.5504 3.53235 30.5504L3.46608 30.5504C3.44805 30.5504 3.42911 30.5505 3.40934 30.5506C2.99545 30.5523 2.21474 30.5557 1.63022 29.8417C1.32302 29.4665 1.15844 29.0138 1.06278 28.7507C1.04695 28.7071 1.03301 28.6688 1.02062 28.6368C0.83882 28.168 0.769394 27.7323 0.72567 27.3568C0.710094 27.2231 0.698244 27.1054 0.687241 26.9961C0.664709 26.7724 0.645725 26.584 0.605581 26.3647C0.498116 25.7776 0.509888 25.1474 0.519169 24.6507C0.521549 24.5233 0.523766 24.4047 0.523766 24.2978C0.523766 23.9427 0.496094 23.5837 0.463715 23.1816L0.460367 23.1401C0.429819 22.7613 0.395977 22.3416 0.392849 21.9138C0.387693 21.2086 0.358477 20.5048 0.328423 19.7808L0.324041 19.6752C0.292759 18.9202 0.261879 18.1438 0.261879 17.3589C0.261879 16.8214 0.276537 16.3077 0.290754 15.8094C0.320532 14.7657 0.348381 13.7896 0.235624 12.804C0.197222 12.4684 0.190168 12.1367 0.184212 11.8567C0.183819 11.8382 0.183432 11.8199 0.183041 11.8019C0.176338 11.494 0.16851 11.2428 0.136209 11.0024C0.0421581 10.3025 -7.62939e-06 9.64766 -7.62939e-06 8.93757C-7.62939e-06 8.57359 0.0173607 8.21461 0.0333996 7.88307L0.0338974 7.87279C0.0504608 7.53038 0.0654659 7.21634 0.0654659 6.90566C0.0654659 6.79671 0.0621929 6.68197 0.0580025 6.55122L0.0567074 6.51105C0.0529537 6.3951 0.04879 6.2664 0.0472946 6.13744C0.0439663 5.85065 0.0523815 5.50964 0.120123 5.16028C0.168945 4.90848 0.178709 4.62187 0.171534 4.27025C0.169622 4.17661 0.166069 4.07074 0.162291 3.95812C0.153496 3.69604 0.143473 3.39737 0.150045 3.13091C0.170368 2.30703 0.346727 1.2653 1.36922 0.530167C1.64801 0.329729 1.99496 0.239359 2.21528 0.190916C2.47511 0.133785 2.76133 0.0952473 3.02794 0.068449C3.56292 0.014679 4.10409 -7.62939e-06 4.37905 -7.62939e-06H16.2039C18.1935 -7.62939e-06 20.146 0.047472 22.1762 0.353254C22.5 0.402035 22.8293 0.449455 23.1626 0.497446C24.722 0.721994 26.3681 0.959024 27.9483 1.40621C28.0616 1.43828 28.2126 1.46773 28.4392 1.51192C28.4643 1.51679 28.4902 1.52185 28.5171 1.52711C28.7631 1.57519 29.0678 1.6366 29.3678 1.72459C29.8788 1.87447 30.8038 2.21539 31.1293 3.14315C31.2957 3.61743 31.337 4.08955 31.3453 4.49159C31.3495 4.69404 31.3453 4.89223 31.3408 5.07029C31.3401 5.09898 31.3393 5.12702 31.3386 5.1545C31.3347 5.30421 31.3312 5.43723 31.3312 5.56833V8.3121C31.3312 9.0414 31.3599 9.77295 31.3912 10.5249C31.3929 10.5678 31.3947 10.6108 31.3965 10.6539C31.4259 11.359 31.4561 12.0832 31.4621 12.81C31.4659 13.2681 31.5075 13.6585 31.5544 14.0987C31.584 14.3757 31.6156 14.6725 31.6413 15.0181C31.6747 15.469 31.6756 15.917 31.6764 16.3241C31.6765 16.3562 31.6765 16.388 31.6766 16.4195C31.6777 16.8652 31.6818 17.2657 31.7194 17.6571C32.0252 20.8356 32.0089 24.0261 31.993 27.162C31.9894 27.8574 31.9859 28.5501 31.9859 29.2394C31.9859 29.4373 31.9284 29.6218 31.8292 29.7771C31.8102 29.8585 31.7806 29.9387 31.7399 30.0161C31.5468 30.3831 31.2183 30.53 31.0848 30.5823C30.923 30.6456 30.7633 30.676 30.6604 30.6928C30.5696 30.7076 30.4744 30.7189 30.4106 30.7265C30.3993 30.7278 30.3891 30.729 30.38 30.7301C30.3334 30.7357 30.3118 30.739 30.3061 30.7398C30.1015 30.7928 29.8872 30.8325 29.7177 30.8639C29.6734 30.8721 29.6322 30.8798 29.595 30.8869C29.3866 30.9271 29.2404 30.9624 29.1149 31.0112C28.8091 31.13 28.5077 31.1657 28.3013 31.1852C28.2137 31.1935 28.1445 31.1991 28.086 31.2038C27.9757 31.2127 27.9039 31.2186 27.8201 31.2333C27.691 31.256 27.5726 31.2814 27.4357 31.3109C27.3806 31.3227 27.3226 31.3352 27.2597 31.3484C27.054 31.3915 26.8166 31.4375 26.5563 31.4643C26.3769 31.4828 26.184 31.5052 25.9838 31.5285C25.5821 31.5751 25.1511 31.6252 24.7411 31.6538C24.3999 31.6776 24.0485 31.6741 23.7463 31.6711C23.6697 31.6703 23.5963 31.6696 23.527 31.6693C23.1578 31.668 22.8551 31.6784 22.5746 31.7297C20.9713 32.0231 19.3354 32.0052 17.8067 31.9885C17.4591 31.9847 17.1171 31.981 16.7822 31.981C16.5291 31.981 16.2643 31.9857 15.9905 31.9905ZM29.9864 28.7655C29.9875 28.2131 29.9902 27.6629 29.9929 27.1147C30.0085 23.9842 30.0238 20.9167 29.7286 17.8486C29.6809 17.3527 29.6777 16.8658 29.6766 16.4246C29.6766 16.3976 29.6765 16.3708 29.6764 16.3441C29.6755 15.9216 29.6746 15.5421 29.6467 15.166C29.6309 14.9525 29.606 14.712 29.5795 14.4566C29.5262 13.9418 29.4666 13.3659 29.4622 12.8265C29.4565 12.1343 29.4276 11.4412 29.3979 10.7283C29.3962 10.6882 29.3946 10.6481 29.3929 10.6079C29.3618 9.85879 29.3312 9.0884 29.3312 8.3121V5.56833C29.3312 5.40858 29.3355 5.24536 29.3394 5.09646C29.3401 5.07027 29.3408 5.04453 29.3414 5.01933C29.3459 4.84385 29.3489 4.68552 29.3457 4.53293C29.3397 4.24236 29.3114 4.0195 29.2529 3.8376C29.2321 3.82103 29.1318 3.7396 28.805 3.64376C28.6024 3.58437 28.3787 3.53791 28.1334 3.48996C28.107 3.4848 28.0797 3.47951 28.0517 3.47409C27.8462 3.43426 27.604 3.38733 27.4037 3.33063C25.9637 2.92313 24.4772 2.70846 22.9232 2.48404C22.5783 2.43423 22.2301 2.38393 21.8783 2.33095C20.0004 2.04811 18.1691 1.99999 16.2039 1.99999H4.37905C4.15337 1.99999 3.68106 2.01288 3.22795 2.05842C3.00051 2.08128 2.79903 2.11034 2.64477 2.14425C2.56436 2.16194 2.51843 2.17644 2.49788 2.18328C2.26338 2.36859 2.16328 2.61898 2.14944 3.18023C2.14428 3.38949 2.15102 3.58477 2.15885 3.81116C2.16324 3.93814 2.16796 4.07492 2.17112 4.22945C2.17907 4.61938 2.17361 5.07651 2.08356 5.54098C2.05416 5.69257 2.04439 5.87552 2.04716 6.11423C2.0484 6.22127 2.05187 6.32886 2.05571 6.44784L2.05698 6.48717C2.06115 6.61725 2.06547 6.76105 2.06547 6.90566C2.06547 7.2687 2.04812 7.6271 2.0321 7.95835L2.03156 7.96943C2.015 8.31176 1.99999 8.62619 1.99999 8.93757C1.99999 9.56207 2.03666 10.1278 2.11839 10.7361C2.16759 11.1022 2.17605 11.4589 2.18257 11.7584L2.18314 11.7847C2.18974 12.0891 2.1951 12.3358 2.22266 12.5767C2.352 13.7072 2.31816 14.923 2.28715 16.0369C2.27427 16.4996 2.26188 16.9448 2.26188 17.3589C2.26188 18.0968 2.29091 18.8343 2.32233 19.5924L2.32712 19.708C2.35685 20.4236 2.38738 21.1587 2.3928 21.8992C2.39538 22.2527 2.42404 22.6086 2.45628 23.0089L2.45726 23.0211C2.48889 23.4138 2.52377 23.8503 2.52377 24.2978C2.52377 24.4855 2.52095 24.6565 2.51834 24.8155C2.5108 25.2742 2.5049 25.6331 2.57289 26.0045C2.62822 26.3068 2.66021 26.6226 2.68616 26.8788C2.69535 26.9696 2.70379 27.0529 2.71225 27.1255C2.74828 27.4349 2.79338 27.6766 2.88532 27.9137C2.92145 28.0069 2.95105 28.085 2.97621 28.1514C3.0577 28.3665 3.09266 28.4588 3.15232 28.5417C3.16624 28.5432 3.18409 28.5448 3.20661 28.5461C3.27254 28.5499 3.34973 28.5504 3.46608 28.5504L3.55883 28.5504C4.72727 28.5503 5.93124 28.5503 7.13893 28.6285C7.65289 28.6618 8.13832 28.7612 8.5751 28.8646C8.75335 28.9068 8.91448 28.9472 9.06805 28.9856C9.31903 29.0485 9.5498 29.1063 9.80205 29.1588C10.0725 29.215 10.3574 29.2701 10.65 29.3267C11.3124 29.4549 12.0147 29.5909 12.6807 29.7646C13.674 30.0236 14.6759 30.0083 15.8317 29.9905C16.1369 29.9859 16.4529 29.981 16.7822 29.981C17.165 29.981 17.5393 29.9848 17.9067 29.9885C19.4212 30.0037 20.8189 30.0177 22.2146 29.7624C22.6861 29.6761 23.1426 29.668 23.5341 29.6694C23.6311 29.6697 23.7227 29.6705 23.8104 29.6714C24.1007 29.674 24.3478 29.6763 24.602 29.6586C24.9704 29.6329 25.3147 29.5927 25.6836 29.5496C25.8951 29.5249 26.1146 29.4992 26.3513 29.4748C26.5068 29.4588 26.6635 29.4299 26.8492 29.3909C26.8911 29.3822 26.9363 29.3724 26.984 29.3622C27.1322 29.3303 27.3044 29.2933 27.4736 29.2635C27.6558 29.2315 27.8685 29.2143 28.012 29.2026C28.0517 29.1994 28.0861 29.1966 28.1131 29.1941C28.2842 29.1779 28.3553 29.1606 28.3903 29.147C28.6912 29.0301 28.9835 28.9679 29.2169 28.923C29.2831 28.9102 29.3431 28.8991 29.3986 28.8887C29.5594 28.8588 29.6831 28.8358 29.8141 28.8012C29.8794 28.784 29.9408 28.7728 29.9864 28.7655Z" fill="black"/>
</g>
<defs>
<clipPath id="clip0_7_944">
<rect width="32" height="32" fill="white"/>
</clipPath>
</defs>
</svg>
