<svg width="32" height="32" viewBox="0 0 32 32" fill="none" xmlns="http://www.w3.org/2000/svg">
<rect x="2" y="2" width="28" height="28" rx="2" stroke="black" stroke-width="2"/>
<path fill-rule="evenodd" clip-rule="evenodd" d="M10.9467 10.4469C9.73748 11.6562 9 13.3941 9 15.5002C9 19.6424 12.3579 23.0002 16.5 23.0002C19.1829 23.0002 21.5377 21.5922 22.8645 19.4701C23.1573 19.0018 23.7743 18.8595 24.2426 19.1523C24.7109 19.4451 24.8531 20.0621 24.5604 20.5304C22.8834 23.2126 19.9008 25.0002 16.5 25.0002C11.2533 25.0002 7 20.7469 7 15.5002C7 12.912 7.91531 10.6499 9.53249 9.03273C11.1497 7.41555 13.4118 6.50024 16 6.50024C17.8206 6.50024 19.3097 6.75484 20.4922 7.54319C21.6928 8.34363 22.4153 9.58394 22.9487 11.184C23.1233 11.708 22.8402 12.2743 22.3162 12.4489C21.7923 12.6236 21.226 12.3404 21.0513 11.8165C20.5847 10.4165 20.0572 9.65686 19.3828 9.20729C18.6903 8.74565 17.6794 8.50024 16 8.50024C13.8938 8.50024 12.1559 9.23773 10.9467 10.4469Z" fill="black"/>
<path fill-rule="evenodd" clip-rule="evenodd" d="M24.2425 6.03009C24.7783 6.16404 25.1041 6.70698 24.9701 7.24277L23.2429 14.1517L16.8211 12.9841C16.2777 12.8853 15.9173 12.3647 16.0161 11.8214C16.1149 11.278 16.6355 10.9176 17.1789 11.0164L21.7571 11.8488L23.0298 6.7577C23.1638 6.22191 23.7067 5.89615 24.2425 6.03009Z" fill="black"/>
</svg>
