<svg width="75" height="25" viewBox="0 0 75 25" fill="none" xmlns="http://www.w3.org/2000/svg">
<rect x="1" y="1" width="73" height="23" rx="4" stroke="black" stroke-width="2"/>
<path d="M26.158 6.878C26.8953 6.878 27.5253 7.004 28.048 7.256C28.5707 7.49867 28.972 7.85333 29.252 8.32C29.5413 8.78667 29.686 9.35133 29.686 10.014C29.686 10.4153 29.6253 10.812 29.504 11.204C29.3827 11.5867 29.1867 11.9367 28.916 12.254C28.6547 12.562 28.3093 12.8093 27.88 12.996C27.4507 13.1827 26.928 13.276 26.312 13.276H24.814V17H23.456V6.878H26.158ZM26.298 11.974C26.6993 11.974 27.0307 11.9087 27.292 11.778C27.5533 11.6473 27.7587 11.484 27.908 11.288C28.0573 11.0827 28.1647 10.868 28.23 10.644C28.2953 10.42 28.328 10.2193 28.328 10.042C28.328 9.83667 28.2953 9.62667 28.23 9.412C28.1647 9.188 28.0527 8.98733 27.894 8.81C27.7447 8.62333 27.544 8.474 27.292 8.362C27.0493 8.24067 26.746 8.18 26.382 8.18H24.814V11.974H26.298ZM31.4602 6.164H32.7622V17H31.4602V6.164ZM37.4229 17.14C36.8815 17.14 36.3869 17.0233 35.9389 16.79C35.5002 16.5567 35.1502 16.216 34.8889 15.768C34.6369 15.3107 34.5109 14.7553 34.5109 14.102C34.5109 13.458 34.6462 12.9027 34.9169 12.436C35.1875 11.96 35.5469 11.596 35.9949 11.344C36.4522 11.092 36.9515 10.966 37.4929 10.966C38.0342 10.966 38.4915 11.092 38.8649 11.344C39.2382 11.5867 39.5229 11.876 39.7189 12.212L39.6349 12.436L39.7609 11.204H40.9649V17H39.6629V15.488L39.8029 15.824C39.7655 15.9173 39.6815 16.0387 39.5509 16.188C39.4295 16.328 39.2615 16.4727 39.0469 16.622C38.8415 16.7713 38.6035 16.8973 38.3329 17C38.0622 17.0933 37.7589 17.14 37.4229 17.14ZM37.7729 16.062C38.0995 16.062 38.3935 16.0013 38.6549 15.88C38.9162 15.7587 39.1309 15.5907 39.2989 15.376C39.4762 15.152 39.5975 14.886 39.6629 14.578V13.444C39.5882 13.164 39.4575 12.9213 39.2709 12.716C39.0842 12.5013 38.8602 12.338 38.5989 12.226C38.3375 12.1047 38.0482 12.044 37.7309 12.044C37.3855 12.044 37.0682 12.128 36.7789 12.296C36.4895 12.464 36.2562 12.6973 36.0789 12.996C35.9109 13.2947 35.8269 13.6447 35.8269 14.046C35.8269 14.4193 35.9155 14.76 36.0929 15.068C36.2702 15.376 36.5082 15.6187 36.8069 15.796C37.1055 15.9733 37.4275 16.062 37.7729 16.062ZM43.218 11.204H44.52V17H43.218V11.204ZM43.12 9.104C43.12 8.89867 43.1993 8.726 43.358 8.586C43.526 8.446 43.708 8.376 43.904 8.376C44.1 8.376 44.2727 8.446 44.422 8.586C44.5807 8.726 44.66 8.89867 44.66 9.104C44.66 9.31867 44.5807 9.496 44.422 9.636C44.2727 9.76667 44.1 9.832 43.904 9.832C43.708 9.832 43.526 9.762 43.358 9.622C43.1993 9.482 43.12 9.30933 43.12 9.104ZM47.9347 11.204L48.0467 12.618L47.9907 12.394C48.1773 11.9647 48.4807 11.624 48.9007 11.372C49.3207 11.1107 49.806 10.98 50.3567 10.98C50.9073 10.98 51.3553 11.1433 51.7007 11.47C52.0553 11.7873 52.2373 12.2027 52.2467 12.716V17H50.9307V13.178C50.9213 12.8607 50.828 12.604 50.6507 12.408C50.4827 12.2027 50.2167 12.1 49.8527 12.1C49.5167 12.1 49.2133 12.1933 48.9427 12.38C48.672 12.5667 48.4573 12.8233 48.2987 13.15C48.1493 13.4767 48.0747 13.8547 48.0747 14.284V17H46.7727V11.204H47.9347Z" fill="black"/>
</svg>
