<svg width="112" height="27" viewBox="0 0 112 27" fill="none" xmlns="http://www.w3.org/2000/svg">
<path d="M1.41216 13.3386C1.41216 9.92613 0.273784 5.94644 1.78082 2.5C1.9584 2.3431 4.3667 2.15411 4.87833 2.15411C6.80807 2.15411 8.83479 1.80453 10.6553 1.55494C16.9048 0.698153 24.0937 1.08893 30.5481 1.08893H99.6707C110.704 1.08893 110.704 1.91202 110.704 2.61378C110.704 3.50952 110.325 8.9977 110.704 9.87578C110.704 11.4896 110.304 12.9591 110.704 14.3137C111.058 15.5123 111.617 26.417 108.807 25.9877H90.5416C70.8518 25.9877 64.3497 25.8545 44.664 25.8545C33.1372 25.8545 21.6127 25.8009 10.086 25.7214C5.86233 25.6922 1.87784 26.2486 1.41216 24.5C1.10002 23.328 1.41216 19 1.41216 19C1.78082 17 1.41216 15.2922 1.41216 13.3386Z" fill="#FF8686" stroke="black" stroke-width="2" stroke-linecap="round"/>
<path fill-rule="evenodd" clip-rule="evenodd" d="M98 13L101.728 16.4483L105.456 13H98Z" fill="#505050"/>
</svg>
