<svg width="112" height="27" viewBox="0 0 112 27" fill="none" xmlns="http://www.w3.org/2000/svg">
<path d="M1.41216 13.3386C1.41216 9.92613 0.273784 5.94644 1.78082 2.5C1.9584 2.3431 4.3667 2.15411 4.87833 2.15411C6.80807 2.15411 8.83479 1.80453 10.6553 1.55494C16.9048 0.698153 24.0937 1.08893 30.5481 1.08893H99.6707C110.704 1.08893 110.704 1.91202 110.704 2.61378C110.704 3.50952 110.325 8.9977 110.704 9.87578C110.704 11.4896 110.304 12.9591 110.704 14.3137C111.058 15.5123 111.617 26.417 108.807 25.9877H90.5416C70.8518 25.9877 64.3497 25.8545 44.664 25.8545C33.1372 25.8545 21.6127 25.8009 10.086 25.7214C5.86233 25.6922 1.87784 26.2486 1.41216 24.5C1.10002 23.328 1.41216 19 1.41216 19C1.78082 17 1.41216 15.2922 1.41216 13.3386Z" fill="#FFD686" stroke="black" stroke-width="2" stroke-linecap="round"/>
<path fill-rule="evenodd" clip-rule="evenodd" d="M98 13L101.728 16.4483L105.456 13H98Z" fill="#505050"/>
<path d="M23.4853 17.256C23.3653 17.36 23.1973 17.464 22.9813 17.568C22.7653 17.664 22.5253 17.752 22.2613 17.832C22.0053 17.912 21.7373 17.976 21.4573 18.024C21.1853 18.072 20.9293 18.096 20.6893 18.096C19.9933 18.096 19.3653 17.988 18.8053 17.772C18.2533 17.556 17.7773 17.256 17.3773 16.872C16.9853 16.488 16.6813 16.036 16.4653 15.516C16.2573 14.996 16.1533 14.432 16.1533 13.824C16.1533 13.104 16.2693 12.46 16.5013 11.892C16.7413 11.316 17.0653 10.832 17.4733 10.44C17.8893 10.04 18.3653 9.74 18.9013 9.54C19.4373 9.332 20.0053 9.228 20.6053 9.228C21.1093 9.228 21.5773 9.288 22.0093 9.408C22.4413 9.528 22.8213 9.68 23.1493 9.864L22.7533 10.932C22.5933 10.836 22.3933 10.748 22.1533 10.668C21.9213 10.588 21.6813 10.524 21.4333 10.476C21.1853 10.42 20.9533 10.392 20.7373 10.392C20.2253 10.392 19.7613 10.472 19.3453 10.632C18.9293 10.784 18.5733 11.008 18.2773 11.304C17.9813 11.592 17.7533 11.944 17.5933 12.36C17.4333 12.768 17.3533 13.228 17.3533 13.74C17.3533 14.212 17.4333 14.644 17.5933 15.036C17.7533 15.428 17.9813 15.768 18.2773 16.056C18.5733 16.336 18.9253 16.556 19.3333 16.716C19.7493 16.868 20.2053 16.944 20.7013 16.944C20.9973 16.944 21.2893 16.916 21.5773 16.86C21.8653 16.796 22.1133 16.708 22.3213 16.596V14.868H20.5933V13.752H23.4853V17.256ZM28.021 9.324C28.653 9.324 29.193 9.432 29.641 9.648C30.089 9.856 30.433 10.16 30.673 10.56C30.921 10.96 31.045 11.444 31.045 12.012C31.045 12.356 30.993 12.696 30.889 13.032C30.785 13.36 30.617 13.66 30.385 13.932C30.161 14.196 29.865 14.408 29.497 14.568C29.129 14.728 28.681 14.808 28.153 14.808H26.869V18H25.705V9.324H28.021ZM28.141 13.692C28.485 13.692 28.769 13.636 28.993 13.524C29.217 13.412 29.393 13.272 29.521 13.104C29.649 12.928 29.741 12.744 29.797 12.552C29.853 12.36 29.881 12.188 29.881 12.036C29.881 11.86 29.853 11.68 29.797 11.496C29.741 11.304 29.645 11.132 29.509 10.98C29.381 10.82 29.209 10.692 28.993 10.596C28.785 10.492 28.525 10.44 28.213 10.44H26.869V13.692H28.141ZM32.2058 9.324H37.9658V10.44H35.6378V18H34.4738V10.44H32.2058V9.324ZM42.5193 16.092V16.08L47.3313 10.008H47.3433V15.204H48.3633V16.092H47.3433V18H46.1793V16.092H42.5193ZM46.2513 12.636L44.2233 15.264L44.0433 15.204H46.1793V12.42L46.2513 12.636ZM53.194 9.324H58.954V10.44H56.626V18H55.462V10.44H53.194V9.324ZM61.3838 18.192C60.9358 18.192 60.5638 18.056 60.2678 17.784C59.9798 17.504 59.8278 17.144 59.8118 16.704V13.032H60.9278V16.308C60.9438 16.58 61.0198 16.8 61.1558 16.968C61.2998 17.136 61.5238 17.224 61.8278 17.232C62.1078 17.232 62.3558 17.152 62.5718 16.992C62.7958 16.824 62.9758 16.6 63.1118 16.32C63.2478 16.032 63.3158 15.708 63.3158 15.348V13.032H64.4318V18H63.4118L63.3158 16.776L63.3758 16.992C63.2798 17.224 63.1318 17.432 62.9318 17.616C62.7398 17.792 62.5118 17.932 62.2478 18.036C61.9838 18.14 61.6958 18.192 61.3838 18.192ZM67.3586 13.032L67.4666 14.472L67.4066 14.28C67.5346 13.976 67.7186 13.72 67.9586 13.512C68.2066 13.296 68.4626 13.132 68.7266 13.02C68.9986 12.9 69.2346 12.84 69.4346 12.84L69.3746 13.944C68.9986 13.92 68.6666 13.992 68.3786 14.16C68.0986 14.328 67.8746 14.552 67.7066 14.832C67.5466 15.112 67.4666 15.412 67.4666 15.732V18H66.3626V13.032H67.3586ZM73.8983 18.12C73.4423 18.12 73.0383 18.02 72.6863 17.82C72.3423 17.62 72.0663 17.368 71.8583 17.064L71.9903 16.716V18H70.8743V8.712H71.9783V14.172L71.9423 13.752C72.1423 13.48 72.4263 13.26 72.7943 13.092C73.1703 12.916 73.5863 12.828 74.0423 12.828C74.4903 12.828 74.8983 12.936 75.2663 13.152C75.6343 13.368 75.9263 13.672 76.1423 14.064C76.3663 14.448 76.4783 14.908 76.4783 15.444C76.4783 16.004 76.3583 16.484 76.1183 16.884C75.8863 17.284 75.5743 17.592 75.1823 17.808C74.7903 18.016 74.3623 18.12 73.8983 18.12ZM73.6703 17.172C73.9903 17.172 74.2783 17.096 74.5343 16.944C74.7903 16.792 74.9903 16.588 75.1343 16.332C75.2783 16.068 75.3503 15.768 75.3503 15.432C75.3503 15.112 75.2743 14.824 75.1223 14.568C74.9783 14.304 74.7783 14.096 74.5223 13.944C74.2743 13.792 73.9903 13.716 73.6703 13.716C73.3983 13.716 73.1463 13.768 72.9143 13.872C72.6823 13.976 72.4863 14.12 72.3263 14.304C72.1663 14.48 72.0543 14.688 71.9903 14.928V15.924C72.0543 16.164 72.1623 16.38 72.3143 16.572C72.4663 16.756 72.6583 16.904 72.8903 17.016C73.1223 17.12 73.3823 17.172 73.6703 17.172ZM77.5556 15.468C77.5556 14.972 77.6716 14.524 77.9036 14.124C78.1436 13.724 78.4716 13.408 78.8876 13.176C79.3036 12.944 79.7756 12.828 80.3036 12.828C80.8476 12.828 81.3236 12.944 81.7316 13.176C82.1396 13.408 82.4556 13.724 82.6796 14.124C82.9036 14.524 83.0156 14.972 83.0156 15.468C83.0156 15.964 82.9036 16.416 82.6796 16.824C82.4556 17.224 82.1356 17.54 81.7196 17.772C81.3116 18.004 80.8356 18.12 80.2916 18.12C79.7636 18.12 79.2916 18.012 78.8756 17.796C78.4676 17.572 78.1436 17.264 77.9036 16.872C77.6716 16.472 77.5556 16.004 77.5556 15.468ZM78.6716 15.48C78.6716 15.8 78.7436 16.092 78.8876 16.356C79.0316 16.612 79.2236 16.816 79.4636 16.968C79.7116 17.12 79.9836 17.196 80.2796 17.196C80.5916 17.196 80.8676 17.12 81.1076 16.968C81.3556 16.816 81.5476 16.612 81.6836 16.356C81.8196 16.092 81.8876 15.8 81.8876 15.48C81.8876 15.16 81.8196 14.872 81.6836 14.616C81.5476 14.352 81.3556 14.144 81.1076 13.992C80.8676 13.832 80.5916 13.752 80.2796 13.752C79.9756 13.752 79.6996 13.832 79.4516 13.992C79.2116 14.152 79.0196 14.364 78.8756 14.628C78.7396 14.884 78.6716 15.168 78.6716 15.48Z" fill="black"/>
</svg>
