<svg width="112" height="27" viewBox="0 0 112 27" fill="none" xmlns="http://www.w3.org/2000/svg">
<path d="M1.41216 13.3386C1.41216 9.92613 0.273784 5.94644 1.78082 2.5C1.9584 2.3431 4.3667 2.15411 4.87833 2.15411C6.80807 2.15411 8.83479 1.80453 10.6553 1.55494C16.9048 0.698153 24.0937 1.08893 30.5481 1.08893H99.6707C110.704 1.08893 110.704 1.91202 110.704 2.61378C110.704 3.50952 110.325 8.9977 110.704 9.87578C110.704 11.4896 110.304 12.9591 110.704 14.3137C111.058 15.5123 111.617 26.417 108.807 25.9877H90.5416C70.8518 25.9877 64.3497 25.8545 44.664 25.8545C33.1372 25.8545 21.6127 25.8009 10.086 25.7214C5.86233 25.6922 1.87784 26.2486 1.41216 24.5C1.10002 23.328 1.41216 19 1.41216 19C1.78082 17 1.41216 15.2922 1.41216 13.3386Z" fill="#C1C1C1" stroke="black" stroke-width="2" stroke-linecap="round"/>
<path fill-rule="evenodd" clip-rule="evenodd" d="M98 13L101.728 16.4483L105.456 13H98Z" fill="#505050"/>
<path d="M19.4072 17.256C19.2872 17.36 19.1192 17.464 18.9032 17.568C18.6872 17.664 18.4472 17.752 18.1832 17.832C17.9272 17.912 17.6592 17.976 17.3792 18.024C17.1072 18.072 16.8512 18.096 16.6112 18.096C15.9152 18.096 15.2872 17.988 14.7272 17.772C14.1752 17.556 13.6992 17.256 13.2992 16.872C12.9072 16.488 12.6032 16.036 12.3872 15.516C12.1792 14.996 12.0752 14.432 12.0752 13.824C12.0752 13.104 12.1912 12.46 12.4232 11.892C12.6632 11.316 12.9872 10.832 13.3952 10.44C13.8112 10.04 14.2872 9.74 14.8232 9.54C15.3592 9.332 15.9272 9.228 16.5272 9.228C17.0312 9.228 17.4992 9.288 17.9312 9.408C18.3632 9.528 18.7432 9.68 19.0712 9.864L18.6752 10.932C18.5152 10.836 18.3152 10.748 18.0752 10.668C17.8432 10.588 17.6032 10.524 17.3552 10.476C17.1072 10.42 16.8752 10.392 16.6592 10.392C16.1472 10.392 15.6832 10.472 15.2672 10.632C14.8512 10.784 14.4952 11.008 14.1992 11.304C13.9032 11.592 13.6752 11.944 13.5152 12.36C13.3552 12.768 13.2752 13.228 13.2752 13.74C13.2752 14.212 13.3552 14.644 13.5152 15.036C13.6752 15.428 13.9032 15.768 14.1992 16.056C14.4952 16.336 14.8472 16.556 15.2552 16.716C15.6712 16.868 16.1272 16.944 16.6232 16.944C16.9192 16.944 17.2112 16.916 17.4992 16.86C17.7872 16.796 18.0352 16.708 18.2432 16.596V14.868H16.5152V13.752H19.4072V17.256ZM23.9429 9.324C24.5749 9.324 25.1149 9.432 25.5629 9.648C26.0109 9.856 26.3549 10.16 26.5949 10.56C26.8429 10.96 26.9669 11.444 26.9669 12.012C26.9669 12.356 26.9149 12.696 26.8109 13.032C26.7069 13.36 26.5389 13.66 26.3069 13.932C26.0829 14.196 25.7869 14.408 25.4189 14.568C25.0509 14.728 24.6029 14.808 24.0749 14.808H22.7909V18H21.6269V9.324H23.9429ZM24.0629 13.692C24.4069 13.692 24.6909 13.636 24.9149 13.524C25.1389 13.412 25.3149 13.272 25.4429 13.104C25.5709 12.928 25.6629 12.744 25.7189 12.552C25.7749 12.36 25.8029 12.188 25.8029 12.036C25.8029 11.86 25.7749 11.68 25.7189 11.496C25.6629 11.304 25.5669 11.132 25.4309 10.98C25.3029 10.82 25.1309 10.692 24.9149 10.596C24.7069 10.492 24.4469 10.44 24.1349 10.44H22.7909V13.692H24.0629ZM28.1276 9.324H33.8876V10.44H31.5596V18H30.3956V10.44H28.1276V9.324ZM43.5292 10.104L41.4172 13.5L40.7212 13.176C40.8252 13.12 40.9412 13.08 41.0692 13.056C41.1972 13.032 41.3252 13.02 41.4532 13.02C41.7492 13.004 42.0372 13.036 42.3172 13.116C42.5972 13.196 42.8492 13.328 43.0732 13.512C43.2972 13.696 43.4732 13.94 43.6012 14.244C43.7372 14.548 43.8052 14.924 43.8052 15.372C43.8052 15.932 43.6772 16.416 43.4212 16.824C43.1652 17.232 42.8252 17.548 42.4012 17.772C41.9852 17.988 41.5212 18.096 41.0092 18.096C40.6252 18.096 40.2412 18.02 39.8572 17.868C39.4812 17.708 39.1692 17.5 38.9212 17.244L39.5092 16.284C39.6612 16.46 39.8692 16.62 40.1332 16.764C40.4052 16.908 40.6852 16.98 40.9732 16.98C41.2772 16.98 41.5492 16.912 41.7892 16.776C42.0372 16.64 42.2332 16.448 42.3772 16.2C42.5292 15.944 42.6052 15.648 42.6052 15.312C42.6052 14.848 42.4692 14.484 42.1972 14.22C41.9332 13.956 41.5692 13.824 41.1052 13.824C40.8732 13.824 40.6772 13.844 40.5172 13.884C40.3572 13.916 40.2132 13.956 40.0852 14.004L40.0492 13.956L41.9092 11.064L42.2692 11.22H39.3772V10.104H43.5292ZM44.9744 17.364C44.9744 17.188 45.0384 17.04 45.1664 16.92C45.3024 16.792 45.4504 16.728 45.6104 16.728C45.7544 16.728 45.8904 16.792 46.0184 16.92C46.1544 17.04 46.2224 17.188 46.2224 17.364C46.2224 17.556 46.1544 17.712 46.0184 17.832C45.8904 17.944 45.7544 18 45.6104 18C45.4504 18 45.3024 17.944 45.1664 17.832C45.0384 17.712 44.9744 17.556 44.9744 17.364ZM49.522 18.096C49.098 18.096 48.69 18.02 48.298 17.868C47.914 17.716 47.602 17.52 47.362 17.28L47.986 16.38C48.146 16.564 48.358 16.712 48.622 16.824C48.894 16.936 49.162 16.992 49.426 16.992C49.722 16.992 49.982 16.928 50.206 16.8C50.438 16.664 50.618 16.484 50.746 16.26C50.874 16.028 50.938 15.764 50.938 15.468C50.938 15.148 50.878 14.864 50.758 14.616C50.646 14.368 50.474 14.176 50.242 14.04C50.018 13.896 49.734 13.824 49.39 13.824C49.11 13.824 48.85 13.864 48.61 13.944C48.37 14.016 48.122 14.128 47.866 14.28H47.854V10.104H51.634V11.22H48.862V13.236L48.706 12.996C48.842 12.948 48.994 12.912 49.162 12.888C49.338 12.856 49.506 12.84 49.666 12.84C50.202 12.84 50.65 12.96 51.01 13.2C51.378 13.432 51.654 13.744 51.838 14.136C52.03 14.528 52.126 14.96 52.126 15.432C52.126 15.928 52.014 16.38 51.79 16.788C51.566 17.188 51.258 17.508 50.866 17.748C50.474 17.98 50.026 18.096 49.522 18.096ZM57.2722 9.324H63.0322V10.44H60.7042V18H59.5402V10.44H57.2722V9.324ZM65.462 18.192C65.014 18.192 64.642 18.056 64.346 17.784C64.058 17.504 63.906 17.144 63.89 16.704V13.032H65.006V16.308C65.022 16.58 65.098 16.8 65.234 16.968C65.378 17.136 65.602 17.224 65.906 17.232C66.186 17.232 66.434 17.152 66.65 16.992C66.874 16.824 67.054 16.6 67.19 16.32C67.326 16.032 67.394 15.708 67.394 15.348V13.032H68.51V18H67.49L67.394 16.776L67.454 16.992C67.358 17.224 67.21 17.432 67.01 17.616C66.818 17.792 66.59 17.932 66.326 18.036C66.062 18.14 65.774 18.192 65.462 18.192ZM71.4368 13.032L71.5448 14.472L71.4848 14.28C71.6128 13.976 71.7968 13.72 72.0368 13.512C72.2848 13.296 72.5408 13.132 72.8048 13.02C73.0768 12.9 73.3128 12.84 73.5128 12.84L73.4528 13.944C73.0768 13.92 72.7448 13.992 72.4568 14.16C72.1768 14.328 71.9528 14.552 71.7848 14.832C71.6248 15.112 71.5448 15.412 71.5448 15.732V18H70.4408V13.032H71.4368ZM77.9765 18.12C77.5205 18.12 77.1165 18.02 76.7645 17.82C76.4205 17.62 76.1445 17.368 75.9365 17.064L76.0685 16.716V18H74.9525V8.712H76.0565V14.172L76.0205 13.752C76.2205 13.48 76.5045 13.26 76.8725 13.092C77.2485 12.916 77.6645 12.828 78.1205 12.828C78.5685 12.828 78.9765 12.936 79.3445 13.152C79.7125 13.368 80.0045 13.672 80.2205 14.064C80.4445 14.448 80.5565 14.908 80.5565 15.444C80.5565 16.004 80.4365 16.484 80.1965 16.884C79.9645 17.284 79.6525 17.592 79.2605 17.808C78.8685 18.016 78.4405 18.12 77.9765 18.12ZM77.7485 17.172C78.0685 17.172 78.3565 17.096 78.6125 16.944C78.8685 16.792 79.0685 16.588 79.2125 16.332C79.3565 16.068 79.4285 15.768 79.4285 15.432C79.4285 15.112 79.3525 14.824 79.2005 14.568C79.0565 14.304 78.8565 14.096 78.6005 13.944C78.3525 13.792 78.0685 13.716 77.7485 13.716C77.4765 13.716 77.2245 13.768 76.9925 13.872C76.7605 13.976 76.5645 14.12 76.4045 14.304C76.2445 14.48 76.1325 14.688 76.0685 14.928V15.924C76.1325 16.164 76.2405 16.38 76.3925 16.572C76.5445 16.756 76.7365 16.904 76.9685 17.016C77.2005 17.12 77.4605 17.172 77.7485 17.172ZM81.6338 15.468C81.6338 14.972 81.7498 14.524 81.9818 14.124C82.2218 13.724 82.5498 13.408 82.9658 13.176C83.3818 12.944 83.8538 12.828 84.3818 12.828C84.9258 12.828 85.4018 12.944 85.8098 13.176C86.2178 13.408 86.5338 13.724 86.7578 14.124C86.9818 14.524 87.0938 14.972 87.0938 15.468C87.0938 15.964 86.9818 16.416 86.7578 16.824C86.5338 17.224 86.2138 17.54 85.7978 17.772C85.3898 18.004 84.9138 18.12 84.3698 18.12C83.8418 18.12 83.3698 18.012 82.9538 17.796C82.5458 17.572 82.2218 17.264 81.9818 16.872C81.7498 16.472 81.6338 16.004 81.6338 15.468ZM82.7498 15.48C82.7498 15.8 82.8218 16.092 82.9658 16.356C83.1098 16.612 83.3018 16.816 83.5418 16.968C83.7898 17.12 84.0618 17.196 84.3578 17.196C84.6698 17.196 84.9458 17.12 85.1858 16.968C85.4338 16.816 85.6258 16.612 85.7618 16.356C85.8978 16.092 85.9658 15.8 85.9658 15.48C85.9658 15.16 85.8978 14.872 85.7618 14.616C85.6258 14.352 85.4338 14.144 85.1858 13.992C84.9458 13.832 84.6698 13.752 84.3578 13.752C84.0538 13.752 83.7778 13.832 83.5298 13.992C83.2898 14.152 83.0978 14.364 82.9538 14.628C82.8178 14.884 82.7498 15.168 82.7498 15.48Z" fill="black"/>
</svg>
