<svg width="16" height="16" viewBox="0 0 16 16" fill="none" xmlns="http://www.w3.org/2000/svg">
<path fill-rule="evenodd" clip-rule="evenodd" d="M9.00902 2.00614C9.16032 2.00902 9.30791 2.01183 9.4489 2.01183C9.61217 2.01183 9.77681 2.01117 9.94218 2.01051C10.2758 2.00918 10.6123 2.00784 10.9466 2.01185C11.1679 2.01451 11.3725 2.06269 11.5491 2.10948C11.5889 2.12005 11.6269 2.13039 11.6636 2.14036C11.7987 2.17715 11.915 2.20881 12.0368 2.22762C12.2654 2.2629 12.4719 2.35432 12.6448 2.43804C12.6914 2.4606 12.735 2.48227 12.7766 2.50291C12.9012 2.56481 13.0072 2.61744 13.1188 2.65713C13.3335 2.73352 13.5142 2.86565 13.6608 2.98123C13.7033 3.01476 13.7425 3.0464 13.7795 3.07628C13.8818 3.15892 13.9674 3.22802 14.0605 3.28583C14.3222 3.4482 14.558 3.64062 14.7771 3.81939C14.7914 3.83112 14.8057 3.84279 14.82 3.85439C14.968 3.975 15.0845 4.12909 15.178 4.26432C15.2202 4.32527 15.2558 4.37916 15.2887 4.429C15.3377 4.50329 15.3808 4.56856 15.4309 4.63476C15.9835 5.3655 16.0776 6.23143 15.9489 7.0725C15.9414 7.12151 15.9339 7.1729 15.9261 7.22605C15.8967 7.42673 15.8637 7.65255 15.8146 7.87062C15.7521 8.14865 15.6581 8.4424 15.4927 8.69877C15.4426 8.77632 15.392 8.856 15.3406 8.93698C15.119 9.28601 14.882 9.65924 14.6068 9.9908C14.1805 10.5043 13.7347 10.9841 13.2119 11.4215C12.8093 11.7583 12.338 12.0579 11.8968 12.3104C11.6454 12.4542 11.3881 12.5385 11.1454 12.6044C11.0428 12.6322 10.949 12.6554 10.8587 12.6777C10.7208 12.7118 10.591 12.7439 10.4501 12.7875C9.81498 12.9839 9.16095 13.1445 8.51936 13.2865C7.91117 13.4211 7.28346 13.4128 6.69938 13.405C6.56564 13.4032 6.43419 13.4014 6.30578 13.4014C5.65379 13.4014 5.04438 13.3035 4.42509 13.1153C4.39479 13.1061 4.36445 13.0969 4.33408 13.0877C3.85306 12.9421 3.36364 12.794 2.88652 12.497L2.86088 12.481C2.47491 12.2408 2.03065 11.9643 1.68661 11.5866C1.35079 11.218 1.01651 10.7969 0.754912 10.3559C0.469074 9.87407 0.314339 9.32528 0.176756 8.83732C0.171864 8.81997 0.166994 8.80269 0.16214 8.7855C0.0603473 8.42498 0 8.10025 0 7.70663C0 7.34277 0.0817631 6.98378 0.154417 6.6648C0.174894 6.57489 0.194648 6.48816 0.211643 6.4054C0.257988 6.1797 0.372999 5.96337 0.49316 5.78143C0.615566 5.5961 0.757132 5.4261 0.876067 5.29204C1.2357 4.88667 1.69947 4.52423 2.14131 4.24256C2.25629 4.16925 2.37172 4.09005 2.49204 4.00683C2.50544 3.99757 2.51891 3.98824 2.53244 3.97888C2.63903 3.9051 2.74967 3.82851 2.86192 3.75465C3.11474 3.5883 3.3912 3.42516 3.69551 3.31416C3.86901 3.25087 4.06132 3.18364 4.25567 3.12528C4.29747 3.08947 4.3399 3.06529 4.37441 3.04838C4.40035 3.03566 4.42839 3.02408 4.44519 3.01714C4.44801 3.01598 4.45051 3.01495 4.45263 3.01407C4.47216 3.00591 4.48035 3.00201 4.48547 2.99918C4.59514 2.93849 4.73188 2.85035 4.83681 2.77408C5.27506 2.45552 5.81473 2.32888 6.27419 2.22107C6.36529 2.19969 6.45324 2.17906 6.53662 2.15781C6.89034 2.06767 7.26498 2.05135 7.60047 2.03673C7.71872 2.03158 7.83211 2.02663 7.93801 2.01875C8.29096 1.99246 8.65985 1.99949 9.00902 2.00614Z" fill="white"/>
<path fill-rule="evenodd" clip-rule="evenodd" d="M9.00902 2.00614C9.16032 2.00902 9.30791 2.01183 9.4489 2.01183C9.61217 2.01183 9.77681 2.01117 9.94218 2.01051C10.2758 2.00918 10.6123 2.00784 10.9466 2.01185C11.1679 2.01451 11.3725 2.06269 11.5491 2.10948C11.5889 2.12005 11.6269 2.13039 11.6636 2.14036C11.7987 2.17715 11.915 2.20881 12.0368 2.22762C12.2654 2.2629 12.4719 2.35432 12.6448 2.43804C12.6914 2.4606 12.735 2.48227 12.7766 2.50291C12.9012 2.56481 13.0072 2.61744 13.1188 2.65713C13.3335 2.73352 13.5142 2.86565 13.6608 2.98123C13.7033 3.01476 13.7425 3.0464 13.7795 3.07628C13.8818 3.15892 13.9674 3.22802 14.0605 3.28583C14.3222 3.4482 14.558 3.64062 14.7771 3.81939C14.7914 3.83112 14.8057 3.84279 14.82 3.85438C14.968 3.975 15.0845 4.12909 15.178 4.26432C15.2202 4.32527 15.2558 4.37916 15.2887 4.429C15.3377 4.50329 15.3808 4.56855 15.4309 4.63476C15.9835 5.3655 16.0776 6.23143 15.9489 7.0725C15.9414 7.12151 15.9339 7.1729 15.9261 7.22605C15.8967 7.42673 15.8637 7.65255 15.8146 7.87062C15.7521 8.14865 15.6581 8.4424 15.4927 8.69877C15.4426 8.77632 15.392 8.856 15.3406 8.93698C15.119 9.28601 14.882 9.65924 14.6068 9.9908C14.1805 10.5043 13.7347 10.9841 13.2119 11.4215C12.8093 11.7583 12.338 12.0579 11.8968 12.3104C11.6454 12.4542 11.3881 12.5385 11.1454 12.6044C11.0428 12.6322 10.949 12.6554 10.8587 12.6777C10.7208 12.7118 10.591 12.7439 10.4501 12.7875C9.81498 12.9839 9.16095 13.1445 8.51936 13.2865C7.91117 13.4211 7.28346 13.4128 6.69938 13.405C6.56564 13.4032 6.43419 13.4014 6.30578 13.4014C5.65379 13.4014 5.04438 13.3035 4.42509 13.1153C4.39479 13.1061 4.36445 13.0969 4.33408 13.0877C3.85306 12.9421 3.36364 12.794 2.88652 12.497L2.86088 12.481C2.47491 12.2408 2.03065 11.9643 1.68661 11.5866C1.35079 11.218 1.01651 10.7969 0.754912 10.3559C0.469074 9.87407 0.314339 9.32528 0.176756 8.83732C0.171864 8.81997 0.166994 8.80269 0.16214 8.7855C0.0603473 8.42498 0 8.10025 0 7.70663C0 7.34277 0.0817631 6.98378 0.154417 6.6648C0.174894 6.57489 0.194648 6.48816 0.211643 6.40539C0.257988 6.1797 0.372999 5.96337 0.49316 5.78143C0.615566 5.5961 0.757132 5.4261 0.876067 5.29204C1.2357 4.88667 1.69947 4.52423 2.14131 4.24256C2.25629 4.16925 2.37172 4.09005 2.49204 4.00683C2.50544 3.99757 2.51891 3.98824 2.53244 3.97888C2.63903 3.9051 2.74967 3.82851 2.86192 3.75465C3.11474 3.5883 3.3912 3.42516 3.69551 3.31416C3.86901 3.25087 4.06132 3.18364 4.25567 3.12528C4.29747 3.08947 4.3399 3.06529 4.37441 3.04838C4.40035 3.03566 4.42839 3.02408 4.44519 3.01714C4.44801 3.01598 4.45051 3.01495 4.45263 3.01407C4.47216 3.00591 4.48035 3.00201 4.48547 2.99918C4.59514 2.93849 4.73188 2.85035 4.83681 2.77408C5.27506 2.45552 5.81473 2.32888 6.27419 2.22107C6.36529 2.19969 6.45324 2.17906 6.53662 2.15781C6.89034 2.06767 7.26498 2.05135 7.60047 2.03673C7.71872 2.03158 7.83211 2.02663 7.93801 2.01875C8.29096 1.99246 8.65985 1.99949 9.00902 2.00614ZM4.57655 3.67306C4.62912 3.65883 4.68097 3.64578 4.73174 3.63417C4.73057 3.63444 4.73169 3.6343 4.73798 3.63352C4.7453 3.63261 4.7596 3.63084 4.7854 3.62783C4.82202 3.62357 4.87371 3.61747 4.92591 3.60798C4.97531 3.59901 5.04312 3.584 5.10768 3.55573C5.15948 3.53304 5.28807 3.46835 5.33885 3.3166C5.35483 3.26884 5.35839 3.21994 5.35127 3.17337C5.64697 3.00394 5.98932 2.92225 6.37764 2.82958C6.47852 2.80551 6.5825 2.7807 6.68957 2.75341C6.97689 2.6802 7.25407 2.66814 7.56624 2.65457C7.69812 2.64883 7.83625 2.64282 7.98402 2.63182C8.30756 2.60772 8.62739 2.61392 8.9617 2.6204C9.1202 2.62348 9.28196 2.62661 9.4489 2.62661C9.61754 2.62661 9.78486 2.62594 9.95147 2.62527C10.282 2.62395 10.6096 2.62263 10.9392 2.62659C11.0796 2.62827 11.2221 2.65898 11.3904 2.70359C11.4204 2.71154 11.4518 2.72013 11.4843 2.72903C11.623 2.76692 11.7823 2.81046 11.9423 2.83515C12.0739 2.85546 12.2102 2.9112 12.375 2.99096C12.4076 3.00674 12.4421 3.02394 12.4782 3.0419C12.6096 3.1073 12.7612 3.18276 12.9112 3.2361C13.0245 3.2764 13.1385 3.35344 13.2778 3.4633C13.3059 3.48548 13.336 3.50981 13.3676 3.53536C13.4773 3.62408 13.6052 3.72761 13.7342 3.80764C13.9608 3.94825 14.1678 4.1171 14.3943 4.30176C14.4058 4.3112 14.4175 4.32068 14.4292 4.3302C14.507 4.39365 14.5834 4.48822 14.6698 4.61315C14.6956 4.65045 14.7247 4.69431 14.7555 4.74066C14.8141 4.82895 14.8787 4.9263 14.9379 5.00465C15.3587 5.56102 15.4518 6.24154 15.3388 6.97989C15.3301 7.03684 15.3218 7.0936 15.3135 7.15015C15.2844 7.34785 15.2558 7.54312 15.2123 7.7362C15.157 7.98232 15.083 8.19668 14.9735 8.36632C14.918 8.45238 14.8637 8.53783 14.8099 8.6224C14.5897 8.96886 14.3789 9.30057 14.1312 9.59902C13.7191 10.0954 13.2996 10.5452 12.815 10.9507C12.4521 11.2543 12.0159 11.5332 11.5894 11.7773C11.4047 11.883 11.2057 11.9508 10.9832 12.0112C10.9089 12.0313 10.826 12.052 10.7393 12.0736C10.5856 12.1119 10.4197 12.1532 10.2672 12.2003C9.65451 12.3898 9.01856 12.5462 8.38547 12.6864C7.85434 12.8039 7.31612 12.7973 6.7375 12.7902C6.59617 12.7884 6.45242 12.7866 6.30578 12.7866C5.71938 12.7866 5.17062 12.6991 4.60519 12.5272C4.58111 12.5199 4.55723 12.5127 4.53352 12.5055C4.036 12.3546 3.61932 12.2282 3.21363 11.9756C2.80643 11.7221 2.4276 11.4852 2.14367 11.1735C1.82588 10.8246 1.5201 10.4373 1.28626 10.0432C1.04212 9.6316 0.906388 9.15082 0.761889 8.63896L0.756268 8.61905C0.665069 8.29605 0.617179 8.02897 0.617179 7.70663C0.617179 7.41818 0.677805 7.15049 0.746952 6.84517C0.769765 6.74444 0.793506 6.63961 0.816303 6.52859C0.839911 6.41363 0.907017 6.27338 1.00876 6.11933C1.10826 5.96869 1.22838 5.82332 1.33854 5.69915C1.64936 5.34879 2.06417 5.02164 2.474 4.76037C2.59979 4.68017 2.72376 4.59501 2.84403 4.51183C2.8576 4.50244 2.87112 4.49308 2.8846 4.48376C2.9919 4.40949 3.09631 4.33722 3.20209 4.26762C3.44039 4.11082 3.67013 3.97812 3.90774 3.89145C4.07456 3.8306 4.2496 3.76963 4.42096 3.71776C4.47593 3.71688 4.52974 3.70133 4.57655 3.67306Z" fill="black"/>
<path fill-rule="evenodd" clip-rule="evenodd" d="M7.65077 3.3944C7.70864 3.39566 7.76257 3.39684 7.80505 3.39684H9.15091C9.68287 3.39684 10.2105 3.40793 10.74 3.42565C11.0773 3.43693 11.4347 3.58405 11.6975 3.69223C11.7294 3.70538 11.76 3.71795 11.7889 3.72963C12.0916 3.85186 12.3629 4.03044 12.6037 4.21528C12.6674 4.26414 12.7288 4.30652 12.7967 4.35331C12.842 4.38456 12.8902 4.41777 12.9438 4.45619C13.0655 4.54348 13.199 4.64732 13.3104 4.77506C13.3722 4.84604 13.443 4.90854 13.5297 4.9852C13.5444 4.99819 13.5596 5.01159 13.5752 5.0255C13.6764 5.11541 13.7953 5.22481 13.8928 5.36235C14.0503 5.58442 14.2053 5.81311 14.3215 6.09347C14.4788 6.47302 14.4727 6.90152 14.4678 7.24506C14.467 7.30187 14.4662 7.35636 14.4662 7.40791C14.4662 7.43728 14.4665 7.46905 14.4668 7.50216C14.4674 7.57399 14.4681 7.65214 14.4661 7.72581C14.4638 7.81477 14.44 7.89261 14.3968 7.96228C14.3648 8.01385 14.3229 8.05759 14.3004 8.08118C14.298 8.08362 14.2959 8.08585 14.294 8.08784C14.2831 8.09932 14.2724 8.11555 14.2599 8.14904C14.2533 8.16669 14.247 8.1872 14.2394 8.21397C14.2372 8.22165 14.2344 8.23174 14.2313 8.2429C14.2258 8.26283 14.2194 8.28617 14.2138 8.3052C14.156 8.5028 14.0497 8.67602 13.9539 8.82047C13.9264 8.86185 13.9002 8.90037 13.8753 8.937C13.8063 9.03852 13.7472 9.12551 13.6982 9.21862C13.534 9.53074 13.3266 9.7208 13.0735 9.90308C12.7425 10.1414 12.404 10.3546 12.0604 10.56C11.8348 10.695 11.6 10.7987 11.3767 10.8923C11.3301 10.9119 11.2842 10.9309 11.239 10.9496C11.0626 11.0228 10.896 11.092 10.7327 11.1725C10.1507 11.4597 9.58056 11.6419 8.97624 11.8124C8.92162 11.8278 8.86553 11.8439 8.80818 11.8603C8.37694 11.9841 7.87446 12.1284 7.39446 12.147C7.03377 12.1609 6.66541 12.1567 6.30631 12.1526C6.13772 12.1506 5.97117 12.1487 5.80841 12.1487C4.77835 12.1487 3.62301 11.8883 2.77572 11.2194C2.34798 10.8816 1.99561 10.4642 1.73411 9.98912C1.60976 9.76319 1.53478 9.47108 1.48288 9.2689L1.48248 9.26733C1.48102 9.26166 1.47955 9.25593 1.47806 9.25013C1.43989 9.10176 1.39136 8.91307 1.39136 8.71659C1.39136 8.33342 1.50495 7.96424 1.61205 7.64717C1.62016 7.62313 1.6283 7.59885 1.6365 7.57434C1.72774 7.30186 1.82814 7.00203 2.01765 6.72148C2.50675 5.99741 3.07147 5.17914 3.93737 4.73229C4.05942 4.60656 4.20712 4.52765 4.35249 4.47607C4.37873 4.42362 4.4219 4.37889 4.479 4.35071C4.65688 4.26293 4.9383 4.10464 5.17281 3.97274C5.251 3.92876 5.32398 3.88771 5.38616 3.85319C5.51593 3.78115 5.65318 3.74164 5.76637 3.71241C5.7985 3.70411 5.82817 3.69673 5.85601 3.6898C5.93584 3.66993 6.00062 3.6538 6.06503 3.63069C6.22725 3.57247 6.39534 3.55015 6.53112 3.53218L6.5338 3.53182C6.67854 3.51267 6.79033 3.49787 6.89258 3.46488C7.06234 3.41011 7.22997 3.39511 7.38171 3.39196C7.46228 3.39028 7.56124 3.39244 7.65077 3.3944ZM5.4726 4.44417C5.49044 4.47035 5.50404 4.49999 5.51219 4.53239C5.54968 4.68141 5.45767 4.83221 5.30667 4.8692C5.21945 4.89058 5.11502 4.90195 5.02589 4.91166L5.01543 4.9128C4.91887 4.92332 4.82514 4.93354 4.73242 4.95066C4.5375 4.98667 4.40471 5.04402 4.32841 5.13438L4.29069 5.17906L4.23799 5.20506C3.49864 5.56991 2.99704 6.27398 2.48642 7.02991C2.34096 7.24525 2.26336 7.47588 2.16731 7.76132C2.16049 7.7816 2.15357 7.80215 2.14653 7.823C2.03984 8.13888 1.95475 8.43217 1.95475 8.71659C1.95475 8.83901 1.98628 8.96584 2.02862 9.13078C2.08451 9.34852 2.14446 9.5698 2.22917 9.72371C2.45525 10.1345 2.75921 10.4942 3.12767 10.7852C3.84252 11.3496 4.85723 11.5927 5.80841 11.5927C5.98552 11.5927 6.15953 11.5947 6.33172 11.5967C6.68255 11.6008 7.02583 11.6048 7.37238 11.5914C7.77815 11.5757 8.20893 11.4526 8.64931 11.3267C8.70654 11.3103 8.76394 11.2939 8.82146 11.2777C9.41493 11.1104 9.94563 10.9393 10.4808 10.6752C10.6623 10.5856 10.8506 10.5076 11.0287 10.4337C11.0719 10.4158 11.1145 10.3981 11.1563 10.3806C11.3755 10.2886 11.5792 10.1977 11.7684 10.0845C12.1051 9.88313 12.4286 9.67918 12.7414 9.45392C12.9544 9.3005 13.0884 9.17112 13.1982 8.96239C13.2631 8.83893 13.3475 8.71499 13.421 8.60695C13.4427 8.57506 13.4635 8.54456 13.4825 8.51586C13.5738 8.37831 13.6396 8.26362 13.6725 8.151C13.6756 8.14046 13.6789 8.12786 13.6827 8.11356C13.7081 8.01717 13.7538 7.84381 13.8826 7.70799C13.8903 7.69982 13.8958 7.69405 13.9014 7.68808C13.9021 7.68731 13.9028 7.68656 13.9035 7.68584C13.9045 7.63073 13.904 7.5775 13.9035 7.52043C13.9032 7.48488 13.9028 7.44783 13.9028 7.40791C13.9028 7.34275 13.9034 7.2793 13.904 7.21747C13.9074 6.86788 13.9102 6.56978 13.8001 6.30401C13.7093 6.08501 13.586 5.89927 13.4313 5.68122C13.3736 5.5999 13.2972 5.52669 13.1982 5.43866C13.1854 5.42728 13.172 5.41551 13.1582 5.40337C13.0729 5.32815 12.9713 5.23861 12.8833 5.13773C12.8155 5.05995 12.7247 4.98643 12.6126 4.90601C12.5772 4.88064 12.5364 4.85243 12.4936 4.82277C12.4152 4.76852 12.3298 4.70944 12.2578 4.65419C12.0375 4.48508 11.812 4.33974 11.5756 4.24427C11.5453 4.23205 11.5153 4.21985 11.4856 4.20776C11.2042 4.0932 10.9481 3.98896 10.721 3.98136C10.196 3.9638 9.67499 3.95287 9.15091 3.95287H7.80505C7.72887 3.95287 7.66728 3.95127 7.60956 3.94977C7.53837 3.94792 7.47307 3.94622 7.39357 3.94787C7.26872 3.95046 7.16305 3.96261 7.06765 3.99339C6.91508 4.04262 6.75717 4.06339 6.6284 4.08032C6.62083 4.08132 6.61336 4.0823 6.606 4.08328C6.46316 4.10218 6.35405 4.11862 6.25756 4.15324C6.16342 4.18703 6.06003 4.21267 5.97423 4.23395C5.95102 4.2397 5.9291 4.24514 5.90899 4.25033C5.80351 4.27757 5.72549 4.30277 5.66237 4.33782C5.60896 4.36747 5.54402 4.40399 5.4726 4.44417Z" fill="black"/>
<path fill-rule="evenodd" clip-rule="evenodd" d="M5.52617 6.45442C5.56904 6.45534 5.60865 6.4562 5.64285 6.4562C5.91291 6.4562 6.16183 6.54717 6.34918 6.71113C6.40052 6.72132 6.49215 6.74237 6.58107 6.8099C6.69392 6.89559 6.73115 7.00945 6.74748 7.07148C6.75214 7.0892 6.76131 7.12986 6.76306 7.13758C6.76323 7.13837 6.76333 7.13882 6.76334 7.13886C6.76502 7.1458 6.76608 7.1494 6.76649 7.15072C6.84752 7.33333 6.81705 7.52164 6.77594 7.65274C6.73285 7.7902 6.66292 7.91419 6.60268 8.00228C6.56624 8.05559 6.52597 8.10526 6.49155 8.14689C6.48298 8.15727 6.47484 8.16706 6.46707 8.17641C6.44119 8.20755 6.41931 8.23388 6.39845 8.26104C6.34026 8.33679 6.27498 8.38297 6.23177 8.41197C6.21866 8.42076 6.20811 8.42773 6.19934 8.43352C6.17501 8.44957 6.16436 8.4566 6.15079 8.46862C6.05938 8.54961 5.95764 8.61126 5.87042 8.66058C5.83561 8.68026 5.80458 8.69726 5.77573 8.71306C5.72422 8.74128 5.67967 8.76568 5.63302 8.79475C5.43121 8.92049 5.22374 8.98404 5.03663 9.0307C4.97064 9.04715 4.91006 9.06101 4.85255 9.07416C4.73571 9.10089 4.63157 9.12471 4.52057 9.16149C4.49127 9.1712 4.46192 9.18108 4.43246 9.19099C4.13926 9.28967 3.83486 9.39211 3.4514 9.37113C3.39049 9.36779 3.32978 9.36305 3.26935 9.35553C3.14585 9.37396 3.01275 9.37555 2.88597 9.35687C2.68373 9.32707 2.42217 9.23252 2.28693 8.98149C2.15107 8.72932 1.95592 8.33984 2.21155 7.91356C2.22341 7.89378 2.2331 7.87548 2.24405 7.85417C2.24543 7.8515 2.24691 7.8486 2.24848 7.84553C2.25804 7.82684 2.27101 7.80147 2.28499 7.77726C2.32398 7.70976 2.37352 7.64521 2.45414 7.57843C2.50923 7.5328 2.57146 7.49506 2.6125 7.47018C2.6185 7.46654 2.62404 7.46318 2.62904 7.46011C2.67724 7.43052 2.69909 7.41452 2.713 7.40044C2.81564 7.29652 2.93991 7.23195 3.02586 7.18805C3.03435 7.18371 3.04253 7.17954 3.05042 7.17552C3.13541 7.1322 3.1863 7.10626 3.22781 7.07296C3.33668 6.98561 3.43989 6.94444 3.52976 6.91693C3.56996 6.90463 3.59893 6.89685 3.62355 6.89024C3.66085 6.88023 3.68816 6.8729 3.72942 6.85656C3.85196 6.80801 3.97749 6.77684 4.0945 6.75298C4.197 6.71573 4.30448 6.67966 4.41556 6.65032C4.48394 6.63226 4.54608 6.61235 4.61547 6.59013C4.65862 6.5763 4.70458 6.56158 4.75657 6.54585C4.88034 6.50841 5.02251 6.47088 5.17314 6.45868C5.28876 6.44932 5.41788 6.45209 5.52617 6.45442ZM3.30995 7.81093C3.30997 7.8109 3.31011 7.81147 3.31031 7.81268C3.31004 7.81155 3.30994 7.81095 3.30995 7.81093ZM5.89738 7.80944C5.88825 7.79947 5.87986 7.78993 5.87242 7.78131C5.85339 7.75926 5.83478 7.73642 5.82072 7.71917C5.81888 7.71692 5.81713 7.71477 5.81546 7.71273C5.80518 7.70013 5.7994 7.69323 5.79665 7.68996C5.79431 7.68717 5.79419 7.68702 5.79536 7.68821C5.76667 7.65917 5.72952 7.63185 5.67008 7.59154C5.66449 7.58775 5.65861 7.58379 5.65248 7.57965C5.60073 7.54476 5.5311 7.49781 5.46743 7.4414C5.3239 7.31426 5.15915 7.27688 5.04507 7.32308C4.96766 7.35443 4.88117 7.40499 4.78176 7.47008C4.74781 7.4923 4.70755 7.51958 4.66545 7.54809C4.60173 7.59126 4.53382 7.63726 4.47737 7.67283C4.43093 7.70208 4.39691 7.72204 4.36648 7.7399C4.32965 7.76151 4.29808 7.78003 4.25615 7.80819C4.19549 7.84893 4.15796 7.88299 4.13358 7.91694C4.07057 8.00465 4.04402 8.08746 4.04377 8.13856C4.04366 8.16026 4.04811 8.17106 4.05149 8.1769C4.05456 8.18218 4.06469 8.19733 4.09847 8.21548C4.15521 8.24596 4.26497 8.26447 4.4282 8.25446C4.58225 8.24501 4.74396 8.21316 4.8758 8.18275C4.9363 8.16879 5.00092 8.15618 5.06181 8.14429C5.06719 8.14324 5.07254 8.14219 5.07786 8.14115C5.14542 8.12795 5.2098 8.11514 5.27216 8.10034C5.40104 8.06975 5.49597 8.03601 5.55934 7.99519C5.63081 7.94914 5.70512 7.91077 5.7664 7.8792L5.76941 7.87764C5.81872 7.85224 5.86003 7.83096 5.89738 7.80944Z" fill="black"/>
<path fill-rule="evenodd" clip-rule="evenodd" d="M12.6211 5.77469C12.8806 5.8028 13.1567 5.874 13.4066 6.0578C13.4243 6.07081 13.4478 6.08554 13.4867 6.10994L13.4919 6.11318C13.5294 6.13673 13.578 6.16737 13.6254 6.20266C13.7099 6.26561 13.8507 6.38558 13.8909 6.57878C13.9109 6.67502 13.9205 6.79228 13.9059 6.90943C13.8918 7.02319 13.8507 7.16869 13.7402 7.28245C13.4701 7.56065 13.0581 7.8605 12.653 7.97175C12.2312 8.0876 11.8022 8.12122 11.3854 8.12122C11.3649 8.12122 11.3436 8.12136 11.3216 8.1215C11.1779 8.12243 11.0042 8.12356 10.8301 8.0877C10.7583 8.07291 10.6681 8.03617 10.594 7.99636C10.5548 7.97531 10.5109 7.9485 10.4705 7.91618C10.4357 7.88843 10.3774 7.83651 10.3406 7.75838C10.3398 7.75728 10.3365 7.75237 10.328 7.74312C10.314 7.72789 10.2969 7.71225 10.2671 7.68525C10.2646 7.68295 10.2618 7.68047 10.2589 7.67781C10.2112 7.6349 10.1121 7.54579 10.0615 7.41787C10.0365 7.35459 10.0231 7.29047 10.016 7.23179C10.0063 7.21716 9.99707 7.20289 9.98813 7.18909C9.90216 7.05628 9.86439 6.90971 9.88269 6.7604C9.9002 6.61751 9.96555 6.50019 10.0362 6.41098C10.1727 6.23855 10.3734 6.11556 10.5116 6.04237C10.6422 5.97319 10.7738 5.93841 10.8818 5.91262C10.905 5.90709 10.9267 5.90203 10.9474 5.89721C11.0311 5.8777 11.097 5.86235 11.1636 5.83785C11.3943 5.75301 11.6227 5.75595 11.8062 5.75831C11.835 5.75868 11.8627 5.75904 11.8891 5.75904C11.9362 5.75904 11.9859 5.75847 12.0376 5.75788C12.2196 5.75581 12.4252 5.75348 12.6211 5.77469ZM11.7527 6.55554C11.7034 6.61542 11.6432 6.65238 11.5963 6.67414C11.531 6.70446 11.4557 6.72177 11.4125 6.7317C11.4079 6.73275 11.4037 6.73372 11.3998 6.73462C11.3839 6.73837 11.3709 6.74159 11.3603 6.74437C11.362 6.77069 11.3722 6.79195 11.3886 6.81472C11.425 6.86519 11.4956 6.92133 11.6017 6.97596C11.665 7.00854 11.7189 7.04983 11.7523 7.07547C11.7546 7.07724 11.7568 7.07894 11.7589 7.08056C11.7965 7.10923 11.813 7.12068 11.8264 7.12748C11.8286 7.128 11.8375 7.12999 11.8577 7.13075C11.8727 7.13132 11.8898 7.13114 11.9127 7.13055C11.9168 7.13045 11.9212 7.13032 11.9259 7.13019C11.9447 7.12966 11.9681 7.12901 11.9901 7.12901C12.019 7.12901 12.0495 7.12997 12.0739 7.13075C12.0814 7.13098 12.0884 7.13121 12.0945 7.13137C12.1245 7.1322 12.1451 7.1322 12.1622 7.13103C12.1785 7.12991 12.1869 7.12796 12.191 7.12671C12.1942 7.12573 12.1954 7.12499 12.1968 7.12402C12.1995 7.12209 12.2022 7.12015 12.205 7.1182C12.2594 7.07935 12.3216 7.03506 12.3857 6.99318C12.3991 6.95768 12.4225 6.91002 12.4657 6.86541C12.4662 6.86482 12.4685 6.86186 12.4728 6.85489C12.4796 6.84381 12.4866 6.83055 12.4991 6.80647C12.5003 6.80419 12.5016 6.80174 12.5029 6.79913C12.5239 6.75844 12.5644 6.67986 12.629 6.61334C12.6306 6.61169 12.6322 6.61007 12.6336 6.6085C12.6208 6.60301 12.6059 6.59736 12.589 6.5918C12.511 6.56609 12.4323 6.55554 12.4004 6.55554H11.7527ZM12.6821 6.63477C12.6821 6.63478 12.6817 6.63449 12.6811 6.6339C12.6818 6.63446 12.6821 6.63476 12.6821 6.63477ZM12.3657 7.06053C12.3652 7.06244 12.3652 7.06213 12.3658 7.06014C12.3657 7.06028 12.3657 7.06041 12.3657 7.06053ZM11.3169 6.7584C11.3169 6.7584 11.3169 6.75841 11.3169 6.75842C11.3168 6.75843 11.3168 6.75844 11.3168 6.75844" fill="black"/>
<path fill-rule="evenodd" clip-rule="evenodd" d="M8.67969 8.69663C8.66647 8.7075 8.65462 8.71572 8.64558 8.7216C8.56572 8.77362 8.46977 8.79385 8.40915 8.80349C8.33819 8.81476 8.26179 8.81915 8.19428 8.8167C8.16053 8.81548 8.12408 8.81239 8.08877 8.80593C8.06115 8.80088 8.00406 8.78887 7.94866 8.75362C7.86419 8.69988 7.77961 8.61586 7.72229 8.50835C7.66362 8.39831 7.62154 8.23678 7.68057 8.06297C7.76703 7.80837 7.97992 7.69171 8.13139 7.63787C8.2923 7.58067 8.46233 7.56519 8.58049 7.56519C8.83173 7.56519 9.08769 7.65243 9.29546 7.82866C9.35137 7.87609 9.48471 8.00589 9.45707 8.21037C9.43081 8.40468 9.28095 8.48534 9.23964 8.50605C9.14075 8.55562 9.02095 8.57238 8.948 8.57581C8.94366 8.57908 8.93961 8.58201 8.93592 8.58462C8.90675 8.60521 8.87713 8.62129 8.85197 8.63349C8.80158 8.65791 8.74839 8.67668 8.70541 8.68937C8.69831 8.69147 8.68958 8.69399 8.67969 8.69663Z" fill="black"/>
<path fill-rule="evenodd" clip-rule="evenodd" d="M7.93973 10.3426C7.86116 10.3642 7.74796 10.3952 7.62851 10.3988C7.56841 10.4006 7.52414 10.4178 7.43773 10.4515C7.40401 10.4647 7.36388 10.4803 7.31389 10.4985C7.24295 10.5243 7.19641 10.5472 7.1626 10.5728C7.16113 10.5746 7.15957 10.5765 7.15757 10.579C7.15616 10.5808 7.15452 10.5829 7.15254 10.5853C7.14709 10.5921 7.13947 10.6016 7.13094 10.6116C7.11509 10.6302 7.08747 10.6611 7.05031 10.6894C7.0123 10.7183 6.95246 10.7537 6.8734 10.7631C6.70814 10.7829 6.55929 10.6545 6.54093 10.4764C6.5266 10.3374 6.59594 10.2091 6.70559 10.1501C6.70821 10.1468 6.71102 10.1433 6.7137 10.1401C6.7205 10.1318 6.7298 10.1206 6.74063 10.1089C6.75136 10.0973 6.76608 10.0823 6.7843 10.0671C6.89863 9.97182 7.02284 9.91928 7.12126 9.88346C7.13723 9.87764 7.15631 9.87001 7.17802 9.86132C7.28136 9.81998 7.44404 9.7549 7.61179 9.74988C7.6603 9.74843 7.71262 9.7349 7.8084 9.70882L7.81222 9.70778C7.89579 9.68503 8.0167 9.6521 8.14854 9.6521H8.31209C8.4287 9.6521 8.51435 9.70708 8.55176 9.73427C8.64025 9.75201 8.70836 9.79075 8.74045 9.80901C8.74312 9.81052 8.74554 9.8119 8.7477 9.81311C8.75676 9.81819 8.76348 9.82175 8.76821 9.82418C8.92238 9.83832 9.04341 9.97771 9.04341 10.1476C9.04341 10.3268 8.90862 10.4722 8.74235 10.4722C8.61612 10.4722 8.51653 10.4155 8.47673 10.3929C8.47429 10.3915 8.47207 10.3903 8.47009 10.3892C8.45426 10.3803 8.44468 10.3754 8.43967 10.3729C8.37554 10.3664 8.32469 10.3437 8.28976 10.3237C8.2771 10.3165 8.26481 10.3085 8.25429 10.3013H8.14854C8.10006 10.3013 8.04665 10.3135 7.95582 10.3382C7.95063 10.3396 7.94527 10.3411 7.93973 10.3426ZM8.21674 10.2741C8.21669 10.274 8.21795 10.2748 8.22065 10.2767C8.21814 10.2752 8.21679 10.2742 8.21674 10.2741ZM7.16882 10.5653C7.16881 10.5653 7.16852 10.5656 7.16798 10.5662C7.16855 10.5656 7.16882 10.5653 7.16882 10.5653Z" fill="black"/>
</svg>
