<svg width="32" height="32" viewBox="0 0 32 32" fill="none" xmlns="http://www.w3.org/2000/svg">
<path fill-rule="evenodd" clip-rule="evenodd" d="M18.018 5.01228C18.3206 5.01804 18.6158 5.02366 18.8978 5.02366C19.2243 5.02366 19.5536 5.02235 19.8844 5.02103C20.5515 5.01837 21.2246 5.01568 21.8932 5.02371C22.3359 5.02902 22.7451 5.12537 23.0981 5.21896C23.1779 5.2401 23.2539 5.26079 23.3271 5.28073C23.5973 5.35429 23.83 5.41763 24.0736 5.45523C24.5309 5.5258 24.9437 5.70863 25.2896 5.87608C25.3828 5.92121 25.47 5.96454 25.5531 6.00581C25.8024 6.12963 26.0143 6.23487 26.2375 6.31427C26.667 6.46705 27.0284 6.7313 27.3216 6.96247C27.4067 7.02952 27.4851 7.09281 27.559 7.15256C27.7636 7.31785 27.9347 7.45604 28.121 7.57165C28.6444 7.8964 29.116 8.28125 29.5541 8.63877C29.5829 8.66223 29.6115 8.68557 29.6399 8.70877C29.9359 8.95 30.169 9.25818 30.3561 9.52864C30.4404 9.65055 30.5116 9.75833 30.5774 9.85799C30.6755 10.0066 30.7617 10.1371 30.8618 10.2695C31.967 11.731 32.1552 13.4629 31.8979 15.145C31.8829 15.243 31.8678 15.3458 31.8523 15.4521C31.7935 15.8535 31.7273 16.3051 31.6292 16.7412C31.5041 17.2973 31.3163 17.8848 30.9854 18.3975C30.8853 18.5526 30.7841 18.712 30.6813 18.874C30.238 19.572 29.7641 20.3185 29.2136 20.9816C28.3611 22.0085 27.4693 22.9681 26.4239 23.8429C25.6186 24.5167 24.676 25.1159 23.7937 25.6207C23.2908 25.9085 22.7762 26.077 22.2907 26.2087C22.0855 26.2644 21.898 26.3108 21.7174 26.3554C21.4417 26.4237 21.1821 26.4879 20.9003 26.575C19.63 26.9677 18.3219 27.289 17.0387 27.573C15.8223 27.8423 14.5669 27.8255 13.3988 27.8099C13.1313 27.8064 12.8684 27.8029 12.6116 27.8029C11.3076 27.8029 10.0888 27.6069 8.85019 27.2305C8.78959 27.2121 8.72891 27.1938 8.66816 27.1754C7.70613 26.8842 6.72729 26.588 5.77305 25.9939L5.72177 25.962C4.94981 25.4816 4.06129 24.9286 3.37323 24.1733C2.70158 23.436 2.03301 22.5938 1.50982 21.7118C0.938147 20.7481 0.628677 19.6506 0.353513 18.6746C0.343728 18.6399 0.333988 18.6054 0.32428 18.571C0.120695 17.85 0 17.2005 0 16.4133C0 15.6855 0.163526 14.9676 0.308833 14.3296C0.349788 14.1498 0.389295 13.9763 0.423286 13.8108C0.515975 13.3594 0.745998 12.9267 0.98632 12.5629C1.23113 12.1922 1.51426 11.8522 1.75213 11.5841C2.4714 10.7733 3.39895 10.0485 4.28261 9.48511C4.51258 9.3385 4.74344 9.18009 4.98409 9.01366C5.01088 8.99513 5.03781 8.97649 5.06488 8.95775C5.27806 8.8102 5.49934 8.65703 5.72383 8.50931C6.22947 8.17659 6.7824 7.85033 7.39103 7.62832C7.73802 7.50174 8.12264 7.36727 8.51134 7.25056C8.59494 7.17893 8.6798 7.13057 8.74882 7.09675C8.80071 7.07133 8.85678 7.04817 8.89039 7.03429C8.89601 7.03196 8.90101 7.0299 8.90525 7.02813C8.94433 7.01182 8.9607 7.00403 8.97093 6.99836C9.19028 6.87697 9.46376 6.70071 9.67362 6.54816C10.5501 5.91103 11.6295 5.65776 12.5484 5.44214C12.7306 5.39939 12.9065 5.35811 13.0732 5.31562C13.7807 5.13535 14.53 5.1027 15.2009 5.07346C15.4374 5.06315 15.6642 5.05327 15.876 5.0375C16.5819 4.98492 17.3197 4.99897 18.018 5.01228Z" fill="white"/>
<path fill-rule="evenodd" clip-rule="evenodd" d="M18.018 5.01228C18.3206 5.01804 18.6158 5.02366 18.8978 5.02366C19.2243 5.02366 19.5536 5.02235 19.8844 5.02103C20.5515 5.01837 21.2246 5.01568 21.8932 5.02371C22.3359 5.02902 22.7451 5.12537 23.0981 5.21896C23.1779 5.2401 23.2539 5.26079 23.3271 5.28073C23.5973 5.35429 23.83 5.41763 24.0736 5.45523C24.5309 5.5258 24.9437 5.70863 25.2896 5.87608C25.3828 5.92121 25.47 5.96454 25.5531 6.00581C25.8024 6.12963 26.0143 6.23487 26.2375 6.31427C26.667 6.46705 27.0284 6.7313 27.3216 6.96247C27.4067 7.02951 27.4851 7.09281 27.559 7.15256C27.7636 7.31785 27.9347 7.45604 28.121 7.57165C28.6444 7.8964 29.116 8.28125 29.5541 8.63877C29.5829 8.66223 29.6115 8.68557 29.6399 8.70877C29.9359 8.95 30.169 9.25818 30.3561 9.52864C30.4404 9.65055 30.5116 9.75833 30.5774 9.85799C30.6755 10.0066 30.7617 10.1371 30.8618 10.2695C31.967 11.731 32.1552 13.4629 31.8979 15.145C31.8829 15.243 31.8678 15.3458 31.8523 15.4521C31.7935 15.8535 31.7273 16.3051 31.6292 16.7412C31.5041 17.2973 31.3163 17.8848 30.9854 18.3975C30.8853 18.5526 30.7841 18.712 30.6813 18.874C30.238 19.572 29.7641 20.3185 29.2136 20.9816C28.3611 22.0085 27.4693 22.9681 26.4239 23.8429C25.6186 24.5167 24.676 25.1159 23.7937 25.6207C23.2908 25.9085 22.7762 26.077 22.2907 26.2087C22.0855 26.2644 21.898 26.3108 21.7174 26.3554C21.4417 26.4237 21.1821 26.4879 20.9003 26.575C19.63 26.9677 18.3219 27.289 17.0387 27.573C15.8223 27.8423 14.5669 27.8255 13.3988 27.8099C13.1313 27.8064 12.8684 27.8029 12.6116 27.8029C11.3076 27.8029 10.0888 27.6069 8.85019 27.2305C8.78959 27.2121 8.72891 27.1938 8.66816 27.1754C7.70613 26.8842 6.72729 26.588 5.77305 25.9939L5.72177 25.962C4.94981 25.4816 4.06129 24.9286 3.37323 24.1733C2.70158 23.436 2.03301 22.5938 1.50982 21.7118C0.938147 20.7481 0.628677 19.6506 0.353513 18.6746C0.343728 18.6399 0.333988 18.6054 0.32428 18.571C0.120695 17.85 0 17.2005 0 16.4133C0 15.6855 0.163526 14.9676 0.308833 14.3296C0.349788 14.1498 0.389295 13.9763 0.423286 13.8108C0.515975 13.3594 0.745998 12.9267 0.98632 12.5629C1.23113 12.1922 1.51426 11.8522 1.75213 11.5841C2.4714 10.7733 3.39895 10.0485 4.28261 9.48511C4.51258 9.3385 4.74344 9.18009 4.98409 9.01366C5.01088 8.99513 5.03781 8.97649 5.06488 8.95775C5.27806 8.8102 5.49934 8.65703 5.72383 8.50931C6.22947 8.17659 6.7824 7.85033 7.39103 7.62832C7.73802 7.50174 8.12264 7.36727 8.51134 7.25056C8.59494 7.17893 8.6798 7.13057 8.74882 7.09675C8.8007 7.07133 8.85678 7.04817 8.89039 7.03429C8.89601 7.03196 8.90101 7.0299 8.90525 7.02813C8.94433 7.01182 8.9607 7.00403 8.97093 6.99836C9.19028 6.87697 9.46376 6.70071 9.67362 6.54816C10.5501 5.91103 11.6295 5.65776 12.5484 5.44214C12.7306 5.39939 12.9065 5.35811 13.0732 5.31562C13.7807 5.13535 14.53 5.1027 15.2009 5.07346C15.4374 5.06315 15.6642 5.05327 15.876 5.0375C16.5819 4.98492 17.3197 4.99897 18.018 5.01228ZM9.15309 8.34611C9.25823 8.31767 9.36194 8.29156 9.46349 8.26834C9.46114 8.26888 9.46339 8.2686 9.47597 8.26704C9.4906 8.26522 9.5192 8.26168 9.57081 8.25567C9.64404 8.24713 9.74742 8.23493 9.85183 8.21597C9.95062 8.19802 10.0862 8.16801 10.2154 8.11146C10.319 8.06609 10.5761 7.9367 10.6777 7.6332C10.7097 7.53769 10.7168 7.43988 10.7025 7.34674C11.2939 7.00788 11.9786 6.8445 12.7553 6.65917C12.957 6.61102 13.165 6.56139 13.3791 6.50682C13.9538 6.36039 14.5081 6.33628 15.1325 6.30913C15.3962 6.29766 15.6725 6.28565 15.968 6.26364C16.6151 6.21544 17.2548 6.22784 17.9234 6.24081C18.2404 6.24695 18.5639 6.25322 18.8978 6.25322C19.2351 6.25322 19.5697 6.25188 19.9029 6.25055C20.5639 6.2479 21.2193 6.24527 21.8783 6.25318C22.1591 6.25655 22.4442 6.31797 22.7807 6.40717C22.8408 6.42309 22.9036 6.44026 22.9687 6.45805C23.246 6.53383 23.5646 6.62091 23.8846 6.6703C24.1478 6.71092 24.4205 6.8224 24.75 6.98193C24.8152 7.01348 24.8843 7.04789 24.9565 7.08381C25.2193 7.2146 25.5225 7.36551 25.8224 7.4722C26.0489 7.5528 26.2769 7.70688 26.5556 7.9266C26.6119 7.97096 26.672 8.01961 26.7352 8.07072C26.9545 8.24816 27.2105 8.45523 27.4684 8.61528C27.9216 8.8965 28.3357 9.2342 28.7885 9.60351C28.8117 9.62239 28.8349 9.64136 28.8583 9.6604C29.014 9.78731 29.1668 9.97643 29.3397 10.2263C29.3913 10.3009 29.4495 10.3886 29.511 10.4813C29.6282 10.6579 29.7574 10.8526 29.8759 11.0093C30.7173 12.122 30.9035 13.4831 30.6776 14.9598C30.6602 15.0737 30.6435 15.1872 30.6269 15.3003C30.5689 15.6957 30.5116 16.0862 30.4247 16.4724C30.314 16.9646 30.166 17.3934 29.9471 17.7326C29.836 17.9048 29.7274 18.0757 29.6199 18.2448C29.1795 18.9377 28.7578 19.6011 28.2623 20.198C27.4382 21.1908 26.5991 22.0905 25.6299 22.9014C24.9042 23.5087 24.0319 24.0664 23.1788 24.5546C22.8094 24.7659 22.4114 24.9016 21.9664 25.0223C21.8177 25.0627 21.6521 25.1039 21.4787 25.1471C21.1713 25.2237 20.8395 25.3064 20.5344 25.4007C19.309 25.7795 18.0371 26.0925 16.7709 26.3727C15.7087 26.6079 14.6322 26.5946 13.475 26.5803C13.1923 26.5768 12.9048 26.5733 12.6116 26.5733C11.4388 26.5733 10.3412 26.3982 9.21038 26.0545C9.16222 26.0399 9.11445 26.0254 9.06704 26.011C8.072 25.7092 7.23863 25.4564 6.42726 24.9513C5.61285 24.4442 4.85521 23.9704 4.28734 23.347C3.65176 22.6493 3.04019 21.8747 2.57252 21.0863C2.08423 20.2632 1.81278 19.3016 1.52378 18.2779L1.51254 18.2381C1.33014 17.5921 1.23436 17.0579 1.23436 16.4133C1.23436 15.8364 1.35561 15.301 1.4939 14.6903C1.53953 14.4889 1.58701 14.2792 1.63261 14.0572C1.67982 13.8273 1.81403 13.5468 2.01752 13.2387C2.21651 12.9374 2.45676 12.6466 2.67707 12.3983C3.29872 11.6976 4.12834 11.0433 4.948 10.5207C5.19959 10.3603 5.44752 10.19 5.68806 10.0237C5.7152 10.0049 5.74224 9.98617 5.76919 9.96752C5.9838 9.81898 6.19262 9.67445 6.40418 9.53524C6.88078 9.22164 7.34027 8.95624 7.81548 8.7829C8.14911 8.6612 8.49919 8.53926 8.84191 8.43552C8.95187 8.43376 9.05948 8.40267 9.15309 8.34611Z" fill="black"/>
<path fill-rule="evenodd" clip-rule="evenodd" d="M15.3013 7.7888C15.417 7.79132 15.5249 7.79368 15.6099 7.79368H18.3016C19.3655 7.79368 20.4207 7.81586 21.4799 7.85129C22.1543 7.87386 22.8691 8.16809 23.3947 8.38447C23.4586 8.41076 23.5197 8.4359 23.5775 8.45926C24.183 8.70372 24.7256 9.06088 25.2072 9.43056C25.3345 9.52828 25.4574 9.61305 25.5932 9.70662C25.6838 9.76912 25.7801 9.83554 25.8873 9.91238C26.1307 10.087 26.3977 10.2946 26.6205 10.5501C26.7443 10.6921 26.8857 10.8171 27.0592 10.9704C27.0885 10.9964 27.1189 11.0232 27.1502 11.051C27.3525 11.2308 27.5903 11.4496 27.7854 11.7247C28.1005 12.1688 28.4104 12.6262 28.6428 13.1869C28.9574 13.946 28.9452 14.803 28.9354 15.4901C28.9338 15.6037 28.9322 15.7127 28.9322 15.8158C28.9322 15.8746 28.9328 15.9381 28.9333 16.0043C28.9346 16.148 28.9359 16.3043 28.932 16.4516C28.9273 16.6295 28.8797 16.7852 28.7933 16.9246C28.7294 17.0277 28.6457 17.1152 28.6005 17.1624C28.5958 17.1672 28.5915 17.1717 28.5878 17.1757C28.566 17.1986 28.5445 17.2311 28.5196 17.2981C28.5065 17.3334 28.4937 17.3744 28.4786 17.4279C28.4742 17.4433 28.4686 17.4635 28.4624 17.4858C28.4514 17.5257 28.4385 17.5723 28.4274 17.6104C28.3118 18.0056 28.0992 18.352 27.9075 18.6409C27.8526 18.7237 27.8002 18.8007 27.7504 18.874C27.6124 19.077 27.4941 19.251 27.3962 19.4372C27.0677 20.0615 26.6529 20.4416 26.1467 20.8062C25.4848 21.2829 24.8077 21.7091 24.1206 22.1201C23.6694 22.39 23.1997 22.5973 22.7531 22.7846C22.6599 22.8237 22.5682 22.8618 22.4778 22.8993C22.125 23.0457 21.7917 23.1839 21.4652 23.3451C20.3012 23.9194 19.1609 24.2839 17.9522 24.6247C17.843 24.6555 17.7308 24.6877 17.6161 24.7206C16.7536 24.9683 15.7487 25.2568 14.7887 25.294C14.0673 25.3219 13.3306 25.3134 12.6124 25.3051C12.2752 25.3013 11.9421 25.2974 11.6166 25.2974C9.55646 25.2974 7.24577 24.7767 5.5512 23.4387C4.69571 22.7633 3.99097 21.9285 3.46797 20.9782C3.21927 20.5264 3.06931 19.9422 2.96551 19.5378L2.96471 19.5347C2.9618 19.5233 2.95885 19.5119 2.95587 19.5003C2.87954 19.2035 2.78247 18.8261 2.78247 18.4332C2.78247 17.6668 3.00967 16.9285 3.22385 16.2943C3.24008 16.2463 3.25635 16.1977 3.27276 16.1487C3.45524 15.6037 3.65604 15.0041 4.03505 14.443C5.01326 12.9948 6.1427 11.3583 7.87451 10.4646C8.11859 10.2131 8.41401 10.0553 8.70473 9.95214C8.75722 9.84725 8.84355 9.75778 8.95775 9.70143C9.31353 9.52586 9.87637 9.20928 10.3454 8.94548C10.5018 8.85752 10.6477 8.77542 10.7721 8.70638C11.0316 8.5623 11.3061 8.48328 11.5325 8.42481C11.5967 8.40822 11.6561 8.39345 11.7118 8.37959C11.8714 8.33985 12.001 8.30761 12.1298 8.26137C12.4543 8.14494 12.7904 8.10029 13.062 8.06435L13.0674 8.06364C13.3568 8.02533 13.5804 7.99575 13.7849 7.92976C14.1244 7.82022 14.4597 7.79022 14.7632 7.78392C14.9243 7.78057 15.1222 7.78489 15.3013 7.7888ZM10.945 9.88834C10.9806 9.94069 11.0078 9.99998 11.0241 10.0648C11.0991 10.3628 10.9151 10.6644 10.6131 10.7384C10.4387 10.7812 10.2298 10.8039 10.0515 10.8233L10.0306 10.8256C9.83749 10.8466 9.65004 10.8671 9.4646 10.9013C9.07475 10.9733 8.80918 11.088 8.65658 11.2688L8.58114 11.3581L8.47573 11.4101C6.99703 12.1398 5.99384 13.548 4.9726 15.0598C4.68168 15.4905 4.52647 15.9518 4.33437 16.5226C4.32073 16.5632 4.30689 16.6043 4.29281 16.646C4.07944 17.2778 3.90926 17.8643 3.90926 18.4332C3.90926 18.678 3.97232 18.9317 4.05699 19.2616C4.16877 19.697 4.28868 20.1396 4.4581 20.4474C4.91025 21.2689 5.51818 21.9885 6.2551 22.5703C7.68479 23.6991 9.71423 24.1854 11.6166 24.1854C11.9708 24.1854 12.3188 24.1894 12.6632 24.1934C13.3649 24.2016 14.0514 24.2096 14.7445 24.1828C15.5561 24.1514 16.4176 23.9051 17.2984 23.6534C17.4128 23.6207 17.5276 23.5879 17.6427 23.5554C18.8296 23.2207 19.891 22.8786 20.9613 22.3504C21.3243 22.1713 21.7009 22.0151 22.0572 21.8674C22.1436 21.8316 22.2288 21.7962 22.3123 21.7612C22.7507 21.5773 23.1581 21.3955 23.5366 21.1691C24.21 20.7663 24.8569 20.3584 25.4825 19.9078C25.9085 19.601 26.1765 19.3422 26.3961 18.9248C26.526 18.6779 26.6947 18.43 26.8418 18.2139C26.8852 18.1501 26.9267 18.0891 26.9648 18.0317C27.1473 17.7566 27.2789 17.5272 27.3448 17.302C27.3509 17.2809 27.3576 17.2557 27.3651 17.2271C27.416 17.0343 27.5074 16.6876 27.7649 16.416C27.7804 16.3996 27.7914 16.3881 27.8026 16.3762C27.804 16.3746 27.8054 16.3731 27.8067 16.3717C27.8087 16.2615 27.8078 16.155 27.8067 16.0409C27.8061 15.9698 27.8054 15.8957 27.8054 15.8158C27.8054 15.6855 27.8066 15.5586 27.8078 15.4349C27.8145 14.7358 27.8202 14.1396 27.5999 13.608C27.4183 13.17 27.1717 12.7985 26.8623 12.3624C26.747 12.1998 26.5941 12.0534 26.3961 11.8773C26.3705 11.8546 26.3438 11.831 26.3162 11.8067C26.1455 11.6563 25.9423 11.4772 25.7664 11.2755C25.6307 11.1199 25.4492 10.9729 25.2249 10.812C25.1542 10.7613 25.0726 10.7049 24.9869 10.6455C24.8301 10.537 24.6594 10.4189 24.5154 10.3084C24.0748 9.97016 23.6238 9.67947 23.1509 9.48854C23.0904 9.4641 23.0304 9.43969 22.971 9.41552C22.4082 9.18641 21.896 8.97792 21.4417 8.96272C20.3918 8.9276 19.3497 8.90575 18.3016 8.90575H15.6099C15.4575 8.90575 15.3343 8.90254 15.2189 8.89954C15.0765 8.89583 14.9459 8.89243 14.7869 8.89574C14.5372 8.90093 14.3259 8.92521 14.1351 8.98678C13.8299 9.08523 13.5141 9.12677 13.2566 9.16065C13.2414 9.16264 13.2265 9.16461 13.2118 9.16655C12.9261 9.20436 12.7079 9.23723 12.5149 9.30649C12.3266 9.37406 12.1198 9.42534 11.9482 9.46789C11.9018 9.4794 11.8579 9.49027 11.8177 9.50066C11.6068 9.55514 11.4507 9.60555 11.3245 9.67563C11.2177 9.73494 11.0878 9.80798 10.945 9.88834Z" fill="black"/>
<path fill-rule="evenodd" clip-rule="evenodd" d="M11.0523 13.9088C11.1381 13.9107 11.2173 13.9124 11.2857 13.9124C11.8258 13.9124 12.3237 14.0943 12.6984 14.4223C12.801 14.4426 12.9843 14.4847 13.1622 14.6198C13.3878 14.7912 13.4623 15.0189 13.495 15.143C13.5043 15.1784 13.5226 15.2597 13.5261 15.2752C13.5265 15.2767 13.5267 15.2776 13.5267 15.2777C13.53 15.2916 13.5322 15.2988 13.533 15.3014C13.695 15.6667 13.6341 16.0433 13.5519 16.3055C13.4657 16.5804 13.3258 16.8284 13.2054 17.0046C13.1325 17.1112 13.0519 17.2105 12.9831 17.2938C12.966 17.3145 12.9497 17.3341 12.9341 17.3528C12.8824 17.4151 12.8386 17.4678 12.7969 17.5221C12.6805 17.6736 12.55 17.7659 12.4635 17.8239C12.4373 17.8415 12.4162 17.8555 12.3987 17.867C12.35 17.8991 12.3287 17.9132 12.3016 17.9372C12.1188 18.0992 11.9153 18.2225 11.7408 18.3212C11.6712 18.3605 11.6092 18.3945 11.5515 18.4261C11.4484 18.4826 11.3593 18.5314 11.266 18.5895C10.8624 18.841 10.4475 18.9681 10.0733 19.0614C9.94128 19.0943 9.82011 19.122 9.7051 19.1483C9.47141 19.2018 9.26313 19.2494 9.04115 19.323C8.98254 19.3424 8.92385 19.3622 8.86492 19.382C8.27852 19.5793 7.66972 19.7842 6.90281 19.7423C6.78098 19.7356 6.65956 19.7261 6.5387 19.7111C6.29171 19.7479 6.0255 19.7511 5.77194 19.7137C5.36746 19.6541 4.84434 19.465 4.57385 18.963C4.30215 18.4586 3.91185 17.6797 4.4231 16.8271C4.44682 16.7876 4.4662 16.751 4.4881 16.7083C4.49085 16.703 4.49381 16.6972 4.49695 16.6911C4.51607 16.6537 4.54202 16.6029 4.56999 16.5545C4.64796 16.4195 4.74705 16.2904 4.90827 16.1569C5.01846 16.0656 5.14291 15.9901 5.22501 15.9404C5.23699 15.9331 5.24807 15.9264 5.25808 15.9202C5.35447 15.861 5.39818 15.829 5.42601 15.8009C5.63127 15.593 5.87983 15.4639 6.05173 15.3761C6.06871 15.3674 6.08506 15.3591 6.10083 15.351C6.27083 15.2644 6.37259 15.2125 6.45561 15.1459C6.67335 14.9712 6.87978 14.8889 7.05951 14.8339C7.13992 14.8093 7.19786 14.7937 7.2471 14.7805C7.3217 14.7605 7.37631 14.7458 7.45883 14.7131C7.70392 14.616 7.95499 14.5537 8.189 14.506C8.39401 14.4315 8.60896 14.3593 8.83112 14.3006C8.96788 14.2645 9.09217 14.2247 9.23094 14.1803C9.31725 14.1526 9.40915 14.1232 9.51314 14.0917C9.76069 14.0168 10.045 13.9418 10.3463 13.9174C10.5775 13.8986 10.8358 13.9042 11.0523 13.9088ZM6.61991 16.6219C6.61994 16.6218 6.62021 16.6229 6.62063 16.6254C6.62008 16.6231 6.61987 16.6219 6.61991 16.6219ZM11.7948 16.6189C11.7765 16.5989 11.7597 16.5799 11.7448 16.5626C11.7068 16.5185 11.6696 16.4728 11.6414 16.4383C11.6378 16.4338 11.6343 16.4295 11.6309 16.4255C11.6104 16.4003 11.5988 16.3865 11.5933 16.3799C11.5886 16.3743 11.5884 16.374 11.5907 16.3764C11.5333 16.3183 11.459 16.2637 11.3402 16.1831C11.329 16.1755 11.3172 16.1676 11.305 16.1593C11.2015 16.0895 11.0622 15.9956 10.9349 15.8828C10.6478 15.6285 10.3183 15.5538 10.0901 15.6462C9.93533 15.7089 9.76234 15.81 9.56352 15.9402C9.49563 15.9846 9.41509 16.0392 9.33091 16.0962C9.20345 16.1825 9.06764 16.2745 8.95473 16.3457C8.86187 16.4042 8.79382 16.4441 8.73295 16.4798C8.6593 16.523 8.59617 16.5601 8.5123 16.6164C8.39098 16.6979 8.31592 16.766 8.26716 16.8339C8.14115 17.0093 8.08804 17.1749 8.08754 17.2771C8.08732 17.3205 8.09622 17.3421 8.10299 17.3538C8.10911 17.3644 8.12938 17.3947 8.19694 17.431C8.31043 17.4919 8.52995 17.5289 8.85639 17.5089C9.16451 17.49 9.48792 17.4263 9.75159 17.3655C9.87259 17.3376 10.0018 17.3124 10.1236 17.2886C10.1344 17.2865 10.1451 17.2844 10.1557 17.2823C10.2908 17.2559 10.4196 17.2303 10.5443 17.2007C10.8021 17.1395 10.9919 17.072 11.1187 16.9904C11.2616 16.8983 11.4102 16.8215 11.5328 16.7584L11.5388 16.7553C11.6374 16.7045 11.7201 16.6619 11.7948 16.6189Z" fill="black"/>
<path fill-rule="evenodd" clip-rule="evenodd" d="M25.2425 12.5491C25.7615 12.6054 26.3137 12.7477 26.8134 13.1154C26.8488 13.1414 26.8958 13.1708 26.9737 13.2196L26.984 13.2261C27.0591 13.2732 27.1563 13.3345 27.251 13.4051C27.42 13.531 27.7017 13.7709 27.7821 14.1573C27.8221 14.3498 27.8412 14.5843 27.8121 14.8186C27.7839 15.0461 27.7016 15.3371 27.4807 15.5647C26.9404 16.121 26.1164 16.7208 25.3062 16.9433C24.4626 17.175 23.6047 17.2422 22.771 17.2422C22.73 17.2422 22.6874 17.2425 22.6434 17.2428C22.3561 17.2446 22.0087 17.2469 21.6604 17.1751C21.5169 17.1456 21.3364 17.0721 21.1882 16.9925C21.1099 16.9504 21.0221 16.8968 20.9412 16.8321C20.8716 16.7766 20.7551 16.6728 20.6814 16.5165C20.6799 16.5143 20.6733 16.5045 20.6563 16.486C20.6283 16.4555 20.594 16.4243 20.5345 16.3703C20.5294 16.3657 20.5239 16.3607 20.518 16.3554C20.4226 16.2695 20.2245 16.0913 20.1233 15.8355C20.0732 15.7089 20.0465 15.5807 20.0321 15.4633C20.0129 15.4341 19.9944 15.4055 19.9765 15.3779C19.8046 15.1123 19.729 14.8192 19.7656 14.5206C19.8006 14.2348 19.9313 14.0001 20.0726 13.8217C20.3456 13.4769 20.7471 13.2309 21.0235 13.0845C21.2847 12.9461 21.5479 12.8766 21.7639 12.825C21.8102 12.8139 21.8537 12.8038 21.895 12.7942C22.0625 12.7552 22.1943 12.7245 22.3275 12.6755C22.7888 12.5058 23.2457 12.5117 23.6126 12.5164C23.6702 12.5171 23.7256 12.5178 23.7784 12.5178C23.8726 12.5178 23.9721 12.5167 24.0754 12.5155C24.4394 12.5114 24.8507 12.5067 25.2425 12.5491ZM23.5056 14.1108C23.407 14.2306 23.2866 14.3045 23.1928 14.348C23.0622 14.4087 22.9116 14.4433 22.8252 14.4632C22.816 14.4653 22.8076 14.4672 22.7999 14.469C22.7679 14.4765 22.742 14.4829 22.7208 14.4885C22.7243 14.5411 22.7446 14.5837 22.7774 14.6292C22.8502 14.7301 22.9915 14.8424 23.2037 14.9517C23.3303 15.0168 23.4379 15.0994 23.5048 15.1507C23.5095 15.1542 23.5139 15.1576 23.5181 15.1609C23.5932 15.2182 23.6263 15.2411 23.653 15.2547C23.6574 15.2558 23.6753 15.2597 23.7156 15.2613C23.7456 15.2624 23.7799 15.262 23.8257 15.2609C23.8338 15.2606 23.8426 15.2604 23.852 15.2601C23.8897 15.2591 23.9365 15.2578 23.9805 15.2578C24.0383 15.2578 24.0991 15.2597 24.148 15.2612C24.1631 15.2617 24.1769 15.2622 24.1893 15.2625C24.2493 15.2642 24.2905 15.2642 24.3246 15.2618C24.3572 15.2596 24.3741 15.2557 24.3823 15.2532C24.3887 15.2512 24.3911 15.2497 24.3939 15.2478C24.3993 15.2439 24.4047 15.2401 24.4102 15.2362C24.5191 15.1585 24.6434 15.0699 24.7716 14.9861C24.7983 14.9151 24.8453 14.8198 24.9317 14.7306C24.9326 14.7294 24.9373 14.7235 24.9459 14.7095C24.9595 14.6874 24.9735 14.6609 24.9985 14.6127C25.0009 14.6081 25.0034 14.6032 25.0061 14.598C25.0481 14.5166 25.1291 14.3595 25.2583 14.2264C25.2615 14.2231 25.2646 14.2199 25.2675 14.2167C25.2418 14.2058 25.212 14.1945 25.1783 14.1834C25.0223 14.1319 24.8648 14.1108 24.801 14.1108H23.5056ZM25.3645 14.2693C25.3644 14.2693 25.3637 14.2687 25.3624 14.2676C25.3639 14.2687 25.3645 14.2693 25.3645 14.2693ZM24.7316 15.1208C24.7306 15.1246 24.7306 15.124 24.7318 15.12C24.7317 15.1203 24.7317 15.1206 24.7316 15.1208ZM22.6341 14.5165C22.634 14.5166 22.634 14.5166 22.634 14.5166C22.6339 14.5166 22.6339 14.5166 22.6339 14.5166" fill="black"/>
<path fill-rule="evenodd" clip-rule="evenodd" d="M17.3596 18.3933C17.3332 18.415 17.3095 18.4314 17.2914 18.4432C17.1317 18.5472 16.9398 18.5877 16.8185 18.607C16.6766 18.6295 16.5238 18.6383 16.3888 18.6334C16.3213 18.631 16.2484 18.6248 16.1778 18.6119C16.1225 18.6018 16.0084 18.5777 15.8976 18.5072C15.7286 18.3998 15.5595 18.2317 15.4448 18.0167C15.3275 17.7966 15.2433 17.4736 15.3614 17.1259C15.5343 16.6167 15.9601 16.3834 16.263 16.2757C16.5848 16.1613 16.9249 16.1304 17.1612 16.1304C17.6637 16.1304 18.1756 16.3049 18.5912 16.6573C18.703 16.7522 18.9697 17.0118 18.9144 17.4207C18.8619 17.8094 18.5622 17.9707 18.4795 18.0121C18.2817 18.1112 18.0422 18.1448 17.8962 18.1516C17.8876 18.1582 17.8795 18.164 17.8721 18.1692C17.8137 18.2104 17.7545 18.2426 17.7042 18.267C17.6034 18.3158 17.497 18.3534 17.4111 18.3787C17.3969 18.3829 17.3794 18.388 17.3596 18.3933Z" fill="black"/>
<path fill-rule="evenodd" clip-rule="evenodd" d="M15.8797 21.6855C15.7226 21.7286 15.4962 21.7907 15.2573 21.7978C15.1371 21.8014 15.0485 21.8359 14.8757 21.9033C14.8083 21.9296 14.728 21.9608 14.628 21.9972C14.4862 22.0489 14.3931 22.0947 14.3254 22.1458C14.3225 22.1494 14.3194 22.1533 14.3154 22.1583C14.3126 22.1619 14.3093 22.166 14.3053 22.1709C14.2944 22.1845 14.2792 22.2035 14.2621 22.2235C14.2304 22.2606 14.1752 22.3224 14.1009 22.379C14.0248 22.4368 13.9052 22.5076 13.747 22.5265C13.4165 22.5661 13.1188 22.3093 13.0821 21.953C13.0535 21.675 13.1921 21.4185 13.4114 21.3004C13.4167 21.2939 13.4223 21.2869 13.4276 21.2804C13.4413 21.2637 13.4598 21.2415 13.4815 21.2181C13.503 21.1948 13.5324 21.1649 13.5688 21.1345C13.7975 20.9439 14.0459 20.8388 14.2428 20.7672C14.2747 20.7555 14.3129 20.7403 14.3563 20.7229C14.563 20.6402 14.8883 20.5101 15.2238 20.5C15.3209 20.4971 15.4255 20.47 15.6171 20.4179L15.6247 20.4158C15.7918 20.3703 16.0336 20.3044 16.2973 20.3044H16.6244C16.8576 20.3044 17.029 20.4144 17.1038 20.4688C17.2807 20.5043 17.417 20.5817 17.4811 20.6183C17.4865 20.6213 17.4913 20.624 17.4956 20.6265C17.5138 20.6366 17.5272 20.6437 17.5367 20.6486C17.845 20.6769 18.0871 20.9557 18.0871 21.2954C18.0871 21.6539 17.8175 21.9445 17.4849 21.9445C17.2325 21.9445 17.0333 21.8313 16.9537 21.7861C16.9488 21.7833 16.9444 21.7808 16.9404 21.7786C16.9088 21.7608 16.8896 21.751 16.8796 21.746C16.7513 21.7331 16.6496 21.6877 16.5798 21.6477C16.5544 21.6333 16.5299 21.6172 16.5088 21.6028H16.2973C16.2004 21.6028 16.0936 21.6272 15.9119 21.6767C15.9015 21.6795 15.8908 21.6825 15.8797 21.6855ZM16.4337 21.5485C16.4336 21.5482 16.4361 21.5498 16.4416 21.5536C16.4365 21.5506 16.4338 21.5487 16.4337 21.5485ZM14.3379 22.1308C14.3379 22.1309 14.3373 22.1315 14.3362 22.1327C14.3373 22.1314 14.3379 22.1308 14.3379 22.1308Z" fill="black"/>
</svg>
