<svg width="60" height="60" viewBox="0 0 60 60" fill="none" xmlns="http://www.w3.org/2000/svg">
<path fill-rule="evenodd" clip-rule="evenodd" d="M33.7838 9.02302C34.3512 9.03382 34.9047 9.04436 35.4334 9.04436C36.0456 9.04436 36.663 9.0419 37.2832 9.03943C38.5341 9.03444 39.7962 9.0294 41.0497 9.04445C41.8797 9.05441 42.647 9.23507 43.309 9.41055C43.4585 9.45018 43.601 9.48898 43.7383 9.52636C44.245 9.6643 44.6812 9.78305 45.1381 9.85356C45.9954 9.98588 46.7695 10.3287 47.418 10.6426C47.5927 10.7273 47.7563 10.8085 47.9121 10.8859C48.3796 11.1181 48.7769 11.3154 49.1953 11.4642C50.0006 11.7507 50.6783 12.2462 51.2281 12.6796C51.3876 12.8053 51.5345 12.924 51.6732 13.0361C52.0568 13.346 52.3776 13.6051 52.7269 13.8218C53.7082 14.4308 54.5925 15.1523 55.414 15.8227C55.4679 15.8667 55.5215 15.9104 55.5749 15.9539C56.1299 16.4062 56.5669 16.9841 56.9177 17.4912C57.0758 17.7198 57.2092 17.9219 57.3326 18.1087C57.5165 18.3873 57.6782 18.6321 57.8659 18.8804C59.9381 21.6206 60.291 24.8679 59.8085 28.0219C59.7804 28.2057 59.7522 28.3984 59.723 28.5977C59.6127 29.3502 59.4887 30.1971 59.3047 31.0148C59.0702 32.0574 58.718 33.159 58.0976 34.1204C57.9099 34.4112 57.7202 34.71 57.5274 35.0137C56.6963 36.3225 55.8076 37.7221 54.7755 38.9655C53.177 40.891 51.505 42.6902 49.5447 44.3305C48.0349 45.5938 46.2674 46.7172 44.6131 47.6639C43.6703 48.2034 42.7054 48.5194 41.7951 48.7663C41.4104 48.8707 41.0588 48.9577 40.7201 49.0415C40.2032 49.1694 39.7164 49.2898 39.188 49.4531C36.8062 50.1894 34.3536 50.7918 31.9476 51.3244C29.6669 51.8293 27.313 51.7979 25.1227 51.7686C24.6212 51.7619 24.1282 51.7554 23.6467 51.7554C21.2017 51.7554 18.9164 51.388 16.5941 50.6823C16.4805 50.6477 16.3667 50.6133 16.2528 50.5788C14.449 50.0329 12.6137 49.4775 10.8245 48.3636L10.7283 48.3038C9.2809 47.4029 7.61493 46.3661 6.3248 44.9499C5.06547 43.5674 3.8119 41.9884 2.83092 40.3347C1.75903 38.5278 1.17877 36.4698 0.662836 34.6399C0.644491 34.5749 0.626227 34.5101 0.608025 34.4456C0.226303 33.0937 0 31.8759 0 30.3999C0 29.0354 0.306611 27.6892 0.579062 26.493C0.655852 26.1558 0.729928 25.8306 0.793661 25.5202C0.967454 24.6739 1.39875 23.8626 1.84935 23.1804C2.30837 22.4854 2.83924 21.8479 3.28525 21.3452C4.63388 19.825 6.37302 18.4659 8.0299 17.4096C8.46109 17.1347 8.89396 16.8377 9.34516 16.5256C9.3954 16.4909 9.4459 16.4559 9.49665 16.4208C9.89636 16.1441 10.3113 15.8569 10.7322 15.58C11.6803 14.9561 12.717 14.3444 13.8582 13.9281C14.5088 13.6908 15.23 13.4386 15.9588 13.2198C16.1155 13.0855 16.2746 12.9948 16.404 12.9314C16.5013 12.8837 16.6065 12.8403 16.6695 12.8143C16.68 12.8099 16.6894 12.8061 16.6973 12.8027C16.7706 12.7722 16.8013 12.7576 16.8205 12.7469C17.2318 12.5193 17.7445 12.1888 18.138 11.9028C19.7815 10.7082 21.8052 10.2333 23.5282 9.82901C23.8698 9.74885 24.1996 9.67146 24.5123 9.59179C25.8388 9.25378 27.2437 9.19256 28.5018 9.13773C28.9452 9.11841 29.3704 9.09988 29.7675 9.0703C31.0911 8.97173 32.4744 8.99808 33.7838 9.02302Z" fill="white"/>
<path fill-rule="evenodd" clip-rule="evenodd" d="M33.7838 9.02302C34.3512 9.03382 34.9047 9.04436 35.4334 9.04436C36.0456 9.04436 36.663 9.0419 37.2832 9.03943C38.5341 9.03444 39.7962 9.0294 41.0497 9.04445C41.8797 9.05441 42.647 9.23507 43.309 9.41055C43.4585 9.45018 43.601 9.48898 43.7383 9.52636C44.245 9.6643 44.6812 9.78305 45.1381 9.85356C45.9954 9.98588 46.7695 10.3287 47.418 10.6426C47.5927 10.7273 47.7563 10.8085 47.9121 10.8859C48.3796 11.1181 48.7769 11.3154 49.1953 11.4642C50.0006 11.7507 50.6783 12.2462 51.2281 12.6796C51.3875 12.8053 51.5345 12.924 51.6732 13.0361C52.0568 13.346 52.3776 13.6051 52.7269 13.8218C53.7082 14.4308 54.5925 15.1523 55.414 15.8227C55.4679 15.8667 55.5215 15.9104 55.5749 15.9539C56.1299 16.4062 56.5669 16.9841 56.9177 17.4912C57.0758 17.7198 57.2092 17.9219 57.3326 18.1087C57.5165 18.3873 57.6782 18.6321 57.8659 18.8804C59.9381 21.6206 60.291 24.8679 59.8085 28.0219C59.7804 28.2057 59.7522 28.3984 59.723 28.5977C59.6127 29.3502 59.4887 30.1971 59.3047 31.0148C59.0702 32.0574 58.718 33.159 58.0976 34.1204C57.9099 34.4112 57.7202 34.71 57.5274 35.0137C56.6963 36.3225 55.8076 37.7221 54.7755 38.9655C53.177 40.891 51.505 42.6902 49.5447 44.3305C48.0349 45.5938 46.2674 46.7172 44.6131 47.6639C43.6703 48.2034 42.7054 48.5194 41.7951 48.7663C41.4104 48.8707 41.0588 48.9577 40.7201 49.0415C40.2032 49.1694 39.7164 49.2898 39.188 49.4531C36.8062 50.1894 34.3536 50.7918 31.9476 51.3244C29.6669 51.8293 27.313 51.7979 25.1227 51.7686C24.6212 51.7619 24.1282 51.7554 23.6467 51.7554C21.2017 51.7554 18.9164 51.388 16.5941 50.6823C16.4805 50.6477 16.3667 50.6133 16.2528 50.5788C14.449 50.0329 12.6137 49.4775 10.8245 48.3636L10.7283 48.3038C9.2809 47.4029 7.61493 46.3661 6.3248 44.9499C5.06547 43.5674 3.8119 41.9883 2.83092 40.3347C1.75903 38.5278 1.17877 36.4698 0.662836 34.6399C0.644491 34.5749 0.626227 34.5101 0.608025 34.4456C0.226302 33.0937 0 31.8759 0 30.3999C0 29.0354 0.306611 27.6892 0.579062 26.493C0.655852 26.1558 0.729928 25.8306 0.793661 25.5202C0.967454 24.6739 1.39875 23.8626 1.84935 23.1804C2.30837 22.4854 2.83924 21.8479 3.28525 21.3452C4.63388 19.825 6.37302 18.4659 8.0299 17.4096C8.46109 17.1347 8.89396 16.8377 9.34516 16.5256C9.3954 16.4909 9.4459 16.4559 9.49665 16.4208C9.89636 16.1441 10.3113 15.8569 10.7322 15.58C11.6803 14.9561 12.717 14.3444 13.8582 13.9281C14.5088 13.6908 15.23 13.4386 15.9588 13.2198C16.1155 13.0855 16.2746 12.9948 16.404 12.9314C16.5013 12.8837 16.6065 12.8403 16.6695 12.8143C16.68 12.8099 16.6894 12.8061 16.6973 12.8027C16.7706 12.7722 16.8013 12.7576 16.8205 12.7469C17.2318 12.5193 17.7445 12.1888 18.138 11.9028C19.7815 10.7082 21.8052 10.2333 23.5282 9.82901C23.8698 9.74885 24.1996 9.67146 24.5123 9.59179C25.8388 9.25378 27.2437 9.19256 28.5018 9.13773C28.9452 9.11841 29.3704 9.09988 29.7675 9.0703C31.0911 8.97173 32.4744 8.99808 33.7838 9.02302ZM17.162 15.274C17.3592 15.2206 17.5536 15.1717 17.744 15.1281C17.7396 15.1291 17.7438 15.1286 17.7674 15.1257C17.7949 15.1223 17.8485 15.1156 17.9453 15.1044C18.0826 15.0884 18.2764 15.0655 18.4722 15.0299C18.6574 14.9963 18.9117 14.94 19.1538 14.834C19.348 14.7489 19.8303 14.5063 20.0207 13.9373C20.0806 13.7582 20.094 13.5748 20.0673 13.4001C21.1761 12.7648 22.4599 12.4584 23.9161 12.1109C24.2944 12.0207 24.6844 11.9276 25.0859 11.8253C26.1633 11.5507 27.2028 11.5055 28.3734 11.4546C28.8679 11.4331 29.3859 11.4106 29.9401 11.3693C31.1533 11.279 32.3527 11.3022 33.6064 11.3265C34.2008 11.338 34.8073 11.3498 35.4334 11.3498C36.0658 11.3498 36.6932 11.3473 37.318 11.3448C38.5573 11.3398 39.7861 11.3349 41.0218 11.3497C41.5483 11.356 42.0828 11.4712 42.7138 11.6385C42.8264 11.6683 42.9442 11.7005 43.0663 11.7339C43.5863 11.8759 44.1837 12.0392 44.7837 12.1318C45.2772 12.208 45.7884 12.417 46.4062 12.7161C46.5284 12.7753 46.658 12.8398 46.7933 12.9071C47.2861 13.1524 47.8546 13.4353 48.4169 13.6354C48.8417 13.7865 49.2692 14.0754 49.7918 14.4874C49.8973 14.5706 50.01 14.6618 50.1285 14.7576C50.5397 15.0903 51.0196 15.4786 51.5032 15.7786C52.3529 16.3059 53.1294 16.9391 53.9785 17.6316C54.0219 17.667 54.0655 17.7025 54.1093 17.7382C54.4013 17.9762 54.6878 18.3308 55.0119 18.7993C55.1086 18.9392 55.2178 19.1036 55.3331 19.2775C55.5528 19.6086 55.7951 19.9736 56.0173 20.2674C57.5949 22.3538 57.9441 24.9058 57.5205 27.6746C57.4878 27.8882 57.4566 28.101 57.4255 28.3131C57.3167 29.0544 57.2092 29.7867 57.0463 30.5107C56.8387 31.4337 56.5613 32.2375 56.1507 32.8737C55.9424 33.1964 55.7388 33.5169 55.5372 33.834C54.7115 35.1332 53.921 36.3771 52.9919 37.4963C51.4466 39.3578 49.8733 41.0447 48.0561 42.5652C46.6954 43.7038 45.0597 44.7496 43.4602 45.6649C42.7677 46.0612 42.0213 46.3156 41.187 46.5419C40.9083 46.6175 40.5977 46.6949 40.2725 46.7759C39.6962 46.9195 39.074 47.0745 38.502 47.2513C36.2044 47.9616 33.8196 48.5484 31.4455 49.0739C29.4538 49.5148 27.4355 49.4899 25.2656 49.4631C24.7356 49.4566 24.1966 49.4499 23.6467 49.4499C21.4477 49.4499 19.3898 49.1215 17.2695 48.4772C17.1792 48.4497 17.0896 48.4226 17.0007 48.3956C15.135 47.8297 13.5724 47.3557 12.0511 46.4086C10.5241 45.4579 9.10352 44.5695 8.03877 43.4006C6.84706 42.0924 5.70036 40.64 4.82347 39.1618C3.90794 37.6185 3.39896 35.8156 2.85708 33.8961L2.83601 33.8214C2.49401 32.6102 2.31442 31.6086 2.31442 30.3999C2.31442 29.3182 2.54177 28.3143 2.80107 27.1694C2.88662 26.7917 2.97565 26.3986 3.06113 25.9822C3.14966 25.5511 3.40132 25.0252 3.78285 24.4475C4.15596 23.8826 4.60642 23.3374 5.01951 22.8718C6.1851 21.558 7.74064 20.3311 9.2775 19.3514C9.74922 19.0506 10.2141 18.7313 10.6651 18.4194C10.716 18.3842 10.7667 18.3491 10.8172 18.3141C11.2196 18.0356 11.6112 17.7646 12.0078 17.5036C12.9015 16.9156 13.763 16.418 14.654 16.0929C15.2796 15.8647 15.936 15.6361 16.5786 15.4416C16.7847 15.4383 16.9865 15.38 17.162 15.274Z" fill="black"/>
<path fill-rule="evenodd" clip-rule="evenodd" d="M28.6901 14.2289C28.9071 14.2337 29.1093 14.2381 29.2686 14.2381H34.3156C36.3105 14.2381 38.2889 14.2797 40.2749 14.3461C41.5396 14.3884 42.8797 14.9401 43.8653 15.3458C43.985 15.3951 44.0995 15.4423 44.208 15.4861C45.3433 15.9444 46.3607 16.6141 47.2637 17.3072C47.5023 17.4905 47.7329 17.6494 47.9873 17.8248C48.1573 17.942 48.3379 18.0666 48.5388 18.2107C48.9953 18.538 49.4959 18.9274 49.9136 19.4064C50.1456 19.6726 50.4108 19.907 50.7361 20.1944C50.7912 20.2432 50.848 20.2934 50.9067 20.3456C51.286 20.6827 51.732 21.093 52.0979 21.6088C52.6885 22.4415 53.2696 23.2991 53.7054 24.3505C54.2953 25.7738 54.2724 27.3806 54.254 28.6689C54.2509 28.8819 54.248 29.0863 54.248 29.2796C54.248 29.3897 54.2491 29.5089 54.2501 29.633C54.2525 29.9024 54.255 30.1955 54.2477 30.4717C54.2388 30.8053 54.1495 31.0972 53.9876 31.3585C53.8678 31.5519 53.7107 31.7159 53.6261 31.8043C53.6173 31.8135 53.6093 31.8219 53.6022 31.8294C53.5614 31.8724 53.5211 31.9333 53.4744 32.0588C53.4498 32.125 53.4259 32.2019 53.3974 32.3023C53.3893 32.3311 53.3788 32.369 53.3672 32.4108C53.3465 32.4856 53.3223 32.5731 53.3015 32.6445C53.0847 33.3854 52.6861 34.035 52.3267 34.5767C52.2237 34.7319 52.1255 34.8763 52.0321 35.0137C51.7734 35.3944 51.5516 35.7206 51.368 36.0698C50.7522 37.2402 49.9743 37.9529 49.0252 38.6365C47.7841 39.5303 46.5146 40.3295 45.2263 41.1001C44.3802 41.6062 43.4995 41.9949 42.6623 42.3461C42.4875 42.4194 42.3156 42.4908 42.1461 42.5611C41.4845 42.8356 40.8596 43.0948 40.2475 43.3969C38.065 44.4739 35.9268 45.1572 33.6606 45.7963C33.4558 45.854 33.2454 45.9144 33.0304 45.9762C31.4132 46.4405 29.5289 46.9815 27.7289 47.0511C26.3763 47.1035 24.995 47.0876 23.6484 47.0721C23.0161 47.0648 22.3916 47.0576 21.7812 47.0576C17.9185 47.0576 13.586 46.0812 10.4087 43.5725C8.80461 42.306 7.48322 40.7408 6.50259 38.9591C6.03628 38.1119 5.75511 37.0165 5.56049 36.2583L5.55898 36.2524C5.55353 36.2312 5.54799 36.2097 5.5424 36.1879C5.39929 35.6316 5.21729 34.9239 5.21729 34.1872C5.21729 32.7503 5.64328 31.3659 6.04487 30.1768C6.07531 30.0867 6.1058 29.9956 6.13658 29.9037C6.47873 28.8819 6.85522 27.7575 7.56588 26.7055C9.40001 23.9902 11.5177 20.9217 14.7649 19.246C15.2225 18.7745 15.7764 18.4786 16.3215 18.2852C16.4199 18.0885 16.5818 17.9208 16.7959 17.8151C17.463 17.4859 18.5183 16.8923 19.3977 16.3977C19.691 16.2328 19.9646 16.0789 20.1978 15.9494C20.6844 15.6792 21.1991 15.5311 21.6236 15.4215C21.7441 15.3904 21.8553 15.3627 21.9597 15.3367C22.2591 15.2622 22.502 15.2017 22.7436 15.115C23.3519 14.8967 23.9822 14.813 24.4914 14.7456L24.5014 14.7443C25.0442 14.6724 25.4634 14.617 25.8469 14.4932C26.4835 14.2878 27.1121 14.2316 27.6811 14.2198C27.9833 14.2135 28.3544 14.2216 28.6901 14.2289ZM20.5219 18.1656C20.5889 18.2637 20.6399 18.3749 20.6704 18.4964C20.811 19.0552 20.4659 19.6207 19.8997 19.7595C19.5726 19.8396 19.181 19.8823 18.8468 19.9187L18.8075 19.9229C18.4454 19.9624 18.094 20.0007 17.7463 20.0649C17.0153 20.2 16.5174 20.415 16.2312 20.7539L16.0898 20.9214L15.8921 21.0189C13.1196 22.3871 11.2386 25.0274 9.32377 27.8621C8.7783 28.6696 8.48728 29.5345 8.1271 30.6049C8.10152 30.6809 8.07558 30.758 8.04918 30.8362C7.6491 32.0207 7.33001 33.1206 7.33001 34.1872C7.33001 34.6462 7.44824 35.1218 7.60701 35.7404C7.8166 36.5569 8.04143 37.3867 8.3591 37.9638C9.20687 39.5041 10.3467 40.8534 11.7285 41.9443C14.4091 44.0608 18.2143 44.9725 21.7812 44.9725C22.4454 44.9725 23.0979 44.9801 23.7436 44.9876C25.0593 45.0029 26.3466 45.0179 27.6461 44.9676C29.1678 44.9087 30.7832 44.447 32.4346 43.975C32.6492 43.9137 32.8645 43.8522 33.0802 43.7914C35.3057 43.1638 37.2958 42.5222 39.3026 41.5319C39.9833 41.1961 40.6893 40.9033 41.3573 40.6263C41.5193 40.5591 41.6791 40.4929 41.8358 40.4272C42.6577 40.0823 43.4216 39.7414 44.1313 39.3169C45.394 38.5617 46.6069 37.7968 47.7798 36.9522C48.5787 36.3768 49.0811 35.8916 49.4929 35.1089C49.7365 34.6459 50.0528 34.1811 50.3285 33.776C50.4099 33.6564 50.4878 33.542 50.5592 33.4344C50.9014 32.9186 51.1481 32.4885 51.2716 32.0662C51.2832 32.0267 51.2956 31.9794 51.3098 31.9258C51.4051 31.5643 51.5765 30.9142 52.0593 30.4049C52.0884 30.3743 52.109 30.3526 52.1299 30.3302C52.1327 30.3273 52.1353 30.3245 52.1378 30.3218C52.1415 30.1152 52.1397 29.9156 52.1378 29.7015C52.1366 29.5682 52.1353 29.4293 52.1353 29.2796C52.1353 29.0352 52.1376 28.7973 52.1398 28.5654C52.1523 27.2545 52.1631 26.1366 51.7499 25.14C51.4095 24.3187 50.947 23.6222 50.367 22.8045C50.1508 22.4996 49.8642 22.225 49.4928 21.8949C49.4448 21.8522 49.3947 21.8081 49.3431 21.7626C49.0229 21.4805 48.6419 21.1447 48.3121 20.7664C48.0578 20.4747 47.7174 20.1991 47.2969 19.8975C47.1642 19.8023 47.0113 19.6965 46.8506 19.5853C46.5566 19.3819 46.2365 19.1604 45.9666 18.9531C45.1404 18.319 44.2948 17.7739 43.4081 17.4159C43.2946 17.3701 43.1822 17.3244 43.0708 17.279C42.0154 16.8495 41.0551 16.4585 40.2033 16.43C38.2348 16.3642 36.2809 16.3232 34.3156 16.3232H29.2686C28.983 16.3232 28.752 16.3172 28.5356 16.3116C28.2686 16.3046 28.0237 16.2982 27.7256 16.3044C27.2574 16.3142 26.8611 16.3597 26.5034 16.4751C25.9312 16.6597 25.3391 16.7376 24.8562 16.8012C24.8278 16.8049 24.7998 16.8086 24.7722 16.8122C24.2365 16.8831 23.8274 16.9447 23.4656 17.0746C23.1125 17.2013 22.7248 17.2974 22.403 17.3772C22.316 17.3988 22.2338 17.4192 22.1584 17.4387C21.7629 17.5408 21.4703 17.6353 21.2336 17.7668C21.0333 17.8779 20.7898 18.0149 20.5219 18.1656Z" fill="black"/>
<path fill-rule="evenodd" clip-rule="evenodd" d="M20.7234 25.7041C20.8841 25.7075 21.0327 25.7107 21.1609 25.7107C22.1737 25.7107 23.1071 26.0519 23.8097 26.6667C24.0022 26.7049 24.3458 26.7839 24.6793 27.0371C25.1025 27.3585 25.242 27.7854 25.3033 28.018C25.3208 28.0845 25.3552 28.237 25.3617 28.2659C25.3624 28.2689 25.3627 28.2706 25.3628 28.2707C25.3691 28.2967 25.3731 28.3103 25.3746 28.3152C25.6785 29 25.5642 29.7061 25.41 30.1978C25.2484 30.7132 24.9862 31.1782 24.7603 31.5086C24.6236 31.7085 24.4726 31.8947 24.3436 32.0509C24.3114 32.0898 24.2809 32.1265 24.2518 32.1615C24.1547 32.2783 24.0727 32.3771 23.9944 32.4789C23.7762 32.7629 23.5314 32.9361 23.3694 33.0449C23.3202 33.0779 23.2807 33.104 23.2478 33.1257C23.1565 33.1859 23.1166 33.2123 23.0657 33.2573C22.7229 33.561 22.3414 33.7922 22.0143 33.9772C21.8838 34.051 21.7674 34.1147 21.6592 34.174C21.4661 34.2798 21.299 34.3713 21.1241 34.4803C20.3673 34.9518 19.5893 35.1902 18.8876 35.3651C18.6401 35.4268 18.413 35.4788 18.1973 35.5281C17.7591 35.6283 17.3686 35.7177 16.9524 35.8556C16.8425 35.892 16.7325 35.929 16.622 35.9662C15.5225 36.3363 14.381 36.7204 12.943 36.6417C12.7146 36.6292 12.4869 36.6114 12.2603 36.5832C11.7972 36.6524 11.298 36.6583 10.8226 36.5882C10.0642 36.4765 9.08337 36.122 8.57622 35.1806C8.06677 34.235 7.33495 32.7744 8.29355 31.1759C8.33804 31.1017 8.37436 31.033 8.41543 30.9531C8.42059 30.9431 8.42614 30.9323 8.43203 30.9207C8.46788 30.8506 8.51653 30.7555 8.56897 30.6647C8.71517 30.4116 8.90096 30.1695 9.20325 29.9191C9.40985 29.748 9.64321 29.6065 9.79713 29.5132C9.8196 29.4995 9.84038 29.4869 9.85914 29.4754C10.0399 29.3644 10.1218 29.3045 10.174 29.2516C10.5589 28.862 11.0249 28.6198 11.3472 28.4552C11.3791 28.4389 11.4097 28.4233 11.4393 28.4082C11.758 28.2457 11.9489 28.1485 12.1045 28.0236C12.5128 27.696 12.8998 27.5416 13.2368 27.4385C13.3876 27.3923 13.4962 27.3632 13.5885 27.3384C13.7284 27.3009 13.8308 27.2734 13.9856 27.2121C14.4451 27.03 14.9158 26.9131 15.3546 26.8237C15.739 26.684 16.142 26.5487 16.5586 26.4387C16.815 26.371 17.0481 26.2963 17.3083 26.213C17.4701 26.1611 17.6424 26.1059 17.8374 26.0469C18.3015 25.9065 18.8346 25.7658 19.3995 25.7201C19.8331 25.6849 20.3173 25.6953 20.7234 25.7041ZM12.4126 30.791C12.4126 30.7909 12.4131 30.793 12.4139 30.7976C12.4129 30.7933 12.4125 30.7911 12.4126 30.791ZM22.1154 30.7854C22.0812 30.748 22.0497 30.7122 22.0218 30.6799C21.9504 30.5972 21.8807 30.5116 21.8279 30.4469C21.8211 30.4385 21.8145 30.4304 21.8082 30.4227C21.7697 30.3755 21.748 30.3496 21.7377 30.3374C21.7289 30.3269 21.7284 30.3263 21.7328 30.3308C21.6253 30.2219 21.4859 30.1195 21.263 29.9683C21.2421 29.9541 21.22 29.9392 21.197 29.9237C21.003 29.7928 20.7419 29.6168 20.5031 29.4053C19.9649 28.9285 19.347 28.7883 18.9193 28.9616C18.629 29.0791 18.3046 29.2687 17.9318 29.5128C17.8045 29.5961 17.6535 29.6984 17.4957 29.8053C17.2567 29.9672 17.0021 30.1397 16.7904 30.2731C16.6162 30.3828 16.4887 30.4577 16.3745 30.5246C16.2364 30.6056 16.1181 30.6751 15.9608 30.7807C15.7333 30.9335 15.5926 31.0612 15.5012 31.1885C15.2649 31.5174 15.1653 31.828 15.1644 32.0196C15.164 32.101 15.1807 32.1415 15.1933 32.1634C15.2048 32.1832 15.2428 32.24 15.3695 32.308C15.5823 32.4224 15.9939 32.4918 16.606 32.4542C17.1837 32.4188 17.7901 32.2994 18.2845 32.1853C18.5114 32.133 18.7537 32.0857 18.982 32.0411C19.0022 32.0371 19.0223 32.0332 19.0422 32.0293C19.2956 31.9798 19.537 31.9318 19.7708 31.8763C20.2541 31.7616 20.6101 31.6351 20.8478 31.482C21.1158 31.3093 21.3944 31.1654 21.6243 31.047L21.6355 31.0412C21.8205 30.9459 21.9754 30.8661 22.1154 30.7854Z" fill="black"/>
<path fill-rule="evenodd" clip-rule="evenodd" d="M47.3295 23.1548C48.3027 23.2602 49.338 23.5272 50.275 24.2165C50.3414 24.2652 50.4294 24.3205 50.5755 24.412L50.5949 24.4241C50.7357 24.5124 50.9179 24.6273 51.0955 24.7597C51.4124 24.9957 51.9405 25.4456 52.0912 26.1701C52.1663 26.531 52.2021 26.9708 52.1476 27.4101C52.0946 27.8367 51.9403 28.3823 51.5261 28.8089C50.5131 29.8521 48.9681 30.9766 47.4491 31.3938C45.8673 31.8282 44.2587 31.9543 42.6954 31.9543C42.6186 31.9543 42.5387 31.9548 42.4562 31.9553C41.9176 31.9588 41.2661 31.963 40.6132 31.8286C40.344 31.7731 40.0055 31.6353 39.7278 31.486C39.5809 31.4071 39.4163 31.3066 39.2645 31.1854C39.1342 31.0813 38.9157 30.8866 38.7774 30.5936C38.7747 30.5895 38.7623 30.5711 38.7304 30.5364C38.6778 30.4793 38.6136 30.4206 38.5021 30.3194C38.4925 30.3107 38.4822 30.3014 38.4711 30.2915C38.2922 30.1306 37.9208 29.7964 37.731 29.3167C37.6371 29.0794 37.5869 28.839 37.5601 28.6189C37.5241 28.564 37.4893 28.5105 37.4558 28.4588C37.1334 27.9608 36.9918 27.4111 37.0604 26.8512C37.126 26.3153 37.3711 25.8754 37.6359 25.5409C38.1479 24.8943 38.9007 24.433 39.4189 24.1586C39.9087 23.8992 40.4021 23.7687 40.8072 23.672C40.8939 23.6513 40.9755 23.6323 41.053 23.6142C41.367 23.5411 41.6142 23.4835 41.8639 23.3916C42.7289 23.0735 43.5856 23.0845 44.2735 23.0934C44.3815 23.0948 44.4853 23.0961 44.5844 23.0961C44.761 23.0961 44.9475 23.094 45.1412 23.0918C45.8238 23.084 46.5948 23.0752 47.3295 23.1548ZM44.0729 26.083C43.888 26.3075 43.6622 26.4461 43.4863 26.5277C43.2415 26.6414 42.959 26.7063 42.7971 26.7436C42.7799 26.7475 42.764 26.7512 42.7497 26.7545C42.6897 26.7686 42.641 26.7807 42.6014 26.7911C42.6079 26.8898 42.6459 26.9695 42.7075 27.0549C42.844 27.2442 43.109 27.4547 43.5068 27.6595C43.7441 27.7817 43.946 27.9365 44.0714 28.0327C44.0801 28.0394 44.0884 28.0457 44.0964 28.0518C44.237 28.1593 44.2991 28.2022 44.3492 28.2277C44.3574 28.2297 44.3911 28.2372 44.4665 28.24C44.5229 28.2421 44.5871 28.2415 44.673 28.2393C44.6881 28.2389 44.7047 28.2384 44.7223 28.2379C44.793 28.2359 44.8808 28.2335 44.9633 28.2335C45.0716 28.2335 45.1857 28.2371 45.2774 28.24C45.3056 28.2409 45.3316 28.2417 45.3547 28.2423C45.4673 28.2454 45.5445 28.2454 45.6085 28.241C45.6695 28.2369 45.7013 28.2295 45.7166 28.2249C45.7286 28.2212 45.7332 28.2184 45.7384 28.2148C45.7485 28.2075 45.7587 28.2003 45.769 28.1929C45.9732 28.0473 46.2061 27.8812 46.4466 27.7241C46.4967 27.591 46.5848 27.4123 46.7467 27.245C46.7485 27.2428 46.7573 27.2317 46.7733 27.2055C46.7988 27.164 46.8252 27.1143 46.8721 27.024C46.8765 27.0154 46.8813 27.0062 46.8863 26.9964C46.965 26.8438 47.1169 26.5492 47.3591 26.2997C47.3652 26.2935 47.3709 26.2875 47.3765 26.2816C47.3283 26.261 47.2724 26.2398 47.2091 26.2189C46.9166 26.1226 46.6213 26.083 46.5017 26.083H44.0729ZM47.5582 26.3801C47.5582 26.3801 47.5568 26.379 47.5544 26.3768C47.5571 26.3789 47.5583 26.3801 47.5582 26.3801ZM46.3716 27.9767C46.3697 27.9838 46.3697 27.9827 46.372 27.9752C46.3718 27.9757 46.3717 27.9762 46.3716 27.9767ZM42.4387 26.8437C42.4387 26.8437 42.4386 26.8437 42.4386 26.8438C42.4385 26.8438 42.4384 26.8438 42.4384 26.8438" fill="black"/>
<path fill-rule="evenodd" clip-rule="evenodd" d="M32.5493 34.1123C32.4997 34.1531 32.4553 34.1839 32.4214 34.206C32.1219 34.401 31.7621 34.4769 31.5347 34.513C31.2687 34.5553 30.9822 34.5717 30.729 34.5626C30.6024 34.558 30.4657 34.5464 30.3333 34.5222C30.2297 34.5032 30.0157 34.4582 29.8079 34.326C29.4911 34.1245 29.1739 33.8094 28.959 33.4062C28.739 32.9936 28.5812 32.3879 28.8026 31.7361C29.1268 30.7813 29.9251 30.3438 30.4931 30.1419C31.0965 29.9275 31.7342 29.8694 32.1773 29.8694C33.1194 29.8694 34.0793 30.1966 34.8584 30.8574C35.0681 31.0353 35.5681 31.522 35.4644 32.2888C35.3659 33.0175 34.804 33.32 34.6491 33.3976C34.2782 33.5835 33.829 33.6464 33.5554 33.6592C33.5391 33.6715 33.5239 33.6825 33.5101 33.6922C33.4007 33.7695 33.2897 33.8298 33.1953 33.8755C33.0064 33.9671 32.8069 34.0375 32.6457 34.0851C32.6191 34.093 32.5864 34.1024 32.5493 34.1123Z" fill="black"/>
<path fill-rule="evenodd" clip-rule="evenodd" d="M29.7742 40.2853C29.4796 40.3661 29.0551 40.4825 28.6072 40.4959C28.3818 40.5026 28.2158 40.5673 27.8917 40.6936C27.7653 40.7429 27.6148 40.8015 27.4273 40.8698C27.1613 40.9666 26.9868 41.0525 26.86 41.1483C26.8545 41.1551 26.8486 41.1624 26.8411 41.1718C26.8358 41.1785 26.8297 41.1862 26.8223 41.1954C26.8018 41.221 26.7733 41.2565 26.7413 41.294C26.6818 41.3637 26.5782 41.4795 26.4389 41.5855C26.2964 41.694 26.072 41.8266 25.7755 41.8622C25.1558 41.9364 24.5976 41.455 24.5287 40.7869C24.475 40.2656 24.735 39.7847 25.1462 39.5633C25.156 39.551 25.1666 39.538 25.1766 39.5257C25.2021 39.4945 25.237 39.4529 25.2776 39.4088C25.3178 39.3653 25.3731 39.3091 25.4414 39.2522C25.8701 38.8947 26.3359 38.6977 26.705 38.5634C26.7648 38.5416 26.8364 38.513 26.9178 38.4804C27.3054 38.3254 27.9154 38.0813 28.5445 38.0625C28.7264 38.057 28.9226 38.0063 29.2818 37.9085L29.2961 37.9046C29.6094 37.8193 30.0629 37.6958 30.5573 37.6958H31.1706C31.6079 37.6958 31.9291 37.902 32.0694 38.0039C32.4012 38.0705 32.6566 38.2157 32.7769 38.2842C32.7869 38.2899 32.796 38.2951 32.8041 38.2996C32.8381 38.3186 32.8633 38.332 32.881 38.3411C33.4592 38.3941 33.913 38.9168 33.913 39.5538C33.913 40.226 33.4076 40.771 32.784 40.771C32.3107 40.771 31.9372 40.5587 31.788 40.4738C31.7788 40.4686 31.7705 40.4639 31.7631 40.4598C31.7037 40.4265 31.6678 40.4081 31.649 40.3986C31.4085 40.3745 31.2178 40.2894 31.0868 40.2145C31.0394 40.1873 30.9933 40.1573 30.9538 40.1301H30.5573C30.3755 40.1301 30.1752 40.176 29.8346 40.2688C29.8151 40.2741 29.795 40.2796 29.7742 40.2853ZM30.813 40.0283C30.8128 40.0279 30.8176 40.0308 30.8277 40.0381C30.8183 40.0324 30.8132 40.0287 30.813 40.0283ZM26.8833 41.1203C26.8833 41.1203 26.8822 41.1216 26.8802 41.1238C26.8823 41.1213 26.8833 41.1202 26.8833 41.1203Z" fill="black"/>
</svg>
