<svg width="64" height="64" viewBox="0 0 64 64" fill="none" xmlns="http://www.w3.org/2000/svg">
<path fill-rule="evenodd" clip-rule="evenodd" d="M8.56253 10.1868C9.64948 9.09984 11.4118 9.09984 12.4987 10.1868C13.9261 11.6142 15.5703 12.8796 17.3795 14.2109C17.669 14.4239 17.9642 14.6396 18.2634 14.8583C19.7834 15.969 21.4072 17.1556 22.9159 18.451C30.2269 24.7277 37.2696 31.2116 44.0906 38.0326L59.6993 53.6413C60.7862 54.7282 60.7862 56.4905 59.6993 57.5775C58.6123 58.6644 56.85 58.6644 55.7631 57.5775L40.1544 41.9688C33.4415 35.2558 26.5033 28.8675 19.2898 22.6746C17.9618 21.5344 16.5461 20.4991 15.0284 19.3893C14.7167 19.1613 14.4007 18.9302 14.0803 18.6944C12.2487 17.3467 10.3101 15.8705 8.56253 14.123C7.47558 13.036 7.47558 11.2737 8.56253 10.1868Z" fill="black" stroke="black" stroke-width="0.5" stroke-linecap="round"/>
<path fill-rule="evenodd" clip-rule="evenodd" d="M56.8639 11.4945C58.3011 11.1608 59.2374 9.75323 58.9706 8.2859C58.6956 6.77352 57.2467 5.7704 55.7343 6.04538C54.3661 6.29413 53.3746 7.13349 52.9562 7.48764C52.9247 7.51427 52.8965 7.53815 52.8716 7.55883C52.3708 7.97504 51.8717 8.39044 51.3737 8.80495C49.5467 10.3256 47.7342 11.8343 45.9009 13.3264C45.6989 13.4908 45.4969 13.6552 45.2948 13.8196C36.551 20.935 27.7008 28.137 19.6714 36.3723C18.9665 37.0953 18.2397 37.8277 17.5012 38.5718C14.0936 42.0054 10.4374 45.6895 7.53762 49.858C7.29119 50.2122 7.06142 50.4907 6.77224 50.8413C6.53343 51.1307 6.25412 51.4693 5.89146 51.9402C5.2798 52.7343 4.42996 53.9245 4.08376 55.3093C3.71094 56.8006 4.61763 58.3117 6.10892 58.6846C7.6002 59.0574 9.11136 58.1507 9.48418 56.6594C9.52764 56.4856 9.72668 56.0834 10.3017 55.3369C10.4306 55.1695 10.6207 54.9353 10.8349 54.6714C11.2603 54.1474 11.7809 53.5061 12.1073 53.0369C14.7033 49.3051 17.9392 46.0404 21.3289 42.6204C22.0989 41.8435 22.8769 41.0586 23.6571 40.2584C31.4598 32.2555 40.0936 25.2294 48.911 18.0538C49.0789 17.9172 49.2468 17.7805 49.4147 17.6438C51.2741 16.1305 53.1174 14.5963 54.9475 13.0729C55.4424 12.661 55.9363 12.2499 56.4294 11.8402L56.443 11.8289C56.5655 11.727 56.6486 11.658 56.7301 11.594C56.791 11.5463 56.8339 11.5151 56.8639 11.4945Z" fill="black" stroke="black" stroke-width="0.5" stroke-linecap="round"/>
</svg>
