<svg width="100" height="27" viewBox="0 0 100 27" fill="none" xmlns="http://www.w3.org/2000/svg">
<path d="M1.36719 13.3386C1.36719 9.92613 0.353007 5.94644 1.69564 2.5C1.85385 2.3431 3.99943 2.15411 4.45524 2.15411C6.17446 2.15411 7.98009 1.80453 9.60199 1.55494C15.1698 0.698153 21.5744 1.08893 27.3247 1.08893H88.9067C98.736 1.08893 98.736 1.91202 98.736 2.61378C98.736 3.50952 98.3987 8.9977 98.736 9.87578C98.736 11.4896 98.3797 12.9591 98.736 14.3137C99.0513 15.5123 99.5496 26.417 97.0463 25.9877H80.7734C63.2316 25.9877 57.4388 25.8545 39.9007 25.8545C29.6313 25.8545 19.364 25.8009 9.09477 25.7214C5.3319 25.6922 3.13963 24.4741 2.72474 22.7255C2.44666 21.5535 2.68674 20.34 2.38163 19.1675L2.36422 19.1006C1.86618 17.187 1.36719 15.2697 1.36719 13.3386Z" fill="#8AC0FF" stroke="black" stroke-width="2" stroke-linecap="round"/>
<path fill-rule="evenodd" clip-rule="evenodd" d="M86 13L89.7279 16.4483L93.4558 13H86Z" fill="#505050"/>
<path d="M23.0386 9.324C23.9106 9.324 24.5946 9.504 25.0906 9.864C25.5946 10.216 25.8466 10.768 25.8466 11.52C25.8466 11.976 25.7426 12.372 25.5346 12.708C25.3266 13.044 25.0346 13.308 24.6586 13.5C24.2906 13.692 23.8546 13.8 23.3506 13.824L23.1826 13.224C23.7666 13.24 24.2906 13.344 24.7546 13.536C25.2186 13.728 25.5866 13.996 25.8586 14.34C26.1306 14.684 26.2666 15.092 26.2666 15.564C26.2666 15.996 26.1866 16.368 26.0266 16.68C25.8666 16.984 25.6506 17.236 25.3786 17.436C25.1066 17.628 24.7986 17.772 24.4546 17.868C24.1106 17.956 23.7546 18 23.3866 18H20.8066V9.324H23.0386ZM23.2786 13.128C23.7586 13.128 24.1066 12.996 24.3226 12.732C24.5386 12.46 24.6466 12.132 24.6466 11.748C24.6466 11.292 24.5066 10.96 24.2266 10.752C23.9466 10.544 23.5706 10.44 23.0986 10.44H21.9706V13.128H23.2786ZM23.3266 16.92C23.6466 16.92 23.9386 16.872 24.2026 16.776C24.4746 16.68 24.6866 16.532 24.8386 16.332C24.9986 16.132 25.0786 15.88 25.0786 15.576C25.0786 15.24 24.9866 14.976 24.8026 14.784C24.6266 14.592 24.3986 14.456 24.1186 14.376C23.8386 14.288 23.5506 14.244 23.2546 14.244H21.9706V16.92H23.3266ZM30.2526 18.12C29.6846 18.12 29.1966 18.008 28.7886 17.784C28.3806 17.552 28.0646 17.24 27.8406 16.848C27.6246 16.448 27.5166 15.992 27.5166 15.48C27.5166 14.992 27.6406 14.548 27.8886 14.148C28.1366 13.748 28.4686 13.428 28.8846 13.188C29.3006 12.948 29.7646 12.828 30.2766 12.828C30.9326 12.828 31.4766 13.02 31.9086 13.404C32.3406 13.788 32.6326 14.316 32.7846 14.988L28.6926 16.428L28.4286 15.768L31.7886 14.544L31.5486 14.7C31.4526 14.436 31.2926 14.208 31.0686 14.016C30.8446 13.816 30.5526 13.716 30.1926 13.716C29.8886 13.716 29.6166 13.792 29.3766 13.944C29.1366 14.088 28.9486 14.288 28.8126 14.544C28.6766 14.8 28.6086 15.092 28.6086 15.42C28.6086 15.764 28.6806 16.068 28.8246 16.332C28.9686 16.588 29.1646 16.792 29.4126 16.944C29.6686 17.088 29.9566 17.16 30.2766 17.16C30.4926 17.16 30.7006 17.12 30.9006 17.04C31.1086 16.96 31.3006 16.856 31.4766 16.728L31.9926 17.556C31.7446 17.724 31.4646 17.86 31.1526 17.964C30.8486 18.068 30.5486 18.12 30.2526 18.12ZM36.5709 20.46C36.2029 20.46 35.8789 20.416 35.5989 20.328C35.3189 20.248 35.0629 20.132 34.8309 19.98C34.6069 19.828 34.3909 19.656 34.1829 19.464L34.8309 18.708C35.0949 18.956 35.3629 19.148 35.6349 19.284C35.9069 19.42 36.2109 19.488 36.5469 19.488C36.9229 19.488 37.2389 19.424 37.4949 19.296C37.7589 19.176 37.9589 19.004 38.0949 18.78C38.2309 18.564 38.2989 18.312 38.2989 18.024L38.3109 16.68L38.4069 16.896C38.2629 17.24 38.0029 17.532 37.6269 17.772C37.2509 18.004 36.7949 18.12 36.2589 18.12C35.8029 18.12 35.3829 18.004 34.9989 17.772C34.6229 17.54 34.3189 17.228 34.0869 16.836C33.8629 16.436 33.7509 15.988 33.7509 15.492C33.7509 14.972 33.8709 14.516 34.1109 14.124C34.3509 13.724 34.6669 13.408 35.0589 13.176C35.4509 12.944 35.8789 12.828 36.3429 12.828C36.7829 12.828 37.1829 12.92 37.5429 13.104C37.9109 13.28 38.1789 13.508 38.3469 13.788L38.2869 13.992L38.4069 13.032H39.4269V18.036C39.4269 18.484 39.3109 18.892 39.0789 19.26C38.8469 19.628 38.5189 19.92 38.0949 20.136C37.6709 20.352 37.1629 20.46 36.5709 20.46ZM34.8669 15.468C34.8669 15.788 34.9429 16.08 35.0949 16.344C35.2469 16.608 35.4509 16.816 35.7069 16.968C35.9709 17.12 36.2629 17.196 36.5829 17.196C36.8789 17.196 37.1429 17.144 37.3749 17.04C37.6149 16.928 37.8149 16.78 37.9749 16.596C38.1349 16.404 38.2469 16.184 38.3109 15.936V14.952C38.2389 14.712 38.1189 14.504 37.9509 14.328C37.7829 14.144 37.5829 14.004 37.3509 13.908C37.1189 13.804 36.8629 13.752 36.5829 13.752C36.2629 13.752 35.9709 13.824 35.7069 13.968C35.4509 14.112 35.2469 14.316 35.0949 14.58C34.9429 14.836 34.8669 15.132 34.8669 15.468ZM41.3548 13.032H42.4708V18H41.3548V13.032ZM41.2708 11.232C41.2708 11.056 41.3388 10.908 41.4748 10.788C41.6188 10.668 41.7748 10.608 41.9428 10.608C42.1108 10.608 42.2588 10.668 42.3868 10.788C42.5228 10.908 42.5908 11.056 42.5908 11.232C42.5908 11.416 42.5228 11.568 42.3868 11.688C42.2588 11.8 42.1108 11.856 41.9428 11.856C41.7748 11.856 41.6188 11.796 41.4748 11.676C41.3388 11.556 41.2708 11.408 41.2708 11.232ZM45.3977 13.032L45.4937 14.244L45.4457 14.052C45.6057 13.684 45.8657 13.392 46.2257 13.176C46.5857 12.952 47.0017 12.84 47.4737 12.84C47.9457 12.84 48.3297 12.98 48.6257 13.26C48.9297 13.532 49.0857 13.888 49.0937 14.328V18H47.9657V14.724C47.9577 14.452 47.8777 14.232 47.7257 14.064C47.5817 13.888 47.3537 13.8 47.0417 13.8C46.7537 13.8 46.4937 13.88 46.2617 14.04C46.0297 14.2 45.8457 14.42 45.7097 14.7C45.5817 14.98 45.5177 15.304 45.5177 15.672V18H44.4017V13.032H45.3977ZM52.0305 13.032L52.1265 14.244L52.0785 14.052C52.2385 13.684 52.4985 13.392 52.8585 13.176C53.2185 12.952 53.6345 12.84 54.1065 12.84C54.5785 12.84 54.9625 12.98 55.2585 13.26C55.5625 13.532 55.7185 13.888 55.7265 14.328V18H54.5985V14.724C54.5905 14.452 54.5105 14.232 54.3585 14.064C54.2145 13.888 53.9865 13.8 53.6745 13.8C53.3865 13.8 53.1265 13.88 52.8945 14.04C52.6625 14.2 52.4785 14.42 52.3425 14.7C52.2145 14.98 52.1505 15.304 52.1505 15.672V18H51.0345V13.032H52.0305ZM59.9713 18.12C59.4033 18.12 58.9153 18.008 58.5073 17.784C58.0993 17.552 57.7833 17.24 57.5593 16.848C57.3433 16.448 57.2353 15.992 57.2353 15.48C57.2353 14.992 57.3593 14.548 57.6073 14.148C57.8553 13.748 58.1873 13.428 58.6033 13.188C59.0193 12.948 59.4833 12.828 59.9953 12.828C60.6513 12.828 61.1953 13.02 61.6273 13.404C62.0593 13.788 62.3513 14.316 62.5033 14.988L58.4113 16.428L58.1473 15.768L61.5073 14.544L61.2673 14.7C61.1713 14.436 61.0113 14.208 60.7873 14.016C60.5633 13.816 60.2713 13.716 59.9113 13.716C59.6073 13.716 59.3353 13.792 59.0953 13.944C58.8553 14.088 58.6673 14.288 58.5313 14.544C58.3953 14.8 58.3273 15.092 58.3273 15.42C58.3273 15.764 58.3993 16.068 58.5433 16.332C58.6873 16.588 58.8833 16.792 59.1313 16.944C59.3873 17.088 59.6753 17.16 59.9953 17.16C60.2113 17.16 60.4193 17.12 60.6193 17.04C60.8273 16.96 61.0193 16.856 61.1953 16.728L61.7113 17.556C61.4633 17.724 61.1833 17.86 60.8713 17.964C60.5673 18.068 60.2673 18.12 59.9713 18.12ZM64.8977 13.032L65.0057 14.472L64.9457 14.28C65.0737 13.976 65.2577 13.72 65.4977 13.512C65.7457 13.296 66.0017 13.132 66.2657 13.02C66.5377 12.9 66.7737 12.84 66.9737 12.84L66.9137 13.944C66.5377 13.92 66.2057 13.992 65.9177 14.16C65.6377 14.328 65.4137 14.552 65.2457 14.832C65.0857 15.112 65.0057 15.412 65.0057 15.732V18H63.9017V13.032H64.8977Z" fill="black"/>
</svg>
