<svg width="100" height="27" viewBox="0 0 100 27" fill="none" xmlns="http://www.w3.org/2000/svg">
<path d="M1.36719 13.3386C1.36719 9.92613 0.353007 5.94644 1.69564 2.5C1.85385 2.3431 3.99943 2.15411 4.45524 2.15411C6.17446 2.15411 7.98009 1.80453 9.60199 1.55494C15.1698 0.698153 21.5744 1.08893 27.3247 1.08893H88.9067C98.736 1.08893 98.736 1.91202 98.736 2.61378C98.736 3.50952 98.3987 8.9977 98.736 9.87578C98.736 11.4896 98.3797 12.9591 98.736 14.3137C99.0513 15.5123 99.5496 26.417 97.0463 25.9877H80.7734C63.2316 25.9877 57.4388 25.8545 39.9007 25.8545C29.6313 25.8545 19.364 25.8009 9.09477 25.7214C5.3319 25.6922 3.13963 24.4741 2.72474 22.7255C2.44666 21.5535 2.68674 20.34 2.38163 19.1675L2.36422 19.1006C1.86618 17.187 1.36719 15.2697 1.36719 13.3386Z" fill="#9EDD80" stroke="black" stroke-width="2" stroke-linecap="round"/>
<path fill-rule="evenodd" clip-rule="evenodd" d="M86 13L89.7279 16.4483L93.4558 13H86Z" fill="#505050"/>
<path d="M10.1367 9.324H11.3007V18H10.1367V9.324ZM14.5129 13.032L14.6089 14.244L14.5609 14.052C14.7209 13.684 14.9809 13.392 15.3409 13.176C15.7009 12.952 16.1169 12.84 16.5889 12.84C17.0609 12.84 17.4449 12.98 17.7409 13.26C18.0449 13.532 18.2009 13.888 18.2089 14.328V18H17.0809V14.724C17.0729 14.452 16.9929 14.232 16.8409 14.064C16.6969 13.888 16.4689 13.8 16.1569 13.8C15.8689 13.8 15.6089 13.88 15.3769 14.04C15.1449 14.2 14.9609 14.42 14.8249 14.7C14.6969 14.98 14.6329 15.304 14.6329 15.672V18H13.5169V13.032H14.5129ZM20.6297 10.848H21.7457V13.056H23.1137V13.932H21.7457V18H20.6297V13.932H19.7177V13.056H20.6297V10.848ZM26.7662 18.12C26.1982 18.12 25.7102 18.008 25.3022 17.784C24.8942 17.552 24.5782 17.24 24.3542 16.848C24.1382 16.448 24.0302 15.992 24.0302 15.48C24.0302 14.992 24.1542 14.548 24.4022 14.148C24.6502 13.748 24.9822 13.428 25.3982 13.188C25.8142 12.948 26.2782 12.828 26.7902 12.828C27.4462 12.828 27.9902 13.02 28.4222 13.404C28.8542 13.788 29.1462 14.316 29.2982 14.988L25.2062 16.428L24.9422 15.768L28.3022 14.544L28.0622 14.7C27.9662 14.436 27.8062 14.208 27.5822 14.016C27.3582 13.816 27.0662 13.716 26.7062 13.716C26.4022 13.716 26.1302 13.792 25.8902 13.944C25.6502 14.088 25.4622 14.288 25.3262 14.544C25.1902 14.8 25.1222 15.092 25.1222 15.42C25.1222 15.764 25.1942 16.068 25.3382 16.332C25.4822 16.588 25.6782 16.792 25.9262 16.944C26.1822 17.088 26.4702 17.16 26.7902 17.16C27.0062 17.16 27.2142 17.12 27.4142 17.04C27.6222 16.96 27.8142 16.856 27.9902 16.728L28.5062 17.556C28.2582 17.724 27.9782 17.86 27.6662 17.964C27.3622 18.068 27.0622 18.12 26.7662 18.12ZM31.6926 13.032L31.8006 14.472L31.7406 14.28C31.8686 13.976 32.0526 13.72 32.2926 13.512C32.5406 13.296 32.7966 13.132 33.0606 13.02C33.3326 12.9 33.5686 12.84 33.7686 12.84L33.7086 13.944C33.3326 13.92 33.0006 13.992 32.7126 14.16C32.4326 14.328 32.2086 14.552 32.0406 14.832C31.8806 15.112 31.8006 15.412 31.8006 15.732V18H30.6966V13.032H31.6926ZM36.2043 13.032L36.3003 14.148L36.2523 14.052C36.4363 13.676 36.6963 13.38 37.0323 13.164C37.3763 12.948 37.7683 12.84 38.2083 12.84C38.4883 12.84 38.7363 12.884 38.9523 12.972C39.1683 13.06 39.3443 13.188 39.4803 13.356C39.6243 13.516 39.7163 13.716 39.7563 13.956L39.6963 13.992C39.8883 13.632 40.1523 13.352 40.4883 13.152C40.8323 12.944 41.1923 12.84 41.5683 12.84C42.0563 12.84 42.4403 12.98 42.7203 13.26C43.0083 13.532 43.1563 13.888 43.1643 14.328V18H42.0483V14.724C42.0403 14.468 41.9763 14.256 41.8563 14.088C41.7443 13.912 41.5443 13.816 41.2563 13.8C40.9683 13.8 40.7083 13.888 40.4763 14.064C40.2523 14.24 40.0763 14.468 39.9483 14.748C39.8203 15.02 39.7523 15.316 39.7443 15.636V18H38.6283V14.724C38.6203 14.468 38.5523 14.256 38.4243 14.088C38.3043 13.912 38.1003 13.816 37.8123 13.8C37.5163 13.8 37.2563 13.888 37.0323 14.064C36.8083 14.24 36.6323 14.468 36.5043 14.748C36.3843 15.028 36.3243 15.328 36.3243 15.648V18H35.2083V13.032H36.2043ZM47.4147 18.12C46.8467 18.12 46.3587 18.008 45.9507 17.784C45.5427 17.552 45.2267 17.24 45.0027 16.848C44.7867 16.448 44.6787 15.992 44.6787 15.48C44.6787 14.992 44.8027 14.548 45.0507 14.148C45.2987 13.748 45.6307 13.428 46.0467 13.188C46.4627 12.948 46.9267 12.828 47.4387 12.828C48.0947 12.828 48.6387 13.02 49.0707 13.404C49.5027 13.788 49.7947 14.316 49.9467 14.988L45.8547 16.428L45.5907 15.768L48.9507 14.544L48.7107 14.7C48.6147 14.436 48.4547 14.208 48.2307 14.016C48.0067 13.816 47.7147 13.716 47.3547 13.716C47.0507 13.716 46.7787 13.792 46.5387 13.944C46.2987 14.088 46.1107 14.288 45.9747 14.544C45.8387 14.8 45.7707 15.092 45.7707 15.42C45.7707 15.764 45.8427 16.068 45.9867 16.332C46.1307 16.588 46.3267 16.792 46.5747 16.944C46.8307 17.088 47.1187 17.16 47.4387 17.16C47.6547 17.16 47.8627 17.12 48.0627 17.04C48.2707 16.96 48.4627 16.856 48.6387 16.728L49.1547 17.556C48.9067 17.724 48.6267 17.86 48.3147 17.964C48.0107 18.068 47.7107 18.12 47.4147 18.12ZM53.361 18.12C52.905 18.12 52.489 18.012 52.113 17.796C51.745 17.572 51.453 17.26 51.237 16.86C51.021 16.452 50.913 15.984 50.913 15.456C50.913 14.904 51.025 14.432 51.249 14.04C51.481 13.648 51.793 13.348 52.185 13.14C52.577 12.932 53.017 12.828 53.505 12.828C53.897 12.828 54.269 12.912 54.621 13.08C54.981 13.248 55.261 13.48 55.461 13.776L55.413 14.172V8.712H56.517V18H55.401V16.764L55.521 17.076C55.289 17.38 54.989 17.632 54.621 17.832C54.253 18.024 53.833 18.12 53.361 18.12ZM53.709 17.172C54.005 17.172 54.269 17.12 54.501 17.016C54.733 16.904 54.925 16.752 55.077 16.56C55.229 16.368 55.337 16.14 55.401 15.876V14.94C55.337 14.7 55.221 14.492 55.053 14.316C54.893 14.132 54.697 13.988 54.465 13.884C54.241 13.772 53.989 13.716 53.709 13.716C53.405 13.716 53.125 13.792 52.869 13.944C52.621 14.088 52.421 14.288 52.269 14.544C52.117 14.8 52.041 15.096 52.041 15.432C52.041 15.76 52.117 16.056 52.269 16.32C52.421 16.576 52.625 16.784 52.881 16.944C53.137 17.096 53.413 17.172 53.709 17.172ZM58.4583 13.032H59.5743V18H58.4583V13.032ZM58.3743 11.232C58.3743 11.056 58.4423 10.908 58.5783 10.788C58.7223 10.668 58.8783 10.608 59.0463 10.608C59.2143 10.608 59.3623 10.668 59.4903 10.788C59.6263 10.908 59.6943 11.056 59.6943 11.232C59.6943 11.416 59.6263 11.568 59.4903 11.688C59.3623 11.8 59.2143 11.856 59.0463 11.856C58.8783 11.856 58.7223 11.796 58.5783 11.676C58.4423 11.556 58.3743 11.408 58.3743 11.232ZM63.5692 18.12C63.1052 18.12 62.6812 18.02 62.2972 17.82C61.9212 17.62 61.6212 17.328 61.3972 16.944C61.1812 16.552 61.0732 16.076 61.0732 15.516C61.0732 14.964 61.1892 14.488 61.4212 14.088C61.6532 13.68 61.9612 13.368 62.3452 13.152C62.7372 12.936 63.1652 12.828 63.6292 12.828C64.0932 12.828 64.4852 12.936 64.8052 13.152C65.1252 13.36 65.3692 13.608 65.5372 13.896L65.4652 14.088L65.5732 13.032H66.6052V18H65.4892V16.704L65.6092 16.992C65.5772 17.072 65.5052 17.176 65.3932 17.304C65.2892 17.424 65.1452 17.548 64.9612 17.676C64.7852 17.804 64.5812 17.912 64.3492 18C64.1172 18.08 63.8572 18.12 63.5692 18.12ZM63.8692 17.196C64.1492 17.196 64.4012 17.144 64.6252 17.04C64.8492 16.936 65.0332 16.792 65.1772 16.608C65.3292 16.416 65.4332 16.188 65.4892 15.924V14.952C65.4252 14.712 65.3132 14.504 65.1532 14.328C64.9932 14.144 64.8012 14.004 64.5772 13.908C64.3532 13.804 64.1052 13.752 63.8332 13.752C63.5372 13.752 63.2652 13.824 63.0172 13.968C62.7692 14.112 62.5692 14.312 62.4172 14.568C62.2732 14.824 62.2012 15.124 62.2012 15.468C62.2012 15.788 62.2772 16.08 62.4292 16.344C62.5812 16.608 62.7852 16.816 63.0412 16.968C63.2972 17.12 63.5732 17.196 63.8692 17.196ZM69.0165 10.848H70.1325V13.056H71.5005V13.932H70.1325V18H69.0165V13.932H68.1045V13.056H69.0165V10.848ZM75.153 18.12C74.585 18.12 74.097 18.008 73.689 17.784C73.281 17.552 72.965 17.24 72.741 16.848C72.525 16.448 72.417 15.992 72.417 15.48C72.417 14.992 72.541 14.548 72.789 14.148C73.037 13.748 73.369 13.428 73.785 13.188C74.201 12.948 74.665 12.828 75.177 12.828C75.833 12.828 76.377 13.02 76.809 13.404C77.241 13.788 77.533 14.316 77.685 14.988L73.593 16.428L73.329 15.768L76.689 14.544L76.449 14.7C76.353 14.436 76.193 14.208 75.969 14.016C75.745 13.816 75.453 13.716 75.093 13.716C74.789 13.716 74.517 13.792 74.277 13.944C74.037 14.088 73.849 14.288 73.713 14.544C73.577 14.8 73.509 15.092 73.509 15.42C73.509 15.764 73.581 16.068 73.725 16.332C73.869 16.588 74.065 16.792 74.313 16.944C74.569 17.088 74.857 17.16 75.177 17.16C75.393 17.16 75.601 17.12 75.801 17.04C76.009 16.96 76.201 16.856 76.377 16.728L76.893 17.556C76.645 17.724 76.365 17.86 76.053 17.964C75.749 18.068 75.449 18.12 75.153 18.12Z" fill="black"/>
</svg>
