<svg width="32" height="32" viewBox="0 0 32 32" fill="none" xmlns="http://www.w3.org/2000/svg">
<path fill-rule="evenodd" clip-rule="evenodd" d="M12.366 8.90704C12.4044 9.07697 12.445 9.25133 12.4896 9.42736C12.3185 9.38482 12.1495 9.34452 11.9859 9.30551L11.9858 9.3055C11.8666 9.27706 11.7501 9.2493 11.6379 9.22186C11.227 9.12144 10.8623 9.01286 10.4815 8.8995L10.4814 8.8995C10.192 8.81334 9.89331 8.72443 9.55809 8.63425C8.83665 8.44016 8.06251 8.27807 7.23146 8.27807C6.88258 8.27807 6.63751 8.45719 6.50054 8.595C6.36913 8.72722 6.28111 8.87678 6.23745 8.9522C6.13297 9.13265 6.0072 9.31589 5.86402 9.51641C5.82986 9.56425 5.79409 9.61391 5.75738 9.66486L5.75738 9.66487L5.75736 9.66489C5.64713 9.81791 5.52855 9.98252 5.42023 10.1442C5.24689 10.403 5.06274 10.6566 4.86902 10.9233L4.869 10.9233L4.8647 10.9293C4.67216 11.1944 4.47015 11.4727 4.27784 11.7611C4.26864 11.7749 4.25476 11.7925 4.21608 11.8414L4.21607 11.8414L4.18729 11.8778C4.13854 11.9395 4.06645 12.0319 4.00149 12.1367C3.89433 12.3095 3.65569 12.7562 3.90234 13.2495C3.98371 13.4123 4.0989 13.5268 4.17508 13.5946C4.25653 13.667 4.34227 13.728 4.40627 13.772C4.45228 13.8036 4.47757 13.8203 4.4993 13.8348L4.49934 13.8348C4.52144 13.8495 4.53986 13.8617 4.57265 13.8846C4.60478 13.907 4.61895 13.9185 4.61895 13.9185C4.77064 14.0692 4.94283 14.1941 5.06463 14.2824L5.09529 14.3047C5.23901 14.4093 5.319 14.4722 5.37538 14.5337C5.69908 14.8868 6.15825 15.1671 6.48119 15.3642C6.55454 15.4089 6.62086 15.4494 6.67697 15.4855C6.87317 15.6116 7.02898 15.7681 7.17024 15.9769C7.17329 16.0162 7.1737 16.0737 7.16957 16.1525C7.16515 16.2369 7.15694 16.3235 7.14788 16.419L7.14788 16.4191L7.14596 16.4393C7.13786 16.5248 7.12682 16.6411 7.12618 16.7406C7.12506 16.9164 7.11381 17.0953 7.10056 17.2971L7.09907 17.3197V17.3197C7.09072 17.4467 7.08174 17.5833 7.07592 17.724C7.03853 17.7302 7.00034 17.7362 6.96123 17.7424L6.94857 17.7444L6.9485 17.7444C6.879 17.7553 6.78335 17.7703 6.70794 17.7881C6.04866 17.9432 5.40319 18.1314 4.77825 18.3146L4.72425 18.3304C4.11266 18.5097 3.52085 18.6831 2.92335 18.8277C2.90026 18.8333 2.87286 18.8397 2.84397 18.8465L2.8439 18.8465C2.77971 18.8615 2.70817 18.8782 2.66012 18.8916L2.65334 18.8934C2.59391 18.9096 2.37467 18.9692 2.20626 19.1579C1.99001 19.4003 1.9975 19.6786 2.00113 19.7645C2.00357 19.8226 2.01414 19.9129 2.02045 19.9668L2.02445 20.0018C2.08282 20.5563 2.33721 21.0729 2.5113 21.4211C2.97752 22.3535 3.54194 23.2304 4.07936 24.0653L4.19329 24.2424C4.26341 24.3515 4.33859 24.4746 4.41852 24.6055C4.62849 24.9494 4.87123 25.347 5.14119 25.6845L5.14518 25.6895C5.17477 25.7268 5.26551 25.8411 5.40617 25.9268C5.58496 26.0356 5.7607 26.0544 5.88097 26.0544C6.74234 26.0544 7.73038 25.658 8.33936 25.3821C8.99028 25.0872 9.55943 24.6518 10.0456 24.2798L10.0456 24.2798L10.144 24.2046C10.3722 24.2162 10.6148 24.2631 10.8796 24.3335C10.9022 24.3396 10.9242 24.3449 10.9449 24.3496C10.9442 24.3725 10.9437 24.3966 10.9437 24.4208C10.9437 24.9222 10.9979 25.4015 11.0632 25.8602C11.1552 26.5074 11.1922 27.1501 11.2319 27.8389L11.2381 27.9462C11.2395 27.9697 11.2408 27.9977 11.2424 28.029L11.2424 28.029C11.2475 28.1348 11.2545 28.2779 11.2691 28.4095C11.2886 28.5862 11.3275 28.8154 11.4282 29.039C11.5388 29.2848 11.7368 29.4024 11.8449 29.4529C11.9603 29.5068 12.0731 29.5314 12.1527 29.5445C12.3144 29.5711 12.4878 29.5727 12.6233 29.5697C12.7662 29.5664 12.9078 29.5565 13.0155 29.5484L13.0707 29.5442L13.0707 29.5441C13.102 29.5418 13.1285 29.5397 13.1531 29.538C13.1874 29.5356 13.1998 29.5351 13.1998 29.5351L13.198 29.5351C13.512 29.5351 13.8299 29.5369 14.1502 29.5387H14.1503C14.9033 29.5428 15.6693 29.5471 16.4279 29.5287C17.5305 29.5019 18.6143 29.3668 19.6933 29.0991C19.7675 29.0807 19.8462 29.0637 19.9398 29.0435L19.9404 29.0434L19.9573 29.0397C20.0543 29.0188 20.1656 28.9946 20.2783 28.9658C20.4999 28.9091 20.771 28.8242 21.0257 28.6696C21.4224 28.4287 21.5219 28.0451 21.5418 27.7966C21.5511 27.6804 21.5457 27.5718 21.5417 27.5019L21.5381 27.4411C21.5355 27.3975 21.5341 27.3744 21.5341 27.3495C21.5341 26.3682 21.6267 25.5933 21.9431 24.6859C21.9682 24.6139 22.0001 24.4891 22.0263 24.3865L22.0389 24.3373C22.0738 24.2021 22.1136 24.051 22.1569 23.9088L22.1584 23.9039C22.2998 23.9239 22.4512 23.9375 22.5791 23.9489L22.5791 23.9489C22.6014 23.9509 22.6229 23.9529 22.6435 23.9548C22.6621 23.9565 22.6799 23.9581 22.697 23.9598C22.8658 23.9762 22.9936 23.9938 23.1014 24.0221C23.4752 24.1205 23.886 24.3806 24.2999 24.691C24.7824 25.0529 25.3101 25.1756 25.8335 25.0702C26.3201 24.9722 26.7259 24.6925 27.0423 24.4065C27.519 23.9756 27.9568 23.3644 28.2648 22.9344L28.2649 22.9344L28.265 22.9341C28.3504 22.8149 28.4259 22.7097 28.4894 22.626C28.5419 22.5568 28.6017 22.4831 28.6736 22.3945L28.7373 22.3158C28.8334 22.1969 28.9428 22.0595 29.047 21.914C29.242 21.6417 29.4835 21.2555 29.5507 20.8188C29.5677 20.7082 29.5766 20.5591 29.5331 20.3965C29.4852 20.2174 29.3902 20.0819 29.2882 19.9841C29.2077 19.9069 29.1216 19.8536 29.089 19.8335L29.0847 19.8308L29.0661 19.8193C29.0369 19.8012 29.0275 19.7954 29.0149 19.7863C28.4423 19.3719 27.8198 18.9756 27.2202 18.5937L27.2201 18.5937C26.8755 18.3743 26.5384 18.1596 26.2226 17.9491C26.1313 17.8882 26.0371 17.8384 25.972 17.8043L25.9371 17.7861L25.9371 17.7861C25.8833 17.758 25.8476 17.7393 25.8137 17.7194C25.5278 16.8761 25.392 15.9758 25.5394 15.2127C25.5563 15.2025 25.5756 15.1913 25.6002 15.1772L25.6183 15.1669C25.6388 15.1552 25.6627 15.1416 25.686 15.1281C26.2352 14.8088 26.743 14.4277 27.2139 14.0743L27.2141 14.0742C27.3318 13.9858 27.4473 13.8991 27.5605 13.8156C27.6019 13.785 27.6604 13.7447 27.7303 13.6964C27.9689 13.5317 28.3409 13.2749 28.6226 13.0024C28.9866 12.6504 29.4748 12.0188 29.2413 11.2016C29.2346 11.1782 29.2324 11.1608 29.2251 11.103L29.2251 11.1027C29.2218 11.0771 29.2176 11.0437 29.2116 10.9983C29.196 10.8817 29.1661 10.6805 29.062 10.4724C28.8903 10.129 28.6258 9.76402 28.4343 9.51428C28.2459 9.26862 28.0863 9.0436 27.9187 8.80734L27.9186 8.80726L27.9186 8.8072C27.7832 8.61638 27.6426 8.41822 27.4775 8.19592C27.1393 7.74054 26.7577 7.2712 26.2934 6.86136C26.1232 6.71112 25.9178 6.5694 25.6699 6.50277C25.3963 6.42924 25.1454 6.46643 24.9341 6.55363C24.7505 6.62938 24.5965 6.74406 24.4966 6.82007C24.4591 6.84865 24.4256 6.87464 24.394 6.89925L24.3937 6.89946C24.3232 6.95427 24.2614 7.0022 24.1833 7.0566C23.8559 7.28453 23.5202 7.49945 23.1709 7.72311L23.1709 7.72312C23.09 7.7749 23.0084 7.82714 22.926 7.88012C22.4946 8.15753 22.048 8.45104 21.6193 8.77787C21.6046 8.78913 21.5852 8.80349 21.5623 8.82043L21.5623 8.82044C21.463 8.89394 21.298 9.01607 21.1605 9.14451L21.1328 9.17077C21.041 9.11301 20.9507 9.05798 20.8638 9.00533L20.7897 8.96051L20.7896 8.96047C20.6209 8.85845 20.4667 8.76516 20.3161 8.66561L20.2962 8.65224L20.2971 8.58868L20.2972 8.58472V8.5847C20.298 8.53791 20.299 8.48085 20.299 8.41767V5.61689C20.299 5.60462 20.2999 5.57764 20.3013 5.54047V5.54039C20.3059 5.40859 20.3151 5.14881 20.3024 4.96237C20.2855 4.71424 20.2247 4.24908 19.8638 3.92098C19.4852 3.57677 19.0198 3.31945 18.5149 3.19137C17.7455 2.99623 16.9363 2.99858 16.2503 3.00058L16.2503 3.00058C16.1564 3.00085 16.0647 3.00111 15.9758 3.00086C15.1322 2.9985 14.277 2.99895 13.4188 3.02938C13.4226 3.02925 13.4221 3.02924 13.4149 3.029C13.4051 3.02869 13.3829 3.02797 13.342 3.02602L13.2714 3.0225C13.2247 3.02014 13.1697 3.01736 13.1171 3.01498C12.9422 3.00706 12.7143 2.9995 12.491 3.00753C12.2877 3.01483 12.0078 3.03648 11.7685 3.12409C11.6518 3.16684 11.454 3.25691 11.3046 3.45241C11.1211 3.69255 11.0893 3.98568 11.1705 4.24297C11.4303 5.06551 11.6324 5.88637 11.8412 6.73398L11.8413 6.73422C11.9324 7.10422 12.0248 7.47933 12.1238 7.86189C12.1893 8.11513 12.2461 8.3702 12.3061 8.6395L12.3061 8.63961C12.3256 8.72711 12.3454 8.81611 12.366 8.90704ZM15.9709 12.8291C16.1494 12.8112 16.3192 12.8602 16.4554 12.9557C16.5272 12.9555 16.6003 12.9569 16.6739 12.9606C17.1516 12.9848 17.6715 13.1097 18.1636 13.526C18.2726 13.6183 18.3738 13.6954 18.4886 13.7829L18.4886 13.7829L18.4886 13.7829C18.5492 13.8291 18.6135 13.8781 18.6848 13.9338C18.8751 14.0824 19.0875 14.2588 19.2866 14.4819C19.5134 14.7359 19.6022 15.0328 19.6416 15.258C19.681 15.4835 19.6816 15.7049 19.6816 15.847C19.6816 16.4225 19.6415 16.9382 19.5356 17.5146C19.31 18.7432 18.7052 20.0863 17.1349 20.526C15.8782 20.8779 14.2425 20.8661 13.2273 19.4703C12.6962 18.7399 12.4597 18.0547 12.4597 17.1382C12.4597 16.3442 12.5278 15.4368 13.0054 14.5939C13.4 13.8977 13.9778 13.3088 14.8825 13.0785C14.9327 13.0658 14.9955 13.0482 15.0669 13.0281C15.3151 12.9585 15.6689 12.8593 15.9709 12.8291Z" fill="#FFD686"/>
<path d="M12.4896 9.42736L12.4293 9.66998L12.8346 9.77075L12.7319 9.36589L12.4896 9.42736ZM12.366 8.90704L12.1221 8.96218L12.1221 8.96218L12.366 8.90704ZM11.9859 9.30551L12.0439 9.06232L12.0421 9.06191L11.9859 9.30551ZM11.9858 9.3055L11.9279 9.54869L11.9296 9.5491L11.9858 9.3055ZM11.6379 9.22186L11.6972 8.97901L11.6972 8.97901L11.6379 9.22186ZM10.4815 8.8995L10.4096 9.13896L10.4101 9.13911L10.4815 8.8995ZM10.4814 8.8995L10.5533 8.66004L10.5528 8.65989L10.4814 8.8995ZM9.55809 8.63425L9.62304 8.39283L9.62304 8.39283L9.55809 8.63425ZM6.50054 8.595L6.32322 8.41877L6.32322 8.41877L6.50054 8.595ZM6.23745 8.9522L6.4538 9.07746L6.4538 9.07746L6.23745 8.9522ZM5.86402 9.51641L6.06748 9.66168L6.06748 9.66168L5.86402 9.51641ZM5.75738 9.66486L5.95742 9.81489L5.96023 9.81098L5.75738 9.66486ZM5.75738 9.66487L5.55735 9.51484L5.55471 9.5185L5.75738 9.66487ZM5.75736 9.66489L5.55469 9.51852L5.55451 9.51877L5.75736 9.66489ZM5.42023 10.1442L5.21252 10.0051L5.21252 10.0051L5.42023 10.1442ZM4.86902 10.9233L4.66674 10.7764L4.66635 10.7769L4.86902 10.9233ZM4.869 10.9233L5.07127 11.0703L5.07167 11.0697L4.869 10.9233ZM4.8647 10.9293L4.66244 10.7823L4.66242 10.7824L4.8647 10.9293ZM4.27784 11.7611L4.48585 11.8998L4.48585 11.8998L4.27784 11.7611ZM4.21608 11.8414L4.01995 11.6862L4.01608 11.6914L4.21608 11.8414ZM4.21607 11.8414L4.41225 11.9965L4.41607 11.9914L4.21607 11.8414ZM4.18729 11.8778L3.99117 11.7228L3.9911 11.7229L4.18729 11.8778ZM4.00149 12.1367L3.78903 12.0049L3.78903 12.0049L4.00149 12.1367ZM3.90234 13.2495L4.12594 13.1377L4.12594 13.1377L3.90234 13.2495ZM4.17508 13.5946L4.34122 13.4078L4.34122 13.4078L4.17508 13.5946ZM4.40627 13.772L4.54782 13.5659L4.54782 13.5659L4.40627 13.772ZM4.4993 13.8348L4.64163 13.6292L4.63755 13.6265L4.4993 13.8348ZM4.49934 13.8348L4.35701 14.0404L4.36108 14.0431L4.49934 13.8348ZM4.57265 13.8846L4.71572 13.6796L4.71572 13.6796L4.57265 13.8846ZM4.61895 13.9185L4.79515 13.7412L4.78635 13.7324L4.77672 13.7246L4.61895 13.9185ZM5.06463 14.2824L5.21152 14.0801L5.2114 14.08L5.06463 14.2824ZM5.09529 14.3047L5.24243 14.1026L5.24218 14.1024L5.09529 14.3047ZM5.37538 14.5337L5.19109 14.7026L5.19109 14.7026L5.37538 14.5337ZM6.48119 15.3642L6.35094 15.5776L6.35095 15.5776L6.48119 15.3642ZM6.67697 15.4855L6.81216 15.2752L6.81216 15.2752L6.67697 15.4855ZM7.17024 15.9769L7.41949 15.9576L7.41437 15.8916L7.3773 15.8368L7.17024 15.9769ZM7.16957 16.1525L6.91991 16.1394L6.91991 16.1394L7.16957 16.1525ZM7.14788 16.419L7.39676 16.4427L7.39677 16.4426L7.14788 16.419ZM7.14788 16.4191L6.899 16.3954L6.89899 16.3955L7.14788 16.4191ZM7.14596 16.4393L7.39484 16.4629L7.39484 16.4629L7.14596 16.4393ZM7.12618 16.7406L6.87619 16.739L6.87619 16.739L7.12618 16.7406ZM7.10056 17.2971L7.35002 17.3135L7.35002 17.3135L7.10056 17.2971ZM7.09907 17.3197L6.84961 17.3033L6.84907 17.3115V17.3197H7.09907ZM7.09907 17.3197L7.34853 17.3361L7.34907 17.3279V17.3197H7.09907ZM7.07592 17.724L7.11664 17.9707L7.31731 17.9376L7.32571 17.7344L7.07592 17.724ZM6.96123 17.7424L7.00004 17.9894L7.00011 17.9893L6.96123 17.7424ZM6.94857 17.7444L6.90976 17.4974L6.90747 17.4978L6.94857 17.7444ZM6.9485 17.7444L6.9873 17.9914L6.9896 17.991L6.9485 17.7444ZM6.70794 17.7881L6.7652 18.0314L6.76521 18.0314L6.70794 17.7881ZM4.77825 18.3146L4.70794 18.0747L4.70793 18.0747L4.77825 18.3146ZM4.72425 18.3304L4.65393 18.0905L4.65393 18.0905L4.72425 18.3304ZM2.92335 18.8277L2.98216 19.0707L2.98216 19.0707L2.92335 18.8277ZM2.84397 18.8465L2.89922 19.0903L2.90084 19.0899L2.84397 18.8465ZM2.8439 18.8465L2.78865 18.6027L2.78703 18.603L2.8439 18.8465ZM2.66012 18.8916L2.7261 19.1327L2.72708 19.1324L2.66012 18.8916ZM2.65334 18.8934L2.71898 19.1346L2.71932 19.1345L2.65334 18.8934ZM2.20626 19.1579L2.01973 18.9915L2.01973 18.9915L2.20626 19.1579ZM2.00113 19.7645L2.2509 19.754L2.2509 19.754L2.00113 19.7645ZM2.02045 19.9668L2.26883 19.9384L2.26876 19.9378L2.02045 19.9668ZM2.02445 20.0018L2.27309 19.9757L2.27284 19.9734L2.02445 20.0018ZM2.5113 21.4211L2.73491 21.3093L2.73491 21.3093L2.5113 21.4211ZM4.07936 24.0653L4.2896 23.93L4.28958 23.93L4.07936 24.0653ZM4.19329 24.2424L4.40359 24.1072L4.40354 24.1071L4.19329 24.2424ZM4.41852 24.6055L4.20514 24.7358L4.20515 24.7358L4.41852 24.6055ZM5.14119 25.6845L5.33682 25.5288L5.3364 25.5283L5.14119 25.6845ZM5.14518 25.6895L5.341 25.5341L5.34081 25.5338L5.14518 25.6895ZM5.40617 25.9268L5.5362 25.7132L5.5362 25.7132L5.40617 25.9268ZM8.33936 25.3821L8.23621 25.1544L8.2362 25.1544L8.33936 25.3821ZM10.0456 24.2798L9.89558 24.0798L9.89368 24.0813L10.0456 24.2798ZM10.0456 24.2798L10.1956 24.4798L10.1974 24.4784L10.0456 24.2798ZM10.144 24.2046L10.1567 23.9549L10.0651 23.9502L9.9922 24.006L10.144 24.2046ZM10.8796 24.3335L10.9439 24.0919L10.9439 24.0919L10.8796 24.3335ZM10.9449 24.3496L11.1948 24.3571L11.2009 24.1516L11.0005 24.1059L10.9449 24.3496ZM11.0632 25.8602L10.8157 25.8954L10.8157 25.8954L11.0632 25.8602ZM11.2319 27.8389L10.9823 27.8533L10.9823 27.8533L11.2319 27.8389ZM11.2381 27.9462L10.9885 27.9606L10.9885 27.9606L11.2381 27.9462ZM11.2424 28.029L10.9925 28.0412L10.9932 28.0498L11.2424 28.029ZM11.2424 28.029L11.4922 28.0168L11.4915 28.0083L11.2424 28.029ZM11.2691 28.4095L11.0206 28.437L11.0206 28.437L11.2691 28.4095ZM11.4282 29.039L11.2002 29.1416L11.2002 29.1416L11.4282 29.039ZM11.8449 29.4529L11.7391 29.6794L11.7391 29.6794L11.8449 29.4529ZM12.1527 29.5445L12.1932 29.2978L12.1932 29.2978L12.1527 29.5445ZM12.6233 29.5697L12.6176 29.3197L12.6176 29.3197L12.6233 29.5697ZM13.0155 29.5484L13.0343 29.7976L13.0345 29.7976L13.0155 29.5484ZM13.0707 29.5442L13.0896 29.7934L13.0923 29.7932L13.0707 29.5442ZM13.0707 29.5441L13.0517 29.2949L13.0491 29.2951L13.0707 29.5441ZM13.1531 29.538L13.1705 29.7874L13.1705 29.7874L13.1531 29.538ZM13.1998 29.5351L13.2095 29.7849L13.2016 29.2851L13.1998 29.5351ZM13.198 29.5351V29.2851L13.1961 29.7851L13.198 29.5351ZM14.1502 29.5387L14.1488 29.7887H14.1502V29.5387ZM14.1503 29.5387L14.1517 29.2887H14.1503V29.5387ZM16.4279 29.5287L16.4218 29.2787L16.4218 29.2787L16.4279 29.5287ZM19.6933 29.0991L19.6331 28.8565L19.6331 28.8565L19.6933 29.0991ZM19.9398 29.0435L19.9925 29.2879L19.9928 29.2879L19.9398 29.0435ZM19.9404 29.0434L19.8877 28.799L19.8874 28.7991L19.9404 29.0434ZM19.9573 29.0397L20.0101 29.2841L20.0101 29.2841L19.9573 29.0397ZM20.2783 28.9658L20.2164 28.7236L20.2164 28.7236L20.2783 28.9658ZM21.0257 28.6696L20.8959 28.4559L20.8959 28.4559L21.0257 28.6696ZM21.5418 27.7966L21.2926 27.7767L21.2926 27.7767L21.5418 27.7966ZM21.5417 27.5019L21.7913 27.4877L21.7913 27.4871L21.5417 27.5019ZM21.5381 27.4411L21.7877 27.4263L21.7877 27.4259L21.5381 27.4411ZM21.9431 24.6859L22.1791 24.7682L22.1791 24.7682L21.9431 24.6859ZM22.0263 24.3865L21.7842 24.3244L21.7841 24.3246L22.0263 24.3865ZM22.0389 24.3373L21.7969 24.2749L21.7968 24.2752L22.0389 24.3373ZM22.1569 23.9088L21.9179 23.8357L21.9178 23.8359L22.1569 23.9088ZM22.1584 23.9039L22.1935 23.6563L21.9818 23.6264L21.9194 23.8308L22.1584 23.9039ZM22.5791 23.9489L22.5567 24.1979L22.5583 24.1981L22.5791 23.9489ZM22.5791 23.9489L22.6015 23.6999L22.5999 23.6998L22.5791 23.9489ZM22.6435 23.9548L22.6663 23.7058L22.6663 23.7058L22.6435 23.9548ZM22.697 23.9598L22.7211 23.7109L22.7211 23.7109L22.697 23.9598ZM23.1014 24.0221L23.0377 24.2639L23.0378 24.2639L23.1014 24.0221ZM24.2999 24.691L24.4499 24.491L24.4499 24.491L24.2999 24.691ZM25.8335 25.0702L25.7842 24.8251L25.7842 24.8251L25.8335 25.0702ZM27.0423 24.4065L27.21 24.592L27.21 24.592L27.0423 24.4065ZM28.2648 22.9344L28.0694 22.778L28.0616 22.7888L28.2648 22.9344ZM28.2649 22.9344L28.4601 23.0906L28.4648 23.0846L28.4692 23.0784L28.2649 22.9344ZM28.265 22.9341L28.0618 22.7885L28.0607 22.7902L28.265 22.9341ZM28.4894 22.626L28.6885 22.7772L28.6885 22.7772L28.4894 22.626ZM28.6736 22.3945L28.8678 22.5519L28.8679 22.5518L28.6736 22.3945ZM28.7373 22.3158L28.9316 22.4732L28.9317 22.4729L28.7373 22.3158ZM29.047 21.914L29.2502 22.0596L29.2502 22.0596L29.047 21.914ZM29.5507 20.8188L29.7978 20.8568L29.7978 20.8568L29.5507 20.8188ZM29.5331 20.3965L29.2916 20.4611L29.2916 20.4611L29.5331 20.3965ZM29.2882 19.9841L29.4613 19.8037L29.4613 19.8037L29.2882 19.9841ZM29.089 19.8335L28.9574 20.046L28.9576 20.0462L29.089 19.8335ZM29.0847 19.8308L28.953 20.0434L28.953 20.0434L29.0847 19.8308ZM29.0661 19.8193L29.1978 19.6068L29.1977 19.6068L29.0661 19.8193ZM29.0149 19.7863L29.1615 19.5838L29.1615 19.5838L29.0149 19.7863ZM27.2202 18.5937L27.3544 18.3829L27.3539 18.3825L27.2202 18.5937ZM27.2201 18.5937L27.0858 18.8046L27.0863 18.8049L27.2201 18.5937ZM26.2226 17.9491L26.3612 17.7411L26.3612 17.7411L26.2226 17.9491ZM25.972 17.8043L26.088 17.5829L26.0879 17.5828L25.972 17.8043ZM25.9371 17.7861L25.8166 18.0052L25.8213 18.0076L25.9371 17.7861ZM25.9371 17.7861L26.0576 17.567L26.0528 17.5645L25.9371 17.7861ZM25.8137 17.7194L25.577 17.7997L25.6068 17.8878L25.687 17.9349L25.8137 17.7194ZM25.5394 15.2127L25.4104 14.9985L25.315 15.0559L25.2939 15.1653L25.5394 15.2127ZM25.6002 15.1772L25.4763 14.9601L25.4761 14.9602L25.6002 15.1772ZM25.6183 15.1669L25.4944 14.9498L25.4943 14.9498L25.6183 15.1669ZM25.686 15.1281L25.8116 15.3442L25.8116 15.3442L25.686 15.1281ZM27.2139 14.0743L27.364 14.2742L27.3656 14.273L27.2139 14.0743ZM27.2141 14.0742L27.064 13.8742L27.0624 13.8754L27.2141 14.0742ZM27.5605 13.8156L27.4121 13.6144L27.4121 13.6144L27.5605 13.8156ZM27.7303 13.6964L27.8723 13.9022L27.8723 13.9022L27.7303 13.6964ZM28.6226 13.0024L28.7964 13.1821L28.7964 13.1821L28.6226 13.0024ZM29.2413 11.2016L29.4817 11.133L29.4817 11.133L29.2413 11.2016ZM29.2251 11.103L29.4732 11.0717L29.4728 11.0694L29.2251 11.103ZM29.2251 11.1027L28.977 11.1339L28.9773 11.1362L29.2251 11.1027ZM29.2116 10.9983L29.4594 10.9653L29.4594 10.9653L29.2116 10.9983ZM29.062 10.4724L29.2856 10.3606L29.2856 10.3606L29.062 10.4724ZM28.4343 9.51428L28.6327 9.36217L28.6327 9.36217L28.4343 9.51428ZM27.9187 8.80734L28.1226 8.66269L28.1221 8.66203L27.9187 8.80734ZM27.9186 8.80726L28.1221 8.66194L28.1208 8.66022L27.9186 8.80726ZM27.9186 8.8072L27.7147 8.95186L27.7164 8.95424L27.9186 8.8072ZM27.4775 8.19592L27.6782 8.04686L27.6782 8.04686L27.4775 8.19592ZM26.2934 6.86136L26.128 7.04877L26.128 7.04877L26.2934 6.86136ZM25.6699 6.50277L25.7348 6.26134L25.7348 6.26134L25.6699 6.50277ZM24.9341 6.55363L24.8388 6.32252L24.8388 6.32252L24.9341 6.55363ZM24.4966 6.82007L24.3452 6.62118L24.3452 6.62118L24.4966 6.82007ZM24.394 6.89925L24.2406 6.70182L24.2399 6.70237L24.394 6.89925ZM24.3937 6.89946L24.5471 7.09688L24.5478 7.09633L24.3937 6.89946ZM24.1833 7.0566L24.0405 6.85141L24.0405 6.85141L24.1833 7.0566ZM23.1709 7.72311L23.0361 7.51257L23.0283 7.51756L23.0209 7.52311L23.1709 7.72311ZM23.1709 7.72312L23.3057 7.93366L23.3135 7.92867L23.3209 7.92312L23.1709 7.72312ZM22.926 7.88012L22.7908 7.66984L22.7908 7.66985L22.926 7.88012ZM21.6193 8.77787L21.4678 8.57906L21.4678 8.57906L21.6193 8.77787ZM21.5623 8.82043L21.4135 8.61949L21.4123 8.62043L21.5623 8.82043ZM21.5623 8.82044L21.711 9.02137L21.7123 9.02044L21.5623 8.82044ZM21.1605 9.14451L20.9898 8.9618L20.9886 8.96301L21.1605 9.14451ZM21.1328 9.17077L20.9996 9.38237L21.1639 9.48568L21.3047 9.35226L21.1328 9.17077ZM20.8638 9.00533L20.9933 8.79151L20.9932 8.79144L20.8638 9.00533ZM20.7897 8.96051L20.9191 8.74662L20.9177 8.74578L20.7897 8.96051ZM20.7896 8.96047L20.6602 9.17439L20.6616 9.17521L20.7896 8.96047ZM20.3161 8.66561L20.1768 8.87318L20.1782 8.87417L20.3161 8.66561ZM20.2962 8.65224L20.0462 8.64846L20.0442 8.78416L20.1568 8.8598L20.2962 8.65224ZM20.2971 8.58868L20.0472 8.58446L20.0472 8.5849L20.2971 8.58868ZM20.2972 8.58472L20.5472 8.58895V8.58472H20.2972ZM20.2972 8.5847L20.0472 8.58044V8.5847H20.2972ZM20.3013 5.54047L20.5513 5.54932V5.54047H20.3013ZM20.3013 5.54039L20.0513 5.53155V5.54039H20.3013ZM20.3024 4.96237L20.053 4.97936L20.053 4.97936L20.3024 4.96237ZM19.8638 3.92098L19.6956 4.10596L19.6956 4.10596L19.8638 3.92098ZM18.5149 3.19137L18.4534 3.4337L18.4534 3.4337L18.5149 3.19137ZM16.2503 3.00058L16.2511 3.25057L16.2511 3.25057L16.2503 3.00058ZM16.2503 3.00058L16.2496 2.75058L16.2496 2.75058L16.2503 3.00058ZM15.9758 3.00086L15.9751 3.25086L15.9758 3.00086ZM13.4188 3.02938L13.41 2.77954L13.4277 3.27923L13.4188 3.02938ZM13.4149 3.029L13.4229 2.77913L13.4229 2.77913L13.4149 3.029ZM13.342 3.02602L13.3295 3.27571L13.33 3.27573L13.342 3.02602ZM13.2714 3.0225L13.2587 3.27218L13.2589 3.27219L13.2714 3.0225ZM13.1171 3.01498L13.1058 3.26472L13.1058 3.26472L13.1171 3.01498ZM12.491 3.00753L12.482 2.75769L12.482 2.75769L12.491 3.00753ZM11.7685 3.12409L11.6826 2.88933L11.6826 2.88933L11.7685 3.12409ZM11.3046 3.45241L11.106 3.30061L11.106 3.30061L11.3046 3.45241ZM11.1705 4.24297L10.9321 4.31825L10.9321 4.31825L11.1705 4.24297ZM11.8412 6.73398L11.5985 6.79377L11.5985 6.79399L11.8412 6.73398ZM11.8413 6.73422L12.084 6.67443L12.084 6.6742L11.8413 6.73422ZM12.1238 7.86189L11.8818 7.92452L11.8818 7.92452L12.1238 7.86189ZM12.3061 8.6395L12.5506 8.58734L12.5501 8.58515L12.3061 8.6395ZM12.3061 8.63961L12.0616 8.69177L12.0621 8.69395L12.3061 8.63961ZM16.4554 12.9557L16.3119 13.1604L16.3769 13.2059L16.4562 13.2057L16.4554 12.9557ZM15.9709 12.8291L15.9461 12.5803L15.9461 12.5803L15.9709 12.8291ZM16.6739 12.9606L16.6612 13.2103L16.6612 13.2103L16.6739 12.9606ZM18.1636 13.526L18.3251 13.3352L18.3251 13.3352L18.1636 13.526ZM18.4886 13.7829L18.6488 13.5907L18.6401 13.5841L18.4886 13.7829ZM18.4886 13.7829L18.3286 13.975L18.3388 13.9835L18.35 13.9909L18.4886 13.7829ZM18.4886 13.7829L18.6402 13.5841L18.6339 13.5793L18.6273 13.5749L18.4886 13.7829ZM18.6848 13.9338L18.5309 14.1308L18.5309 14.1308L18.6848 13.9338ZM19.2866 14.4819L19.1001 14.6484L19.1001 14.6484L19.2866 14.4819ZM19.6416 15.258L19.3953 15.3011L19.3953 15.3011L19.6416 15.258ZM19.5356 17.5146L19.2897 17.4695L19.2897 17.4695L19.5356 17.5146ZM17.1349 20.526L17.2023 20.7668L17.2023 20.7668L17.1349 20.526ZM13.2273 19.4703L13.4295 19.3233L13.4295 19.3233L13.2273 19.4703ZM13.0054 14.5939L12.7879 14.4706L12.7879 14.4706L13.0054 14.5939ZM14.8825 13.0785L14.9442 13.3208L14.9442 13.3208L14.8825 13.0785ZM15.0669 13.0281L15.1345 13.2688L15.1345 13.2688L15.0669 13.0281ZM7.40431 15.8663C7.36343 15.7345 7.22337 15.6607 7.0915 15.7016C6.95962 15.7425 6.88585 15.8825 6.92674 16.0144L7.40431 15.8663ZM6.92023 15.9877C6.94323 16.1239 7.07223 16.2156 7.20838 16.1926C7.34452 16.1696 7.43624 16.0406 7.41325 15.9045L6.92023 15.9877ZM6.83194 18.1373C6.83261 18.2754 6.94509 18.3868 7.08316 18.3861C7.22122 18.3854 7.33261 18.2729 7.33194 18.1349L6.83194 18.1373ZM7.33193 18.1327C7.33126 17.9946 7.21878 17.8833 7.08071 17.8839C6.94264 17.8846 6.83126 17.9971 6.83193 18.1351L7.33193 18.1327ZM12.7319 9.36589C12.6881 9.1929 12.6481 9.02093 12.6098 8.85189L12.1221 8.96218C12.1608 9.13301 12.2019 9.30976 12.2473 9.48883L12.7319 9.36589ZM11.9279 9.5487C12.0917 9.58775 12.2596 9.62777 12.4293 9.66998L12.5499 9.18475C12.3775 9.14187 12.2073 9.1013 12.0439 9.06233L11.9279 9.5487ZM11.9296 9.5491L11.9297 9.54911L12.0421 9.06191L12.0421 9.06191L11.9296 9.5491ZM11.5785 9.46471C11.6916 9.49235 11.8087 9.52028 11.9279 9.54869L12.0438 9.06232C11.9244 9.03384 11.8087 9.00625 11.6972 8.97901L11.5785 9.46471ZM10.4101 9.13911C10.7904 9.2523 11.1608 9.3626 11.5785 9.46471L11.6972 8.97901C11.2933 8.88027 10.9342 8.77342 10.5528 8.65989L10.4101 9.13911ZM10.4096 9.13895L10.4096 9.13896L10.5533 8.66005L10.5533 8.66004L10.4096 9.13895ZM9.49314 8.87566C9.82473 8.96487 10.1204 9.05288 10.4101 9.13911L10.5528 8.65989C10.2636 8.57381 9.96189 8.48399 9.62304 8.39283L9.49314 8.87566ZM7.23146 8.52807C8.03056 8.52807 8.78034 8.6839 9.49314 8.87566L9.62304 8.39283C8.89296 8.19642 8.09445 8.02807 7.23146 8.02807V8.52807ZM6.67786 8.77124C6.78899 8.65943 6.97406 8.52807 7.23146 8.52807V8.02807C6.79111 8.02807 6.48603 8.25496 6.32322 8.41877L6.67786 8.77124ZM6.4538 9.07746C6.49619 9.00424 6.57081 8.87895 6.67786 8.77124L6.32322 8.41877C6.16746 8.57549 6.06603 8.74932 6.02109 8.82694L6.4538 9.07746ZM6.06748 9.66168C6.21155 9.45992 6.34308 9.2687 6.4538 9.07746L6.02109 8.82694C5.92287 8.9966 5.80285 9.17186 5.66057 9.37113L6.06748 9.66168ZM5.96023 9.81098C5.99687 9.76012 6.03296 9.71002 6.06748 9.66168L5.66057 9.37113C5.62676 9.41847 5.5913 9.4677 5.55453 9.51874L5.96023 9.81098ZM5.95738 9.81487L5.95738 9.81486L5.55738 9.51486L5.55738 9.51487L5.95738 9.81487ZM5.96003 9.81127L5.96005 9.81124L5.55471 9.5185L5.55469 9.51852L5.96003 9.81127ZM5.62794 10.2834C5.73349 10.1258 5.84954 9.96465 5.96021 9.81102L5.55451 9.51877C5.44473 9.67116 5.32362 9.83925 5.21252 10.0051L5.62794 10.2834ZM5.0713 11.0702C5.26451 10.8042 5.45151 10.5468 5.62794 10.2834L5.21252 10.0051C5.04228 10.2593 4.86097 10.509 4.66674 10.7764L5.0713 11.0702ZM5.07167 11.0697L5.07169 11.0697L4.66635 10.7769L4.66634 10.777L5.07167 11.0697ZM5.06697 11.0762L5.07127 11.0703L4.66674 10.7764L4.66244 10.7823L5.06697 11.0762ZM4.48585 11.8998C4.67494 11.6162 4.87404 11.3418 5.06699 11.0762L4.66242 10.7824C4.47028 11.0469 4.26535 11.3292 4.06982 11.6225L4.48585 11.8998ZM4.41215 11.9965C4.44663 11.9529 4.4694 11.9245 4.48585 11.8998L4.06983 11.6225C4.0702 11.6219 4.06873 11.6242 4.06027 11.6351C4.05186 11.646 4.03976 11.6613 4.02001 11.6863L4.41215 11.9965ZM4.41607 11.9914L4.41608 11.9914L4.01608 11.6914L4.01607 11.6914L4.41607 11.9914ZM4.38341 12.0328L4.41219 11.9964L4.01995 11.6864L3.99117 11.7228L4.38341 12.0328ZM4.21396 12.2684C4.27087 12.1767 4.3353 12.0938 4.38348 12.0328L3.9911 11.7229C3.94178 11.7853 3.86203 11.8872 3.78903 12.0049L4.21396 12.2684ZM4.12594 13.1377C3.9423 12.7704 4.11391 12.4298 4.21396 12.2684L3.78903 12.0049C3.67474 12.1892 3.36907 12.742 3.67873 13.3613L4.12594 13.1377ZM4.34122 13.4078C4.27536 13.3492 4.18682 13.2595 4.12594 13.1377L3.67873 13.3613C3.7806 13.565 3.92244 13.7045 4.00893 13.7814L4.34122 13.4078ZM4.54782 13.5659C4.48616 13.5235 4.41075 13.4696 4.34122 13.4078L4.00893 13.7814C4.1023 13.8644 4.19838 13.9325 4.26473 13.978L4.54782 13.5659ZM4.63755 13.6265C4.6164 13.6124 4.59231 13.5964 4.54782 13.5659L4.26473 13.978C4.31225 14.0107 4.33875 14.0283 4.36105 14.0431L4.63755 13.6265ZM4.64164 13.6292L4.64161 13.6292L4.357 14.0403L4.35704 14.0403L4.64164 13.6292ZM4.71572 13.6796C4.68058 13.655 4.6603 13.6416 4.6376 13.6265L4.36108 14.0431C4.38258 14.0574 4.39914 14.0683 4.42959 14.0896L4.71572 13.6796ZM4.61895 13.9185C4.77672 13.7246 4.77671 13.7246 4.77669 13.7246C4.77669 13.7246 4.77667 13.7246 4.77666 13.7245C4.77664 13.7245 4.77662 13.7245 4.7766 13.7245C4.77656 13.7245 4.77652 13.7244 4.77647 13.7244C4.77639 13.7243 4.7763 13.7242 4.7762 13.7242C4.77602 13.724 4.77582 13.7239 4.7756 13.7237C4.77517 13.7233 4.77469 13.723 4.77415 13.7225C4.77307 13.7217 4.77176 13.7206 4.77022 13.7194C4.76714 13.717 4.76312 13.7139 4.75812 13.7102C4.74811 13.7026 4.73413 13.6924 4.71572 13.6796L4.42958 14.0896C4.4433 14.0992 4.45247 14.1059 4.45759 14.1098C4.46014 14.1117 4.46168 14.1129 4.46226 14.1133C4.46255 14.1136 4.4626 14.1136 4.46242 14.1135C4.46233 14.1134 4.46218 14.1133 4.46197 14.1131C4.46187 14.113 4.46175 14.1129 4.46162 14.1128C4.46156 14.1128 4.46149 14.1127 4.46142 14.1126C4.46138 14.1126 4.46134 14.1126 4.4613 14.1126C4.46129 14.1125 4.46127 14.1125 4.46125 14.1125C4.46124 14.1125 4.46122 14.1125 4.46122 14.1125C4.4612 14.1125 4.46119 14.1125 4.61895 13.9185ZM5.2114 14.08C5.08823 13.9907 4.93119 13.8763 4.79515 13.7412L4.44275 14.0959C4.61008 14.2621 4.79744 14.3975 4.91786 14.4848L5.2114 14.08ZM5.24218 14.1024L5.21152 14.0801L4.91775 14.4847L4.9484 14.507L5.24218 14.1024ZM5.55967 14.3647C5.48378 14.2819 5.38349 14.2053 5.24243 14.1026L4.94816 14.5068C5.09453 14.6134 5.15422 14.6624 5.19109 14.7026L5.55967 14.3647ZM6.61144 15.1508C6.28293 14.9503 5.85543 14.6874 5.55967 14.3647L5.19109 14.7026C5.54274 15.0862 6.03358 15.3838 6.35094 15.5776L6.61144 15.1508ZM6.81216 15.2752C6.75308 15.2372 6.68403 15.1951 6.61144 15.1508L6.35095 15.5776C6.42504 15.6228 6.48863 15.6616 6.54178 15.6958L6.81216 15.2752ZM7.3773 15.8368C7.21921 15.6032 7.03985 15.4216 6.81216 15.2752L6.54178 15.6958C6.7065 15.8017 6.83875 15.9331 6.96318 16.117L7.3773 15.8368ZM7.41923 16.1656C7.42366 16.0811 7.42369 16.0117 7.41949 15.9576L6.92099 15.9963C6.92288 16.0206 6.92374 16.0664 6.91991 16.1394L7.41923 16.1656ZM7.39677 16.4426C7.40572 16.3482 7.41448 16.2562 7.41923 16.1656L6.91991 16.1394C6.91582 16.2176 6.90816 16.2987 6.899 16.3954L7.39677 16.4426ZM7.39675 16.4428L7.39676 16.4427L6.89901 16.3953L6.899 16.3954L7.39675 16.4428ZM7.39484 16.4629L7.39676 16.4427L6.89899 16.3955L6.89707 16.4158L7.39484 16.4629ZM7.37618 16.7422C7.37673 16.6558 7.38651 16.5508 7.39484 16.4629L6.89707 16.4157C6.8892 16.4988 6.87691 16.6265 6.87619 16.739L7.37618 16.7422ZM7.35002 17.3135C7.36321 17.1126 7.375 16.9265 7.37618 16.7422L6.87619 16.739C6.87512 16.9063 6.8644 17.078 6.85109 17.2807L7.35002 17.3135ZM7.34853 17.3361L7.35002 17.3135L6.8511 17.2807L6.84961 17.3033L7.34853 17.3361ZM7.34907 17.3197V17.3197H6.84907V17.3197H7.34907ZM7.32571 17.7344C7.33138 17.5971 7.34016 17.4635 7.34853 17.3361L6.84961 17.3033C6.84129 17.4299 6.8321 17.5694 6.82613 17.7137L7.32571 17.7344ZM7.00011 17.9893C7.03907 17.9832 7.07818 17.977 7.11664 17.9707L7.0352 17.4774C6.99888 17.4834 6.96161 17.4892 6.92235 17.4954L7.00011 17.9893ZM6.98738 17.9913L7.00004 17.9894L6.92243 17.4954L6.90977 17.4974L6.98738 17.9913ZM6.9896 17.991L6.98967 17.991L6.90747 17.4978L6.9074 17.4978L6.9896 17.991ZM6.76521 18.0314C6.82965 18.0163 6.91537 18.0027 6.9873 17.9914L6.90971 17.4974C6.84263 17.5079 6.73705 17.5244 6.65068 17.5447L6.76521 18.0314ZM4.84856 18.5545C5.47417 18.3711 6.11344 18.1848 6.7652 18.0314L6.65068 17.5447C5.98388 17.7016 5.33221 17.8917 4.70794 18.0747L4.84856 18.5545ZM4.79457 18.5703L4.84857 18.5545L4.70793 18.0747L4.65393 18.0905L4.79457 18.5703ZM2.98216 19.0707C3.58644 18.9245 4.18399 18.7493 4.79457 18.5703L4.65393 18.0905C4.04133 18.27 3.45526 18.4418 2.86454 18.5848L2.98216 19.0707ZM2.90084 19.0899C2.92943 19.0832 2.9579 19.0766 2.98216 19.0707L2.86454 18.5848C2.84262 18.5901 2.81629 18.5962 2.78709 18.603L2.90084 19.0899ZM2.89916 19.0903L2.89922 19.0903L2.78871 18.6027L2.78865 18.6027L2.89916 19.0903ZM2.72708 19.1324C2.76892 19.1208 2.83447 19.1054 2.90077 19.0899L2.78703 18.603C2.72496 18.6175 2.64742 18.6356 2.59317 18.6507L2.72708 19.1324ZM2.71932 19.1345L2.7261 19.1327L2.59414 18.6504L2.58736 18.6523L2.71932 19.1345ZM2.39278 19.3244C2.5096 19.1935 2.66658 19.1489 2.71898 19.1346L2.5877 18.6522C2.52123 18.6703 2.23973 18.745 2.01973 18.9915L2.39278 19.3244ZM2.2509 19.754C2.24787 19.682 2.24485 19.4902 2.39279 19.3244L2.01973 18.9915C1.73518 19.3103 1.74714 19.6752 1.75135 19.775L2.2509 19.754ZM2.26876 19.9378C2.26203 19.8803 2.25287 19.8006 2.2509 19.754L1.75135 19.775C1.75428 19.8445 1.76625 19.9455 1.77214 19.9959L2.26876 19.9378ZM2.27284 19.9734L2.26883 19.9384L1.77207 19.9952L1.77607 20.0302L2.27284 19.9734ZM2.73491 21.3093C2.55914 20.9577 2.32608 20.4791 2.27308 19.9757L1.77583 20.028C1.83957 20.6336 2.11529 21.1881 2.28769 21.5329L2.73491 21.3093ZM4.28958 23.93C3.75101 23.0933 3.19408 22.2276 2.73491 21.3093L2.28769 21.5329C2.76096 22.4794 3.33287 23.3675 3.86914 24.2006L4.28958 23.93ZM4.40354 24.1071L4.2896 23.93L3.86912 24.2006L3.98305 24.3777L4.40354 24.1071ZM4.6319 24.4753C4.55236 24.345 4.47559 24.2192 4.40359 24.1072L3.983 24.3776C4.05124 24.4837 4.12482 24.6042 4.20514 24.7358L4.6319 24.4753ZM5.3364 25.5283C5.07807 25.2054 4.84344 24.8217 4.6319 24.4753L4.20515 24.7358C4.41354 25.0771 4.66439 25.4887 4.94597 25.8407L5.3364 25.5283ZM5.34081 25.5338L5.33682 25.5288L4.94556 25.8401L4.94955 25.8452L5.34081 25.5338ZM5.5362 25.7132C5.43548 25.6519 5.36749 25.5675 5.341 25.5341L4.94936 25.8449C4.98204 25.8861 5.09554 26.0303 5.27614 26.1403L5.5362 25.7132ZM5.88097 25.8044C5.78685 25.8044 5.66184 25.7898 5.5362 25.7132L5.27614 26.1403C5.50808 26.2815 5.73455 26.3044 5.88097 26.3044V25.8044ZM8.2362 25.1544C7.62675 25.4304 6.6829 25.8044 5.88097 25.8044V26.3044C6.80179 26.3044 7.83401 25.8855 8.44252 25.6098L8.2362 25.1544ZM9.89368 24.0813C9.40441 24.4556 8.85705 24.8731 8.23621 25.1544L8.44252 25.6098C9.12352 25.3013 9.71446 24.848 10.1975 24.4784L9.89368 24.0813ZM9.89561 24.0798L9.89559 24.0798L10.1956 24.4798L10.1956 24.4798L9.89561 24.0798ZM9.9922 24.006L9.89378 24.0812L10.1974 24.4784L10.2959 24.4032L9.9922 24.006ZM10.9439 24.0919C10.6703 24.0192 10.409 23.9678 10.1567 23.9549L10.1313 24.4543C10.3353 24.4647 10.5594 24.507 10.8154 24.5751L10.9439 24.0919ZM11.0005 24.1059C10.9822 24.1017 10.9632 24.0971 10.9439 24.0919L10.8154 24.5751C10.8413 24.582 10.8661 24.5881 10.8893 24.5933L11.0005 24.1059ZM11.1937 24.4208C11.1937 24.3998 11.1941 24.3782 11.1948 24.3571L10.695 24.3421C10.6943 24.3667 10.6937 24.3935 10.6937 24.4208H11.1937ZM11.3107 25.825C11.2461 25.3706 11.1937 24.9047 11.1937 24.4208H10.6937C10.6937 24.9396 10.7498 25.4325 10.8157 25.8954L11.3107 25.825ZM11.4815 27.8245C11.4419 27.1376 11.4045 26.4843 11.3107 25.825L10.8157 25.8954C10.906 26.5304 10.9426 27.1627 10.9823 27.8533L11.4815 27.8245ZM11.4877 27.9318L11.4815 27.8245L10.9823 27.8533L10.9885 27.9606L11.4877 27.9318ZM11.4921 28.0168C11.4906 27.9859 11.4891 27.9566 11.4877 27.9318L10.9885 27.9606C10.9898 27.9828 10.9911 28.0096 10.9927 28.0412L11.4921 28.0168ZM11.4915 28.0083L11.4915 28.0082L10.9932 28.0498L10.9932 28.0498L11.4915 28.0083ZM11.5176 28.3821C11.504 28.2593 11.4973 28.1238 11.4921 28.0168L10.9927 28.0412C10.9978 28.1458 11.0051 28.2966 11.0206 28.437L11.5176 28.3821ZM11.6562 28.9364C11.5711 28.7473 11.5359 28.5478 11.5176 28.3821L11.0206 28.437C11.0413 28.6246 11.084 28.8834 11.2002 29.1416L11.6562 28.9364ZM11.9507 29.2264C11.8685 29.188 11.7318 29.1046 11.6562 28.9364L11.2002 29.1416C11.3457 29.465 11.605 29.6168 11.7391 29.6794L11.9507 29.2264ZM12.1932 29.2978C12.125 29.2866 12.0371 29.2668 11.9507 29.2264L11.7391 29.6794C11.8835 29.7468 12.0212 29.7762 12.1121 29.7912L12.1932 29.2978ZM12.6176 29.3197C12.4866 29.3227 12.3317 29.3206 12.1932 29.2978L12.1121 29.7912C12.297 29.8216 12.489 29.8228 12.6289 29.8196L12.6176 29.3197ZM12.9967 29.2991C12.8896 29.3071 12.7535 29.3166 12.6176 29.3197L12.6289 29.8196C12.7788 29.8162 12.9259 29.8058 13.0343 29.7976L12.9967 29.2991ZM13.0517 29.2949L12.9965 29.2991L13.0345 29.7976L13.0896 29.7934L13.0517 29.2949ZM13.0491 29.2951L13.049 29.2951L13.0923 29.7932L13.0924 29.7932L13.0491 29.2951ZM13.1357 29.2886C13.1101 29.2904 13.0827 29.2925 13.0517 29.2949L13.0898 29.7934C13.1213 29.791 13.1469 29.7891 13.1705 29.7874L13.1357 29.2886ZM13.1998 29.5351C13.19 29.2853 13.19 29.2853 13.19 29.2853C13.19 29.2853 13.19 29.2853 13.19 29.2853C13.19 29.2853 13.19 29.2853 13.19 29.2853C13.1899 29.2853 13.1899 29.2853 13.1899 29.2853C13.1898 29.2853 13.1897 29.2853 13.1897 29.2853C13.1895 29.2853 13.1894 29.2853 13.1893 29.2854C13.1889 29.2854 13.1886 29.2854 13.1882 29.2854C13.1874 29.2854 13.1864 29.2855 13.1851 29.2855C13.1827 29.2857 13.1794 29.2858 13.1751 29.2861C13.1665 29.2866 13.1537 29.2874 13.1357 29.2886L13.1705 29.7874C13.1867 29.7863 13.1973 29.7856 13.2035 29.7853C13.2066 29.7851 13.2085 29.785 13.2095 29.7849C13.21 29.7849 13.2102 29.7849 13.2102 29.7849C13.2102 29.7849 13.2101 29.7849 13.21 29.7849C13.21 29.7849 13.2099 29.7849 13.2098 29.7849C13.2098 29.7849 13.2097 29.7849 13.2097 29.7849C13.2097 29.7849 13.2096 29.7849 13.2096 29.7849C13.2096 29.7849 13.2096 29.7849 13.2096 29.7849C13.2096 29.7849 13.2096 29.7849 13.2096 29.7849C13.2095 29.7849 13.2095 29.7849 13.1998 29.5351ZM13.1961 29.7851L13.198 29.7851L13.2016 29.2851L13.1998 29.2851L13.1961 29.7851ZM14.1516 29.2887C13.8314 29.2869 13.5128 29.2851 13.198 29.2851V29.7851C13.5112 29.7851 13.8284 29.7869 14.1488 29.7886L14.1516 29.2887ZM14.1503 29.2887H14.1502V29.7887H14.1503V29.2887ZM16.4218 29.2787C15.6676 29.297 14.9053 29.2928 14.1517 29.2887L14.1489 29.7886C14.9013 29.7928 15.671 29.7971 16.4339 29.7786L16.4218 29.2787ZM19.6331 28.8565C18.5733 29.1194 17.5078 29.2524 16.4218 29.2787L16.4339 29.7786C17.5533 29.7515 18.6553 29.6142 19.7535 29.3418L19.6331 28.8565ZM19.887 28.7992C19.7944 28.8192 19.7118 28.837 19.6331 28.8565L19.7535 29.3418C19.8233 29.3245 19.898 29.3083 19.9925 29.2879L19.887 28.7992ZM19.8874 28.7991L19.8868 28.7992L19.9928 29.2879L19.9934 29.2877L19.8874 28.7991ZM19.9046 28.7954L19.8877 28.799L19.9931 29.2878L20.0101 29.2841L19.9046 28.7954ZM20.2164 28.7236C20.1088 28.7511 20.0017 28.7744 19.9046 28.7954L20.0101 29.2841C20.1068 29.2632 20.2224 29.2381 20.3403 29.208L20.2164 28.7236ZM20.8959 28.4559C20.6723 28.5917 20.4289 28.6692 20.2164 28.7236L20.3403 29.208C20.5709 29.149 20.8697 29.0568 21.1554 28.8833L20.8959 28.4559ZM21.2926 27.7767C21.2759 27.9847 21.196 28.2737 20.8959 28.4559L21.1554 28.8833C21.6488 28.5837 21.7678 28.1055 21.791 27.8166L21.2926 27.7767ZM21.2921 27.5162C21.296 27.5845 21.3004 27.6787 21.2926 27.7767L21.791 27.8166C21.8018 27.6822 21.7954 27.5591 21.7913 27.4877L21.2921 27.5162ZM21.2886 27.4559L21.2922 27.5167L21.7913 27.4871L21.7877 27.4263L21.2886 27.4559ZM21.2841 27.3495C21.2841 27.3836 21.2861 27.4149 21.2886 27.4562L21.7877 27.4259C21.7849 27.3801 21.7841 27.3652 21.7841 27.3495H21.2841ZM21.707 24.6036C21.379 25.5443 21.2841 26.3485 21.2841 27.3495H21.7841C21.7841 26.388 21.8743 25.6424 22.1791 24.7682L21.707 24.6036ZM21.7841 24.3246C21.7566 24.4322 21.7277 24.5442 21.707 24.6036L22.1791 24.7682C22.2086 24.6836 22.2436 24.546 22.2685 24.4485L21.7841 24.3246ZM21.7968 24.2752L21.7842 24.3244L22.2685 24.4486L22.2811 24.3994L21.7968 24.2752ZM21.9178 23.8359C21.8728 23.9837 21.8318 24.1393 21.7969 24.2749L22.281 24.3997C22.3158 24.2648 22.3545 24.1182 22.3961 23.9817L21.9178 23.8359ZM21.9194 23.8308L21.9179 23.8357L22.396 23.9818L22.3975 23.9769L21.9194 23.8308ZM22.6014 23.6999C22.4724 23.6884 22.3274 23.6753 22.1935 23.6563L22.1234 24.1514C22.2721 24.1724 22.4299 24.1866 22.5567 24.1979L22.6014 23.6999ZM22.5999 23.6998L22.5998 23.6998L22.5583 24.1981L22.5584 24.1981L22.5999 23.6998ZM22.6663 23.7058C22.6454 23.7039 22.6237 23.7019 22.6015 23.6999L22.5568 24.1979C22.579 24.1999 22.6003 24.2018 22.6207 24.2037L22.6663 23.7058ZM22.7211 23.7109C22.7035 23.7092 22.6851 23.7075 22.6663 23.7058L22.6207 24.2037C22.639 24.2054 22.6564 24.207 22.6728 24.2086L22.7211 23.7109ZM23.165 23.7804C23.0368 23.7466 22.8923 23.7276 22.7211 23.7109L22.6728 24.2086C22.8392 24.2248 22.9504 24.2409 23.0377 24.2639L23.165 23.7804ZM24.4499 24.491C24.0337 24.1789 23.5895 23.8921 23.165 23.7804L23.0378 24.2639C23.3608 24.3489 23.7383 24.5823 24.1499 24.891L24.4499 24.491ZM25.7842 24.8251C25.3363 24.9153 24.8803 24.8138 24.4499 24.491L24.1499 24.891C24.6845 25.2919 25.2838 25.4359 25.8829 25.3153L25.7842 24.8251ZM26.8747 24.221C26.574 24.4929 26.2081 24.7398 25.7842 24.8251L25.8829 25.3153C26.4322 25.2047 26.8779 24.8922 27.21 24.592L26.8747 24.221ZM28.0616 22.7888C27.7503 23.2234 27.3278 23.8114 26.8747 24.221L27.21 24.592C27.7102 24.1398 28.1634 23.5054 28.4681 23.08L28.0616 22.7888ZM28.0696 22.7782L28.0696 22.7783L28.4601 23.0906L28.4601 23.0906L28.0696 22.7782ZM28.0607 22.7902L28.0605 22.7904L28.4692 23.0784L28.4694 23.0781L28.0607 22.7902ZM28.2902 22.4749C28.2242 22.5619 28.1465 22.6703 28.0618 22.7886L28.4683 23.0797C28.5544 22.9595 28.6275 22.8575 28.6885 22.7772L28.2902 22.4749ZM28.4794 22.237C28.4083 22.3247 28.3457 22.4018 28.2902 22.4749L28.6885 22.7772C28.7381 22.7118 28.7952 22.6414 28.8678 22.5519L28.4794 22.237ZM28.543 22.1585L28.4793 22.2371L28.8679 22.5518L28.9316 22.4732L28.543 22.1585ZM28.8437 21.7685C28.744 21.9078 28.6384 22.0404 28.5429 22.1587L28.9317 22.4729C29.0284 22.3533 29.1416 22.2113 29.2502 22.0596L28.8437 21.7685ZM29.3036 20.7808C29.2458 21.1564 29.0343 21.5024 28.8437 21.7685L29.2502 22.0596C29.4498 21.7809 29.7212 21.3546 29.7978 20.8568L29.3036 20.7808ZM29.2916 20.4611C29.323 20.5786 29.3175 20.69 29.3036 20.7808L29.7978 20.8568C29.8178 20.7265 29.8302 20.5396 29.7746 20.3318L29.2916 20.4611ZM29.1152 20.1645C29.1897 20.236 29.2573 20.333 29.2916 20.4611L29.7746 20.3318C29.713 20.1018 29.5906 19.9277 29.4613 19.8037L29.1152 20.1645ZM28.9576 20.0462C28.9883 20.0652 29.055 20.1068 29.1152 20.1645L29.4613 19.8037C29.3604 19.7069 29.2549 19.6421 29.2204 19.6208L28.9576 20.0462ZM28.953 20.0434L28.9574 20.046L29.2206 19.6209L29.2163 19.6183L28.953 20.0434ZM28.9345 20.0319L28.953 20.0434L29.2163 19.6183L29.1978 19.6068L28.9345 20.0319ZM28.8683 19.9888C28.8897 20.0043 28.9077 20.0153 28.9345 20.0319L29.1977 19.6068C29.1661 19.5872 29.1652 19.5865 29.1615 19.5838L28.8683 19.9888ZM27.0859 18.8046C27.6867 19.1872 28.3028 19.5796 28.8683 19.9888L29.1615 19.5838C28.5818 19.1643 27.9529 18.7639 27.3544 18.3829L27.0859 18.8046ZM27.0863 18.8049L27.0864 18.8049L27.3539 18.3825L27.3538 18.3825L27.0863 18.8049ZM26.0839 18.1571C26.4023 18.3693 26.7416 18.5854 27.0858 18.8046L27.3544 18.3828C27.0093 18.1631 26.6745 17.9499 26.3612 17.7411L26.0839 18.1571ZM25.856 18.0258C25.921 18.0598 26.0047 18.1043 26.0839 18.1571L26.3612 17.7411C26.2579 17.6721 26.1533 17.617 26.088 17.5829L25.856 18.0258ZM25.8213 18.0076L25.8562 18.0259L26.0879 17.5828L26.053 17.5646L25.8213 18.0076ZM25.8166 18.0051L25.8167 18.0051L26.0576 17.567L26.0576 17.567L25.8166 18.0051ZM25.687 17.9349C25.7274 17.9587 25.7692 17.9805 25.8214 18.0077L26.0528 17.5645C25.9974 17.5355 25.9677 17.52 25.9404 17.5039L25.687 17.9349ZM25.2939 15.1653C25.1353 15.9868 25.2834 16.9338 25.577 17.7997L26.0505 17.6392C25.7722 16.8184 25.6488 15.9648 25.7848 15.2601L25.2939 15.1653ZM25.4761 14.9602C25.4511 14.9745 25.4299 14.9868 25.4104 14.9985L25.6683 15.4269C25.6827 15.4182 25.7 15.4082 25.7244 15.3942L25.4761 14.9602ZM25.4943 14.9498L25.4763 14.9601L25.7242 15.3943L25.7423 15.384L25.4943 14.9498ZM25.5603 14.9119C25.5381 14.9248 25.515 14.938 25.4944 14.9498L25.7422 15.3841C25.7625 15.3724 25.7873 15.3583 25.8116 15.3442L25.5603 14.9119ZM27.0639 13.8743C26.5912 14.2291 26.0949 14.6012 25.5603 14.9119L25.8116 15.3442C26.3756 15.0164 26.8948 14.6264 27.364 14.2742L27.0639 13.8743ZM27.0624 13.8754L27.0623 13.8755L27.3656 14.273L27.3657 14.2729L27.0624 13.8754ZM27.4121 13.6144C27.2979 13.6987 27.1816 13.786 27.064 13.8742L27.3641 14.2741C27.482 14.1856 27.5967 14.0996 27.709 14.0168L27.4121 13.6144ZM27.5883 13.4907C27.5198 13.538 27.4574 13.581 27.4121 13.6144L27.709 14.0168C27.7464 13.9891 27.801 13.9514 27.8723 13.9022L27.5883 13.4907ZM28.4488 12.8228C28.1844 13.0785 27.8299 13.3239 27.5883 13.4907L27.8723 13.9022C28.1078 13.7396 28.4973 13.4714 28.7964 13.1821L28.4488 12.8228ZM29.0009 11.2703C29.1939 11.9457 28.7987 12.4843 28.4488 12.8228L28.7964 13.1821C29.1744 12.8165 29.7556 12.0918 29.4817 11.133L29.0009 11.2703ZM28.9771 11.1342C28.9835 11.1856 28.9878 11.2244 29.0009 11.2703L29.4817 11.133C29.4815 11.1323 29.4813 11.1321 29.4803 11.1261C29.4788 11.1164 29.477 11.1024 29.4731 11.0717L28.9771 11.1342ZM28.9773 11.1362L28.9774 11.1365L29.4728 11.0694L29.4728 11.0691L28.9773 11.1362ZM28.9638 11.0314C28.9697 11.0758 28.9738 11.1085 28.977 11.1339L29.4731 11.0714C29.4699 11.0457 29.4656 11.0116 29.4594 10.9653L28.9638 11.0314ZM28.8384 10.5842C28.9231 10.7535 28.949 10.9202 28.9638 11.0314L29.4594 10.9653C29.4431 10.8431 29.4091 10.6075 29.2856 10.3606L28.8384 10.5842ZM28.2359 9.66639C28.426 9.91433 28.678 10.2635 28.8384 10.5842L29.2856 10.3606C29.1026 9.99457 28.8255 9.61371 28.6327 9.36217L28.2359 9.66639ZM27.7148 8.95199C27.8822 9.18791 28.0443 9.41654 28.2359 9.66639L28.6327 9.36217C28.4476 9.12071 28.2905 8.8993 28.1226 8.66269L27.7148 8.95199ZM27.7152 8.95257L27.7153 8.95265L28.1221 8.66203L28.1221 8.66195L27.7152 8.95257ZM27.7164 8.95424L27.7165 8.9543L28.1208 8.66022L28.1208 8.66015L27.7164 8.95424ZM27.2768 8.34499C27.4401 8.56482 27.5792 8.7609 27.7147 8.95185L28.1225 8.66254C27.9872 8.47185 27.8452 8.27162 27.6782 8.04686L27.2768 8.34499ZM26.128 7.04877C26.573 7.44166 26.9426 7.89492 27.2768 8.34499L27.6782 8.04686C27.3361 7.58617 26.9423 7.10075 26.4589 6.67394L26.128 7.04877ZM25.605 6.7442C25.8009 6.79684 25.9725 6.91149 26.128 7.04877L26.4589 6.67394C26.274 6.51074 26.0347 6.34195 25.7348 6.26134L25.605 6.7442ZM25.0295 6.78473C25.1983 6.71508 25.3926 6.68711 25.605 6.7442L25.7348 6.26134C25.4 6.17137 25.0926 6.21779 24.8388 6.32252L25.0295 6.78473ZM24.6481 7.01896C24.7471 6.94358 24.8787 6.84694 25.0295 6.78473L24.8388 6.32252C24.6223 6.41182 24.4458 6.54453 24.3452 6.62118L24.6481 7.01896ZM24.5473 7.09669C24.5791 7.07202 24.6117 7.04672 24.6481 7.01896L24.3452 6.62118C24.3066 6.65058 24.2722 6.67727 24.2406 6.70182L24.5473 7.09669ZM24.5478 7.09633L24.548 7.09613L24.2399 6.70237L24.2396 6.70258L24.5478 7.09633ZM24.3261 7.26178C24.4103 7.20318 24.4768 7.15148 24.5471 7.09688L24.2403 6.70203C24.1695 6.75705 24.1126 6.80123 24.0405 6.85141L24.3261 7.26178ZM23.3057 7.93365C23.6543 7.71045 23.994 7.49294 24.3261 7.26178L24.0405 6.85141C23.7177 7.07612 23.3861 7.28845 23.0361 7.51257L23.3057 7.93365ZM23.3209 7.92312L23.3209 7.92311L23.0209 7.52311L23.0209 7.52312L23.3209 7.92312ZM23.0612 8.0904C23.1434 8.03757 23.2248 7.98546 23.3057 7.93366L23.0361 7.51258C22.9552 7.56434 22.8734 7.61671 22.7908 7.66984L23.0612 8.0904ZM21.7709 8.97668C22.1911 8.65631 22.6306 8.36732 23.0612 8.0904L22.7908 7.66985C22.3586 7.94774 21.9049 8.24578 21.4678 8.57906L21.7709 8.97668ZM21.711 9.02136C21.7333 9.00484 21.7544 8.98926 21.7709 8.97668L21.4678 8.57906C21.4547 8.589 21.437 8.60213 21.4135 8.6195L21.711 9.02136ZM21.7123 9.02044L21.7123 9.02043L21.4123 8.62043L21.4123 8.62044L21.7123 9.02044ZM21.3311 9.32722C21.4566 9.21 21.6103 9.09594 21.711 9.02137L21.4135 8.6195C21.3157 8.69193 21.1394 8.82214 20.9898 8.96181L21.3311 9.32722ZM21.3047 9.35226L21.3324 9.32601L20.9886 8.96301L20.9608 8.98927L21.3047 9.35226ZM20.7342 9.21915C20.8208 9.27163 20.9097 9.32577 20.9996 9.38237L21.2659 8.95916C21.1722 8.90024 21.0805 8.84433 20.9933 8.79151L20.7342 9.21915ZM20.6603 9.1744L20.7343 9.21921L20.9932 8.79144L20.9191 8.74663L20.6603 9.1744ZM20.6616 9.17521L20.6617 9.17525L20.9177 8.74578L20.9176 8.74573L20.6616 9.17521ZM20.1782 8.87417C20.3338 8.97696 20.4924 9.07286 20.6602 9.17439L20.919 8.74655C20.7495 8.64404 20.5996 8.55336 20.454 8.45706L20.1782 8.87417ZM20.1568 8.8598L20.1768 8.87318L20.4555 8.45805L20.4355 8.44468L20.1568 8.8598ZM20.0472 8.5849L20.0462 8.64846L20.5462 8.65602L20.5471 8.59246L20.0472 8.5849ZM20.0472 8.5805L20.0472 8.58446L20.5471 8.5929L20.5472 8.58895L20.0472 8.5805ZM20.0472 8.5847V8.58472H20.5472V8.5847H20.0472ZM20.049 8.41767C20.049 8.47846 20.048 8.53355 20.0472 8.58044L20.5472 8.58897C20.548 8.54227 20.549 8.48325 20.549 8.41767H20.049ZM20.049 5.61689V8.41767H20.549V5.61689H20.049ZM20.0514 5.53162C20.0502 5.56552 20.049 5.59888 20.049 5.61689H20.549C20.549 5.61689 20.549 5.61639 20.549 5.61522C20.549 5.61409 20.549 5.6126 20.5491 5.61069C20.5492 5.60683 20.5493 5.60192 20.5495 5.59581C20.5499 5.58353 20.5504 5.56809 20.5511 5.54931L20.0514 5.53162ZM20.0513 5.54039V5.54047H20.5513V5.54039H20.0513ZM20.053 4.97936C20.0646 5.15031 20.0562 5.39615 20.0514 5.53155L20.5511 5.54922C20.5556 5.42103 20.5656 5.14731 20.5518 4.94537L20.053 4.97936ZM19.6956 4.10596C19.9798 4.36432 20.0368 4.74144 20.053 4.97936L20.5518 4.94537C20.5342 4.68704 20.4696 4.13383 20.032 3.73599L19.6956 4.10596ZM18.4534 3.4337C18.917 3.55127 19.346 3.78813 19.6956 4.10596L20.032 3.73599C19.6243 3.3654 19.1227 3.08762 18.5763 2.94904L18.4534 3.4337ZM16.2511 3.25057C16.9417 3.24857 17.7195 3.24756 18.4534 3.4337L18.5763 2.94904C17.7715 2.74491 16.9309 2.7486 16.2496 2.75058L16.2511 3.25057ZM16.251 3.25057L16.2511 3.25057L16.2496 2.75058L16.2496 2.75058L16.251 3.25057ZM15.9751 3.25086C16.0649 3.25112 16.1572 3.25085 16.2511 3.25057L16.2496 2.75058C16.1555 2.75085 16.0646 2.75111 15.9765 2.75087L15.9751 3.25086ZM13.4277 3.27923C14.2806 3.24898 15.1315 3.2485 15.9751 3.25086L15.9765 2.75087C15.1329 2.7485 14.2734 2.74892 13.41 2.77954L13.4277 3.27923ZM13.4068 3.27887C13.4174 3.27921 13.4075 3.27903 13.3987 3.27824C13.397 3.27808 13.3939 3.27779 13.39 3.27731C13.3872 3.27696 13.3788 3.27589 13.3682 3.27359C13.3632 3.2725 13.3525 3.27004 13.3393 3.26548C13.3337 3.26353 13.2943 3.25075 13.2557 3.21671C13.2347 3.19813 13.1956 3.1572 13.1787 3.09029C13.1595 3.01403 13.1791 2.9444 13.2098 2.8958C13.2361 2.85409 13.2681 2.83074 13.2834 2.82062C13.3008 2.80915 13.3161 2.80222 13.3249 2.79853C13.3537 2.78654 13.3787 2.7829 13.3793 2.78279C13.3863 2.78161 13.3919 2.78098 13.3943 2.78072C13.3995 2.78016 13.4036 2.7799 13.4047 2.77982C13.4088 2.77956 13.4124 2.77946 13.41 2.77954L13.4277 3.27923C13.4282 3.27921 13.4292 3.27917 13.4303 3.27913C13.4309 3.2791 13.4336 3.27899 13.4369 3.27878C13.4383 3.2787 13.4425 3.27842 13.4478 3.27785C13.4503 3.27758 13.4559 3.27695 13.4629 3.27576C13.4636 3.27564 13.4886 3.272 13.5174 3.26C13.5262 3.25631 13.5415 3.24938 13.5589 3.23791C13.5742 3.22779 13.6062 3.20444 13.6325 3.16273C13.6632 3.11413 13.6828 3.04449 13.6636 2.96823C13.6467 2.90132 13.6076 2.86039 13.5866 2.84181C13.548 2.80777 13.5086 2.79498 13.503 2.79303C13.4898 2.78846 13.4791 2.786 13.474 2.78491C13.4634 2.78261 13.4549 2.78153 13.4521 2.78117C13.4482 2.78069 13.445 2.78038 13.4432 2.78022C13.4372 2.77969 13.4323 2.77948 13.4319 2.77946C13.4303 2.77939 13.4289 2.77934 13.4281 2.77931C13.4265 2.77925 13.4245 2.77918 13.4229 2.77913L13.4068 3.27887ZM13.33 3.27573C13.3726 3.27776 13.3961 3.27853 13.4068 3.27887L13.4229 2.77913C13.4141 2.77885 13.3932 2.77818 13.3539 2.7763L13.33 3.27573ZM13.2589 3.27219L13.3295 3.27571L13.3544 2.77633L13.2838 2.77281L13.2589 3.27219ZM13.1058 3.26472C13.1577 3.26707 13.212 3.26982 13.2587 3.27218L13.284 2.77282C13.2375 2.77047 13.1818 2.76765 13.1284 2.76523L13.1058 3.26472ZM12.5 3.25736C12.7129 3.24971 12.9327 3.25688 13.1058 3.26472L13.1284 2.76523C12.9518 2.75723 12.7157 2.74929 12.482 2.75769L12.5 3.25736ZM11.8545 3.35885C12.0544 3.28567 12.3006 3.26453 12.5 3.25736L12.482 2.75769C12.2749 2.76513 11.9613 2.78729 11.6826 2.88933L11.8545 3.35885ZM11.5033 3.6042C11.6107 3.46366 11.7566 3.3947 11.8545 3.35885L11.6826 2.88933C11.547 2.93897 11.2974 3.05015 11.106 3.30061L11.5033 3.6042ZM11.4089 4.16769C11.3497 3.98026 11.374 3.77341 11.5033 3.6042L11.106 3.30061C10.8683 3.61168 10.8288 3.9911 10.9321 4.31825L11.4089 4.16769ZM12.084 6.67419C11.8755 5.82783 11.6715 4.99917 11.4089 4.16769L10.9321 4.31825C11.189 5.13186 11.3894 5.94491 11.5985 6.79377L12.084 6.67419ZM12.084 6.6742L12.0839 6.67396L11.5985 6.79399L11.5986 6.79424L12.084 6.6742ZM12.3658 7.79927C12.2673 7.41834 12.1752 7.04464 12.084 6.67443L11.5985 6.79401C11.6896 7.16381 11.7824 7.54031 11.8818 7.92452L12.3658 7.79927ZM12.5501 8.58515C12.4903 8.3166 12.4326 8.05733 12.3658 7.79927L11.8818 7.92452C11.946 8.17293 12.0019 8.42379 12.0621 8.69385L12.5501 8.58515ZM12.5506 8.58745L12.5506 8.58734L12.0616 8.69166L12.0616 8.69177L12.5506 8.58745ZM12.6098 8.85189C12.5894 8.76143 12.5696 8.67282 12.5501 8.58526L12.0621 8.69395C12.0816 8.78139 12.1015 8.87079 12.1221 8.96218L12.6098 8.85189ZM16.599 12.751C16.4156 12.6224 16.1864 12.5563 15.9461 12.5803L15.9958 13.0778C16.1125 13.0662 16.2229 13.098 16.3119 13.1604L16.599 12.751ZM16.6865 12.7109C16.6078 12.7069 16.5301 12.7055 16.4547 12.7057L16.4562 13.2057C16.5243 13.2055 16.5929 13.2068 16.6612 13.2103L16.6865 12.7109ZM18.3251 13.3352C17.7798 12.8738 17.2019 12.7371 16.6865 12.7109L16.6612 13.2103C17.1013 13.2326 17.5633 13.3456 18.0021 13.7169L18.3251 13.3352ZM18.6401 13.5841C18.5248 13.4962 18.4286 13.4227 18.3251 13.3352L18.0021 13.7169C18.1167 13.8139 18.2229 13.8947 18.337 13.9817L18.6401 13.5841ZM18.6487 13.5909L18.6486 13.5908L18.3285 13.975L18.3286 13.975L18.6487 13.5909ZM18.6273 13.5749L18.6273 13.5749L18.35 13.9909L18.35 13.9909L18.6273 13.5749ZM18.8387 13.7368C18.7661 13.6801 18.7007 13.6302 18.6402 13.5841L18.3371 13.9818C18.3977 14.028 18.461 14.0762 18.5309 14.1308L18.8387 13.7368ZM19.4731 14.3154C19.2591 14.0757 19.0331 13.8886 18.8387 13.7368L18.5309 14.1308C18.7171 14.2763 18.9158 14.4419 19.1001 14.6484L19.4731 14.3154ZM19.8878 15.2149C19.8443 14.9661 19.7432 14.6178 19.4731 14.3154L19.1001 14.6484C19.2837 14.854 19.3601 15.0996 19.3953 15.3011L19.8878 15.2149ZM19.9316 15.847C19.9316 15.7053 19.9314 15.4641 19.8878 15.2149L19.3953 15.3011C19.4306 15.5028 19.4316 15.7045 19.4316 15.847H19.9316ZM19.7815 17.5598C19.8905 16.9666 19.9316 16.4356 19.9316 15.847H19.4316C19.4316 16.4094 19.3925 16.9098 19.2897 17.4695L19.7815 17.5598ZM17.2023 20.7668C18.9102 20.2885 19.5492 18.8243 19.7815 17.5598L19.2897 17.4695C19.0707 18.662 18.5003 19.8841 17.0674 20.2853L17.2023 20.7668ZM13.0251 19.6173C14.1325 21.14 15.907 21.1294 17.2023 20.7668L17.0674 20.2853C15.8494 20.6263 14.3525 20.5923 13.4295 19.3233L13.0251 19.6173ZM12.2097 17.1382C12.2097 18.11 12.4643 18.8462 13.0252 19.6173L13.4295 19.3233C12.928 18.6337 12.7097 17.9995 12.7097 17.1382H12.2097ZM12.7879 14.4706C12.2773 15.3719 12.2097 16.3335 12.2097 17.1382H12.7097C12.7097 16.3549 12.7783 15.5018 13.223 14.7171L12.7879 14.4706ZM14.8209 12.8363C13.8316 13.0881 13.2053 13.7341 12.7879 14.4706L13.223 14.7171C13.5947 14.0612 14.1239 13.5296 14.9442 13.3208L14.8209 12.8363ZM14.9994 12.7874C14.9269 12.8078 14.8675 12.8244 14.8209 12.8363L14.9442 13.3208C14.998 13.3071 15.064 13.2886 15.1345 13.2688L14.9994 12.7874ZM15.9461 12.5803C15.6183 12.6131 15.2427 12.7192 14.9994 12.7874L15.1345 13.2688C15.3875 13.1978 15.7195 13.1055 15.9958 13.0778L15.9461 12.5803ZM7.16552 15.9404C6.92674 16.0144 6.92673 16.0144 6.92671 16.0143C6.92671 16.0143 6.9267 16.0143 6.92669 16.0143C6.92668 16.0142 6.92667 16.0142 6.92665 16.0141C6.92662 16.014 6.9266 16.0139 6.92657 16.0139C6.92651 16.0137 6.92646 16.0135 6.9264 16.0133C6.92629 16.013 6.92618 16.0126 6.92608 16.0122C6.92587 16.0115 6.92566 16.0108 6.92546 16.0101C6.92506 16.0088 6.92469 16.0074 6.92434 16.0061C6.92364 16.0036 6.92303 16.0011 6.9225 15.9989C6.92146 15.9945 6.92073 15.9907 6.92023 15.9877L7.41325 15.9045C7.41208 15.8975 7.41074 15.8909 7.40925 15.8846C7.40851 15.8814 7.40773 15.8783 7.4069 15.8753C7.40649 15.8737 7.40607 15.8722 7.40564 15.8708C7.40542 15.87 7.4052 15.8693 7.40498 15.8685C7.40487 15.8682 7.40476 15.8678 7.40465 15.8674C7.40459 15.8673 7.40454 15.8671 7.40448 15.8669C7.40445 15.8668 7.40442 15.8667 7.4044 15.8666C7.40438 15.8666 7.40437 15.8665 7.40435 15.8665C7.40435 15.8665 7.40434 15.8664 7.40433 15.8664C7.40432 15.8664 7.40431 15.8663 7.16552 15.9404ZM7.33194 18.1349L7.33193 18.1327L6.83193 18.1351L6.83194 18.1373L7.33194 18.1349Z" fill="black"/>
<path fill-rule="evenodd" clip-rule="evenodd" d="M15.9718 4.4403C15.1284 4.43794 14.2977 4.43857 13.4699 4.46792C13.4064 4.47018 13.3261 4.46634 13.2734 4.46383C13.2447 4.46246 13.2171 4.46105 13.1889 4.45962C13.1471 4.4575 13.1037 4.45529 13.052 4.45295C12.9494 4.4483 12.8405 4.44448 12.7334 4.44369C12.9236 5.109 13.0893 5.78155 13.2514 6.4394C13.34 6.79896 13.4275 7.15413 13.5173 7.50133C13.5896 7.78065 13.6538 8.0691 13.715 8.34379C13.7336 8.42719 13.7518 8.50932 13.77 8.58953C13.8468 8.92917 13.9237 9.24748 14.0181 9.54859C14.1907 9.71688 14.2748 9.96798 14.2187 10.2206C14.1829 10.3815 14.0958 10.5178 13.9785 10.6161C13.9771 10.6203 13.9757 10.6246 13.9743 10.6289C13.8486 11.006 13.441 11.2098 13.0639 11.0841C12.6301 10.9395 12.1683 10.8292 11.682 10.7131C11.555 10.6827 11.4264 10.652 11.2961 10.6201C10.8804 10.5185 10.4286 10.3851 10.0006 10.2588C9.71133 10.1734 9.43299 10.0912 9.18413 10.0243C8.58959 9.86432 8.02489 9.74725 7.45445 9.72242C7.32135 9.94679 7.17389 10.159 7.03548 10.3529C6.99336 10.4119 6.95263 10.4684 6.91308 10.5233C6.8072 10.6703 6.70969 10.8057 6.61618 10.9453C6.42749 11.227 6.22957 11.4995 6.04084 11.7594L6.02939 11.7751C5.83448 12.0435 5.64929 12.299 5.47553 12.5596C5.44533 12.6049 5.41384 12.6465 5.38898 12.6786C5.38564 12.6829 5.38218 12.6873 5.37866 12.6918C5.38457 12.6959 5.3905 12.7 5.39642 12.7042C5.45663 12.7462 5.54879 12.8127 5.632 12.8959C5.70135 12.9653 5.78927 13.0294 5.94245 13.1409L5.94451 13.1424C6.07738 13.2392 6.26999 13.3794 6.43647 13.561C6.60939 13.7496 6.83361 13.888 7.13227 14.0723C7.23147 14.1335 7.33888 14.1998 7.45536 14.2747C7.86923 14.5407 8.17588 14.8743 8.4219 15.2609C8.5473 15.458 8.58499 15.6694 8.59988 15.8065C8.61611 15.9558 8.61348 16.105 8.60704 16.2278C8.60096 16.3438 8.59006 16.4585 8.58156 16.5479L8.57975 16.567C8.56968 16.6733 8.56576 16.7241 8.5656 16.7498C8.56416 16.9745 8.54984 17.1945 8.53691 17.3914L8.53641 17.399C8.52385 17.5902 8.51268 17.7603 8.50978 17.9276C8.51009 17.9313 8.51048 17.9358 8.51096 17.9411L8.5111 17.9427C8.51348 17.9693 8.51766 18.016 8.51982 18.0658C8.52184 18.1122 8.52368 18.1904 8.51317 18.2759C8.50785 18.3192 8.49711 18.3841 8.47213 18.4571C8.44888 18.525 8.39807 18.6456 8.28619 18.7574C8.12599 18.9176 7.92891 18.9913 7.83012 19.0247C7.70869 19.0658 7.58208 19.0941 7.47753 19.1145C7.37461 19.1345 7.27233 19.1506 7.19376 19.163L7.18509 19.1643C7.1431 19.1709 7.10989 19.1762 7.08174 19.181C7.06807 19.1834 7.05746 19.1853 7.04931 19.1869C7.04089 19.1885 7.03744 19.1893 7.03763 19.1893C6.42169 19.3342 5.81196 19.5116 5.18308 19.6959L5.11703 19.7153C4.5993 19.867 4.06779 20.0228 3.52768 20.1607C3.58874 20.3432 3.68296 20.5457 3.79878 20.7773C4.22871 21.6372 4.75302 22.452 5.29967 23.3016C5.33441 23.3556 5.36923 23.4097 5.40412 23.464C5.51433 23.6354 5.61106 23.7942 5.70227 23.9438C5.84607 24.1798 5.97613 24.3932 6.12361 24.5984C6.61308 24.5361 7.2225 24.3078 7.7454 24.0709C8.23986 23.8469 8.68327 23.5086 9.19838 23.1155C9.23084 23.0907 9.26359 23.0657 9.29665 23.0406C9.30101 23.0372 9.30562 23.0337 9.31046 23.03C9.42112 22.9451 9.65921 22.7623 10.0354 22.7623C10.4721 22.7623 10.8855 22.8456 11.2496 22.9425C11.272 22.9484 11.2984 22.9534 11.3667 22.9661L11.3683 22.9664C11.4233 22.9767 11.516 22.9941 11.6108 23.023C11.811 23.0841 12.1507 23.238 12.3071 23.6447C12.3858 23.8493 12.3922 24.0459 12.3916 24.1631C12.3913 24.2227 12.3886 24.2803 12.3867 24.3214L12.3864 24.3266C12.3842 24.374 12.3832 24.3998 12.3832 24.4208C12.3832 24.8218 12.4265 25.2233 12.4883 25.6575C12.5891 26.3664 12.6293 27.0651 12.668 27.7399C12.6704 27.7811 12.6728 27.8221 12.6751 27.8631C12.678 27.9123 12.6801 27.9562 12.6821 27.997C12.6844 28.0435 12.6865 28.0858 12.6892 28.127C12.7618 28.1235 12.8359 28.1184 12.9075 28.113C12.9226 28.1118 12.9383 28.1106 12.9541 28.1094C12.9887 28.1068 13.0234 28.1041 13.0528 28.1021C13.0914 28.0994 13.1475 28.0957 13.198 28.0957C13.5294 28.0957 13.8571 28.0975 14.1825 28.0993C14.9256 28.1034 15.6567 28.1075 16.393 28.0897C17.3996 28.0652 18.3782 27.9423 19.3467 27.702C19.4435 27.678 19.5432 27.6565 19.6316 27.6375L19.6536 27.6327C19.7518 27.6115 19.8386 27.5925 19.9217 27.5712C19.9904 27.5536 20.0496 27.5362 20.1007 27.5186C20.1 27.5072 20.0993 27.4952 20.0987 27.483C20.0966 27.4452 20.0946 27.3989 20.0946 27.3495C20.0946 26.2545 20.2007 25.311 20.5839 24.212C20.5829 24.2147 20.583 24.2145 20.5842 24.2102C20.5862 24.2033 20.5911 24.1859 20.5999 24.1529C20.6087 24.1196 20.6184 24.0818 20.6298 24.0373C20.6346 24.0187 20.6396 23.999 20.6451 23.978C20.6805 23.8407 20.7269 23.6635 20.78 23.4891C20.831 23.3218 20.898 23.1239 20.9803 22.957C21.02 22.8765 21.0814 22.7653 21.171 22.6637C21.2442 22.5807 21.4545 22.3693 21.7968 22.3693C21.9959 22.3693 22.1488 22.4143 22.242 22.4441C22.3309 22.4725 22.3375 22.4751 22.3443 22.4763C22.3453 22.4765 22.3463 22.4766 22.3475 22.4768C22.4511 22.492 22.5508 22.501 22.6719 22.5119C22.7223 22.5164 22.7764 22.5213 22.836 22.5271C23.0199 22.5449 23.2429 22.5709 23.4677 22.6301C24.1325 22.805 24.7348 23.2178 25.1635 23.5394C25.3455 23.6758 25.4606 23.677 25.5494 23.6591C25.675 23.6338 25.851 23.5431 26.077 23.3387C26.4265 23.0227 26.7255 22.6068 27.0211 22.1954C27.128 22.0465 27.2346 21.8983 27.3429 21.7556C27.4109 21.666 27.4901 21.5684 27.5641 21.4772C27.5824 21.4547 27.6004 21.4326 27.6177 21.411C27.7108 21.296 27.7981 21.1856 27.8767 21.0759C27.939 20.9889 27.9876 20.9131 28.0249 20.8478C27.5267 20.4948 27.0263 20.1767 26.5095 19.8482C26.1568 19.6241 25.7965 19.3951 25.4241 19.1468C25.4027 19.1325 25.3695 19.1137 25.3042 19.0795C25.2964 19.0754 25.2879 19.071 25.2789 19.0663C25.2244 19.0379 25.1483 18.9983 25.0771 18.9561C24.9272 18.8674 24.623 18.6712 24.4899 18.2954C24.125 17.265 23.8895 15.9965 24.1508 14.8206C24.2775 14.2504 24.7453 14.0003 24.9196 13.907C24.9372 13.8977 24.9517 13.8899 24.9627 13.8835C25.4317 13.6109 25.8532 13.295 26.316 12.948C26.4423 12.8533 26.5717 12.7563 26.706 12.6572C26.8093 12.581 26.9106 12.5111 27.0095 12.4428C27.2273 12.2924 27.4332 12.1503 27.6218 11.9678C27.8909 11.7075 27.8608 11.6087 27.8574 11.5977C27.8308 11.5047 27.8158 11.4185 27.806 11.3514C27.8006 11.3148 27.7938 11.2601 27.7891 11.223C27.7872 11.2076 27.7857 11.1952 27.7848 11.1885C27.778 11.1378 27.7729 11.116 27.7713 11.1097C27.6644 10.898 27.474 10.6276 27.2919 10.3901C27.1065 10.1482 26.9044 9.86461 26.7117 9.59432C26.5737 9.40072 26.4406 9.21395 26.322 9.05422C26.0147 8.64047 25.7108 8.27249 25.3687 7.9653C25.3504 7.97924 25.3285 7.99626 25.3037 8.01547C25.2248 8.07676 25.1171 8.16041 25.0057 8.23801C24.6531 8.48339 24.2887 8.71669 23.938 8.94121C23.8594 8.99152 23.7815 9.04139 23.7045 9.09085C23.2774 9.36553 22.872 9.63295 22.492 9.92259C22.462 9.94546 22.43 9.96925 22.401 9.99076L22.3924 9.99719C22.3597 10.0215 22.329 10.0443 22.2986 10.0676C22.2371 10.1146 22.1855 10.1568 22.143 10.1965C22.1075 10.2297 22.0862 10.2539 22.0745 10.269C22.0518 10.3653 22.0027 10.4992 21.8913 10.623C21.7451 10.7855 21.5521 10.8637 21.3695 10.8754C21.2106 10.8855 21.0844 10.8447 21.0162 10.8177C20.9426 10.7885 20.8834 10.7536 20.8442 10.7283C20.7677 10.6791 20.7018 10.6234 20.67 10.5964C20.6459 10.576 20.6346 10.5665 20.6308 10.5632C20.4721 10.4529 20.3035 10.3489 20.1179 10.2365C20.0945 10.2223 20.0707 10.2079 20.0466 10.1933C19.88 10.0926 19.699 9.98318 19.5223 9.86643C19.2804 9.70647 19.0165 9.48928 18.9086 9.11755C18.8631 8.96067 18.8576 8.81464 18.8567 8.71539C18.8564 8.68347 18.8574 8.60437 18.8583 8.53423C18.8589 8.4838 18.8595 8.43799 18.8595 8.41767V5.61689C18.8595 5.54985 18.8627 5.46445 18.8653 5.39208C18.8664 5.36377 18.8673 5.33745 18.868 5.315C18.8709 5.21802 18.8713 5.13427 18.8663 5.06021C18.8627 5.00751 18.857 4.97105 18.8518 4.94767C18.6491 4.77518 18.4094 4.64965 18.161 4.58664C17.5803 4.43937 16.966 4.43986 16.2598 4.44042C16.1655 4.4405 16.0695 4.44058 15.9718 4.4403ZM12.4896 9.42736C12.445 9.25133 12.4044 9.07697 12.366 8.90704C12.3454 8.81611 12.3256 8.72711 12.3061 8.63961C12.2461 8.37027 12.1893 8.11516 12.1238 7.86189C12.0248 7.47924 11.9324 7.10406 11.8412 6.73398C11.6324 5.88637 11.4303 5.06551 11.1705 4.24297C11.0893 3.98568 11.1211 3.69255 11.3046 3.45241C11.454 3.25691 11.6518 3.16684 11.7685 3.12409C12.0078 3.03648 12.2877 3.01483 12.491 3.00753C12.7143 2.9995 12.9422 3.00706 13.1171 3.01498C13.1697 3.01736 13.2247 3.02014 13.2714 3.0225C13.2984 3.02387 13.3227 3.0251 13.342 3.02602C13.3829 3.02797 13.4051 3.02869 13.4149 3.029C13.4221 3.02924 13.4226 3.02925 13.4188 3.02938C14.277 2.99895 15.1322 2.9985 15.9758 3.00086C16.0647 3.00111 16.1564 3.00085 16.2503 3.00058C16.9363 2.99858 17.7455 2.99623 18.5149 3.19137C19.0198 3.31945 19.4852 3.57677 19.8638 3.92098C20.2247 4.24908 20.2855 4.71424 20.3024 4.96237C20.3151 5.14881 20.3059 5.40859 20.3013 5.54039C20.2999 5.5776 20.299 5.60461 20.299 5.61689V8.41767C20.299 8.48086 20.298 8.53793 20.2972 8.58473L20.2971 8.58868C20.2967 8.61332 20.2964 8.63407 20.2962 8.65224C20.3023 8.65642 20.3089 8.66088 20.3161 8.66561C20.4667 8.76517 20.621 8.85848 20.7897 8.96051C20.8141 8.97525 20.8387 8.99018 20.8637 9.00533C20.9507 9.05798 21.041 9.11301 21.1328 9.17077C21.1423 9.16164 21.1515 9.15288 21.1605 9.14451C21.298 9.01607 21.463 8.89393 21.5623 8.82043C21.5852 8.80349 21.6046 8.78913 21.6193 8.77787C22.048 8.45104 22.4946 8.15753 22.926 7.88012C23.0084 7.82714 23.09 7.7749 23.1709 7.72312C23.5202 7.49946 23.8558 7.28453 24.1833 7.0566C24.2614 7.00221 24.3232 6.95427 24.3937 6.89946C24.4255 6.87479 24.459 6.84873 24.4966 6.82007C24.5964 6.74406 24.7505 6.62938 24.9341 6.55363C25.1454 6.46643 25.3963 6.42924 25.6699 6.50277C25.9178 6.5694 26.1232 6.71112 26.2934 6.86136C26.7577 7.27121 27.1393 7.74054 27.4775 8.19592C27.6427 8.41825 27.7833 8.61642 27.9186 8.80726C28.0863 9.04355 28.2459 9.26859 28.4343 9.51428C28.6258 9.76402 28.8903 10.129 29.062 10.4724C29.1661 10.6805 29.196 10.8817 29.2116 10.9983C29.2176 11.0438 29.2219 11.0774 29.2251 11.103C29.2324 11.1608 29.2346 11.1782 29.2413 11.2016C29.4748 12.0188 28.9865 12.6504 28.6226 13.0025C28.3409 13.2749 27.9689 13.5317 27.7303 13.6964C27.6604 13.7447 27.6019 13.7851 27.5605 13.8156C27.4473 13.8991 27.3318 13.9858 27.214 14.0742C26.7431 14.4277 26.2353 14.8088 25.686 15.1281C25.6627 15.1416 25.6388 15.1552 25.6183 15.1669C25.6119 15.1706 25.6058 15.174 25.6002 15.1772C25.5756 15.1913 25.5563 15.2025 25.5394 15.2127C25.392 15.9758 25.5278 16.8761 25.8137 17.7194C25.8476 17.7393 25.8833 17.758 25.9371 17.7861C25.948 17.7918 25.9596 17.7978 25.972 17.8043C26.0371 17.8384 26.1313 17.8882 26.2226 17.9491C26.5384 18.1596 26.8755 18.3743 27.2201 18.5937C27.8198 18.9755 28.4422 19.3719 29.0149 19.7863C29.0274 19.7954 29.0369 19.8012 29.0661 19.8193C29.0716 19.8227 29.0777 19.8265 29.0847 19.8308L29.089 19.8335C29.1216 19.8536 29.2077 19.9069 29.2882 19.9841C29.3902 20.0819 29.4852 20.2174 29.5331 20.3965C29.5766 20.5591 29.5677 20.7082 29.5507 20.8188C29.4835 21.2555 29.242 21.6417 29.047 21.914C28.9428 22.0595 28.8334 22.1969 28.7373 22.3158C28.715 22.3434 28.6938 22.3695 28.6736 22.3945C28.6017 22.4831 28.5419 22.5568 28.4893 22.626C28.4258 22.7097 28.3503 22.8151 28.2649 22.9344C27.9568 23.3644 27.519 23.9756 27.0423 24.4065C26.7259 24.6925 26.3201 24.9723 25.8335 25.0702C25.3101 25.1756 24.7824 25.0529 24.2999 24.691C23.886 24.3806 23.4752 24.1205 23.1014 24.0221C22.9936 23.9938 22.8658 23.9762 22.697 23.9598C22.661 23.9563 22.6214 23.9527 22.5791 23.9489C22.4512 23.9375 22.2998 23.9239 22.1584 23.9039C22.1579 23.9055 22.1574 23.9071 22.1569 23.9088C22.1136 24.051 22.0738 24.2021 22.0389 24.3373C22.0349 24.3529 22.0307 24.3694 22.0263 24.3865C22.0001 24.4891 21.9682 24.6139 21.9431 24.6859C21.6267 25.5933 21.5341 26.3682 21.5341 27.3495C21.5341 27.3744 21.5355 27.3975 21.5381 27.4411C21.5391 27.4579 21.5403 27.4777 21.5417 27.5019C21.5457 27.5718 21.5511 27.6804 21.5418 27.7966C21.5219 28.0451 21.4224 28.4287 21.0257 28.6696C20.771 28.8242 20.4999 28.9091 20.2783 28.9658C20.1656 28.9946 20.0543 29.0188 19.9573 29.0397L19.9404 29.0434C19.8465 29.0637 19.7677 29.0807 19.6933 29.0991C18.6143 29.3668 17.5305 29.5019 16.4279 29.5287C15.6693 29.5471 14.9033 29.5428 14.1502 29.5387C13.8299 29.5369 13.512 29.5351 13.198 29.5351C13.1991 29.5351 13.1998 29.5351 13.1998 29.5351C13.1998 29.5352 13.1874 29.5356 13.1531 29.538C13.1284 29.5397 13.102 29.5418 13.0707 29.5442C13.0538 29.5454 13.0356 29.5468 13.0155 29.5484C12.9078 29.5565 12.7662 29.5664 12.6233 29.5697C12.4878 29.5728 12.3144 29.5711 12.1527 29.5445C12.0731 29.5314 11.9603 29.5068 11.8449 29.4529C11.7368 29.4024 11.5388 29.2848 11.4282 29.039C11.3275 28.8154 11.2886 28.5862 11.2691 28.4096C11.2545 28.2779 11.2475 28.1348 11.2424 28.029C11.2408 27.9977 11.2395 27.9697 11.2381 27.9462C11.236 27.9103 11.234 27.8746 11.2319 27.8389C11.1922 27.1501 11.1552 26.5074 11.0632 25.8602C10.9979 25.4015 10.9437 24.9222 10.9437 24.4208C10.9437 24.3966 10.9442 24.3725 10.9449 24.3496C10.9242 24.3449 10.9022 24.3396 10.8796 24.3335C10.6148 24.2631 10.3722 24.2162 10.144 24.2046C10.1116 24.2293 10.0788 24.2544 10.0456 24.2798C9.55945 24.6518 8.99029 25.0872 8.33936 25.3821C7.73038 25.658 6.74234 26.0544 5.88097 26.0544C5.7607 26.0544 5.58496 26.0356 5.40617 25.9268C5.26551 25.8411 5.17477 25.7268 5.14518 25.6895C5.14369 25.6876 5.14236 25.686 5.14119 25.6845C4.87123 25.347 4.62849 24.9494 4.41852 24.6055C4.33859 24.4746 4.26341 24.3515 4.19329 24.2424C4.15548 24.1836 4.11749 24.1246 4.07936 24.0653C3.54194 23.2304 2.97752 22.3535 2.5113 21.4211C2.33721 21.0729 2.08282 20.5563 2.02445 20.0018C2.02362 19.9939 2.0222 19.9818 2.02045 19.9668C2.01414 19.9129 2.00357 19.8226 2.00113 19.7645C1.9975 19.6786 1.99001 19.4003 2.20626 19.1579C2.37467 18.9692 2.59391 18.9096 2.65334 18.8934C2.6559 18.8927 2.65817 18.8921 2.66012 18.8916C2.70817 18.8782 2.77971 18.8615 2.8439 18.8465C2.87282 18.8397 2.90024 18.8333 2.92335 18.8277C3.52085 18.6831 4.11266 18.5097 4.72425 18.3304L4.77825 18.3146C5.40319 18.1314 6.04866 17.9432 6.70794 17.7881C6.78337 17.7703 6.87906 17.7553 6.94857 17.7444L6.96123 17.7424C7.00034 17.7362 7.03853 17.7302 7.07592 17.724C7.08174 17.5833 7.09072 17.4467 7.09907 17.3197L7.10056 17.2971C7.11381 17.0953 7.12506 16.9164 7.12618 16.7406C7.12682 16.6411 7.13785 16.5248 7.14596 16.4393L7.14788 16.4191C7.15694 16.3235 7.16515 16.2369 7.16957 16.1525C7.1737 16.0737 7.17328 16.0162 7.17024 15.9769C7.02898 15.7681 6.87317 15.6116 6.67697 15.4855C6.62086 15.4494 6.55454 15.4089 6.48119 15.3642C6.15825 15.1671 5.69908 14.8868 5.37538 14.5337C5.319 14.4722 5.23901 14.4093 5.09529 14.3047C5.08549 14.2976 5.07525 14.2901 5.06463 14.2824C4.94283 14.1941 4.77064 14.0692 4.61895 13.9185C4.61748 13.9175 4.60478 13.907 4.57265 13.8846C4.53986 13.8617 4.52144 13.8495 4.49934 13.8348C4.4776 13.8204 4.45231 13.8036 4.40627 13.772C4.34227 13.728 4.25653 13.667 4.17508 13.5946C4.0989 13.5268 3.98371 13.4123 3.90234 13.2495C3.65568 12.7562 3.89433 12.3095 4.00149 12.1367C4.06645 12.0319 4.13854 11.9395 4.18729 11.8778C4.19818 11.864 4.2077 11.852 4.21607 11.8414C4.25476 11.7925 4.26864 11.7749 4.27784 11.7611C4.47015 11.4727 4.67216 11.1944 4.8647 10.9293L4.869 10.9233C5.06273 10.6566 5.24689 10.403 5.42023 10.1442C5.52856 9.98251 5.64715 9.81789 5.75738 9.66487C5.79408 9.61392 5.82986 9.56425 5.86402 9.51641C6.0072 9.31589 6.13297 9.13265 6.23745 8.9522C6.28111 8.87678 6.36913 8.72722 6.50054 8.595C6.63751 8.45719 6.88258 8.27807 7.23146 8.27807C8.06251 8.27807 8.83665 8.44016 9.55809 8.63425C9.89332 8.72444 10.192 8.81335 10.4815 8.8995C10.8623 9.01286 11.227 9.12144 11.6379 9.22186C11.7501 9.2493 11.8666 9.27707 11.9859 9.30551C12.1495 9.34452 12.3185 9.38482 12.4896 9.42736Z" fill="black"/>
<path d="M12.3824 28.1234C12.3825 28.1234 12.3837 28.1236 12.3858 28.1241M3.04134 20.2797C3.04131 20.2797 3.04208 20.2794 3.04376 20.2789M5.12727 12.5148C5.12734 12.5148 5.12863 12.5159 5.13089 12.5183M5.215 12.9123C5.21464 12.9132 5.21443 12.9136 5.21441 12.9136M7.16552 15.9404C7.16559 15.9403 7.16607 15.9421 7.16674 15.9461M7.08194 18.1361C7.08193 18.1362 7.08191 18.1354 7.08193 18.1339M13.4699 4.46792C14.2977 4.43857 15.1284 4.43794 15.9718 4.4403C16.0695 4.44058 16.1655 4.4405 16.2598 4.44042C16.966 4.43986 17.5803 4.43937 18.161 4.58664C18.4094 4.64965 18.6491 4.77518 18.8518 4.94767C18.857 4.97105 18.8627 5.00751 18.8663 5.06021C18.8713 5.13427 18.8709 5.21802 18.868 5.315C18.8673 5.33745 18.8664 5.36377 18.8653 5.39208C18.8627 5.46445 18.8595 5.54985 18.8595 5.61689V8.41767C18.8595 8.43799 18.8589 8.4838 18.8583 8.53423C18.8574 8.60437 18.8564 8.68347 18.8567 8.71539C18.8576 8.81464 18.8631 8.96067 18.9086 9.11755C19.0165 9.48928 19.2804 9.70647 19.5223 9.86643C19.699 9.98318 19.88 10.0926 20.0466 10.1933C20.0707 10.2079 20.0945 10.2223 20.1179 10.2365C20.3035 10.3489 20.4721 10.4529 20.6308 10.5632C20.6346 10.5665 20.6459 10.576 20.67 10.5964C20.7018 10.6234 20.7677 10.6791 20.8442 10.7283C20.8834 10.7536 20.9426 10.7885 21.0162 10.8177C21.0844 10.8447 21.2106 10.8855 21.3695 10.8754C21.5521 10.8637 21.7451 10.7855 21.8913 10.623C22.0027 10.4992 22.0518 10.3653 22.0745 10.269C22.0862 10.2539 22.1075 10.2297 22.143 10.1965C22.1855 10.1568 22.2371 10.1146 22.2986 10.0676C22.329 10.0443 22.3597 10.0215 22.3924 9.99719L22.401 9.99076C22.43 9.96925 22.462 9.94546 22.492 9.92259C22.872 9.63295 23.2774 9.36553 23.7045 9.09085C23.7815 9.04139 23.8594 8.99152 23.938 8.94121C24.2887 8.71669 24.6531 8.48339 25.0057 8.23801C25.1171 8.16041 25.2248 8.07676 25.3037 8.01547C25.3285 7.99626 25.3504 7.97924 25.3687 7.9653C25.7108 8.27249 26.0147 8.64047 26.322 9.05422C26.4406 9.21395 26.5737 9.40072 26.7117 9.59432C26.9044 9.86461 27.1065 10.1482 27.2919 10.3901C27.474 10.6276 27.6644 10.898 27.7713 11.1097C27.7729 11.116 27.778 11.1378 27.7848 11.1885C27.7857 11.1952 27.7872 11.2076 27.7891 11.223C27.7938 11.2601 27.8006 11.3148 27.806 11.3514C27.8158 11.4185 27.8308 11.5047 27.8574 11.5977C27.8608 11.6087 27.8909 11.7075 27.6218 11.9678C27.4332 12.1503 27.2273 12.2924 27.0095 12.4428C26.9106 12.5111 26.8093 12.581 26.706 12.6572C26.5717 12.7563 26.4423 12.8533 26.316 12.948C25.8532 13.295 25.4317 13.6109 24.9627 13.8835C24.9517 13.8899 24.9372 13.8977 24.9196 13.907C24.7453 14.0003 24.2775 14.2504 24.1508 14.8206C23.8895 15.9965 24.125 17.265 24.4899 18.2954C24.623 18.6712 24.9272 18.8674 25.0771 18.9561C25.1483 18.9983 25.2244 19.0379 25.2789 19.0663C25.2879 19.071 25.2964 19.0754 25.3042 19.0795C25.3695 19.1137 25.4027 19.1325 25.4241 19.1468C25.7965 19.3951 26.1568 19.6241 26.5095 19.8482C27.0263 20.1767 27.5267 20.4948 28.0249 20.8478C27.9876 20.9131 27.939 20.9889 27.8767 21.0759C27.7981 21.1856 27.7108 21.296 27.6177 21.411C27.6004 21.4326 27.5824 21.4547 27.5641 21.4772C27.4901 21.5684 27.4109 21.666 27.3429 21.7556C27.2346 21.8983 27.128 22.0465 27.0211 22.1954C26.7255 22.6068 26.4265 23.0227 26.077 23.3387C25.851 23.5431 25.675 23.6338 25.5494 23.6591C25.4606 23.677 25.3455 23.6758 25.1635 23.5394C24.7348 23.2178 24.1325 22.805 23.4677 22.6301C23.2429 22.5709 23.0199 22.5449 22.836 22.5271C22.7764 22.5213 22.7223 22.5164 22.6719 22.5119C22.5508 22.501 22.4511 22.492 22.3475 22.4768C22.3463 22.4766 22.3453 22.4765 22.3443 22.4763C22.3375 22.4751 22.3309 22.4725 22.242 22.4441C22.1488 22.4143 21.9959 22.3693 21.7968 22.3693C21.4545 22.3693 21.2442 22.5807 21.171 22.6637C21.0814 22.7653 21.02 22.8765 20.9803 22.957C20.898 23.1239 20.831 23.3218 20.78 23.4891C20.7269 23.6635 20.6805 23.8407 20.6451 23.978C20.6396 23.999 20.6346 24.0187 20.6298 24.0373C20.6184 24.0818 20.6087 24.1196 20.5999 24.1529C20.5911 24.1859 20.5862 24.2033 20.5842 24.2102C20.583 24.2145 20.5829 24.2147 20.5839 24.212C20.2007 25.311 20.0946 26.2545 20.0946 27.3495C20.0946 27.3989 20.0966 27.4452 20.0987 27.483C20.0993 27.4952 20.1 27.5072 20.1007 27.5186C20.0496 27.5362 19.9904 27.5536 19.9217 27.5712C19.8386 27.5925 19.7518 27.6115 19.6536 27.6327L19.6316 27.6375C19.5432 27.6565 19.4435 27.678 19.3467 27.702C18.3782 27.9423 17.3996 28.0652 16.393 28.0897C15.6567 28.1075 14.9256 28.1034 14.1825 28.0993C13.8571 28.0975 13.5294 28.0957 13.198 28.0957C13.1475 28.0957 13.0914 28.0994 13.0528 28.1021C13.0234 28.1041 12.9887 28.1068 12.9541 28.1094C12.9383 28.1106 12.9226 28.1118 12.9075 28.113C12.8359 28.1184 12.7618 28.1235 12.6892 28.127C12.6865 28.0858 12.6844 28.0435 12.6821 27.997C12.6801 27.9562 12.678 27.9123 12.6751 27.8631C12.6728 27.8221 12.6704 27.7811 12.668 27.7399C12.6293 27.0651 12.5891 26.3664 12.4883 25.6575C12.4265 25.2233 12.3832 24.8218 12.3832 24.4208C12.3832 24.3998 12.3842 24.374 12.3864 24.3266L12.3867 24.3214C12.3886 24.2803 12.3913 24.2227 12.3916 24.1631C12.3922 24.0459 12.3858 23.8493 12.3071 23.6447C12.1507 23.238 11.811 23.0841 11.6108 23.023C11.516 22.9941 11.4233 22.9767 11.3683 22.9664L11.3667 22.9661C11.2984 22.9534 11.272 22.9484 11.2496 22.9425C10.8855 22.8456 10.4721 22.7623 10.0354 22.7623C9.65921 22.7623 9.42112 22.9451 9.31046 23.03C9.30562 23.0337 9.30101 23.0372 9.29665 23.0406C9.26359 23.0657 9.23084 23.0907 9.19838 23.1155C8.68327 23.5086 8.23986 23.8469 7.7454 24.0709C7.2225 24.3078 6.61308 24.5361 6.12361 24.5984C5.97613 24.3932 5.84607 24.1798 5.70227 23.9438C5.61106 23.7942 5.51433 23.6354 5.40412 23.464C5.36923 23.4097 5.33441 23.3556 5.29967 23.3016C4.75302 22.452 4.22871 21.6372 3.79878 20.7773C3.68296 20.5457 3.58874 20.3432 3.52768 20.1607C4.06779 20.0228 4.5993 19.867 5.11703 19.7153L5.18308 19.6959C5.81196 19.5116 6.42169 19.3342 7.03763 19.1893C7.03744 19.1893 7.04089 19.1885 7.04931 19.1869C7.05746 19.1853 7.06807 19.1834 7.08174 19.181C7.10989 19.1762 7.1431 19.1709 7.18509 19.1643L7.19376 19.163C7.27233 19.1506 7.37461 19.1345 7.47753 19.1145C7.58208 19.0941 7.70869 19.0658 7.83012 19.0247C7.92891 18.9913 8.12599 18.9176 8.28619 18.7574C8.39807 18.6456 8.44888 18.525 8.47213 18.4571C8.49711 18.3841 8.50785 18.3192 8.51317 18.2759C8.52368 18.1904 8.52184 18.1122 8.51982 18.0658C8.51766 18.016 8.51348 17.9693 8.5111 17.9427L8.51096 17.9411C8.51048 17.9358 8.51009 17.9313 8.50978 17.9276C8.51268 17.7603 8.52385 17.5902 8.53641 17.399L8.53691 17.3914C8.54984 17.1945 8.56416 16.9745 8.5656 16.7498C8.56576 16.7241 8.56968 16.6733 8.57975 16.567L8.58156 16.5479C8.59006 16.4585 8.60096 16.3438 8.60704 16.2278C8.61348 16.105 8.61611 15.9558 8.59988 15.8065C8.58499 15.6694 8.5473 15.458 8.4219 15.2609C8.17588 14.8743 7.86923 14.5407 7.45536 14.2747C7.33888 14.1998 7.23147 14.1335 7.13227 14.0723C6.83361 13.888 6.60939 13.7496 6.43647 13.561C6.26999 13.3794 6.07738 13.2392 5.94451 13.1424L5.94245 13.1409C5.78927 13.0294 5.70135 12.9653 5.632 12.8959C5.54879 12.8127 5.45663 12.7462 5.39642 12.7042C5.3905 12.7 5.38457 12.6959 5.37866 12.6918C5.38218 12.6873 5.38564 12.6829 5.38898 12.6786C5.41384 12.6465 5.44533 12.6049 5.47553 12.5596C5.64929 12.299 5.83448 12.0435 6.02939 11.7751L6.04084 11.7594C6.22957 11.4995 6.42749 11.227 6.61618 10.9453C6.70969 10.8057 6.8072 10.6703 6.91308 10.5233C6.95263 10.4684 6.99336 10.4119 7.03548 10.3529C7.17389 10.159 7.32135 9.94679 7.45445 9.72242C8.02489 9.74725 8.58959 9.86432 9.18413 10.0243C9.43299 10.0912 9.71133 10.1734 10.0006 10.2588C10.4286 10.3851 10.8804 10.5185 11.2961 10.6201C11.4264 10.652 11.555 10.6827 11.682 10.7131C12.1683 10.8292 12.6301 10.9395 13.0639 11.0841C13.441 11.2098 13.8486 11.006 13.9743 10.6289C13.9757 10.6246 13.9771 10.6203 13.9785 10.6161C14.0958 10.5178 14.1829 10.3815 14.2187 10.2206C14.2748 9.96798 14.1907 9.71688 14.0181 9.54859C13.9237 9.24748 13.8468 8.92917 13.77 8.58953C13.7518 8.50932 13.7336 8.42719 13.715 8.34379C13.6538 8.0691 13.5896 7.78065 13.5173 7.50133C13.4275 7.15413 13.34 6.79896 13.2514 6.4394C13.0893 5.78155 12.9236 5.109 12.7334 4.44369C12.8405 4.44448 12.9494 4.4483 13.052 4.45295C13.1037 4.45529 13.1471 4.4575 13.1889 4.45962C13.2171 4.46105 13.2447 4.46246 13.2734 4.46383C13.3261 4.46634 13.4064 4.47018 13.4699 4.46792ZM12.366 8.90704C12.4044 9.07697 12.445 9.25133 12.4896 9.42736C12.3185 9.38482 12.1495 9.34452 11.9859 9.30551C11.8666 9.27707 11.7501 9.2493 11.6379 9.22186C11.227 9.12144 10.8623 9.01286 10.4815 8.8995C10.192 8.81335 9.89332 8.72444 9.55809 8.63425C8.83665 8.44016 8.06251 8.27807 7.23146 8.27807C6.88258 8.27807 6.63751 8.45719 6.50054 8.595C6.36913 8.72722 6.28111 8.87678 6.23745 8.9522C6.13297 9.13265 6.0072 9.31589 5.86402 9.51641C5.82986 9.56425 5.79408 9.61392 5.75738 9.66487C5.64715 9.81789 5.52856 9.98251 5.42023 10.1442C5.24689 10.403 5.06273 10.6566 4.869 10.9233L4.8647 10.9293C4.67216 11.1944 4.47015 11.4727 4.27784 11.7611C4.26864 11.7749 4.25476 11.7925 4.21607 11.8414C4.2077 11.852 4.19818 11.864 4.18729 11.8778C4.13854 11.9395 4.06645 12.0319 4.00149 12.1367C3.89433 12.3095 3.65568 12.7562 3.90234 13.2495C3.98371 13.4123 4.0989 13.5268 4.17508 13.5946C4.25653 13.667 4.34227 13.728 4.40627 13.772C4.45231 13.8036 4.4776 13.8204 4.49934 13.8348C4.52144 13.8495 4.53986 13.8617 4.57265 13.8846C4.60478 13.907 4.61748 13.9175 4.61895 13.9185C4.77064 14.0692 4.94283 14.1941 5.06463 14.2824C5.07525 14.2901 5.08549 14.2976 5.09529 14.3047C5.23901 14.4093 5.319 14.4722 5.37538 14.5337C5.69908 14.8868 6.15825 15.1671 6.48119 15.3642C6.55454 15.4089 6.62086 15.4494 6.67697 15.4855C6.87317 15.6116 7.02898 15.7681 7.17024 15.9769C7.17328 16.0162 7.1737 16.0737 7.16957 16.1525C7.16515 16.2369 7.15694 16.3235 7.14788 16.4191L7.14596 16.4393C7.13785 16.5248 7.12682 16.6411 7.12618 16.7406C7.12506 16.9164 7.11381 17.0953 7.10056 17.2971L7.09907 17.3197C7.09072 17.4467 7.08174 17.5833 7.07592 17.724C7.03853 17.7302 7.00034 17.7362 6.96123 17.7424L6.94857 17.7444C6.87906 17.7553 6.78337 17.7703 6.70794 17.7881C6.04866 17.9432 5.40319 18.1314 4.77825 18.3146L4.72425 18.3304C4.11266 18.5097 3.52085 18.6831 2.92335 18.8277C2.90024 18.8333 2.87282 18.8397 2.8439 18.8465C2.77971 18.8615 2.70817 18.8782 2.66012 18.8916C2.65817 18.8921 2.6559 18.8927 2.65334 18.8934C2.59391 18.9096 2.37467 18.9692 2.20626 19.1579C1.99001 19.4003 1.9975 19.6786 2.00113 19.7645C2.00357 19.8226 2.01414 19.9129 2.02045 19.9668C2.0222 19.9818 2.02362 19.9939 2.02445 20.0018C2.08282 20.5563 2.33721 21.0729 2.5113 21.4211C2.97752 22.3535 3.54194 23.2304 4.07936 24.0653C4.11749 24.1246 4.15548 24.1836 4.19329 24.2424C4.26341 24.3515 4.33859 24.4746 4.41852 24.6055C4.62849 24.9494 4.87123 25.347 5.14119 25.6845C5.14236 25.686 5.14369 25.6876 5.14518 25.6895C5.17477 25.7268 5.26551 25.8411 5.40617 25.9268C5.58496 26.0356 5.7607 26.0544 5.88097 26.0544C6.74234 26.0544 7.73038 25.658 8.33936 25.3821C8.99029 25.0872 9.55945 24.6518 10.0456 24.2798C10.0788 24.2544 10.1116 24.2293 10.144 24.2046C10.3722 24.2162 10.6148 24.2631 10.8796 24.3335C10.9022 24.3396 10.9242 24.3449 10.9449 24.3496C10.9442 24.3725 10.9437 24.3966 10.9437 24.4208C10.9437 24.9222 10.9979 25.4015 11.0632 25.8602C11.1552 26.5074 11.1922 27.1501 11.2319 27.8389C11.234 27.8746 11.236 27.9103 11.2381 27.9462C11.2395 27.9697 11.2408 27.9977 11.2424 28.029C11.2475 28.1348 11.2545 28.2779 11.2691 28.4096C11.2886 28.5862 11.3275 28.8154 11.4282 29.039C11.5388 29.2848 11.7368 29.4024 11.8449 29.4529C11.9603 29.5068 12.0731 29.5314 12.1527 29.5445C12.3144 29.5711 12.4878 29.5728 12.6233 29.5697C12.7662 29.5664 12.9078 29.5565 13.0155 29.5484C13.0356 29.5468 13.0538 29.5454 13.0707 29.5442C13.102 29.5418 13.1284 29.5397 13.1531 29.538C13.1874 29.5356 13.1998 29.5352 13.1998 29.5351C13.1998 29.5351 13.1991 29.5351 13.198 29.5351C13.512 29.5351 13.8299 29.5369 14.1502 29.5387C14.9033 29.5428 15.6693 29.5471 16.4279 29.5287C17.5305 29.5019 18.6143 29.3668 19.6933 29.0991C19.7677 29.0807 19.8465 29.0637 19.9404 29.0434L19.9573 29.0397C20.0543 29.0188 20.1656 28.9946 20.2783 28.9658C20.4999 28.9091 20.771 28.8242 21.0257 28.6696C21.4224 28.4287 21.5219 28.0451 21.5418 27.7966C21.5511 27.6804 21.5457 27.5718 21.5417 27.5019C21.5403 27.4777 21.5391 27.4579 21.5381 27.4411C21.5355 27.3975 21.5341 27.3744 21.5341 27.3495C21.5341 26.3682 21.6267 25.5933 21.9431 24.6859C21.9682 24.6139 22.0001 24.4891 22.0263 24.3865C22.0307 24.3694 22.0349 24.3529 22.0389 24.3373C22.0738 24.2021 22.1136 24.051 22.1569 23.9088C22.1574 23.9071 22.1579 23.9055 22.1584 23.9039C22.2998 23.9239 22.4512 23.9375 22.5791 23.9489C22.6214 23.9527 22.661 23.9563 22.697 23.9598C22.8658 23.9762 22.9936 23.9938 23.1014 24.0221C23.4752 24.1205 23.886 24.3806 24.2999 24.691C24.7824 25.0529 25.3101 25.1756 25.8335 25.0702C26.3201 24.9723 26.7259 24.6925 27.0423 24.4065C27.519 23.9756 27.9568 23.3644 28.2649 22.9344C28.3503 22.8151 28.4258 22.7097 28.4893 22.626C28.5419 22.5568 28.6017 22.4831 28.6736 22.3945C28.6938 22.3695 28.715 22.3434 28.7373 22.3158C28.8334 22.1969 28.9428 22.0595 29.047 21.914C29.242 21.6417 29.4835 21.2555 29.5507 20.8188C29.5677 20.7082 29.5766 20.5591 29.5331 20.3965C29.4852 20.2174 29.3902 20.0819 29.2882 19.9841C29.2077 19.9069 29.1216 19.8536 29.089 19.8335L29.0847 19.8308C29.0777 19.8265 29.0716 19.8227 29.0661 19.8193C29.0369 19.8012 29.0274 19.7954 29.0149 19.7863C28.4422 19.3719 27.8198 18.9755 27.2201 18.5937C26.8755 18.3743 26.5384 18.1596 26.2226 17.9491C26.1313 17.8882 26.0371 17.8384 25.972 17.8043C25.9596 17.7978 25.948 17.7918 25.9371 17.7861C25.8833 17.758 25.8476 17.7393 25.8137 17.7194C25.5278 16.8761 25.392 15.9758 25.5394 15.2127C25.5563 15.2025 25.5756 15.1913 25.6002 15.1772C25.6058 15.174 25.6119 15.1706 25.6183 15.1669C25.6388 15.1552 25.6627 15.1416 25.686 15.1281C26.2353 14.8088 26.7431 14.4277 27.214 14.0742C27.3318 13.9858 27.4473 13.8991 27.5605 13.8156C27.6019 13.7851 27.6604 13.7447 27.7303 13.6964C27.9689 13.5317 28.3409 13.2749 28.6226 13.0025C28.9865 12.6504 29.4748 12.0188 29.2413 11.2016C29.2346 11.1782 29.2324 11.1608 29.2251 11.103C29.2219 11.0774 29.2176 11.0438 29.2116 10.9983C29.196 10.8817 29.1661 10.6805 29.062 10.4724C28.8903 10.129 28.6258 9.76402 28.4343 9.51428C28.2459 9.26859 28.0863 9.04355 27.9186 8.80726C27.7833 8.61642 27.6427 8.41825 27.4775 8.19592C27.1393 7.74054 26.7577 7.27121 26.2934 6.86136C26.1232 6.71112 25.9178 6.5694 25.6699 6.50277C25.3963 6.42924 25.1454 6.46643 24.9341 6.55363C24.7505 6.62938 24.5964 6.74406 24.4966 6.82007C24.459 6.84873 24.4255 6.87479 24.3937 6.89946C24.3232 6.95427 24.2614 7.00221 24.1833 7.0566C23.8558 7.28453 23.5202 7.49946 23.1709 7.72312C23.09 7.7749 23.0084 7.82714 22.926 7.88012C22.4946 8.15753 22.048 8.45104 21.6193 8.77787C21.6046 8.78913 21.5852 8.80349 21.5623 8.82043C21.463 8.89393 21.298 9.01607 21.1605 9.14451C21.1515 9.15288 21.1423 9.16164 21.1328 9.17077C21.041 9.11301 20.9507 9.05798 20.8637 9.00533C20.8387 8.99018 20.8141 8.97525 20.7897 8.96051C20.621 8.85848 20.4667 8.76517 20.3161 8.66561C20.3089 8.66088 20.3023 8.65642 20.2962 8.65224C20.2964 8.63407 20.2967 8.61332 20.2971 8.58868L20.2972 8.58473C20.298 8.53793 20.299 8.48086 20.299 8.41767V5.61689C20.299 5.60461 20.2999 5.5776 20.3013 5.54039C20.3059 5.40859 20.3151 5.14881 20.3024 4.96237C20.2855 4.71424 20.2247 4.24908 19.8638 3.92098C19.4852 3.57677 19.0198 3.31945 18.5149 3.19137C17.7455 2.99623 16.9363 2.99858 16.2503 3.00058C16.1564 3.00085 16.0647 3.00111 15.9758 3.00086C15.1322 2.9985 14.277 2.99895 13.4188 3.02938C13.4226 3.02925 13.4221 3.02924 13.4149 3.029C13.4051 3.02869 13.3829 3.02797 13.342 3.02602C13.3227 3.0251 13.2984 3.02387 13.2714 3.0225C13.2247 3.02014 13.1697 3.01736 13.1171 3.01498C12.9422 3.00706 12.7143 2.9995 12.491 3.00753C12.2877 3.01483 12.0078 3.03648 11.7685 3.12409C11.6518 3.16684 11.454 3.25691 11.3046 3.45241C11.1211 3.69255 11.0893 3.98568 11.1705 4.24297C11.4303 5.06551 11.6324 5.88637 11.8412 6.73398C11.9324 7.10406 12.0248 7.47924 12.1238 7.86189C12.1893 8.11516 12.2461 8.37027 12.3061 8.63961C12.3256 8.72711 12.3454 8.81611 12.366 8.90704Z" stroke="black" stroke-width="0.5" stroke-linecap="round"/>
<path fill-rule="evenodd" clip-rule="evenodd" d="M16.4554 12.9555C16.3192 12.86 16.1494 12.811 15.9709 12.8288C15.6688 12.859 15.315 12.9583 15.0669 13.0279C14.9954 13.0479 14.9327 13.0655 14.8825 13.0783C13.9777 13.3086 13.3999 13.8974 13.0054 14.5937C12.5277 15.4366 12.4596 16.3439 12.4596 17.138C12.4596 18.0545 12.6961 18.7397 13.2273 19.4701C14.2424 20.8659 15.8781 20.8776 17.1348 20.5258C18.7052 20.0861 19.3099 18.7429 19.5356 17.5144C19.6414 16.938 19.6815 16.4223 19.6815 15.8467C19.6815 15.7046 19.6809 15.4832 19.6415 15.2578C19.6021 15.0326 19.5134 14.7356 19.2866 14.4816C19.0874 14.2585 18.875 14.0822 18.6847 13.9336C18.6135 13.8779 18.5491 13.8288 18.4886 13.7827C18.3738 13.6952 18.2726 13.6181 18.1635 13.5258C17.6715 13.1094 17.1515 12.9846 16.6738 12.9603C16.6003 12.9566 16.5272 12.9552 16.4554 12.9555ZM15.4049 14.4291C15.3522 14.4434 15.2967 14.4582 15.2376 14.4733C14.8178 14.5801 14.5199 14.8406 14.2577 15.3033C13.9704 15.8103 13.899 16.4046 13.899 17.138C13.899 17.7366 14.031 18.1278 14.3914 18.6234C14.8795 19.2945 15.7218 19.4266 16.7467 19.1396C17.5294 18.9205 17.9335 18.2687 18.1198 17.2543C18.208 16.7744 18.2421 16.3466 18.2421 15.8467C18.2421 15.7006 18.239 15.5939 18.2236 15.5058C18.2159 15.4615 18.2076 15.439 18.2041 15.4306C18.0922 15.307 17.9615 15.1951 17.7986 15.0679C17.7547 15.0336 17.7048 14.9955 17.6515 14.9548C17.5214 14.8556 17.3706 14.7404 17.2337 14.6246C17.0477 14.4672 16.8612 14.4112 16.6008 14.3979C16.4587 14.3907 16.3045 14.3969 16.1123 14.4078C16.0882 14.4092 16.0633 14.4106 16.0378 14.4121C15.8714 14.4218 15.6778 14.4331 15.4811 14.4331C15.4553 14.4331 15.4299 14.4318 15.4049 14.4291Z" fill="black" stroke="black" stroke-width="0.5" stroke-linecap="round"/>
</svg>
