<svg width="32" height="32" viewBox="0 0 32 32" fill="none" xmlns="http://www.w3.org/2000/svg">
<path fill-rule="evenodd" clip-rule="evenodd" d="M15.9718 4.4403C15.1284 4.43794 14.2977 4.43857 13.4699 4.46792C13.4064 4.47018 13.3261 4.46634 13.2734 4.46383C13.2447 4.46246 13.2171 4.46105 13.1889 4.45962C13.1471 4.4575 13.1037 4.45529 13.052 4.45295C12.9494 4.4483 12.8405 4.44448 12.7334 4.44369C12.9236 5.109 13.0893 5.78155 13.2514 6.4394C13.34 6.79896 13.4275 7.15413 13.5173 7.50133C13.5896 7.78065 13.6538 8.0691 13.715 8.34379C13.7336 8.42719 13.7518 8.50932 13.77 8.58953C13.8468 8.92917 13.9237 9.24748 14.0181 9.54859C14.1907 9.71688 14.2748 9.96798 14.2187 10.2206C14.1829 10.3815 14.0958 10.5178 13.9785 10.6161C13.9771 10.6203 13.9757 10.6246 13.9743 10.6289C13.8486 11.006 13.441 11.2098 13.0639 11.0841C12.6301 10.9395 12.1683 10.8292 11.682 10.7131C11.555 10.6827 11.4264 10.652 11.2961 10.6201C10.8804 10.5185 10.4286 10.3851 10.0006 10.2588C9.71133 10.1734 9.43299 10.0912 9.18413 10.0243C8.58959 9.86432 8.02489 9.74725 7.45445 9.72241C7.32135 9.94679 7.17389 10.159 7.03548 10.3529C6.99336 10.4119 6.95263 10.4684 6.91308 10.5233C6.8072 10.6703 6.70969 10.8057 6.61618 10.9453C6.42749 11.227 6.22957 11.4995 6.04084 11.7594L6.02939 11.7751C5.83448 12.0435 5.64929 12.299 5.47553 12.5596C5.44533 12.6049 5.41384 12.6465 5.38898 12.6786C5.38564 12.6829 5.38218 12.6873 5.37866 12.6918C5.38457 12.6959 5.3905 12.7 5.39642 12.7042C5.45662 12.7462 5.54879 12.8127 5.632 12.8959C5.70135 12.9653 5.78927 13.0294 5.94245 13.1409L5.94451 13.1424C6.07738 13.2392 6.26999 13.3794 6.43647 13.561C6.60939 13.7496 6.83361 13.888 7.13227 14.0723C7.23147 14.1335 7.33888 14.1998 7.45536 14.2747C7.86923 14.5407 8.17588 14.8743 8.4219 15.2609C8.5473 15.458 8.58499 15.6694 8.59988 15.8065C8.61611 15.9558 8.61348 16.105 8.60704 16.2278C8.60097 16.3438 8.59006 16.4585 8.58156 16.5479L8.57975 16.567C8.56968 16.6733 8.56576 16.7241 8.5656 16.7498C8.56416 16.9745 8.54984 17.1945 8.53691 17.3914L8.53641 17.399C8.52385 17.5902 8.51268 17.7603 8.50978 17.9276C8.51009 17.9313 8.51048 17.9358 8.51096 17.9411L8.5111 17.9427C8.51348 17.9693 8.51766 18.016 8.51982 18.0658C8.52184 18.1122 8.52368 18.1904 8.51317 18.2759C8.50785 18.3192 8.49711 18.3841 8.47213 18.4571C8.44888 18.525 8.39807 18.6456 8.28619 18.7574C8.12599 18.9176 7.92891 18.9913 7.83012 19.0247C7.70869 19.0658 7.58208 19.0941 7.47753 19.1145C7.37461 19.1345 7.27233 19.1506 7.19376 19.163L7.18509 19.1643C7.1431 19.1709 7.10989 19.1762 7.08174 19.181C7.06807 19.1834 7.05746 19.1853 7.04931 19.1869C7.04089 19.1885 7.03744 19.1893 7.03763 19.1893C6.42169 19.3342 5.81196 19.5116 5.18308 19.6959L5.11703 19.7153C4.5993 19.867 4.06779 20.0228 3.52768 20.1607C3.58874 20.3432 3.68296 20.5457 3.79878 20.7773C4.22871 21.6372 4.75302 22.452 5.29967 23.3016C5.33441 23.3556 5.36923 23.4097 5.40412 23.464C5.51433 23.6354 5.61106 23.7942 5.70227 23.9438C5.84607 24.1798 5.97613 24.3932 6.12361 24.5984C6.61308 24.5361 7.2225 24.3078 7.7454 24.0709C8.23986 23.8469 8.68327 23.5086 9.19838 23.1155C9.23084 23.0907 9.26359 23.0657 9.29665 23.0406C9.30101 23.0372 9.30562 23.0337 9.31046 23.03C9.42112 22.9451 9.65921 22.7623 10.0354 22.7623C10.4721 22.7623 10.8855 22.8456 11.2496 22.9425C11.272 22.9484 11.2984 22.9534 11.3667 22.9661L11.3683 22.9664C11.4233 22.9767 11.516 22.9941 11.6108 23.023C11.811 23.0841 12.1507 23.238 12.3071 23.6447C12.3858 23.8493 12.3922 24.0459 12.3916 24.163C12.3913 24.2227 12.3886 24.2803 12.3867 24.3214L12.3864 24.3266C12.3842 24.374 12.3832 24.3998 12.3832 24.4208C12.3832 24.8218 12.4265 25.2233 12.4883 25.6575C12.5891 26.3664 12.6293 27.0651 12.668 27.7399C12.6704 27.7811 12.6728 27.8221 12.6751 27.8631C12.678 27.9123 12.6801 27.9562 12.6821 27.997C12.6844 28.0435 12.6865 28.0858 12.6892 28.127C12.7618 28.1235 12.8359 28.1184 12.9075 28.113C12.9226 28.1118 12.9383 28.1106 12.9541 28.1094C12.9887 28.1068 13.0234 28.1041 13.0528 28.1021C13.0914 28.0994 13.1475 28.0957 13.198 28.0957C13.5294 28.0957 13.8571 28.0975 14.1825 28.0993C14.9256 28.1034 15.6567 28.1075 16.393 28.0897C17.3996 28.0652 18.3782 27.9423 19.3467 27.702C19.4435 27.678 19.5432 27.6565 19.6316 27.6375L19.6536 27.6327C19.7518 27.6115 19.8386 27.5925 19.9217 27.5712C19.9904 27.5536 20.0496 27.5362 20.1007 27.5186C20.1 27.5072 20.0993 27.4952 20.0987 27.483C20.0966 27.4452 20.0946 27.3989 20.0946 27.3495C20.0946 26.2545 20.2007 25.311 20.5839 24.212C20.5829 24.2147 20.583 24.2145 20.5842 24.2102C20.5862 24.2033 20.5911 24.1859 20.5999 24.1529C20.6087 24.1196 20.6184 24.0818 20.6298 24.0373C20.6346 24.0187 20.6396 23.999 20.6451 23.978C20.6805 23.8407 20.7269 23.6635 20.78 23.4891C20.831 23.3218 20.898 23.1239 20.9803 22.957C21.02 22.8765 21.0814 22.7653 21.171 22.6637C21.2442 22.5807 21.4545 22.3693 21.7968 22.3693C21.9959 22.3693 22.1488 22.4143 22.242 22.4441C22.3309 22.4725 22.3375 22.4751 22.3443 22.4763C22.3453 22.4765 22.3463 22.4766 22.3475 22.4768C22.4511 22.492 22.5508 22.501 22.6719 22.5119C22.7223 22.5164 22.7764 22.5213 22.836 22.5271C23.0199 22.5449 23.2429 22.5709 23.4677 22.6301C24.1325 22.805 24.7348 23.2178 25.1635 23.5394C25.3455 23.6758 25.4606 23.677 25.5494 23.6591C25.675 23.6338 25.851 23.5431 26.077 23.3387C26.4265 23.0227 26.7255 22.6068 27.0211 22.1954C27.128 22.0465 27.2346 21.8983 27.3429 21.7556C27.4109 21.666 27.4901 21.5684 27.5641 21.4772C27.5824 21.4547 27.6003 21.4326 27.6177 21.411C27.7108 21.296 27.7981 21.1856 27.8767 21.0759C27.939 20.9889 27.9876 20.9131 28.0249 20.8478C27.5267 20.4948 27.0263 20.1767 26.5095 19.8482C26.1568 19.6241 25.7965 19.3951 25.4241 19.1468C25.4027 19.1325 25.3695 19.1137 25.3042 19.0795C25.2964 19.0754 25.2879 19.071 25.2789 19.0663C25.2244 19.0379 25.1483 18.9983 25.0771 18.9561C24.9272 18.8674 24.623 18.6712 24.4899 18.2954C24.125 17.265 23.8895 15.9965 24.1508 14.8206C24.2775 14.2504 24.7453 14.0003 24.9196 13.907C24.9372 13.8977 24.9517 13.8899 24.9627 13.8835C25.4317 13.6109 25.8532 13.295 26.316 12.948C26.4423 12.8533 26.5717 12.7563 26.706 12.6572C26.8093 12.581 26.9106 12.5111 27.0095 12.4428C27.2273 12.2924 27.4332 12.1503 27.6218 11.9678C27.8909 11.7075 27.8608 11.6087 27.8574 11.5977C27.8308 11.5047 27.8158 11.4185 27.806 11.3514C27.8006 11.3148 27.7938 11.2601 27.7891 11.223C27.7872 11.2076 27.7857 11.1952 27.7848 11.1885C27.778 11.1378 27.7729 11.116 27.7713 11.1097C27.6644 10.898 27.474 10.6276 27.2919 10.3901C27.1065 10.1482 26.9044 9.86461 26.7117 9.59432C26.5737 9.40072 26.4406 9.21395 26.322 9.05422C26.0147 8.64047 25.7108 8.27249 25.3687 7.9653C25.3504 7.97924 25.3285 7.99626 25.3037 8.01547C25.2248 8.07676 25.1171 8.16041 25.0057 8.23801C24.6531 8.48339 24.2887 8.71669 23.938 8.94121C23.8594 8.99152 23.7815 9.04139 23.7045 9.09085C23.2774 9.36553 22.872 9.63295 22.492 9.92259C22.462 9.94546 22.43 9.96925 22.401 9.99076L22.3924 9.99719C22.3597 10.0215 22.329 10.0443 22.2986 10.0676C22.2371 10.1146 22.1855 10.1568 22.143 10.1965C22.1075 10.2297 22.0862 10.2539 22.0745 10.269C22.0518 10.3653 22.0027 10.4992 21.8913 10.623C21.7451 10.7855 21.5521 10.8637 21.3695 10.8754C21.2106 10.8855 21.0844 10.8447 21.0162 10.8177C20.9426 10.7885 20.8834 10.7536 20.8442 10.7283C20.7677 10.6791 20.7018 10.6234 20.67 10.5964C20.6459 10.576 20.6346 10.5665 20.6308 10.5632C20.4721 10.4529 20.3035 10.3489 20.1179 10.2365C20.0945 10.2223 20.0707 10.2079 20.0466 10.1933C19.88 10.0926 19.699 9.98318 19.5223 9.86643C19.2804 9.70647 19.0165 9.48928 18.9086 9.11755C18.8631 8.96067 18.8576 8.81464 18.8567 8.71539C18.8564 8.68347 18.8574 8.60437 18.8583 8.53423C18.8589 8.4838 18.8595 8.43799 18.8595 8.41767V5.61689C18.8595 5.54985 18.8627 5.46445 18.8653 5.39208C18.8664 5.36377 18.8673 5.33745 18.868 5.315C18.8709 5.21802 18.8713 5.13427 18.8663 5.06021C18.8627 5.00751 18.857 4.97105 18.8518 4.94767C18.6491 4.77518 18.4094 4.64965 18.161 4.58664C17.5803 4.43937 16.966 4.43986 16.2598 4.44042C16.1655 4.4405 16.0695 4.44058 15.9718 4.4403ZM12.4896 9.42736C12.445 9.25133 12.4044 9.07697 12.366 8.90704C12.3454 8.81611 12.3256 8.72711 12.3061 8.63961C12.2461 8.37027 12.1893 8.11516 12.1238 7.86189C12.0248 7.47924 11.9324 7.10406 11.8412 6.73398C11.6324 5.88637 11.4303 5.06551 11.1705 4.24297C11.0893 3.98568 11.1211 3.69255 11.3046 3.45241C11.454 3.25691 11.6518 3.16684 11.7685 3.12409C12.0078 3.03648 12.2877 3.01483 12.491 3.00753C12.7143 2.9995 12.9422 3.00706 13.1171 3.01498C13.1697 3.01736 13.2247 3.02014 13.2714 3.0225C13.2984 3.02387 13.3227 3.0251 13.342 3.02602C13.3829 3.02797 13.4051 3.02869 13.4149 3.029C13.4221 3.02924 13.4226 3.02925 13.4188 3.02938C14.277 2.99895 15.1322 2.9985 15.9758 3.00086C16.0647 3.00111 16.1564 3.00085 16.2503 3.00058C16.9363 2.99858 17.7455 2.99623 18.5149 3.19137C19.0198 3.31945 19.4852 3.57677 19.8638 3.92098C20.2247 4.24908 20.2855 4.71424 20.3024 4.96237C20.3151 5.14881 20.3059 5.40859 20.3013 5.54039C20.2999 5.5776 20.299 5.60461 20.299 5.61689V8.41767C20.299 8.48086 20.298 8.53793 20.2972 8.58473L20.2971 8.58868C20.2967 8.61332 20.2964 8.63407 20.2962 8.65224C20.3023 8.65642 20.3089 8.66088 20.3161 8.66561C20.4667 8.76517 20.621 8.85848 20.7897 8.96051C20.8141 8.97525 20.8387 8.99018 20.8637 9.00533C20.9507 9.05798 21.041 9.11301 21.1328 9.17077C21.1423 9.16164 21.1515 9.15288 21.1605 9.14451C21.298 9.01607 21.463 8.89393 21.5623 8.82043C21.5852 8.80349 21.6046 8.78913 21.6193 8.77787C22.048 8.45104 22.4946 8.15753 22.926 7.88012C23.0084 7.82714 23.09 7.7749 23.1709 7.72312C23.5202 7.49946 23.8558 7.28453 24.1833 7.0566C24.2614 7.00221 24.3232 6.95427 24.3937 6.89946C24.4255 6.87479 24.459 6.84873 24.4966 6.82007C24.5965 6.74406 24.7505 6.62938 24.9341 6.55363C25.1454 6.46643 25.3963 6.42924 25.6699 6.50277C25.9178 6.5694 26.1232 6.71112 26.2934 6.86136C26.7577 7.27121 27.1393 7.74054 27.4775 8.19592C27.6427 8.41824 27.7833 8.61642 27.9186 8.80726C28.0863 9.04355 28.2459 9.26859 28.4343 9.51428C28.6258 9.76402 28.8903 10.129 29.062 10.4724C29.1661 10.6805 29.196 10.8817 29.2116 10.9983C29.2176 11.0438 29.2219 11.0774 29.2251 11.103C29.2324 11.1608 29.2346 11.1782 29.2413 11.2016C29.4748 12.0188 28.9865 12.6504 28.6226 13.0024C28.3409 13.2749 27.9689 13.5317 27.7303 13.6964C27.6604 13.7447 27.6019 13.7851 27.5605 13.8156C27.4473 13.8991 27.3318 13.9858 27.214 14.0742C26.7431 14.4277 26.2353 14.8088 25.686 15.1281C25.6627 15.1416 25.6388 15.1552 25.6183 15.1669C25.6119 15.1706 25.6058 15.174 25.6002 15.1772C25.5756 15.1913 25.5563 15.2025 25.5394 15.2127C25.392 15.9758 25.5278 16.8761 25.8137 17.7194C25.8476 17.7393 25.8833 17.758 25.9371 17.7861C25.948 17.7918 25.9596 17.7978 25.972 17.8043C26.0371 17.8384 26.1313 17.8882 26.2226 17.9491C26.5384 18.1596 26.8755 18.3743 27.2201 18.5937C27.8198 18.9755 28.4422 19.3719 29.0149 19.7863C29.0274 19.7954 29.0369 19.8012 29.0661 19.8193C29.0716 19.8227 29.0777 19.8265 29.0847 19.8308L29.089 19.8335C29.1216 19.8536 29.2077 19.9069 29.2882 19.9841C29.3902 20.0819 29.4852 20.2174 29.5331 20.3965C29.5766 20.5591 29.5677 20.7082 29.5507 20.8188C29.4835 21.2555 29.242 21.6417 29.047 21.914C28.9428 22.0595 28.8334 22.1969 28.7373 22.3158C28.715 22.3434 28.6938 22.3695 28.6736 22.3945C28.6017 22.4831 28.5419 22.5568 28.4893 22.626C28.4258 22.7097 28.3503 22.8151 28.2649 22.9344C27.9568 23.3644 27.519 23.9756 27.0423 24.4065C26.7259 24.6925 26.3201 24.9722 25.8335 25.0702C25.3101 25.1756 24.7824 25.0529 24.2999 24.691C23.886 24.3806 23.4752 24.1205 23.1014 24.0221C22.9936 23.9938 22.8658 23.9762 22.697 23.9598C22.661 23.9563 22.6214 23.9527 22.5791 23.9489C22.4512 23.9375 22.2998 23.9239 22.1584 23.9039C22.1579 23.9055 22.1574 23.9071 22.1569 23.9088C22.1136 24.051 22.0738 24.2021 22.0389 24.3373C22.0349 24.3529 22.0307 24.3694 22.0263 24.3865C22.0001 24.4891 21.9682 24.6139 21.9431 24.6859C21.6267 25.5933 21.5341 26.3682 21.5341 27.3495C21.5341 27.3744 21.5355 27.3975 21.5381 27.4411C21.5391 27.4579 21.5403 27.4777 21.5417 27.5019C21.5457 27.5718 21.5511 27.6804 21.5418 27.7966C21.5219 28.0451 21.4224 28.4287 21.0257 28.6696C20.771 28.8242 20.4999 28.9091 20.2783 28.9658C20.1656 28.9946 20.0543 29.0188 19.9573 29.0397L19.9404 29.0434C19.8465 29.0637 19.7677 29.0807 19.6933 29.0991C18.6143 29.3668 17.5305 29.5019 16.4279 29.5287C15.6693 29.5471 14.9033 29.5428 14.1502 29.5387C13.8299 29.5369 13.512 29.5351 13.198 29.5351C13.1991 29.5351 13.1998 29.5351 13.1998 29.5351C13.1998 29.5352 13.1874 29.5356 13.1531 29.538C13.1284 29.5397 13.102 29.5418 13.0707 29.5442C13.0538 29.5454 13.0356 29.5468 13.0155 29.5484C12.9078 29.5565 12.7662 29.5664 12.6233 29.5697C12.4878 29.5728 12.3144 29.5711 12.1527 29.5445C12.0731 29.5314 11.9603 29.5068 11.8449 29.4529C11.7368 29.4024 11.5388 29.2848 11.4282 29.039C11.3275 28.8154 11.2886 28.5862 11.2691 28.4095C11.2545 28.2779 11.2475 28.1348 11.2424 28.029C11.2408 27.9977 11.2395 27.9697 11.2381 27.9462C11.236 27.9103 11.234 27.8746 11.2319 27.8389C11.1922 27.1501 11.1552 26.5074 11.0632 25.8602C10.9979 25.4015 10.9437 24.9222 10.9437 24.4208C10.9437 24.3966 10.9442 24.3725 10.9449 24.3496C10.9242 24.3449 10.9022 24.3396 10.8796 24.3335C10.6148 24.2631 10.3722 24.2162 10.144 24.2046C10.1116 24.2293 10.0788 24.2544 10.0456 24.2798C9.55945 24.6518 8.99029 25.0872 8.33936 25.3821C7.73038 25.658 6.74234 26.0544 5.88097 26.0544C5.7607 26.0544 5.58496 26.0356 5.40617 25.9268C5.26551 25.8411 5.17477 25.7268 5.14518 25.6895C5.14369 25.6876 5.14236 25.686 5.14119 25.6845C4.87123 25.347 4.62849 24.9494 4.41852 24.6055C4.33859 24.4746 4.26341 24.3515 4.19329 24.2424C4.15548 24.1836 4.11749 24.1246 4.07936 24.0653C3.54194 23.2304 2.97752 22.3535 2.5113 21.4211C2.33721 21.0729 2.08282 20.5563 2.02445 20.0018C2.02362 19.9939 2.0222 19.9818 2.02045 19.9668C2.01414 19.9129 2.00357 19.8226 2.00113 19.7645C1.9975 19.6786 1.99001 19.4003 2.20626 19.1579C2.37467 18.9692 2.59391 18.9096 2.65334 18.8934C2.6559 18.8927 2.65817 18.8921 2.66012 18.8916C2.70817 18.8782 2.77971 18.8615 2.8439 18.8465C2.87282 18.8397 2.90024 18.8333 2.92335 18.8277C3.52085 18.6831 4.11266 18.5097 4.72425 18.3304L4.77825 18.3146C5.40319 18.1314 6.04866 17.9432 6.70794 17.7881C6.78337 17.7703 6.87906 17.7553 6.94857 17.7444L6.96123 17.7424C7.00034 17.7362 7.03853 17.7302 7.07592 17.724C7.08174 17.5833 7.09072 17.4467 7.09907 17.3197L7.10056 17.2971C7.11381 17.0953 7.12506 16.9164 7.12618 16.7406C7.12682 16.6411 7.13785 16.5248 7.14596 16.4393L7.14788 16.4191C7.15694 16.3235 7.16515 16.2369 7.16957 16.1525C7.1737 16.0737 7.17328 16.0162 7.17024 15.9769C7.02898 15.7681 6.87317 15.6116 6.67697 15.4855C6.62086 15.4494 6.55454 15.4089 6.48119 15.3642C6.15825 15.1671 5.69908 14.8868 5.37538 14.5337C5.319 14.4722 5.23901 14.4093 5.09529 14.3047C5.08549 14.2976 5.07525 14.2901 5.06463 14.2824C4.94283 14.1941 4.77064 14.0692 4.61895 13.9185C4.61748 13.9175 4.60478 13.907 4.57265 13.8846C4.53986 13.8617 4.52144 13.8495 4.49934 13.8348C4.4776 13.8204 4.45231 13.8036 4.40627 13.772C4.34227 13.728 4.25653 13.667 4.17508 13.5946C4.0989 13.5268 3.98371 13.4123 3.90234 13.2495C3.65568 12.7562 3.89433 12.3095 4.00149 12.1367C4.06645 12.0319 4.13854 11.9395 4.18729 11.8778C4.19818 11.864 4.2077 11.852 4.21607 11.8414C4.25476 11.7925 4.26864 11.7749 4.27784 11.7611C4.47015 11.4727 4.67216 11.1944 4.8647 10.9293L4.869 10.9233C5.06273 10.6566 5.24689 10.403 5.42023 10.1442C5.52856 9.98251 5.64715 9.81789 5.75738 9.66487C5.79408 9.61392 5.82986 9.56425 5.86402 9.51641C6.0072 9.31589 6.13297 9.13265 6.23745 8.9522C6.28111 8.87678 6.36913 8.72722 6.50054 8.595C6.63751 8.45719 6.88258 8.27807 7.23146 8.27807C8.06251 8.27807 8.83665 8.44016 9.55809 8.63425C9.89332 8.72444 10.192 8.81335 10.4815 8.89951C10.8623 9.01286 11.227 9.12144 11.6379 9.22186C11.7501 9.2493 11.8666 9.27707 11.9859 9.30551C12.1495 9.34452 12.3185 9.38482 12.4896 9.42736Z" fill="black"/>
<path d="M12.3824 28.1234C12.3825 28.1234 12.3837 28.1236 12.3858 28.1241M3.04134 20.2797C3.04131 20.2797 3.04208 20.2794 3.04376 20.2789M5.12727 12.5148C5.12734 12.5148 5.12863 12.5159 5.13089 12.5183M5.215 12.9123C5.21464 12.9132 5.21443 12.9136 5.21441 12.9136M7.16552 15.9404C7.16559 15.9403 7.16607 15.9421 7.16674 15.9461M7.08194 18.1361C7.08193 18.1362 7.08191 18.1354 7.08193 18.1339M13.4699 4.46792C14.2977 4.43857 15.1284 4.43794 15.9718 4.4403C16.0695 4.44058 16.1655 4.4405 16.2598 4.44042C16.966 4.43986 17.5803 4.43937 18.161 4.58664C18.4094 4.64965 18.6491 4.77518 18.8518 4.94767C18.857 4.97105 18.8627 5.00751 18.8663 5.06021C18.8713 5.13427 18.8709 5.21802 18.868 5.315C18.8673 5.33745 18.8664 5.36377 18.8653 5.39208C18.8627 5.46445 18.8595 5.54985 18.8595 5.61689V8.41767C18.8595 8.43799 18.8589 8.4838 18.8583 8.53423C18.8574 8.60437 18.8564 8.68347 18.8567 8.71539C18.8576 8.81464 18.8631 8.96067 18.9086 9.11755C19.0165 9.48928 19.2804 9.70647 19.5223 9.86643C19.699 9.98318 19.88 10.0926 20.0466 10.1933C20.0707 10.2079 20.0945 10.2223 20.1179 10.2365C20.3035 10.3489 20.4721 10.4529 20.6308 10.5632C20.6346 10.5665 20.6459 10.576 20.67 10.5964C20.7018 10.6234 20.7677 10.6791 20.8442 10.7283C20.8834 10.7536 20.9426 10.7885 21.0162 10.8177C21.0844 10.8447 21.2106 10.8855 21.3695 10.8754C21.5521 10.8637 21.7451 10.7855 21.8913 10.623C22.0027 10.4992 22.0518 10.3653 22.0745 10.269C22.0862 10.2539 22.1075 10.2297 22.143 10.1965C22.1855 10.1568 22.2371 10.1146 22.2986 10.0676C22.329 10.0443 22.3597 10.0215 22.3924 9.99719L22.401 9.99076C22.43 9.96925 22.462 9.94546 22.492 9.92259C22.872 9.63295 23.2774 9.36553 23.7045 9.09085C23.7815 9.04139 23.8594 8.99152 23.938 8.94121C24.2887 8.71669 24.6531 8.48339 25.0057 8.23801C25.1171 8.16041 25.2248 8.07676 25.3037 8.01547C25.3285 7.99626 25.3504 7.97924 25.3687 7.9653C25.7108 8.27249 26.0147 8.64047 26.322 9.05422C26.4406 9.21395 26.5737 9.40072 26.7117 9.59432C26.9044 9.86461 27.1065 10.1482 27.2919 10.3901C27.474 10.6276 27.6644 10.898 27.7713 11.1097C27.7729 11.116 27.778 11.1378 27.7848 11.1885C27.7857 11.1952 27.7872 11.2076 27.7891 11.223C27.7938 11.2601 27.8006 11.3148 27.806 11.3514C27.8158 11.4185 27.8308 11.5047 27.8574 11.5977C27.8608 11.6087 27.8909 11.7075 27.6218 11.9678C27.4332 12.1503 27.2273 12.2924 27.0095 12.4428C26.9106 12.5111 26.8093 12.581 26.706 12.6572C26.5717 12.7563 26.4423 12.8533 26.316 12.948C25.8532 13.295 25.4317 13.6109 24.9627 13.8835C24.9517 13.8899 24.9372 13.8977 24.9196 13.907C24.7453 14.0003 24.2775 14.2504 24.1508 14.8206C23.8895 15.9965 24.125 17.265 24.4899 18.2954C24.623 18.6712 24.9272 18.8674 25.0771 18.9561C25.1483 18.9983 25.2244 19.0379 25.2789 19.0663C25.2879 19.071 25.2964 19.0754 25.3042 19.0795C25.3695 19.1137 25.4027 19.1325 25.4241 19.1468C25.7965 19.3951 26.1568 19.6241 26.5095 19.8482C27.0263 20.1767 27.5267 20.4948 28.0249 20.8478C27.9876 20.9131 27.939 20.9889 27.8767 21.0759C27.7981 21.1856 27.7108 21.296 27.6177 21.411C27.6004 21.4326 27.5824 21.4547 27.5641 21.4772C27.4901 21.5684 27.4109 21.666 27.3429 21.7556C27.2346 21.8983 27.128 22.0465 27.0211 22.1954C26.7255 22.6068 26.4265 23.0227 26.077 23.3387C25.851 23.5431 25.675 23.6338 25.5494 23.6591C25.4606 23.677 25.3455 23.6758 25.1635 23.5394C24.7348 23.2178 24.1325 22.805 23.4677 22.6301C23.2429 22.5709 23.0199 22.5449 22.836 22.5271C22.7764 22.5213 22.7223 22.5164 22.6719 22.5119C22.5508 22.501 22.4511 22.492 22.3475 22.4768C22.3463 22.4766 22.3453 22.4765 22.3443 22.4763C22.3375 22.4751 22.3309 22.4725 22.242 22.4441C22.1488 22.4143 21.9959 22.3693 21.7968 22.3693C21.4545 22.3693 21.2442 22.5807 21.171 22.6637C21.0814 22.7653 21.02 22.8765 20.9803 22.957C20.898 23.1239 20.831 23.3218 20.78 23.4891C20.7269 23.6635 20.6805 23.8407 20.6451 23.978C20.6396 23.999 20.6346 24.0187 20.6298 24.0373C20.6184 24.0818 20.6087 24.1196 20.5999 24.1529C20.5911 24.1859 20.5862 24.2033 20.5842 24.2102C20.583 24.2145 20.5829 24.2147 20.5839 24.212C20.2007 25.311 20.0946 26.2545 20.0946 27.3495C20.0946 27.3989 20.0966 27.4452 20.0987 27.483C20.0993 27.4952 20.1 27.5072 20.1007 27.5186C20.0496 27.5362 19.9904 27.5536 19.9217 27.5712C19.8386 27.5925 19.7518 27.6115 19.6536 27.6327L19.6316 27.6375C19.5432 27.6565 19.4435 27.678 19.3467 27.702C18.3782 27.9423 17.3996 28.0652 16.393 28.0897C15.6567 28.1075 14.9256 28.1034 14.1825 28.0993C13.8571 28.0975 13.5294 28.0957 13.198 28.0957C13.1475 28.0957 13.0914 28.0994 13.0528 28.1021C13.0234 28.1041 12.9887 28.1068 12.9541 28.1094C12.9383 28.1106 12.9226 28.1118 12.9075 28.113C12.8359 28.1184 12.7618 28.1235 12.6892 28.127C12.6865 28.0858 12.6844 28.0435 12.6821 27.997C12.6801 27.9562 12.678 27.9123 12.6751 27.8631C12.6728 27.8221 12.6704 27.7811 12.668 27.7399C12.6293 27.0651 12.5891 26.3664 12.4883 25.6575C12.4265 25.2233 12.3832 24.8218 12.3832 24.4208C12.3832 24.3998 12.3842 24.374 12.3864 24.3266L12.3867 24.3214C12.3886 24.2803 12.3913 24.2227 12.3916 24.1631C12.3922 24.0459 12.3858 23.8493 12.3071 23.6447C12.1507 23.238 11.811 23.0841 11.6108 23.023C11.516 22.9941 11.4233 22.9767 11.3683 22.9664L11.3667 22.9661C11.2984 22.9534 11.272 22.9484 11.2496 22.9425C10.8855 22.8456 10.4721 22.7623 10.0354 22.7623C9.65921 22.7623 9.42112 22.9451 9.31046 23.03C9.30562 23.0337 9.30101 23.0372 9.29665 23.0406C9.26359 23.0657 9.23084 23.0907 9.19838 23.1155C8.68327 23.5086 8.23986 23.8469 7.7454 24.0709C7.2225 24.3078 6.61308 24.5361 6.12361 24.5984C5.97613 24.3932 5.84607 24.1798 5.70227 23.9438C5.61106 23.7942 5.51433 23.6354 5.40412 23.464C5.36923 23.4097 5.33441 23.3556 5.29967 23.3016C4.75302 22.452 4.22871 21.6372 3.79878 20.7773C3.68296 20.5457 3.58874 20.3432 3.52768 20.1607C4.06779 20.0228 4.5993 19.867 5.11703 19.7153L5.18308 19.6959C5.81196 19.5116 6.42169 19.3342 7.03763 19.1893C7.03744 19.1893 7.04089 19.1885 7.04931 19.1869C7.05746 19.1853 7.06807 19.1834 7.08174 19.181C7.10989 19.1762 7.1431 19.1709 7.18509 19.1643L7.19376 19.163C7.27233 19.1506 7.37461 19.1345 7.47753 19.1145C7.58208 19.0941 7.70869 19.0658 7.83012 19.0247C7.92891 18.9913 8.12599 18.9176 8.28619 18.7574C8.39807 18.6456 8.44888 18.525 8.47213 18.4571C8.49711 18.3841 8.50785 18.3192 8.51317 18.2759C8.52368 18.1904 8.52184 18.1122 8.51982 18.0658C8.51766 18.016 8.51348 17.9693 8.5111 17.9427L8.51096 17.9411C8.51048 17.9358 8.51009 17.9313 8.50978 17.9276C8.51268 17.7603 8.52385 17.5902 8.53641 17.399L8.53691 17.3914C8.54984 17.1945 8.56416 16.9745 8.5656 16.7498C8.56576 16.7241 8.56968 16.6733 8.57975 16.567L8.58156 16.5479C8.59006 16.4585 8.60096 16.3438 8.60704 16.2278C8.61348 16.105 8.61611 15.9558 8.59988 15.8065C8.58499 15.6694 8.5473 15.458 8.4219 15.2609C8.17588 14.8743 7.86923 14.5407 7.45536 14.2747C7.33888 14.1998 7.23147 14.1335 7.13227 14.0723C6.83361 13.888 6.60939 13.7496 6.43647 13.561C6.26999 13.3794 6.07738 13.2392 5.94451 13.1424L5.94245 13.1409C5.78927 13.0294 5.70135 12.9653 5.632 12.8959C5.54879 12.8127 5.45663 12.7462 5.39642 12.7042C5.3905 12.7 5.38457 12.6959 5.37866 12.6918C5.38218 12.6873 5.38564 12.6829 5.38898 12.6786C5.41384 12.6465 5.44533 12.6049 5.47553 12.5596C5.64929 12.299 5.83448 12.0435 6.02939 11.7751L6.04084 11.7594C6.22957 11.4995 6.42749 11.227 6.61618 10.9453C6.70969 10.8057 6.8072 10.6703 6.91308 10.5233C6.95263 10.4684 6.99336 10.4119 7.03548 10.3529C7.17389 10.159 7.32135 9.94679 7.45445 9.72242C8.02489 9.74725 8.58959 9.86432 9.18413 10.0243C9.43299 10.0912 9.71133 10.1734 10.0006 10.2588C10.4286 10.3851 10.8804 10.5185 11.2961 10.6201C11.4264 10.652 11.555 10.6827 11.682 10.7131C12.1683 10.8292 12.6301 10.9395 13.0639 11.0841C13.441 11.2098 13.8486 11.006 13.9743 10.6289C13.9757 10.6246 13.9771 10.6203 13.9785 10.6161C14.0958 10.5178 14.1829 10.3815 14.2187 10.2206C14.2748 9.96798 14.1907 9.71688 14.0181 9.54859C13.9237 9.24748 13.8468 8.92917 13.77 8.58953C13.7518 8.50932 13.7336 8.42719 13.715 8.34379C13.6538 8.0691 13.5896 7.78065 13.5173 7.50133C13.4275 7.15413 13.34 6.79896 13.2514 6.4394C13.0893 5.78155 12.9236 5.109 12.7334 4.44369C12.8405 4.44448 12.9494 4.4483 13.052 4.45295C13.1037 4.45529 13.1471 4.4575 13.1889 4.45962C13.2171 4.46105 13.2447 4.46246 13.2734 4.46383C13.3261 4.46634 13.4064 4.47018 13.4699 4.46792ZM12.366 8.90704C12.4044 9.07697 12.445 9.25133 12.4896 9.42736C12.3185 9.38482 12.1495 9.34452 11.9859 9.30551C11.8666 9.27707 11.7501 9.2493 11.6379 9.22186C11.227 9.12144 10.8623 9.01286 10.4815 8.8995C10.192 8.81335 9.89332 8.72444 9.55809 8.63425C8.83665 8.44016 8.06251 8.27807 7.23146 8.27807C6.88258 8.27807 6.63751 8.45719 6.50054 8.595C6.36913 8.72722 6.28111 8.87678 6.23745 8.9522C6.13297 9.13265 6.0072 9.31589 5.86402 9.51641C5.82986 9.56425 5.79408 9.61392 5.75738 9.66487C5.64715 9.81789 5.52856 9.98251 5.42023 10.1442C5.24689 10.403 5.06273 10.6566 4.869 10.9233L4.8647 10.9293C4.67216 11.1944 4.47015 11.4727 4.27784 11.7611C4.26864 11.7749 4.25476 11.7925 4.21607 11.8414C4.2077 11.852 4.19818 11.864 4.18729 11.8778C4.13854 11.9395 4.06645 12.0319 4.00149 12.1367C3.89433 12.3095 3.65568 12.7562 3.90234 13.2495C3.98371 13.4123 4.0989 13.5268 4.17508 13.5946C4.25653 13.667 4.34227 13.728 4.40627 13.772C4.45231 13.8036 4.4776 13.8204 4.49934 13.8348C4.52144 13.8495 4.53986 13.8617 4.57265 13.8846C4.60478 13.907 4.61748 13.9175 4.61895 13.9185C4.77064 14.0692 4.94283 14.1941 5.06463 14.2824C5.07525 14.2901 5.08549 14.2976 5.09529 14.3047C5.23901 14.4093 5.319 14.4722 5.37538 14.5337C5.69908 14.8868 6.15825 15.1671 6.48119 15.3642C6.55454 15.4089 6.62086 15.4494 6.67697 15.4855C6.87317 15.6116 7.02898 15.7681 7.17024 15.9769C7.17328 16.0162 7.1737 16.0737 7.16957 16.1525C7.16515 16.2369 7.15694 16.3235 7.14788 16.4191L7.14596 16.4393C7.13785 16.5248 7.12682 16.6411 7.12618 16.7406C7.12506 16.9164 7.11381 17.0953 7.10056 17.2971L7.09907 17.3197C7.09072 17.4467 7.08174 17.5833 7.07592 17.724C7.03853 17.7302 7.00034 17.7362 6.96123 17.7424L6.94857 17.7444C6.87906 17.7553 6.78337 17.7703 6.70794 17.7881C6.04866 17.9432 5.40319 18.1314 4.77825 18.3146L4.72425 18.3304C4.11266 18.5097 3.52085 18.6831 2.92335 18.8277C2.90024 18.8333 2.87282 18.8397 2.8439 18.8465C2.77971 18.8615 2.70817 18.8782 2.66012 18.8916C2.65817 18.8921 2.6559 18.8927 2.65334 18.8934C2.59391 18.9096 2.37467 18.9692 2.20626 19.1579C1.99001 19.4003 1.9975 19.6786 2.00113 19.7645C2.00357 19.8226 2.01414 19.9129 2.02045 19.9668C2.0222 19.9818 2.02362 19.9939 2.02445 20.0018C2.08282 20.5563 2.33721 21.0729 2.5113 21.4211C2.97752 22.3535 3.54194 23.2304 4.07936 24.0653C4.11749 24.1246 4.15548 24.1836 4.19329 24.2424C4.26341 24.3515 4.33859 24.4746 4.41852 24.6055C4.62849 24.9494 4.87123 25.347 5.14119 25.6845C5.14236 25.686 5.14369 25.6876 5.14518 25.6895C5.17477 25.7268 5.26551 25.8411 5.40617 25.9268C5.58496 26.0356 5.7607 26.0544 5.88097 26.0544C6.74234 26.0544 7.73038 25.658 8.33936 25.3821C8.99029 25.0872 9.55945 24.6518 10.0456 24.2798C10.0788 24.2544 10.1116 24.2293 10.144 24.2046C10.3722 24.2162 10.6148 24.2631 10.8796 24.3335C10.9022 24.3396 10.9242 24.3449 10.9449 24.3496C10.9442 24.3725 10.9437 24.3966 10.9437 24.4208C10.9437 24.9222 10.9979 25.4015 11.0632 25.8602C11.1552 26.5074 11.1922 27.1501 11.2319 27.8389C11.234 27.8746 11.236 27.9103 11.2381 27.9462C11.2395 27.9697 11.2408 27.9977 11.2424 28.029C11.2475 28.1348 11.2545 28.2779 11.2691 28.4096C11.2886 28.5862 11.3275 28.8154 11.4282 29.039C11.5388 29.2848 11.7368 29.4024 11.8449 29.4529C11.9603 29.5068 12.0731 29.5314 12.1527 29.5445C12.3144 29.5711 12.4878 29.5728 12.6233 29.5697C12.7662 29.5664 12.9078 29.5565 13.0155 29.5484C13.0356 29.5468 13.0538 29.5454 13.0707 29.5442C13.102 29.5418 13.1284 29.5397 13.1531 29.538C13.1874 29.5356 13.1998 29.5352 13.1998 29.5351C13.1998 29.5351 13.1991 29.5351 13.198 29.5351C13.512 29.5351 13.8299 29.5369 14.1502 29.5387C14.9033 29.5428 15.6693 29.5471 16.4279 29.5287C17.5305 29.5019 18.6143 29.3668 19.6933 29.0991C19.7677 29.0807 19.8465 29.0637 19.9404 29.0434L19.9573 29.0397C20.0543 29.0188 20.1656 28.9946 20.2783 28.9658C20.4999 28.9091 20.771 28.8242 21.0257 28.6696C21.4224 28.4287 21.5219 28.0451 21.5418 27.7966C21.5511 27.6804 21.5457 27.5718 21.5417 27.5019C21.5403 27.4777 21.5391 27.4579 21.5381 27.4411C21.5355 27.3975 21.5341 27.3744 21.5341 27.3495C21.5341 26.3682 21.6267 25.5933 21.9431 24.6859C21.9682 24.6139 22.0001 24.4891 22.0263 24.3865C22.0307 24.3694 22.0349 24.3529 22.0389 24.3373C22.0738 24.2021 22.1136 24.051 22.1569 23.9088C22.1574 23.9071 22.1579 23.9055 22.1584 23.9039C22.2998 23.9239 22.4512 23.9375 22.5791 23.9489C22.6214 23.9527 22.661 23.9563 22.697 23.9598C22.8658 23.9762 22.9936 23.9938 23.1014 24.0221C23.4752 24.1205 23.886 24.3806 24.2999 24.691C24.7824 25.0529 25.3101 25.1756 25.8335 25.0702C26.3201 24.9723 26.7259 24.6925 27.0423 24.4065C27.519 23.9756 27.9568 23.3644 28.2649 22.9344C28.3503 22.8151 28.4258 22.7097 28.4893 22.626C28.5419 22.5568 28.6017 22.4831 28.6736 22.3945C28.6938 22.3695 28.715 22.3434 28.7373 22.3158C28.8334 22.1969 28.9428 22.0595 29.047 21.914C29.242 21.6417 29.4835 21.2555 29.5507 20.8188C29.5677 20.7082 29.5766 20.5591 29.5331 20.3965C29.4852 20.2174 29.3902 20.0819 29.2882 19.9841C29.2077 19.9069 29.1216 19.8536 29.089 19.8335L29.0847 19.8308C29.0777 19.8265 29.0716 19.8227 29.0661 19.8193C29.0369 19.8012 29.0274 19.7954 29.0149 19.7863C28.4422 19.3719 27.8198 18.9755 27.2201 18.5937C26.8755 18.3743 26.5384 18.1596 26.2226 17.9491C26.1313 17.8882 26.0371 17.8384 25.972 17.8043C25.9596 17.7978 25.948 17.7918 25.9371 17.7861C25.8833 17.758 25.8476 17.7393 25.8137 17.7194C25.5278 16.8761 25.392 15.9758 25.5394 15.2127C25.5563 15.2025 25.5756 15.1913 25.6002 15.1772C25.6058 15.174 25.6119 15.1706 25.6183 15.1669C25.6388 15.1552 25.6627 15.1416 25.686 15.1281C26.2353 14.8088 26.7431 14.4277 27.214 14.0742C27.3318 13.9858 27.4473 13.8991 27.5605 13.8156C27.6019 13.7851 27.6604 13.7447 27.7303 13.6964C27.9689 13.5317 28.3409 13.2749 28.6226 13.0025C28.9865 12.6504 29.4748 12.0188 29.2413 11.2016C29.2346 11.1782 29.2324 11.1608 29.2251 11.103C29.2219 11.0774 29.2176 11.0438 29.2116 10.9983C29.196 10.8817 29.1661 10.6805 29.062 10.4724C28.8903 10.129 28.6258 9.76402 28.4343 9.51428C28.2459 9.26859 28.0863 9.04355 27.9186 8.80726C27.7833 8.61642 27.6427 8.41825 27.4775 8.19592C27.1393 7.74054 26.7577 7.27121 26.2934 6.86136C26.1232 6.71112 25.9178 6.5694 25.6699 6.50277C25.3963 6.42924 25.1454 6.46643 24.9341 6.55363C24.7505 6.62938 24.5964 6.74406 24.4966 6.82007C24.459 6.84873 24.4255 6.87479 24.3937 6.89946C24.3232 6.95427 24.2614 7.00221 24.1833 7.0566C23.8558 7.28453 23.5202 7.49946 23.1709 7.72312C23.09 7.7749 23.0084 7.82714 22.926 7.88012C22.4946 8.15753 22.048 8.45104 21.6193 8.77787C21.6046 8.78913 21.5852 8.80349 21.5623 8.82043C21.463 8.89393 21.298 9.01607 21.1605 9.14451C21.1515 9.15288 21.1423 9.16164 21.1328 9.17077C21.041 9.11301 20.9507 9.05798 20.8637 9.00533C20.8387 8.99018 20.8141 8.97525 20.7897 8.96051C20.621 8.85848 20.4667 8.76517 20.3161 8.66561C20.3089 8.66088 20.3023 8.65642 20.2962 8.65224C20.2964 8.63407 20.2967 8.61332 20.2971 8.58868L20.2972 8.58473C20.298 8.53793 20.299 8.48086 20.299 8.41767V5.61689C20.299 5.60461 20.2999 5.5776 20.3013 5.54039C20.3059 5.40859 20.3151 5.14881 20.3024 4.96237C20.2855 4.71424 20.2247 4.24908 19.8638 3.92098C19.4852 3.57677 19.0198 3.31945 18.5149 3.19137C17.7455 2.99623 16.9363 2.99858 16.2503 3.00058C16.1564 3.00085 16.0647 3.00111 15.9758 3.00086C15.1322 2.9985 14.277 2.99895 13.4188 3.02938C13.4226 3.02925 13.4221 3.02924 13.4149 3.029C13.4051 3.02869 13.3829 3.02797 13.342 3.02602C13.3227 3.0251 13.2984 3.02387 13.2714 3.0225C13.2247 3.02014 13.1697 3.01736 13.1171 3.01498C12.9422 3.00706 12.7143 2.9995 12.491 3.00753C12.2877 3.01483 12.0078 3.03648 11.7685 3.12409C11.6518 3.16684 11.454 3.25691 11.3046 3.45241C11.1211 3.69255 11.0893 3.98568 11.1705 4.24297C11.4303 5.06551 11.6324 5.88637 11.8412 6.73398C11.9324 7.10406 12.0248 7.47924 12.1238 7.86189C12.1893 8.11516 12.2461 8.37027 12.3061 8.63961C12.3256 8.72711 12.3454 8.81611 12.366 8.90704Z" stroke="black" stroke-width="0.5" stroke-linecap="round"/>
<path fill-rule="evenodd" clip-rule="evenodd" d="M16.4554 12.9557C16.3192 12.8602 16.1494 12.8112 15.9709 12.829C15.6689 12.8592 15.3151 12.9585 15.0669 13.0281C14.9955 13.0481 14.9327 13.0657 14.8825 13.0785C13.9778 13.3088 13.4 13.8976 13.0054 14.5939C12.5278 15.4368 12.4597 16.3441 12.4597 17.1382C12.4597 18.0547 12.6962 18.7399 13.2273 19.4703C14.2425 20.8661 15.8782 20.8779 17.1349 20.526C18.7052 20.0863 19.31 18.7431 19.5356 17.5146C19.6415 16.9382 19.6816 16.4225 19.6816 15.8469C19.6816 15.7049 19.681 15.4834 19.6416 15.258C19.6022 15.0328 19.5134 14.7358 19.2866 14.4818C19.0875 14.2587 18.8751 14.0824 18.6848 13.9338C18.6135 13.8781 18.5492 13.8291 18.4886 13.7829C18.3739 13.6954 18.2727 13.6183 18.1636 13.526C17.6715 13.1096 17.1516 12.9848 16.6739 12.9606C16.6003 12.9568 16.5272 12.9554 16.4554 12.9557ZM15.4049 14.4293C15.3523 14.4437 15.2967 14.4584 15.2376 14.4735C14.8179 14.5803 14.52 14.8408 14.2578 15.3035C13.9705 15.8105 13.8991 16.4048 13.8991 17.1382C13.8991 17.7369 14.031 18.128 14.3915 18.6236C14.8796 19.2948 15.7218 19.4268 16.7467 19.1399C17.5294 18.9207 17.9335 18.2689 18.1199 17.2546C18.208 16.7746 18.2421 16.3468 18.2421 15.8469C18.2421 15.7009 18.2391 15.5941 18.2237 15.506C18.2159 15.4618 18.2077 15.4392 18.2042 15.4309C18.0923 15.3072 17.9615 15.1954 17.7987 15.0681C17.7547 15.0338 17.7049 14.9958 17.6515 14.955C17.5215 14.8558 17.3707 14.7407 17.2338 14.6248C17.0478 14.4674 16.8612 14.4114 16.6009 14.3982C16.4587 14.3909 16.3045 14.3972 16.1124 14.408C16.0882 14.4094 16.0634 14.4108 16.0379 14.4123C15.8715 14.422 15.6779 14.4333 15.4811 14.4333C15.4554 14.4333 15.43 14.432 15.4049 14.4293Z" fill="black" stroke="black" stroke-width="0.5" stroke-linecap="round"/>
</svg>
