<svg width="32" height="32" viewBox="0 0 32 32" fill="none" xmlns="http://www.w3.org/2000/svg">
<g clip-path="url(#clip0_153_1279)">
<path fill-rule="evenodd" clip-rule="evenodd" d="M15.9905 31.9905C14.8082 32.0113 13.4603 32.0349 12.176 31.6999C11.5722 31.5425 10.9777 31.4276 10.3493 31.3062C10.0411 31.2466 9.7247 31.1855 9.3951 31.117C9.10966 31.0577 8.80269 30.9811 8.52112 30.9108C8.37677 30.8748 8.23909 30.8404 8.11442 30.8109C7.71378 30.7161 7.35625 30.6469 7.00965 30.6244C5.86751 30.5504 4.71997 30.5505 3.53235 30.5505L3.46608 30.5505C3.44805 30.5505 3.42911 30.5506 3.40934 30.5506C2.99545 30.5524 2.21474 30.5558 1.63022 29.8418C1.32302 29.4666 1.15844 29.0139 1.06278 28.7508C1.04695 28.7072 1.03301 28.6689 1.02062 28.6369C0.83882 28.1681 0.769394 27.7324 0.72567 27.3569C0.710094 27.2231 0.698244 27.1055 0.687241 26.9962C0.664709 26.7725 0.645725 26.5841 0.605581 26.3648C0.498116 25.7777 0.509888 25.1475 0.519169 24.6508C0.521549 24.5234 0.523766 24.4048 0.523766 24.2979C0.523766 23.9428 0.496094 23.5838 0.463715 23.1817L0.460367 23.1402C0.429819 22.7613 0.395977 22.3417 0.392849 21.9139C0.387693 21.2087 0.358477 20.5049 0.328423 19.7809L0.324041 19.6753C0.292759 18.9203 0.261879 18.1439 0.261879 17.359C0.261879 16.8215 0.276537 16.3078 0.290754 15.8095C0.320532 14.7658 0.348381 13.7897 0.235624 12.8041C0.197222 12.4685 0.190168 12.1368 0.184212 11.8567C0.183819 11.8383 0.183432 11.82 0.183041 11.802C0.176338 11.4941 0.16851 11.2429 0.136209 11.0025C0.0421581 10.3026 -7.62939e-06 9.64775 -7.62939e-06 8.93766C-7.62939e-06 8.57368 0.0173607 8.2147 0.0333996 7.88316L0.0338974 7.87288C0.0504608 7.53047 0.0654659 7.21643 0.0654659 6.90575C0.0654659 6.7968 0.0621929 6.68206 0.0580025 6.55131L0.0567074 6.51114C0.0529537 6.39519 0.04879 6.26649 0.0472946 6.13753C0.0439663 5.85075 0.0523815 5.50974 0.120123 5.16037C0.168945 4.90857 0.178709 4.62197 0.171534 4.27034C0.169622 4.1767 0.166069 4.07084 0.162291 3.95821C0.153496 3.69614 0.143473 3.39746 0.150045 3.13101C0.170368 2.30712 0.346727 1.26539 1.36922 0.530258C1.64801 0.329821 1.99496 0.23945 2.21528 0.191008C2.47511 0.133877 2.76133 0.0953388 3.02794 0.0685406C3.56292 0.0147705 4.10409 8.39233e-05 4.37905 8.39233e-05H16.2039C18.1935 8.39233e-05 20.146 0.0475636 22.1762 0.353346C22.5 0.402126 22.8293 0.449547 23.1626 0.497538C24.722 0.722086 26.3681 0.959116 27.9483 1.4063C28.0616 1.43837 28.2126 1.46782 28.4392 1.51201C28.4643 1.51689 28.4902 1.52194 28.5171 1.5272C28.7631 1.57528 29.0678 1.63669 29.3678 1.72468C29.8788 1.87456 30.8038 2.21548 31.1293 3.14324C31.2957 3.61752 31.337 4.08964 31.3453 4.49168C31.3495 4.69413 31.3453 4.89232 31.3408 5.07038C31.3401 5.09907 31.3393 5.12712 31.3386 5.1546C31.3347 5.3043 31.3312 5.43733 31.3312 5.56842V8.31219C31.3312 9.0415 31.3599 9.77304 31.3912 10.525C31.3929 10.5679 31.3947 10.6109 31.3965 10.654C31.4259 11.3591 31.4561 12.0833 31.4621 12.8101C31.4659 13.2681 31.5075 13.6586 31.5544 14.0988C31.584 14.3758 31.6156 14.6725 31.6413 15.0182C31.6747 15.4691 31.6756 15.9171 31.6764 16.3242C31.6765 16.3563 31.6765 16.3881 31.6766 16.4196C31.6777 16.8653 31.6818 17.2658 31.7194 17.6572C32.0252 20.8357 32.0089 24.0262 31.993 27.1621C31.9894 27.8575 31.9859 28.5502 31.9859 29.2395C31.9859 29.4374 31.9284 29.6219 31.8292 29.7772C31.8102 29.8585 31.7806 29.9388 31.7399 30.0162C31.5468 30.3832 31.2183 30.5301 31.0848 30.5824C30.923 30.6457 30.7633 30.6761 30.6604 30.6929C30.5696 30.7077 30.4744 30.719 30.4106 30.7265C30.3993 30.7279 30.3891 30.7291 30.38 30.7302C30.3334 30.7358 30.3118 30.7391 30.3061 30.7399C30.1015 30.7929 29.8872 30.8326 29.7177 30.864C29.6734 30.8722 29.6322 30.8799 29.595 30.887C29.3866 30.9271 29.2404 30.9625 29.1149 31.0113C28.8091 31.1301 28.5077 31.1658 28.3013 31.1853C28.2137 31.1936 28.1445 31.1992 28.086 31.2039C27.9757 31.2128 27.9039 31.2187 27.8201 31.2334C27.691 31.2561 27.5726 31.2815 27.4357 31.311C27.3806 31.3228 27.3226 31.3353 27.2597 31.3485C27.054 31.3916 26.8166 31.4376 26.5563 31.4644C26.3769 31.4829 26.184 31.5053 25.9838 31.5285C25.5821 31.5752 25.1511 31.6253 24.7411 31.6539C24.3999 31.6776 24.0485 31.6742 23.7463 31.6712C23.6697 31.6704 23.5963 31.6697 23.527 31.6694C23.1578 31.6681 22.8551 31.6785 22.5746 31.7298C20.9713 32.0232 19.3354 32.0053 17.8067 31.9886C17.4591 31.9848 17.1171 31.9811 16.7822 31.9811C16.5291 31.9811 16.2643 31.9857 15.9905 31.9905Z" fill="#FFD686"/>
<path fill-rule="evenodd" clip-rule="evenodd" d="M21.2259 9.00519C20.9991 9.00817 20.7645 9.01125 20.5172 9.01125H7.31714C6.76485 9.01125 6.31714 8.56354 6.31714 8.01125C6.31714 7.45897 6.76485 7.01125 7.31714 7.01125H20.5172C20.7075 7.01125 20.9097 7.00864 21.1193 7.00593C21.6521 6.99905 22.2326 6.99156 22.7864 7.02478C23.0476 7.04046 23.3072 7.07334 23.5278 7.10128C23.5682 7.10639 23.6073 7.11134 23.6448 7.11599C23.9037 7.14805 24.1157 7.16969 24.3196 7.16969C24.7525 7.16969 25.1077 7.21636 25.476 7.27675C25.5308 7.28573 25.5812 7.29564 25.619 7.30319C25.6284 7.30507 25.6369 7.30677 25.6447 7.30833C25.6722 7.31385 25.6911 7.31763 25.7111 7.3213C25.7373 7.3261 25.7502 7.32769 25.7542 7.32814C26.3038 7.3312 26.7485 7.77773 26.7485 8.32812C26.7485 8.88041 26.3008 9.32812 25.7485 9.32812C25.5857 9.32812 25.4457 9.30598 25.3503 9.28849C25.2777 9.27517 25.2481 9.26887 25.226 9.26418C25.2049 9.25969 25.1908 9.25668 25.1525 9.2504C24.8312 9.19773 24.5968 9.16969 24.3196 9.16969C23.9838 9.16969 23.6676 9.13408 23.3991 9.10084C23.3513 9.09493 23.3054 9.08914 23.261 9.08355C23.0403 9.05575 22.8562 9.03257 22.6666 9.02119C22.189 8.99254 21.7265 8.99861 21.2259 9.00519Z" fill="black"/>
<path fill-rule="evenodd" clip-rule="evenodd" d="M10.8539 14.3346C9.56584 14.3203 8.32173 14.3064 7.07129 14.3958C6.52041 14.4351 6.04193 14.0204 6.00258 13.4695C5.96324 12.9187 6.37791 12.4402 6.9288 12.4008C8.26811 12.3052 9.63587 12.3204 10.9509 12.3351C11.4209 12.3403 11.8842 12.3455 12.337 12.3455H25.3258C25.878 12.3455 26.3258 12.7932 26.3258 13.3455C26.3258 13.8978 25.878 14.3455 25.3258 14.3455H12.337C11.8345 14.3455 11.3411 14.34 10.8539 14.3346Z" fill="black"/>
<path fill-rule="evenodd" clip-rule="evenodd" d="M22.4397 19.3607C21.6287 19.3581 20.8327 19.3556 20.0325 19.374C16.2218 19.4618 12.4044 19.521 8.58738 19.521C8.55021 19.521 8.49953 19.524 8.3925 19.5305L8.38303 19.5311C8.28564 19.5369 8.15194 19.5447 8.01245 19.5439C7.78886 19.5427 7.29117 19.5272 6.8754 19.2153C6.43357 18.884 6.34403 18.2572 6.6754 17.8153C6.97954 17.4098 7.53256 17.3011 7.963 17.5421C7.97922 17.5431 7.99919 17.5438 8.02347 17.544C8.09011 17.5443 8.16479 17.5406 8.2624 17.5347C8.27123 17.5342 8.28062 17.5336 8.29049 17.533C8.37168 17.528 8.48535 17.521 8.58738 17.521C12.3842 17.521 16.1853 17.4621 19.9864 17.3745C20.8151 17.3554 21.6494 17.3581 22.468 17.3607C22.7499 17.3616 23.0299 17.3625 23.3072 17.3625H25.4843C26.0365 17.3625 26.4843 17.8102 26.4843 18.3625C26.4843 18.9148 26.0365 19.3625 25.4843 19.3625H23.3072C23.0156 19.3625 22.7267 19.3616 22.4397 19.3607Z" fill="black"/>
<path fill-rule="evenodd" clip-rule="evenodd" d="M7.16211 23.5908C7.16211 23.0385 7.60982 22.5908 8.16211 22.5908C8.5036 22.5908 8.82262 22.6434 9.07377 22.6887C9.12952 22.6987 9.18146 22.7083 9.23045 22.7173C9.4246 22.753 9.57221 22.7802 9.72531 22.795C10.7474 22.8938 11.8146 22.8827 12.8969 22.8438C13.3553 22.8273 13.8092 22.7905 14.2889 22.7515C14.3714 22.7448 14.4547 22.7381 14.5389 22.7313C15.1017 22.6863 15.6969 22.6436 16.3069 22.6436H18.9123C19.9808 22.6436 21.0561 22.6305 22.1372 22.6173L22.1441 22.6172C23.2208 22.6041 24.3034 22.5908 25.3788 22.5908C25.9311 22.5908 26.3788 23.0385 26.3788 23.5908C26.3788 24.1431 25.9311 24.5908 25.3788 24.5908C24.3157 24.5908 23.2433 24.6039 22.1624 24.6171C21.0834 24.6303 19.9951 24.6436 18.9123 24.6436H16.3069C15.7831 24.6436 15.2565 24.6804 14.6983 24.725C14.6191 24.7313 14.5391 24.7378 14.4584 24.7444C13.9805 24.7832 13.4761 24.8243 12.9687 24.8425C11.8642 24.8822 10.6903 24.8976 9.5329 24.7857C9.28537 24.7618 9.03361 24.7151 8.83435 24.6781C8.79359 24.6706 8.75503 24.6634 8.71915 24.657C8.48232 24.6143 8.31279 24.5908 8.16211 24.5908C7.60982 24.5908 7.16211 24.1431 7.16211 23.5908Z" fill="black"/>
<path fill-rule="evenodd" clip-rule="evenodd" d="M15.9905 31.9905C14.8082 32.0113 13.4603 32.0349 12.176 31.6999C11.5722 31.5425 10.9777 31.4276 10.3493 31.3062C10.0411 31.2466 9.7247 31.1855 9.3951 31.117C9.10966 31.0577 8.80269 30.9811 8.52112 30.9108C8.37677 30.8748 8.23909 30.8404 8.11442 30.8109C7.71378 30.7161 7.35625 30.6469 7.00965 30.6244C5.86751 30.5504 4.71997 30.5505 3.53235 30.5505L3.46608 30.5505C3.44805 30.5505 3.42911 30.5506 3.40934 30.5506C2.99545 30.5524 2.21474 30.5558 1.63022 29.8418C1.32302 29.4666 1.15844 29.0139 1.06278 28.7508C1.04695 28.7072 1.03301 28.6689 1.02062 28.6369C0.83882 28.1681 0.769394 27.7324 0.72567 27.3569C0.710094 27.2231 0.698244 27.1055 0.687241 26.9962C0.664709 26.7725 0.645725 26.5841 0.605581 26.3648C0.498116 25.7777 0.509888 25.1475 0.519169 24.6508C0.521549 24.5234 0.523766 24.4048 0.523766 24.2979C0.523766 23.9428 0.496094 23.5838 0.463715 23.1817L0.460367 23.1402C0.429819 22.7613 0.395977 22.3417 0.392849 21.9139C0.387693 21.2087 0.358477 20.5049 0.328423 19.7809L0.324041 19.6753C0.292759 18.9203 0.261879 18.1439 0.261879 17.359C0.261879 16.8215 0.276537 16.3078 0.290754 15.8095C0.320532 14.7658 0.348381 13.7897 0.235624 12.8041C0.197222 12.4685 0.190168 12.1368 0.184212 11.8567C0.183819 11.8383 0.183432 11.82 0.183041 11.802C0.176338 11.4941 0.16851 11.2429 0.136209 11.0025C0.0421581 10.3026 -7.62939e-06 9.64775 -7.62939e-06 8.93766C-7.62939e-06 8.57368 0.0173607 8.2147 0.0333996 7.88316L0.0338974 7.87288C0.0504608 7.53047 0.0654659 7.21643 0.0654659 6.90575C0.0654659 6.7968 0.0621929 6.68206 0.0580025 6.55131L0.0567074 6.51114C0.0529537 6.39519 0.04879 6.26649 0.0472946 6.13753C0.0439663 5.85075 0.0523815 5.50974 0.120123 5.16037C0.168945 4.90857 0.178709 4.62197 0.171534 4.27034C0.169622 4.1767 0.166069 4.07084 0.162291 3.95821C0.153496 3.69614 0.143473 3.39746 0.150045 3.13101C0.170368 2.30712 0.346727 1.26539 1.36922 0.530258C1.64801 0.329821 1.99496 0.23945 2.21528 0.191008C2.47511 0.133877 2.76133 0.0953388 3.02794 0.0685406C3.56292 0.0147705 4.10409 8.39233e-05 4.37905 8.39233e-05H16.2039C18.1935 8.39233e-05 20.146 0.0475636 22.1762 0.353346C22.5 0.402126 22.8293 0.449547 23.1626 0.497538C24.722 0.722086 26.3681 0.959116 27.9483 1.4063C28.0616 1.43837 28.2126 1.46782 28.4392 1.51201C28.4643 1.51689 28.4902 1.52194 28.5171 1.5272C28.7631 1.57528 29.0678 1.63669 29.3678 1.72468C29.8788 1.87456 30.8038 2.21548 31.1293 3.14324C31.2957 3.61752 31.337 4.08964 31.3453 4.49168C31.3495 4.69413 31.3453 4.89232 31.3408 5.07038C31.3401 5.09907 31.3393 5.12712 31.3386 5.1546C31.3347 5.3043 31.3312 5.43733 31.3312 5.56842V8.31219C31.3312 9.0415 31.3599 9.77304 31.3912 10.525C31.3929 10.5679 31.3947 10.6109 31.3965 10.654C31.4259 11.3591 31.4561 12.0833 31.4621 12.8101C31.4659 13.2681 31.5075 13.6586 31.5544 14.0988C31.584 14.3758 31.6156 14.6725 31.6413 15.0182C31.6747 15.4691 31.6756 15.9171 31.6764 16.3242C31.6765 16.3563 31.6765 16.3881 31.6766 16.4196C31.6777 16.8653 31.6818 17.2658 31.7194 17.6572C32.0252 20.8357 32.0089 24.0262 31.993 27.1621C31.9894 27.8575 31.9859 28.5502 31.9859 29.2395C31.9859 29.4374 31.9284 29.6219 31.8292 29.7772C31.8102 29.8585 31.7806 29.9388 31.7399 30.0162C31.5468 30.3832 31.2183 30.5301 31.0848 30.5824C30.923 30.6457 30.7633 30.6761 30.6604 30.6929C30.5696 30.7077 30.4744 30.719 30.4106 30.7265C30.3993 30.7279 30.3891 30.7291 30.38 30.7302C30.3334 30.7358 30.3118 30.7391 30.3061 30.7399C30.1015 30.7929 29.8872 30.8326 29.7177 30.864C29.6734 30.8722 29.6322 30.8799 29.595 30.887C29.3866 30.9271 29.2404 30.9625 29.1149 31.0113C28.8091 31.1301 28.5077 31.1658 28.3013 31.1853C28.2137 31.1936 28.1445 31.1992 28.086 31.2039C27.9757 31.2128 27.9039 31.2187 27.8201 31.2334C27.691 31.2561 27.5726 31.2815 27.4357 31.311C27.3806 31.3228 27.3226 31.3353 27.2597 31.3485C27.054 31.3916 26.8166 31.4376 26.5563 31.4644C26.3769 31.4829 26.184 31.5053 25.9838 31.5285C25.5821 31.5752 25.1511 31.6253 24.7411 31.6539C24.3999 31.6776 24.0485 31.6742 23.7463 31.6712C23.6697 31.6704 23.5963 31.6697 23.527 31.6694C23.1578 31.6681 22.8551 31.6785 22.5746 31.7298C20.9713 32.0232 19.3354 32.0053 17.8067 31.9886C17.4591 31.9848 17.1171 31.9811 16.7822 31.9811C16.5291 31.9811 16.2643 31.9857 15.9905 31.9905ZM29.9864 28.7656C29.9875 28.2132 29.9902 27.663 29.9929 27.1148C30.0085 23.9843 30.0238 20.9168 29.7286 17.8487C29.6809 17.3528 29.6777 16.8659 29.6766 16.4247C29.6766 16.3977 29.6765 16.3708 29.6764 16.3442C29.6755 15.9217 29.6746 15.5422 29.6467 15.1661C29.6309 14.9525 29.606 14.7121 29.5795 14.4566C29.5262 13.9418 29.4666 13.366 29.4622 12.8266C29.4565 12.1344 29.4276 11.4413 29.3979 10.7283C29.3962 10.6883 29.3946 10.6482 29.3929 10.608C29.3618 9.85888 29.3312 9.08849 29.3312 8.31219V5.56842C29.3312 5.40867 29.3355 5.24545 29.3394 5.09655C29.3401 5.07037 29.3408 5.04462 29.3414 5.01942C29.3459 4.84395 29.3489 4.68561 29.3457 4.53303C29.3397 4.24245 29.3114 4.01959 29.2529 3.83769C29.2321 3.82112 29.1318 3.73969 28.805 3.64385C28.6024 3.58446 28.3787 3.538 28.1334 3.49005C28.107 3.48489 28.0797 3.4796 28.0517 3.47418C27.8462 3.43435 27.604 3.38742 27.4037 3.33072C25.9637 2.92322 24.4772 2.70855 22.9232 2.48413C22.5783 2.43432 22.2301 2.38403 21.8783 2.33104C20.0004 2.0482 18.1691 2.00008 16.2039 2.00008H4.37905C4.15337 2.00008 3.68106 2.01297 3.22795 2.05852C3.00051 2.08138 2.79903 2.11043 2.64477 2.14435C2.56436 2.16203 2.51843 2.17653 2.49788 2.18337C2.26338 2.36868 2.16328 2.61907 2.14944 3.18032C2.14428 3.38958 2.15102 3.58486 2.15885 3.81125C2.16324 3.93823 2.16796 4.07501 2.17112 4.22954C2.17907 4.61947 2.17361 5.0766 2.08356 5.54107C2.05416 5.69266 2.04439 5.87561 2.04716 6.11432C2.0484 6.22136 2.05187 6.32895 2.05571 6.44793L2.05698 6.48726C2.06115 6.61735 2.06547 6.76115 2.06547 6.90575C2.06547 7.26879 2.04812 7.6272 2.0321 7.95844L2.03156 7.96952C2.015 8.31185 1.99999 8.62628 1.99999 8.93766C1.99999 9.56216 2.03666 10.1279 2.11839 10.7362C2.16759 11.1023 2.17605 11.4589 2.18257 11.7585L2.18314 11.7848C2.18974 12.0891 2.1951 12.3359 2.22266 12.5768C2.352 13.7073 2.31816 14.9231 2.28715 16.037C2.27427 16.4997 2.26188 16.9449 2.26188 17.359C2.26188 18.0969 2.29091 18.8344 2.32233 19.5925L2.32712 19.7081C2.35685 20.4236 2.38738 21.1588 2.3928 21.8993C2.39538 22.2527 2.42404 22.6086 2.45628 23.009L2.45726 23.0212C2.48889 23.4139 2.52377 23.8504 2.52377 24.2979C2.52377 24.4856 2.52095 24.6566 2.51834 24.8156C2.5108 25.2743 2.5049 25.6332 2.57289 26.0046C2.62822 26.3069 2.66021 26.6227 2.68616 26.8789C2.69535 26.9697 2.70379 27.053 2.71225 27.1256C2.74828 27.435 2.79338 27.6767 2.88532 27.9138C2.92145 28.007 2.95105 28.0851 2.97621 28.1515C3.0577 28.3666 3.09266 28.4589 3.15232 28.5418C3.16624 28.5433 3.18409 28.5449 3.20661 28.5462C3.27254 28.5499 3.34973 28.5505 3.46608 28.5505L3.55883 28.5505C4.72727 28.5504 5.93124 28.5504 7.13893 28.6286C7.65289 28.6619 8.13832 28.7613 8.5751 28.8647C8.75335 28.9069 8.91448 28.9472 9.06805 28.9857C9.31903 29.0486 9.5498 29.1064 9.80205 29.1589C10.0725 29.2151 10.3574 29.2702 10.65 29.3268C11.3124 29.455 12.0147 29.591 12.6807 29.7647C13.674 30.0237 14.6759 30.0084 15.8317 29.9906C16.1369 29.986 16.4529 29.9811 16.7822 29.9811C17.165 29.9811 17.5393 29.9849 17.9067 29.9886C19.4212 30.0038 20.8189 30.0178 22.2146 29.7625C22.6861 29.6762 23.1426 29.6681 23.5341 29.6694C23.6311 29.6698 23.7227 29.6706 23.8104 29.6714C24.1007 29.6741 24.3478 29.6764 24.602 29.6587C24.9704 29.633 25.3147 29.5928 25.6836 29.5497C25.8951 29.525 26.1146 29.4993 26.3513 29.4749C26.5068 29.4589 26.6635 29.43 26.8492 29.391C26.8911 29.3822 26.9363 29.3725 26.984 29.3623C27.1322 29.3304 27.3044 29.2934 27.4736 29.2636C27.6558 29.2316 27.8685 29.2143 28.012 29.2027C28.0517 29.1995 28.0861 29.1967 28.1131 29.1942C28.2842 29.178 28.3553 29.1607 28.3903 29.1471C28.6912 29.0302 28.9835 28.968 29.2169 28.9231C29.2831 28.9103 29.3431 28.8992 29.3986 28.8888C29.5594 28.8589 29.6831 28.8359 29.8141 28.8013C29.8794 28.784 29.9408 28.7729 29.9864 28.7656Z" fill="black"/>
</g>
<defs>
<clipPath id="clip0_153_1279">
<rect width="32" height="32" fill="white"/>
</clipPath>
</defs>
</svg>
