<svg width="38" height="25" viewBox="0 0 38 25" fill="none" xmlns="http://www.w3.org/2000/svg">
<rect x="1" y="1" width="36" height="23" rx="2" fill="#FFD686" stroke="black" stroke-width="2"/>
<path fill-rule="evenodd" clip-rule="evenodd" d="M25 12L28.7279 15.4483L32.4558 12H25Z" fill="#505050"/>
<path d="M14.7438 9.872C14.4478 9.72 14.1238 9.588 13.7718 9.476C13.4198 9.364 13.0758 9.308 12.7398 9.308C12.2758 9.308 11.9038 9.416 11.6238 9.632C11.3518 9.848 11.2158 10.136 11.2158 10.496C11.2158 10.768 11.3038 11 11.4798 11.192C11.6558 11.376 11.8878 11.536 12.1758 11.672C12.4638 11.808 12.7638 11.936 13.0758 12.056C13.3478 12.16 13.6158 12.276 13.8798 12.404C14.1438 12.532 14.3798 12.692 14.5878 12.884C14.8038 13.076 14.9718 13.312 15.0918 13.592C15.2198 13.872 15.2838 14.22 15.2838 14.636C15.2838 15.092 15.1678 15.508 14.9358 15.884C14.7118 16.26 14.3878 16.556 13.9638 16.772C13.5398 16.988 13.0358 17.096 12.4518 17.096C12.0678 17.096 11.6998 17.052 11.3478 16.964C11.0038 16.876 10.6838 16.764 10.3878 16.628C10.0918 16.484 9.82781 16.336 9.59581 16.184L10.1118 15.272C10.3038 15.408 10.5238 15.54 10.7718 15.668C11.0198 15.788 11.2798 15.888 11.5518 15.968C11.8238 16.04 12.0878 16.076 12.3438 16.076C12.6158 16.076 12.8838 16.028 13.1478 15.932C13.4198 15.828 13.6438 15.672 13.8198 15.464C13.9958 15.256 14.0838 14.98 14.0838 14.636C14.0838 14.34 14.0038 14.096 13.8438 13.904C13.6918 13.704 13.4878 13.536 13.2318 13.4C12.9758 13.256 12.7038 13.128 12.4158 13.016C12.1438 12.912 11.8678 12.8 11.5878 12.68C11.3078 12.552 11.0478 12.4 10.8078 12.224C10.5678 12.04 10.3758 11.816 10.2318 11.552C10.0878 11.288 10.0158 10.968 10.0158 10.592C10.0158 10.136 10.1238 9.74 10.3398 9.404C10.5638 9.06 10.8678 8.792 11.2518 8.6C11.6358 8.4 12.0758 8.292 12.5718 8.276C13.1318 8.276 13.6238 8.344 14.0478 8.48C14.4798 8.616 14.8598 8.784 15.1878 8.984L14.7438 9.872Z" fill="black"/>
</svg>
