<svg width="32" height="32" viewBox="0 0 32 32" fill="none" xmlns="http://www.w3.org/2000/svg">
<path d="M12 23V5C12 3.34315 13.3431 2 15 2H28C29.6569 2 31 3.34315 31 5V23C31 24.6569 29.6569 26 28 26H15C13.3431 26 12 24.6569 12 23Z" fill="#FF8686" stroke="black" stroke-width="2" stroke-linecap="round" stroke-linejoin="round"/>
<path d="M1 27V9C1 7.34315 2.34315 6 4 6H17C18.6569 6 20 7.34315 20 9V27C20 28.6569 18.6569 30 17 30H4C2.34315 30 1 28.6569 1 27Z" fill="#FF8686" stroke="black" stroke-width="2" stroke-linecap="round" stroke-linejoin="round"/>
<path d="M6 18.2381L9.63636 23L16 13" stroke="black" stroke-width="2" stroke-linecap="round"/>
</svg>
