<svg width="100" height="27" viewBox="0 0 100 27" fill="none" xmlns="http://www.w3.org/2000/svg">
<path d="M1.36719 13.3386C1.36719 9.92613 0.353007 5.94644 1.69564 2.5C1.85385 2.3431 3.99943 2.15411 4.45524 2.15411C6.17446 2.15411 7.98009 1.80453 9.60199 1.55494C15.1698 0.698153 21.5744 1.08893 27.3247 1.08893H88.9067C98.736 1.08893 98.736 1.91202 98.736 2.61378C98.736 3.50952 98.3987 8.9977 98.736 9.87578C98.736 11.4896 98.3797 12.9591 98.736 14.3137C99.0513 15.5123 99.5496 26.417 97.0463 25.9877H80.7734C63.2316 25.9877 57.4388 25.8545 39.9007 25.8545C29.6313 25.8545 19.364 25.8009 9.09477 25.7214C5.3319 25.6922 3.13963 24.4741 2.72474 22.7255C2.44666 21.5535 2.68674 20.34 2.38163 19.1675L2.36422 19.1006C1.86618 17.187 1.36719 15.2697 1.36719 13.3386Z" fill="#FF8686" stroke="black" stroke-width="2" stroke-linecap="round"/>
<path fill-rule="evenodd" clip-rule="evenodd" d="M86 13L89.7279 16.4483L93.4558 13H86Z" fill="#505050"/>
</svg>
