<svg width="100" height="27" viewBox="0 0 100 27" fill="none" xmlns="http://www.w3.org/2000/svg">
<path d="M1.36719 13.3386C1.36719 9.92613 0.353007 5.94644 1.69564 2.5C1.85385 2.3431 3.99943 2.15411 4.45524 2.15411C6.17446 2.15411 7.98009 1.80453 9.60199 1.55494C15.1698 0.698153 21.5744 1.08893 27.3247 1.08893H88.9067C98.736 1.08893 98.736 1.91202 98.736 2.61378C98.736 3.50952 98.3987 8.9977 98.736 9.87578C98.736 11.4896 98.3797 12.9591 98.736 14.3137C99.0513 15.5123 99.5496 26.417 97.0463 25.9877H80.7734C63.2316 25.9877 57.4388 25.8545 39.9007 25.8545C29.6313 25.8545 19.364 25.8009 9.09477 25.7214C5.3319 25.6922 3.13963 24.4741 2.72474 22.7255C2.44666 21.5535 2.68674 20.34 2.38163 19.1675L2.36422 19.1006C1.86618 17.187 1.36719 15.2697 1.36719 13.3386Z" fill="#FF8686" stroke="black" stroke-width="2" stroke-linecap="round"/>
<path fill-rule="evenodd" clip-rule="evenodd" d="M86 13L89.7279 16.4483L93.4558 13H86Z" fill="#505050"/>
<path d="M17.0715 18L20.8635 8.964H20.9355L24.7155 18H23.3835L20.5515 10.788L21.3795 10.248L18.2115 18H17.0715ZM19.2915 14.712H22.5195L22.9035 15.72H18.9555L19.2915 14.712ZM27.9724 18.12C27.5164 18.12 27.1004 18.012 26.7244 17.796C26.3564 17.572 26.0644 17.26 25.8484 16.86C25.6324 16.452 25.5244 15.984 25.5244 15.456C25.5244 14.904 25.6364 14.432 25.8604 14.04C26.0924 13.648 26.4044 13.348 26.7964 13.14C27.1884 12.932 27.6284 12.828 28.1164 12.828C28.5084 12.828 28.8804 12.912 29.2324 13.08C29.5924 13.248 29.8724 13.48 30.0724 13.776L30.0244 14.172V8.712H31.1284V18H30.0124V16.764L30.1324 17.076C29.9004 17.38 29.6004 17.632 29.2324 17.832C28.8644 18.024 28.4444 18.12 27.9724 18.12ZM28.3204 17.172C28.6164 17.172 28.8804 17.12 29.1124 17.016C29.3444 16.904 29.5364 16.752 29.6884 16.56C29.8404 16.368 29.9484 16.14 30.0124 15.876V14.94C29.9484 14.7 29.8324 14.492 29.6644 14.316C29.5044 14.132 29.3084 13.988 29.0764 13.884C28.8524 13.772 28.6004 13.716 28.3204 13.716C28.0164 13.716 27.7364 13.792 27.4804 13.944C27.2324 14.088 27.0324 14.288 26.8804 14.544C26.7284 14.8 26.6524 15.096 26.6524 15.432C26.6524 15.76 26.7284 16.056 26.8804 16.32C27.0324 16.576 27.2364 16.784 27.4924 16.944C27.7484 17.096 28.0244 17.172 28.3204 17.172ZM35.0857 18.144L32.3257 13.032H33.6457L35.5177 16.98L34.8337 16.956L36.5497 13.032H37.7977L35.1457 18.144H35.0857ZM40.8641 18.12C40.4001 18.12 39.9761 18.02 39.5921 17.82C39.2161 17.62 38.9161 17.328 38.6921 16.944C38.4761 16.552 38.3681 16.076 38.3681 15.516C38.3681 14.964 38.4841 14.488 38.7161 14.088C38.9481 13.68 39.2561 13.368 39.6401 13.152C40.0321 12.936 40.4601 12.828 40.9241 12.828C41.3881 12.828 41.7801 12.936 42.1001 13.152C42.4201 13.36 42.6641 13.608 42.8321 13.896L42.7601 14.088L42.8681 13.032H43.9001V18H42.7841V16.704L42.9041 16.992C42.8721 17.072 42.8001 17.176 42.6881 17.304C42.5841 17.424 42.4401 17.548 42.2561 17.676C42.0801 17.804 41.8761 17.912 41.6441 18C41.4121 18.08 41.1521 18.12 40.8641 18.12ZM41.1641 17.196C41.4441 17.196 41.6961 17.144 41.9201 17.04C42.1441 16.936 42.3281 16.792 42.4721 16.608C42.6241 16.416 42.7281 16.188 42.7841 15.924V14.952C42.7201 14.712 42.6081 14.504 42.4481 14.328C42.2881 14.144 42.0961 14.004 41.8721 13.908C41.6481 13.804 41.4001 13.752 41.1281 13.752C40.8321 13.752 40.5601 13.824 40.3121 13.968C40.0641 14.112 39.8641 14.312 39.7121 14.568C39.5681 14.824 39.4961 15.124 39.4961 15.468C39.4961 15.788 39.5721 16.08 39.7241 16.344C39.8761 16.608 40.0801 16.816 40.3361 16.968C40.5921 17.12 40.8681 17.196 41.1641 17.196ZM46.8274 13.032L46.9234 14.244L46.8754 14.052C47.0354 13.684 47.2954 13.392 47.6554 13.176C48.0154 12.952 48.4314 12.84 48.9034 12.84C49.3754 12.84 49.7594 12.98 50.0554 13.26C50.3594 13.532 50.5154 13.888 50.5234 14.328V18H49.3954V14.724C49.3874 14.452 49.3074 14.232 49.1554 14.064C49.0114 13.888 48.7834 13.8 48.4714 13.8C48.1834 13.8 47.9234 13.88 47.6914 14.04C47.4594 14.2 47.2754 14.42 47.1394 14.7C47.0114 14.98 46.9474 15.304 46.9474 15.672V18H45.8314V13.032H46.8274ZM56.4962 17.544C56.2722 17.72 56.0042 17.86 55.6922 17.964C55.3802 18.068 55.0682 18.12 54.7562 18.12C54.2122 18.12 53.7362 18.012 53.3282 17.796C52.9202 17.58 52.6002 17.28 52.3682 16.896C52.1442 16.504 52.0322 16.044 52.0322 15.516C52.0322 14.988 52.1522 14.528 52.3922 14.136C52.6402 13.744 52.9602 13.444 53.3522 13.236C53.7522 13.02 54.1802 12.912 54.6362 12.912C55.0362 12.912 55.3922 12.968 55.7042 13.08C56.0242 13.192 56.2962 13.344 56.5202 13.536L55.9682 14.256C55.8242 14.144 55.6482 14.044 55.4402 13.956C55.2322 13.868 54.9962 13.824 54.7322 13.824C54.4442 13.824 54.1762 13.9 53.9282 14.052C53.6882 14.196 53.4962 14.396 53.3522 14.652C53.2162 14.908 53.1482 15.196 53.1482 15.516C53.1482 15.82 53.2202 16.104 53.3642 16.368C53.5082 16.624 53.7082 16.828 53.9642 16.98C54.2202 17.124 54.5122 17.196 54.8402 17.196C55.0562 17.196 55.2522 17.164 55.4282 17.1C55.6122 17.036 55.7762 16.948 55.9202 16.836L56.4962 17.544ZM60.2408 18.12C59.6728 18.12 59.1848 18.008 58.7768 17.784C58.3688 17.552 58.0528 17.24 57.8288 16.848C57.6128 16.448 57.5048 15.992 57.5048 15.48C57.5048 14.992 57.6288 14.548 57.8768 14.148C58.1248 13.748 58.4568 13.428 58.8728 13.188C59.2888 12.948 59.7528 12.828 60.2648 12.828C60.9208 12.828 61.4648 13.02 61.8968 13.404C62.3288 13.788 62.6208 14.316 62.7728 14.988L58.6808 16.428L58.4168 15.768L61.7768 14.544L61.5368 14.7C61.4408 14.436 61.2808 14.208 61.0568 14.016C60.8328 13.816 60.5408 13.716 60.1808 13.716C59.8768 13.716 59.6048 13.792 59.3648 13.944C59.1248 14.088 58.9368 14.288 58.8008 14.544C58.6648 14.8 58.5968 15.092 58.5968 15.42C58.5968 15.764 58.6688 16.068 58.8128 16.332C58.9568 16.588 59.1528 16.792 59.4008 16.944C59.6568 17.088 59.9448 17.16 60.2648 17.16C60.4808 17.16 60.6888 17.12 60.8888 17.04C61.0968 16.96 61.2888 16.856 61.4648 16.728L61.9808 17.556C61.7328 17.724 61.4528 17.86 61.1408 17.964C60.8368 18.068 60.5368 18.12 60.2408 18.12ZM66.1872 18.12C65.7312 18.12 65.3152 18.012 64.9392 17.796C64.5712 17.572 64.2792 17.26 64.0632 16.86C63.8472 16.452 63.7392 15.984 63.7392 15.456C63.7392 14.904 63.8512 14.432 64.0752 14.04C64.3072 13.648 64.6192 13.348 65.0112 13.14C65.4032 12.932 65.8432 12.828 66.3312 12.828C66.7232 12.828 67.0952 12.912 67.4472 13.08C67.8072 13.248 68.0872 13.48 68.2872 13.776L68.2392 14.172V8.712H69.3432V18H68.2272V16.764L68.3472 17.076C68.1152 17.38 67.8152 17.632 67.4472 17.832C67.0792 18.024 66.6592 18.12 66.1872 18.12ZM66.5352 17.172C66.8312 17.172 67.0952 17.12 67.3272 17.016C67.5592 16.904 67.7512 16.752 67.9032 16.56C68.0552 16.368 68.1632 16.14 68.2272 15.876V14.94C68.1632 14.7 68.0472 14.492 67.8792 14.316C67.7192 14.132 67.5232 13.988 67.2912 13.884C67.0672 13.772 66.8152 13.716 66.5352 13.716C66.2312 13.716 65.9512 13.792 65.6952 13.944C65.4472 14.088 65.2472 14.288 65.0952 14.544C64.9432 14.8 64.8672 15.096 64.8672 15.432C64.8672 15.76 64.9432 16.056 65.0952 16.32C65.2472 16.576 65.4512 16.784 65.7072 16.944C65.9632 17.096 66.2392 17.172 66.5352 17.172Z" fill="black"/>
</svg>
