<svg width="32" height="32" viewBox="0 0 32 32" fill="none" xmlns="http://www.w3.org/2000/svg">
<g clip-path="url(#clip0_153_1388)">
<path fill-rule="evenodd" clip-rule="evenodd" d="M12.3969 6.07937C12.2919 4.9242 12.3727 3.92381 12.6846 2.80123C12.7018 2.73931 12.7172 2.67763 12.7323 2.61702C12.8282 2.23256 12.9133 1.89133 13.3831 1.8059C14.4931 1.60408 15.6938 1.6473 16.8642 1.68942C17.3432 1.70666 17.8171 1.72371 18.2776 1.72371H24.8295H27.9479C28.0738 1.72371 28.2491 1.70878 28.4475 1.69189C29.0328 1.64204 29.819 1.57508 30.1304 1.82416C30.5325 2.1459 30.7326 2.90818 30.8244 3.40391C30.9501 4.08272 30.8921 4.79271 30.834 5.50383C30.779 6.17661 30.724 6.85039 30.8244 7.49976C30.994 8.59716 30.9373 9.71621 30.8808 10.8327C30.8525 11.39 30.8244 11.9467 30.8244 12.4998V17.9998C30.7449 18.3857 30.7945 22.7706 30.816 24.6652C30.8209 25.1033 30.8244 25.4082 30.8244 25.4998C30.8244 25.9706 30.0316 26.6316 29.5 26.7076C28.6732 26.8257 28.2526 26.7948 27.7231 26.7559C27.4132 26.7331 27.066 26.7076 26.5782 26.7076C25.8062 26.7076 25.0088 26.7285 24.2176 26.7492C23.4389 26.7695 22.6664 26.7898 21.9302 26.7898C21.7352 26.7898 21.5262 26.7897 21.3058 26.7895C21.2513 28.1759 21.1662 29.2591 21.0255 29.5796C21.0074 29.6209 20.986 29.6782 20.9613 29.7445C20.8489 30.0462 20.6672 30.5339 20.4091 30.5339C19.8839 30.5339 19.3602 30.493 18.8351 30.452C18.3074 30.4108 17.7783 30.3695 17.245 30.3695C17.0973 30.3695 16.9488 30.372 16.8 30.3744C16.4516 30.3802 16.1015 30.3859 15.7566 30.3604C15.488 30.3405 15.2248 30.2944 14.9614 30.2483C14.6452 30.1929 14.3289 30.1376 14.0033 30.1275C12.8715 30.0927 11.7356 30.103 10.6011 30.1132C10.0606 30.1181 9.52034 30.123 8.98099 30.123H4.92659C4.76077 30.123 4.58858 30.13 4.41389 30.1371C3.9808 30.1548 3.53237 30.1732 3.12768 30.0864C2.61723 29.9771 2.39291 29.6524 2.14454 29.293C2.07999 29.1996 2.01382 29.1039 1.94058 29.0089C1.48283 28.4155 1.39574 27.4515 1.32565 26.6756C1.31903 26.6023 1.31256 26.5307 1.30594 26.4612C1.0547 23.8232 1.05476 21.1895 1.05482 18.5434L1.05482 18.4209C1.05482 17.9086 1.04126 17.3886 1.02763 16.8657C0.996694 15.6792 0.965381 14.4783 1.09135 13.321C1.15169 12.7666 1.17976 12.2028 1.20789 11.6378C1.25845 10.6222 1.3092 9.60272 1.54793 8.62735C1.56168 8.57116 1.57537 8.51417 1.5892 8.45662C1.7323 7.86088 1.88987 7.20493 2.28302 6.74626C2.55249 6.43187 3.37781 6.42498 3.95286 6.42019C4.12409 6.41876 4.27314 6.41751 4.3787 6.40839C4.55329 6.3933 4.85052 6.36455 5.20691 6.33008C6.22586 6.23153 7.72838 6.0862 8.23047 6.07968C8.95169 5.95533 10.0841 6.00296 11.063 6.04414C11.4993 6.0625 11.9051 6.07957 12.2305 6.07957C12.2879 6.07957 12.3433 6.0795 12.3969 6.07937Z" fill="#8AC0FF"/>
<path fill-rule="evenodd" clip-rule="evenodd" d="M28.5016 2.69092C28.3279 2.70574 28.1171 2.72373 27.9479 2.72373H18.2776C17.8126 2.72373 17.2922 2.70533 16.7891 2.68755C16.4449 2.67539 16.1089 2.66351 15.8042 2.658C15.0597 2.64454 14.3661 2.66211 13.7271 2.76192C13.7195 2.7911 13.7116 2.82276 13.702 2.86103C13.701 2.86532 13.6999 2.86969 13.6988 2.87414C13.6849 2.92985 13.6678 2.99799 13.6481 3.06889C13.3701 4.06957 13.2982 4.94831 13.3928 5.98893C13.4428 6.53895 13.0375 7.02536 12.4875 7.07536C11.9374 7.12536 11.451 6.72002 11.401 6.17C11.2856 4.90021 11.3753 3.77813 11.721 2.5336C11.7329 2.49082 11.7444 2.44569 11.7583 2.38981C11.7596 2.3848 11.7608 2.37965 11.7621 2.37438C11.7744 2.32514 11.7893 2.26552 11.8052 2.20669C11.8397 2.07931 11.893 1.90038 11.9849 1.71879C12.0814 1.52798 12.227 1.32012 12.4524 1.1467C12.6787 0.972525 12.9366 0.870698 13.2042 0.822042C14.0844 0.662021 14.9897 0.642949 15.8404 0.65833C16.2327 0.665424 16.5907 0.678563 16.9353 0.691214C17.3898 0.707896 17.8211 0.723728 18.2776 0.723728H27.9479C28.0198 0.723728 28.1425 0.714257 28.3553 0.696134L28.3703 0.694856C28.5591 0.67877 28.7944 0.658724 29.031 0.649634C29.2701 0.640445 29.549 0.64052 29.8174 0.676809C30.0595 0.709543 30.4366 0.788568 30.755 1.04331C31.1671 1.37298 31.3965 1.84764 31.528 2.19218C31.6698 2.56373 31.7561 2.94357 31.8076 3.22184C31.9574 4.03049 31.8907 4.84859 31.836 5.51948L31.8354 5.52755C31.7766 6.24913 31.7309 6.81805 31.8126 7.34704C31.9545 8.26532 31.9515 9.17606 31.919 10.0318C31.9073 10.3395 31.8924 10.6326 31.8779 10.9179C31.8504 11.4584 31.8243 11.9707 31.8243 12.4998V18.1016L31.8038 18.2012C31.8085 18.1784 31.8085 18.18 31.8062 18.2204C31.804 18.2603 31.7997 18.3383 31.7958 18.4681C31.7895 18.682 31.7853 18.9693 31.7831 19.3102C31.7785 19.9905 31.7815 20.862 31.7876 21.7381C31.7952 22.8173 31.8075 23.9139 31.8158 24.648C31.8208 25.0946 31.8243 25.407 31.8243 25.4998C31.8243 25.8834 31.6704 26.2026 31.5349 26.4147C31.3909 26.6401 31.208 26.8384 31.0233 27.0014C30.6812 27.3034 30.1747 27.6213 29.6414 27.6975C28.9147 27.8014 28.4475 27.8031 27.9849 27.7761C27.8585 27.7687 27.7416 27.7601 27.625 27.7516C27.3244 27.7295 27.0266 27.7076 26.5782 27.7076C25.8276 27.7076 25.0497 27.7277 24.2625 27.7483L24.237 27.749C23.4631 27.7693 22.6795 27.7898 21.9302 27.7898C21.378 27.7898 20.9302 27.3421 20.9302 26.7898C20.9302 26.2375 21.378 25.7898 21.9302 25.7898C22.6532 25.7898 23.4148 25.7698 24.1987 25.7493L24.2101 25.749C24.9929 25.7285 25.797 25.7076 26.5782 25.7076C27.1066 25.7076 27.506 25.737 27.821 25.7602C27.9228 25.7677 28.0157 25.7745 28.1013 25.7795C28.4416 25.7993 28.7746 25.8011 29.3586 25.7176C29.3549 25.7182 29.3531 25.7185 29.3531 25.7184C29.353 25.718 29.389 25.7091 29.4583 25.6719C29.5359 25.6303 29.6219 25.5708 29.6997 25.5021C29.7562 25.4522 29.797 25.4076 29.8236 25.3739C29.8223 25.2292 29.8196 24.9895 29.8161 24.6822C29.8079 23.9598 29.7954 22.8642 29.7877 21.7521C29.7816 20.8735 29.7785 19.9911 29.7831 19.2969C29.7854 18.9504 29.7897 18.6453 29.7967 18.4088C29.801 18.2655 29.807 18.0835 29.8243 17.932V12.4998C29.8243 11.9223 29.8548 11.3192 29.8836 10.7469C29.8974 10.4742 29.9108 10.2085 29.9204 9.95588C29.9515 9.13816 29.9484 8.3794 29.8361 7.6525C29.7172 6.88339 29.7813 6.10361 29.8343 5.45879C29.8369 5.42723 29.8395 5.396 29.842 5.3651C29.8999 4.65376 29.9353 4.09513 29.8411 3.58602C29.8008 3.36856 29.7412 3.1194 29.6595 2.90543C29.6121 2.78127 29.5701 2.7032 29.5418 2.65777C29.44 2.64477 29.2952 2.64096 29.1078 2.64816C28.9193 2.6554 28.7245 2.67194 28.525 2.68892L28.5016 2.69092Z" fill="black"/>
<path fill-rule="evenodd" clip-rule="evenodd" d="M11.1406 5.04677C11.5558 5.06438 11.9219 5.07991 12.2304 5.07991C12.6259 5.07991 12.9213 5.07668 13.2207 5.07339L13.2226 5.07337C13.522 5.07009 13.8256 5.06675 14.2304 5.06675C14.4653 5.06675 14.6372 5.05678 14.8253 5.04586C14.9262 5.04001 15.0317 5.0339 15.1539 5.0289C15.4878 5.01527 15.8442 5.01868 16.3008 5.093C16.653 5.15033 17.0227 5.15332 17.4861 5.15403L17.521 5.15408C17.951 5.15468 18.4673 5.1554 18.9907 5.23847C19.1043 5.25652 19.2244 5.27219 19.3626 5.29012L19.3712 5.29123C19.5025 5.30826 19.6498 5.32737 19.7982 5.35059C20.0983 5.39754 20.4541 5.46842 20.8033 5.6081C21.6953 5.96489 22.196 6.55807 22.6028 7.19376C22.9985 7.812 23.0299 8.41354 23.0127 8.87234C23.0061 9.04973 22.9964 9.18707 22.9882 9.30287C22.9725 9.5238 22.9624 9.66627 22.9899 9.85868C23.0692 10.4136 22.9786 10.9917 22.907 11.4147C22.8945 11.4884 22.8825 11.5583 22.871 11.6248C22.8063 12.0002 22.7605 12.2661 22.7605 12.5001C22.7605 13.5835 22.6929 14.4702 22.628 15.321L22.6274 15.3288C22.5622 16.1831 22.5 17.0015 22.5 18.0001V18.0665L22.4912 18.1323C22.4633 18.3417 22.4429 19.0617 22.4271 20.1548C22.4208 20.5949 22.4151 21.088 22.409 21.6093C22.4008 22.3201 22.392 23.0833 22.3801 23.8353C22.3593 25.1473 22.3285 26.4702 22.2731 27.5357C22.2454 28.0673 22.211 28.5483 22.1667 28.9378C22.1282 29.2769 22.0695 29.6895 21.9411 29.982C21.9411 29.982 21.9394 29.9859 21.9354 29.996C21.9312 30.0068 21.9258 30.0207 21.9188 30.0393C21.9163 30.046 21.9103 30.0619 21.9032 30.0812C21.891 30.1137 21.8753 30.1559 21.8664 30.1794C21.8258 30.2866 21.7685 30.4332 21.6969 30.5805C21.6298 30.7183 21.5234 30.9136 21.366 31.0878C21.2171 31.2526 20.8967 31.5342 20.4091 31.5342C19.8447 31.5342 19.2881 31.4908 18.7743 31.4507L18.7532 31.449C18.2207 31.4075 17.7316 31.3699 17.245 31.3699C17.1311 31.3699 17.0035 31.372 16.8671 31.3742C16.5025 31.3801 16.0756 31.3871 15.6827 31.358C15.3614 31.3342 15.0487 31.2793 14.7917 31.2342C14.764 31.2293 14.7369 31.2246 14.7106 31.22C14.4202 31.1694 14.1925 31.1342 13.9726 31.1274C12.8603 31.0932 11.7588 31.1032 10.6358 31.1134C10.0905 31.1183 9.54009 31.1233 8.98097 31.1233H4.92657C4.76303 31.1233 4.63591 31.1289 4.49039 31.1353C4.36621 31.1408 4.22862 31.1468 4.04356 31.1505C3.71381 31.157 3.31637 31.1499 2.91813 31.0646C2.34522 30.9418 1.95872 30.6502 1.67679 30.3312C1.54906 30.1867 1.44373 30.0375 1.36414 29.923C1.34736 29.8988 1.33166 29.8761 1.31677 29.8546C1.25341 29.763 1.20466 29.6925 1.14878 29.6201C0.755059 29.1097 0.578467 28.4899 0.481678 27.9803C0.400042 27.5506 0.359704 27.1014 0.328221 26.7509C0.322028 26.682 0.316177 26.6168 0.310422 26.5564C0.0546286 23.8706 0.0547135 21.1959 0.054797 18.5638L0.0548 18.4213C0.0548 17.9645 0.0421922 17.477 0.0291393 16.9723C-0.00231323 15.7561 -0.03635 14.4401 0.0971974 13.2131C0.154183 12.6895 0.179983 12.1709 0.207461 11.6186C0.218981 11.387 0.230796 11.1495 0.245327 10.9033C0.292786 10.0989 0.368588 9.23973 0.576573 8.38996C0.588268 8.34218 0.600503 8.29112 0.613362 8.23746C0.677804 7.96855 0.757948 7.6341 0.864637 7.31735C0.995181 6.92978 1.19078 6.48426 1.52373 6.09581C1.80762 5.76461 2.18967 5.62734 2.433 5.56174C2.70141 5.48938 2.98351 5.45793 3.22219 5.44184C3.46596 5.42541 3.7072 5.42262 3.89759 5.42096L3.90209 5.42093C4.11373 5.41908 4.22733 5.41809 4.29258 5.41245C4.44037 5.39968 4.70578 5.37399 5.03325 5.34229C6.00575 5.24817 7.52559 5.10106 8.13795 5.08193C8.76115 4.98574 9.55512 4.9917 10.256 5.01302C10.5706 5.02259 10.8663 5.03513 11.1406 5.04677ZM10.1952 7.0121C9.44994 6.98943 8.80903 6.99502 8.40035 7.06548L8.32246 7.07891L8.24343 7.07994C7.78714 7.08587 6.39655 7.22033 5.38367 7.31827C4.99888 7.35547 4.6686 7.38741 4.46478 7.40502C4.31729 7.41777 4.12616 7.41924 3.96786 7.42046C3.94979 7.4206 3.93214 7.42074 3.91503 7.42089C3.724 7.42255 3.53564 7.42525 3.35671 7.43731C3.18716 7.44874 3.06031 7.46667 2.9746 7.48744C2.90071 7.59857 2.82927 7.75013 2.76001 7.95576C2.68461 8.17961 2.62941 8.40891 2.56529 8.67524C2.55053 8.73655 2.53529 8.79982 2.51923 8.86544C2.35569 9.53364 2.2876 10.2458 2.24185 11.0211C2.22975 11.2263 2.21912 11.4397 2.20824 11.6581C2.17958 12.2337 2.14919 12.8439 2.08545 13.4295C1.96692 14.5186 1.99568 15.6087 2.02604 16.7598C2.04024 17.2982 2.0548 17.85 2.0548 18.4213L2.0548 18.5225C2.05476 21.1836 2.05472 23.7765 2.30141 26.3668C2.30897 26.4461 2.31609 26.5245 2.32312 26.6019C2.35486 26.9514 2.38498 27.283 2.44654 27.6071C2.52266 28.0078 2.62507 28.2594 2.73234 28.3985C2.82331 28.5164 2.90733 28.6381 2.97169 28.7313C2.98411 28.7493 2.99579 28.7662 3.00665 28.7819C3.08245 28.891 3.13112 28.9566 3.17539 29.0067C3.23747 29.077 3.267 29.094 3.33719 29.109C3.50686 29.1454 3.72041 29.1565 4.0039 29.1509C4.08419 29.1493 4.19713 29.1449 4.32134 29.1401C4.52405 29.1323 4.75677 29.1233 4.92657 29.1233H8.98097C9.5009 29.1233 10.0308 29.1186 10.5662 29.1137C11.7118 29.1034 12.8824 29.0929 14.0341 29.1284C14.4108 29.14 14.7642 29.1992 15.0535 29.2496C15.0779 29.2538 15.1019 29.258 15.1254 29.2621C15.3993 29.31 15.614 29.3474 15.8304 29.3635C16.1293 29.3856 16.4085 29.3809 16.7322 29.3754C16.8901 29.3727 17.0586 29.3699 17.245 29.3699C17.8173 29.3699 18.379 29.4137 18.8956 29.454L18.9089 29.4551C19.2827 29.4843 19.6333 29.5114 19.9753 29.5251C19.982 29.5079 19.9888 29.4902 19.9957 29.4718L20.0473 29.3341C20.0633 29.2916 20.0855 29.2333 20.1098 29.178C20.1062 29.1862 20.1071 29.1821 20.1112 29.1624C20.1209 29.1155 20.149 28.9804 20.1795 28.7121C20.2171 28.3813 20.249 27.9466 20.2758 27.4318C20.3292 26.4045 20.3596 25.1119 20.3803 23.8036C20.3923 23.0477 20.4009 22.3012 20.409 21.5996C20.415 21.0788 20.4207 20.5828 20.4273 20.1259C20.4412 19.1708 20.4585 18.3385 20.5 17.9419C20.5024 16.8899 20.5686 16.0225 20.6322 15.1886L20.6332 15.1766C20.6983 14.3224 20.7605 13.5022 20.7605 12.5001C20.7605 12.0777 20.8422 11.6124 20.9057 11.2503C20.9161 11.1909 20.926 11.1342 20.935 11.0809C21.0104 10.6359 21.0395 10.3476 21.01 10.1415C20.95 9.72139 20.9825 9.26493 21.0027 8.98068C21.008 8.90674 21.0124 8.84446 21.0141 8.7975C21.0248 8.51295 20.9953 8.39219 20.9183 8.27186C20.6246 7.81302 20.4089 7.60441 20.0605 7.46506C19.9181 7.40808 19.735 7.36503 19.4891 7.32656C19.3678 7.30757 19.2435 7.29143 19.1053 7.2735L19.1018 7.27305C18.9694 7.25587 18.8223 7.23679 18.6771 7.21374C18.3199 7.15704 17.9473 7.15474 17.4831 7.15403L17.4574 7.15399C17.0247 7.15336 16.5052 7.1526 15.9794 7.06701C15.6937 7.02051 15.4791 7.01729 15.2355 7.02724C15.1711 7.02987 15.0951 7.03419 15.0099 7.03903C14.7949 7.05124 14.5218 7.06675 14.2304 7.06675C13.8367 7.06675 13.5421 7.06999 13.2426 7.07327C12.9426 7.07656 12.6377 7.07991 12.2304 7.07991C11.8877 7.07991 11.4399 7.06121 10.984 7.04217C10.7173 7.03104 10.4479 7.01978 10.1952 7.0121Z" fill="black"/>
<path fill-rule="evenodd" clip-rule="evenodd" d="M17.499 12.0342C17.8786 12.1537 18.0873 12.5514 17.965 12.9224C17.8867 13.1601 17.7418 13.3863 17.6342 13.5437C17.5758 13.6292 17.5159 13.712 17.4645 13.7828L17.4595 13.7897C17.4078 13.8609 17.3672 13.917 17.3338 13.9659C16.9756 14.4908 16.6496 15.0309 16.3117 15.5907C16.219 15.7442 16.1255 15.8992 16.0301 16.0558C15.3873 17.1112 14.6939 18.1427 14.0105 19.1591C13.7152 19.5983 13.4218 20.0347 13.1352 20.4691C13.1049 20.515 13.0746 20.5609 13.0443 20.6068C12.5444 21.3641 12.0528 22.1089 11.5873 22.8703C11.5678 22.9022 11.5448 22.9417 11.5185 22.9867C11.3942 23.2003 11.1974 23.538 10.958 23.7802C10.7886 23.9516 10.5601 24.017 10.3528 23.9963C10.1845 23.9795 10.0658 23.911 10.015 23.8786C9.91033 23.8119 9.84 23.7315 9.81367 23.7009C9.74664 23.6231 9.68588 23.5317 9.6453 23.4683C9.60018 23.3979 9.55771 23.3265 9.52698 23.2743C9.49614 23.2219 9.48679 23.2061 9.48708 23.2059C9.48722 23.2058 9.48938 23.209 9.49244 23.2135C9.25133 22.8598 9.06975 22.5967 8.85051 22.4127C8.47076 22.0941 8.06059 21.7984 7.62779 21.4964C7.52773 21.4265 7.42581 21.3559 7.32277 21.2845C6.98817 21.0527 6.64176 20.8127 6.30879 20.5644C6.14583 20.443 5.98588 20.3194 5.83134 20.1998L5.81515 20.1873C5.66479 20.071 5.51959 19.9587 5.3733 19.849C5.37295 19.8488 5.37242 19.8484 5.37173 19.8478C5.36402 19.8421 5.3358 19.8211 5.30688 19.797C5.28063 19.7752 5.21932 19.723 5.16186 19.6494C5.13319 19.6127 5.08399 19.5438 5.04754 19.448C5.01101 19.3519 4.96815 19.176 5.03522 18.9706C5.18037 18.5261 5.61947 18.4706 5.67196 18.464L5.67258 18.4639C5.98628 18.4242 6.27898 18.5876 6.41222 18.8498C6.51264 18.9264 6.61168 19.003 6.70856 19.078L6.72775 19.0928C6.88328 19.2132 7.03356 19.3292 7.18476 19.4419C7.49575 19.6738 7.81352 19.894 8.14349 20.1226C8.25006 20.1965 8.35791 20.2712 8.46721 20.3475C8.90711 20.6545 9.36054 20.9801 9.79131 21.3415C10.0392 21.5495 10.2455 21.7989 10.4171 22.0326C10.8749 21.2892 11.3544 20.5628 11.8272 19.8466C11.8586 19.799 11.89 19.7514 11.9214 19.7039C12.2225 19.2475 12.5241 18.799 12.8236 18.3535C13.4986 17.3496 14.1631 16.3613 14.789 15.3337C14.8776 15.1882 14.9666 15.0406 15.0566 14.8916C15.3971 14.3271 15.7495 13.7432 16.1322 13.1825C16.1774 13.1162 16.2293 13.0447 16.2763 12.98L16.2862 12.9663C16.3383 12.8944 16.3873 12.8267 16.433 12.7597C16.5338 12.6122 16.5783 12.5258 16.5902 12.4897C16.7124 12.1186 17.1193 11.9147 17.499 12.0342ZM6.23316 18.7138C6.2334 18.7139 6.23624 18.7161 6.24097 18.7201C6.23528 18.7157 6.23292 18.7137 6.23316 18.7138Z" fill="black"/>
</g>
<defs>
<clipPath id="clip0_153_1388">
<rect width="32" height="32" fill="white"/>
</clipPath>
</defs>
</svg>
