<svg width="32" height="32" viewBox="0 0 32 32" fill="none" xmlns="http://www.w3.org/2000/svg">
<g clip-path="url(#clip0_38_647)">
<path fill-rule="evenodd" clip-rule="evenodd" d="M12.3969 6.07962C12.2919 4.92444 12.3727 3.92405 12.6846 2.80148C12.7018 2.73955 12.7172 2.67787 12.7323 2.61726C12.8282 2.2328 12.9133 1.89157 13.3831 1.80614C14.4931 1.60433 15.6938 1.64754 16.8642 1.68966C17.3432 1.7069 17.8171 1.72396 18.2776 1.72396H24.8295H27.9479C28.0738 1.72396 28.2491 1.70903 28.4475 1.69214C29.0328 1.64229 29.819 1.57533 30.1304 1.8244C30.5325 2.14615 30.7326 2.90843 30.8244 3.40416C30.9501 4.08297 30.8921 4.79295 30.834 5.50408C30.779 6.17685 30.724 6.85064 30.8244 7.5C30.994 8.59741 30.9373 9.71646 30.8808 10.833C30.8525 11.3903 30.8244 11.947 30.8244 12.5V18C30.7449 18.3859 30.7945 22.7709 30.816 24.6655C30.8209 25.1035 30.8244 25.4084 30.8244 25.5C30.8244 25.9708 30.0316 26.6319 29.5 26.7078C28.6732 26.8259 28.2526 26.795 27.7231 26.7561C27.4132 26.7333 27.066 26.7078 26.5782 26.7078C25.8062 26.7078 25.0088 26.7287 24.2176 26.7494C23.4389 26.7698 22.6664 26.79 21.9302 26.79C21.7352 26.79 21.5262 26.7899 21.3058 26.7898C21.2513 28.1761 21.1662 29.2593 21.0255 29.5799C21.0074 29.6211 20.986 29.6784 20.9613 29.7447C20.8489 30.0465 20.6672 30.5341 20.4091 30.5341C19.8839 30.5341 19.3602 30.4933 18.8351 30.4523C18.3074 30.4111 17.7783 30.3698 17.245 30.3698C17.0973 30.3698 16.9488 30.3722 16.8 30.3747C16.4516 30.3804 16.1015 30.3862 15.7566 30.3606C15.488 30.3407 15.2248 30.2946 14.9614 30.2485C14.6452 30.1932 14.3289 30.1378 14.0033 30.1278C12.8715 30.093 11.7356 30.1032 10.6011 30.1135C10.0606 30.1183 9.52034 30.1232 8.98099 30.1232H4.92659C4.76077 30.1232 4.58858 30.1303 4.41389 30.1374C3.9808 30.1551 3.53237 30.1734 3.12768 30.0867C2.61723 29.9773 2.39291 29.6527 2.14454 29.2933C2.07999 29.1999 2.01382 29.1041 1.94058 29.0092C1.48283 28.4158 1.39574 27.4517 1.32565 26.6758C1.31903 26.6025 1.31256 26.5309 1.30594 26.4615C1.0547 23.8235 1.05476 21.1897 1.05482 18.5437L1.05482 18.4212C1.05482 17.9088 1.04126 17.3888 1.02763 16.866C0.996694 15.6794 0.965381 14.4785 1.09135 13.3212C1.15169 12.7668 1.17976 12.203 1.20789 11.638C1.25845 10.6224 1.3092 9.60297 1.54793 8.6276C1.56168 8.5714 1.57537 8.51441 1.5892 8.45686C1.7323 7.86113 1.88987 7.20517 2.28302 6.7465C2.55249 6.43211 3.37781 6.42523 3.95286 6.42043C4.12409 6.419 4.27314 6.41776 4.3787 6.40864C4.55329 6.39355 4.85052 6.3648 5.20691 6.33033C6.22586 6.23177 7.72838 6.08644 8.23047 6.07992C8.95169 5.95557 10.0841 6.00321 11.063 6.04439C11.4993 6.06274 11.9051 6.07981 12.2305 6.07981C12.2879 6.07981 12.3433 6.07974 12.3969 6.07962Z" fill="#C1C1C1"/>
<path fill-rule="evenodd" clip-rule="evenodd" d="M28.5017 2.69117C28.328 2.70599 28.1173 2.72397 27.948 2.72397H18.2777C17.8128 2.72397 17.2923 2.70558 16.7892 2.6878C16.445 2.67563 16.109 2.66376 15.8044 2.65825C15.0599 2.64479 14.3662 2.66236 13.7272 2.76216C13.7196 2.79134 13.7117 2.82301 13.7022 2.86128C13.7011 2.86556 13.7 2.86993 13.6989 2.87439C13.685 2.93009 13.6679 2.99824 13.6482 3.06914C13.3702 4.06981 13.2983 4.94855 13.3929 5.98918C13.4429 6.53919 13.0376 7.0256 12.4876 7.0756C11.9376 7.12561 11.4511 6.72026 11.4011 6.17025C11.2857 4.90046 11.3755 3.77838 11.7212 2.53385C11.7331 2.49106 11.7445 2.44593 11.7584 2.39006C11.7597 2.38504 11.761 2.37989 11.7623 2.37462C11.7745 2.32538 11.7894 2.26576 11.8053 2.20694C11.8398 2.07955 11.8932 1.90062 11.985 1.71904C12.0815 1.52823 12.2272 1.32036 12.4525 1.14694C12.6789 0.972769 12.9368 0.870942 13.2044 0.822286C14.0845 0.662266 14.9898 0.643193 15.8405 0.658574C16.2329 0.665668 16.5908 0.678808 16.9355 0.691458C17.3899 0.70814 17.8212 0.723972 18.2777 0.723972H27.948C28.0199 0.723972 28.1426 0.714502 28.3555 0.696378L28.3705 0.6951C28.5593 0.679014 28.7945 0.658968 29.0311 0.649878C29.2702 0.640689 29.5491 0.640764 29.8176 0.677053C30.0597 0.709788 30.4367 0.788812 30.7552 1.04355C31.1673 1.37323 31.3966 1.84789 31.5281 2.19243C31.6699 2.56397 31.7562 2.94381 31.8077 3.22208C31.9575 4.03073 31.8908 4.84884 31.8361 5.51972L31.8355 5.5278C31.7767 6.24937 31.731 6.8183 31.8127 7.34728C31.9547 8.26557 31.9516 9.1763 31.9191 10.032C31.9074 10.3397 31.8925 10.6329 31.878 10.9182C31.8505 11.4587 31.8245 11.9709 31.8245 12.5V18.1019L31.804 18.2015C31.8087 18.1786 31.8086 18.1803 31.8063 18.2206C31.8041 18.2606 31.7998 18.3386 31.7959 18.4684C31.7896 18.6822 31.7854 18.9696 31.7832 19.3104C31.7786 19.9908 31.7817 20.8623 31.7878 21.7384C31.7953 22.8176 31.8076 23.9142 31.8159 24.6482C31.8209 25.0948 31.8245 25.4073 31.8245 25.5C31.8245 25.8837 31.6705 26.2029 31.5351 26.415C31.3911 26.6404 31.2081 26.8386 31.0234 27.0017C30.6814 27.3036 30.1749 27.6216 29.6415 27.6978C28.9148 27.8016 28.4476 27.8033 27.985 27.7764C27.8587 27.769 27.7417 27.7604 27.6251 27.7518C27.3245 27.7297 27.0267 27.7078 26.5783 27.7078C25.8277 27.7078 25.0499 27.728 24.2626 27.7486L24.2371 27.7493C23.4633 27.7695 22.6796 27.79 21.9304 27.79C21.3781 27.79 20.9304 27.3423 20.9304 26.79C20.9304 26.2377 21.3781 25.79 21.9304 25.79C22.6534 25.79 23.4149 25.7701 24.1988 25.7496L24.2102 25.7493C24.993 25.7288 25.7971 25.7078 26.5783 25.7078C27.1067 25.7078 27.5062 25.7372 27.8211 25.7604C27.9229 25.7679 28.0158 25.7748 28.1014 25.7797C28.4417 25.7996 28.7747 25.8013 29.3587 25.7179C29.355 25.7184 29.3532 25.7187 29.3532 25.7186C29.3531 25.7182 29.3891 25.7094 29.4584 25.6722C29.536 25.6305 29.622 25.571 29.6998 25.5023C29.7563 25.4524 29.7971 25.4078 29.8237 25.3742C29.8224 25.2295 29.8197 24.9897 29.8162 24.6824C29.808 23.9601 29.7956 22.8644 29.7878 21.7523C29.7817 20.8738 29.7786 19.9914 29.7832 19.2971C29.7855 18.9507 29.7898 18.6455 29.7968 18.409C29.8011 18.2658 29.8071 18.0837 29.8245 17.9323V12.5C29.8245 11.9225 29.8549 11.3195 29.8838 10.7471C29.8975 10.4745 29.9109 10.2088 29.9205 9.95612C29.9516 9.1384 29.9485 8.37965 29.8362 7.65275C29.7173 6.88364 29.7814 6.10386 29.8344 5.45903C29.837 5.42747 29.8396 5.39624 29.8421 5.36535C29.9001 4.654 29.9355 4.09538 29.8412 3.58626C29.8009 3.3688 29.7413 3.11964 29.6596 2.90567C29.6122 2.78151 29.5702 2.70344 29.5419 2.65801C29.4401 2.64501 29.2953 2.6412 29.1079 2.6484C28.9195 2.65564 28.7246 2.67218 28.5252 2.68917L28.5017 2.69117Z" fill="black"/>
<path fill-rule="evenodd" clip-rule="evenodd" d="M11.14 5.04677C11.5552 5.06438 11.9213 5.07991 12.2298 5.07991C12.6252 5.07991 12.9207 5.07668 13.2201 5.07339L13.222 5.07337C13.5214 5.07009 13.825 5.06675 14.2298 5.06675C14.4646 5.06675 14.6366 5.05678 14.8247 5.04586C14.9256 5.04001 15.0311 5.0339 15.1533 5.0289C15.4872 5.01527 15.8436 5.01868 16.3002 5.093C16.6524 5.15033 17.0221 5.15332 17.4855 5.15403L17.5204 5.15408C17.9504 5.15468 18.4667 5.1554 18.99 5.23847C19.1037 5.25652 19.2238 5.27219 19.362 5.29012L19.3706 5.29123C19.5019 5.30826 19.6492 5.32737 19.7976 5.35059C20.0977 5.39754 20.4535 5.46842 20.8027 5.6081C21.6947 5.96489 22.1954 6.55807 22.6022 7.19376C22.9979 7.812 23.0293 8.41354 23.0121 8.87234C23.0055 9.04973 22.9958 9.18707 22.9876 9.30287C22.9719 9.5238 22.9618 9.66627 22.9893 9.85868C23.0686 10.4136 22.978 10.9917 22.9064 11.4147C22.8939 11.4884 22.8819 11.5583 22.8704 11.6248C22.8057 12.0002 22.7599 12.2661 22.7599 12.5001C22.7599 13.5835 22.6923 14.4702 22.6273 15.321L22.6267 15.3288C22.5616 16.1831 22.4994 17.0015 22.4994 18.0001V18.0665L22.4906 18.1323C22.4627 18.3417 22.4423 19.0617 22.4265 20.1548C22.4202 20.5949 22.4145 21.088 22.4084 21.6093C22.4002 22.3201 22.3914 23.0833 22.3795 23.8353C22.3587 25.1473 22.3279 26.4702 22.2725 27.5357C22.2448 28.0673 22.2104 28.5483 22.1661 28.9378C22.1276 29.2769 22.0689 29.6895 21.9405 29.982C21.9405 29.982 21.9388 29.9859 21.9348 29.996C21.9306 30.0068 21.9252 30.0207 21.9182 30.0393C21.9157 30.046 21.9097 30.0619 21.9025 30.0812C21.8904 30.1137 21.8747 30.1559 21.8658 30.1794C21.8252 30.2866 21.7679 30.4332 21.6963 30.5805C21.6292 30.7183 21.5228 30.9136 21.3654 31.0878C21.2165 31.2526 20.8961 31.5342 20.4085 31.5342C19.8441 31.5342 19.2875 31.4908 18.7737 31.4507L18.7526 31.449C18.2201 31.4075 17.7309 31.3699 17.2444 31.3699C17.1305 31.3699 17.0029 31.372 16.8665 31.3742C16.5019 31.3801 16.075 31.3871 15.6821 31.358C15.3608 31.3342 15.0481 31.2793 14.7911 31.2342C14.7634 31.2293 14.7363 31.2246 14.71 31.22C14.4196 31.1694 14.1918 31.1342 13.9719 31.1274C12.8597 31.0932 11.7582 31.1032 10.6352 31.1134C10.0899 31.1183 9.53948 31.1233 8.98036 31.1233H4.92596C4.76242 31.1233 4.6353 31.1289 4.48978 31.1353C4.3656 31.1408 4.22801 31.1468 4.04295 31.1505C3.7132 31.157 3.31575 31.1499 2.91752 31.0646C2.34461 30.9418 1.95811 30.6502 1.67618 30.3312C1.54845 30.1867 1.44312 30.0375 1.36353 29.923C1.34675 29.8988 1.33105 29.8761 1.31616 29.8546C1.2528 29.763 1.20405 29.6925 1.14817 29.6201C0.754449 29.1097 0.577856 28.4899 0.481067 27.9803C0.399431 27.5506 0.359094 27.1014 0.327611 26.7509C0.321417 26.682 0.315566 26.6168 0.309811 26.5564C0.0540182 23.8706 0.0541031 21.1959 0.0541867 18.5638L0.0541896 18.4213C0.0541896 17.9645 0.0415818 17.477 0.028529 16.9723C-0.00292358 15.7561 -0.0369603 14.4401 0.0965871 13.2131C0.153573 12.6895 0.179373 12.1709 0.206851 11.6186C0.218371 11.387 0.230185 11.1495 0.244717 10.9033C0.292176 10.0989 0.367978 9.23973 0.575963 8.38996C0.587658 8.34218 0.599892 8.29112 0.612752 8.23746C0.677193 7.96855 0.757338 7.6341 0.864027 7.31735C0.99457 6.92978 1.19017 6.48426 1.52312 6.09581C1.80701 5.76461 2.18906 5.62734 2.43239 5.56174C2.7008 5.48938 2.9829 5.45793 3.22158 5.44184C3.46535 5.42541 3.70659 5.42262 3.89698 5.42096L3.90148 5.42093C4.11312 5.41908 4.22672 5.41809 4.29197 5.41245C4.43976 5.39968 4.70517 5.37399 5.03264 5.34229C6.00514 5.24817 7.52498 5.10106 8.13733 5.08193C8.76054 4.98574 9.55451 4.9917 10.2554 5.01302C10.57 5.02259 10.8657 5.03513 11.14 5.04677ZM10.1946 7.0121C9.44933 6.98943 8.80842 6.99502 8.39974 7.06548L8.32185 7.07891L8.24282 7.07994C7.78653 7.08587 6.39594 7.22033 5.38306 7.31827C4.99827 7.35547 4.66799 7.38741 4.46417 7.40502C4.31668 7.41777 4.12555 7.41924 3.96725 7.42046C3.94918 7.4206 3.93153 7.42074 3.91442 7.42089C3.72339 7.42255 3.53503 7.42525 3.3561 7.43731C3.18655 7.44874 3.0597 7.46667 2.97399 7.48744C2.9001 7.59857 2.82866 7.75013 2.7594 7.95576C2.684 8.17961 2.6288 8.40891 2.56468 8.67524C2.54992 8.73655 2.53468 8.79982 2.51862 8.86544C2.35507 9.53364 2.28699 10.2458 2.24124 11.0211C2.22914 11.2263 2.21851 11.4397 2.20763 11.6581C2.17897 12.2337 2.14858 12.8439 2.08484 13.4295C1.96631 14.5186 1.99506 15.6087 2.02543 16.7598C2.03963 17.2982 2.05419 17.85 2.05419 18.4213L2.05419 18.5225C2.05415 21.1836 2.05411 23.7765 2.3008 26.3668C2.30836 26.4461 2.31548 26.5245 2.32251 26.6019C2.35425 26.9514 2.38437 27.283 2.44593 27.6071C2.52205 28.0078 2.62446 28.2594 2.73173 28.3985C2.8227 28.5164 2.90672 28.6381 2.97108 28.7313C2.9835 28.7493 2.99518 28.7662 3.00604 28.7819C3.08184 28.891 3.13051 28.9566 3.17478 29.0067C3.23686 29.077 3.26639 29.094 3.33658 29.109C3.50625 29.1454 3.7198 29.1565 4.00329 29.1509C4.08358 29.1493 4.19652 29.1449 4.32073 29.1401C4.52344 29.1323 4.75616 29.1233 4.92596 29.1233H8.98036C9.50029 29.1233 10.0302 29.1186 10.5656 29.1137C11.7112 29.1034 12.8818 29.0929 14.0335 29.1284C14.4102 29.14 14.7635 29.1992 15.0529 29.2496C15.0773 29.2538 15.1013 29.258 15.1248 29.2621C15.3987 29.31 15.6133 29.3474 15.8298 29.3635C16.1286 29.3856 16.4079 29.3809 16.7316 29.3754C16.8895 29.3727 17.0579 29.3699 17.2444 29.3699C17.8167 29.3699 18.3783 29.4137 18.895 29.454L18.9083 29.4551C19.2821 29.4843 19.6327 29.5114 19.9747 29.5251C19.9814 29.5079 19.9882 29.4902 19.9951 29.4718L20.0467 29.3341C20.0627 29.2916 20.0849 29.2333 20.1092 29.178C20.1056 29.1862 20.1064 29.1821 20.1106 29.1624C20.1203 29.1155 20.1484 28.9804 20.1789 28.7121C20.2165 28.3813 20.2484 27.9466 20.2752 27.4318C20.3286 26.4045 20.359 25.1119 20.3797 23.8036C20.3917 23.0477 20.4003 22.3012 20.4084 21.5996C20.4144 21.0788 20.4201 20.5828 20.4267 20.1259C20.4405 19.1708 20.4579 18.3385 20.4994 17.9419C20.5018 16.8899 20.568 16.0225 20.6316 15.1886L20.6325 15.1766C20.6977 14.3224 20.7599 13.5022 20.7599 12.5001C20.7599 12.0777 20.8415 11.6124 20.9051 11.2503C20.9155 11.1909 20.9254 11.1342 20.9344 11.0809C21.0098 10.6359 21.0388 10.3476 21.0094 10.1415C20.9494 9.72139 20.9819 9.26493 21.0021 8.98068C21.0073 8.90674 21.0118 8.84446 21.0135 8.7975C21.0242 8.51295 20.9947 8.39219 20.9177 8.27186C20.624 7.81302 20.4083 7.60441 20.0599 7.46506C19.9175 7.40808 19.7344 7.36503 19.4885 7.32656C19.3672 7.30757 19.2429 7.29143 19.1047 7.2735L19.1012 7.27305C18.9688 7.25587 18.8217 7.23679 18.6765 7.21374C18.3193 7.15704 17.9467 7.15474 17.4825 7.15403L17.4567 7.15399C17.0241 7.15336 16.5045 7.1526 15.9788 7.06701C15.6931 7.02051 15.4785 7.01729 15.2349 7.02724C15.1705 7.02987 15.0944 7.03419 15.0093 7.03903C14.7943 7.05124 14.5212 7.06675 14.2298 7.06675C13.8361 7.06675 13.5415 7.06999 13.242 7.07327C12.942 7.07656 12.6371 7.07991 12.2298 7.07991C11.8871 7.07991 11.4393 7.06121 10.9834 7.04217C10.7167 7.03104 10.4473 7.01978 10.1946 7.0121Z" fill="black"/>
<path fill-rule="evenodd" clip-rule="evenodd" d="M17.499 12.0342C17.8786 12.1537 18.0873 12.5514 17.965 12.9224C17.8867 13.1601 17.7418 13.3863 17.6342 13.5437C17.5758 13.6292 17.5159 13.712 17.4645 13.7828L17.4595 13.7897C17.4078 13.8609 17.3672 13.917 17.3338 13.9659C16.9756 14.4908 16.6496 15.0309 16.3117 15.5907C16.219 15.7442 16.1255 15.8992 16.0301 16.0558C15.3873 17.1112 14.6939 18.1427 14.0105 19.1591C13.7152 19.5983 13.4218 20.0347 13.1352 20.4691C13.1049 20.515 13.0746 20.5609 13.0443 20.6068C12.5444 21.3641 12.0528 22.1089 11.5873 22.8703C11.5678 22.9022 11.5448 22.9417 11.5185 22.9867C11.3942 23.2003 11.1974 23.538 10.958 23.7802C10.7886 23.9516 10.5601 24.017 10.3528 23.9963C10.1845 23.9795 10.0658 23.911 10.015 23.8786C9.91033 23.8119 9.84 23.7315 9.81367 23.7009C9.74664 23.6231 9.68588 23.5317 9.6453 23.4683C9.60018 23.3979 9.55771 23.3265 9.52698 23.2743C9.49614 23.2219 9.48679 23.2061 9.48708 23.2059C9.48722 23.2058 9.48938 23.209 9.49244 23.2135C9.25133 22.8598 9.06975 22.5967 8.85051 22.4127C8.47076 22.0941 8.06059 21.7984 7.62779 21.4964C7.52773 21.4265 7.42581 21.3559 7.32277 21.2845C6.98817 21.0527 6.64176 20.8127 6.30879 20.5644C6.14583 20.443 5.98588 20.3194 5.83134 20.1998L5.81515 20.1873C5.66479 20.071 5.51959 19.9587 5.3733 19.849C5.37295 19.8488 5.37242 19.8484 5.37173 19.8478C5.36402 19.8421 5.3358 19.8211 5.30688 19.797C5.28063 19.7752 5.21932 19.723 5.16186 19.6494C5.13319 19.6127 5.08399 19.5438 5.04754 19.448C5.01101 19.3519 4.96815 19.176 5.03522 18.9706C5.18037 18.5261 5.61947 18.4706 5.67196 18.464L5.67258 18.4639C5.98628 18.4242 6.27898 18.5876 6.41222 18.8498C6.51264 18.9264 6.61168 19.003 6.70856 19.078L6.72775 19.0928C6.88328 19.2132 7.03356 19.3292 7.18476 19.4419C7.49575 19.6738 7.81352 19.894 8.14349 20.1226C8.25006 20.1965 8.35791 20.2712 8.46721 20.3475C8.90711 20.6545 9.36054 20.9801 9.79131 21.3415C10.0392 21.5495 10.2455 21.7989 10.4171 22.0326C10.8749 21.2892 11.3544 20.5628 11.8272 19.8466C11.8586 19.799 11.89 19.7514 11.9214 19.7039C12.2225 19.2475 12.5241 18.799 12.8236 18.3535C13.4986 17.3496 14.1631 16.3613 14.789 15.3337C14.8776 15.1882 14.9666 15.0406 15.0566 14.8916C15.3971 14.3271 15.7495 13.7432 16.1322 13.1825C16.1774 13.1162 16.2293 13.0447 16.2763 12.98L16.2862 12.9663C16.3383 12.8944 16.3873 12.8267 16.433 12.7597C16.5338 12.6122 16.5783 12.5258 16.5902 12.4897C16.7124 12.1186 17.1193 11.9147 17.499 12.0342ZM6.23316 18.7138C6.2334 18.7139 6.23624 18.7161 6.24097 18.7201C6.23528 18.7157 6.23292 18.7137 6.23316 18.7138Z" fill="black"/>
</g>
<defs>
<clipPath id="clip0_38_647">
<rect width="32" height="32" fill="white"/>
</clipPath>
</defs>
</svg>
