<svg width="32" height="32" viewBox="0 0 32 32" fill="none" xmlns="http://www.w3.org/2000/svg">
<path d="M4.29289 15.2929C3.90237 15.6834 3.90237 16.3166 4.29289 16.7071L10.6569 23.0711C11.0474 23.4616 11.6805 23.4616 12.0711 23.0711C12.4616 22.6805 12.4616 22.0474 12.0711 21.6569L6.41421 16L12.0711 10.3431C12.4616 9.95262 12.4616 9.31946 12.0711 8.92893C11.6805 8.53841 11.0474 8.53841 10.6569 8.92893L4.29289 15.2929ZM28 17C28.5523 17 29 16.5523 29 16C29 15.4477 28.5523 15 28 15V17ZM5 17H28V15H5V17Z" fill="black"/>
</svg>
