<svg width="60" height="60" viewBox="0 0 60 60" fill="none" xmlns="http://www.w3.org/2000/svg">
<g clip-path="url(#clip0_93_97)">
<path fill-rule="evenodd" clip-rule="evenodd" d="M0.619231 31.521L0.61479 31.4666C0.131656 25.5557 3.31857 20.2826 8.39103 16.4073C13.4604 12.5343 20.5227 9.95138 28.2054 9.32342C35.9275 8.69225 43.1612 10.3421 48.6181 13.5916C54.0756 16.8414 57.8369 21.7549 58.3154 27.6098C58.794 33.4647 55.8805 38.9238 51.0232 43.0166C46.1664 47.1091 39.2966 49.9118 31.5746 50.5429C24.097 51.1541 17.0568 50.8799 11.5092 48.1563C5.82939 45.3678 1.99496 40.1617 0.627806 31.5748L0.619231 31.521Z" fill="white"/>
<path fill-rule="evenodd" clip-rule="evenodd" d="M0.619231 31.521L0.61479 31.4666C0.131656 25.5557 3.31857 20.2826 8.39103 16.4073C13.4604 12.5343 20.5227 9.95138 28.2054 9.32342C35.9275 8.69225 43.1612 10.3421 48.6181 13.5916C54.0756 16.8414 57.8369 21.7549 58.3154 27.6098C58.794 33.4647 55.8805 38.9238 51.0232 43.0166C46.1664 47.1091 39.2966 49.9118 31.5746 50.5429C24.097 51.1541 17.0568 50.8799 11.5092 48.1563C5.82939 45.3678 1.99496 40.1617 0.627806 31.5748L0.619231 31.521ZM31.4521 49.044C46.2788 47.8322 57.5989 38.2935 56.7362 27.7389C55.8735 17.1842 43.1547 9.61042 28.328 10.8223C13.5012 12.0342 1.33128 20.7829 2.19398 31.3375C4.81503 47.7999 16.6253 50.2559 31.4521 49.044Z" fill="black"/>
<path d="M52.0592 28.5475C52.7255 36.6988 43.4079 44.1124 31.2478 45.1063C19.0878 46.1003 8.91433 43.0427 8.02374 32.1468C7.35749 23.9956 16.6751 16.582 28.8351 15.588C40.9952 14.5941 51.393 20.3963 52.0592 28.5475Z" fill="white"/>
<path fill-rule="evenodd" clip-rule="evenodd" d="M47.4377 40.366C43.3807 43.499 37.6905 45.6458 31.3347 46.1653C25.1306 46.6724 19.2158 46.2022 14.6738 44.0995C10.0111 41.941 6.88619 38.0925 6.40725 32.233C6.02879 27.6027 8.59125 23.3623 12.6383 20.2369C16.6953 17.1039 22.3855 14.9571 28.7414 14.4376C35.0972 13.9181 41.0605 15.1124 45.5724 17.545C50.0733 19.9717 53.2903 23.7397 53.6688 28.37C54.0472 33.0002 51.4848 37.2406 47.4377 40.366ZM31.2069 44.6023C43.367 43.6084 52.7013 36.4 52.0558 28.5018C51.4102 20.6036 41.0292 15.0067 28.8691 16.0006C16.709 16.9945 7.3747 24.203 8.02027 32.1011C8.88321 42.6586 19.0469 45.5963 31.2069 44.6023Z" fill="black"/>
<path fill-rule="evenodd" clip-rule="evenodd" d="M33.0459 40.6112C29.8691 39.1605 27.2475 40.4647 26.3874 41.2285C26.0867 41.4956 25.6263 41.4683 25.3593 41.1675C25.0922 40.8668 25.1195 40.4064 25.4202 40.1394C26.6101 39.0828 29.8363 37.5443 33.651 39.2863C34.0169 39.4534 34.178 39.8854 34.0109 40.2513C33.8439 40.6172 33.4118 40.7783 33.0459 40.6112Z" fill="black"/>
<path d="M35.5271 32.4093C35.816 33.4704 34.5714 34.3924 32.8629 34.8575C31.1544 35.3227 29.6289 35.1548 29.34 34.0937C29.0511 33.0325 30.2019 31.7952 31.9105 31.33C33.619 30.8649 35.2382 31.3481 35.5271 32.4093Z" fill="black"/>
<path fill-rule="evenodd" clip-rule="evenodd" d="M19.1286 37.1108C23.544 35.9088 26.517 32.7071 25.7691 29.9598C25.0211 27.2124 20.8354 25.9597 16.42 27.1618C12.0046 28.3638 9.03154 31.5655 9.77949 34.3128C10.5274 37.0602 14.7132 38.3129 19.1286 37.1108ZM20.1713 33.3947C21.8798 32.9296 23.0306 31.6923 22.7417 30.6311C22.4529 29.5699 20.8959 29.699 19.1874 30.1641C17.4789 30.6292 16.2657 31.2543 16.5546 32.3155C16.8435 33.3767 18.4628 33.8599 20.1713 33.3947Z" fill="black"/>
<path fill-rule="evenodd" clip-rule="evenodd" d="M45.051 32.8361C48.9454 31.7759 51.5635 28.9365 50.8986 26.4943C50.2337 24.052 46.5376 22.9316 42.6432 23.9919C38.7487 25.0521 36.1307 27.8914 36.7956 30.3337C37.4605 32.776 41.1565 33.8964 45.051 32.8361ZM45.2407 29.44C46.5294 29.0891 47.3554 28.0015 47.0856 27.0106C46.8159 26.0198 45.5816 26.1138 44.2929 26.4647C43.0042 26.8155 42.1491 27.2903 42.4188 28.2811C42.6886 29.272 43.952 29.7908 45.2407 29.44Z" fill="black"/>
</g>
<defs>
<clipPath id="clip0_93_97">
<rect width="60" height="60" fill="white"/>
</clipPath>
</defs>
</svg>
