<svg width="32" height="32" viewBox="0 0 32 32" fill="none" xmlns="http://www.w3.org/2000/svg">
<path fill-rule="evenodd" clip-rule="evenodd" d="M0.849433 16.8634L0.847103 16.8349C0.593656 13.7341 2.26548 10.9679 4.92644 8.93491C7.58578 6.9032 11.2906 5.54822 15.3209 5.21879C19.3718 4.88769 23.1665 5.75318 26.0292 7.45783C28.8921 9.16263 30.8652 11.7402 31.1163 14.8116C31.3673 17.8831 29.8389 20.7468 27.2909 22.8939C24.743 25.0408 21.1392 26.511 17.0883 26.8421C13.1656 27.1628 9.47243 27.0189 6.56219 25.5902C3.58263 24.1273 1.57113 21.3962 0.853931 16.8917L0.849433 16.8634Z" fill="white"/>
<path fill-rule="evenodd" clip-rule="evenodd" d="M0.849433 16.8634L0.847103 16.8349C0.593656 13.7341 2.26548 10.9679 4.92644 8.93491C7.58578 6.9032 11.2906 5.54822 15.3209 5.21879C19.3718 4.88769 23.1665 5.75318 26.0292 7.45783C28.8921 9.16263 30.8652 11.7402 31.1163 14.8116C31.3673 17.8831 29.8389 20.7468 27.2909 22.8939C24.743 25.0408 21.1392 26.511 17.0883 26.8421C13.1656 27.1628 9.47243 27.0189 6.5622 25.5902C3.58263 24.1273 1.57113 21.3962 0.853931 16.8917L0.849433 16.8634ZM17.024 26.0558C24.802 25.4201 30.7404 20.4162 30.2879 14.8794C29.8353 9.34249 23.1631 5.36935 15.3852 6.0051C7.60718 6.64084 1.22297 11.2303 1.67553 16.7672C3.05051 25.4032 9.24606 26.6916 17.024 26.0558Z" fill="black"/>
<path d="M27.8343 15.3036C28.1838 19.5796 23.2959 23.4687 16.9168 23.9901C10.5378 24.5115 5.20087 22.9076 4.73367 17.1917C4.38416 12.9157 9.27207 9.02654 15.6511 8.50514C22.0302 7.98374 27.4847 11.0275 27.8343 15.3036Z" fill="white"/>
<path fill-rule="evenodd" clip-rule="evenodd" d="M25.4099 21.5036C23.2817 23.1471 20.2967 24.2733 16.9625 24.5458C13.7079 24.8118 10.605 24.5652 8.22232 23.4621C5.77631 22.3298 4.13702 20.3109 3.88578 17.237C3.68724 14.8081 5.03148 12.5836 7.15454 10.944C9.2828 9.30049 12.2678 8.17432 15.602 7.9018C18.9362 7.62927 22.0645 8.25576 24.4314 9.53189C26.7925 10.8049 28.4802 12.7816 28.6787 15.2106C28.8772 17.6395 27.533 19.864 25.4099 21.5036ZM16.8954 23.7259C23.2745 23.2045 28.1712 19.423 27.8325 15.2797C27.4939 11.1364 22.0481 8.2003 15.669 8.7217C9.29 9.2431 4.39329 13.0246 4.73195 17.1679C5.18464 22.7063 10.5164 24.2473 16.8954 23.7259Z" fill="black"/>
<path fill-rule="evenodd" clip-rule="evenodd" d="M17.8599 21.6321C16.1934 20.871 14.8182 21.5552 14.3669 21.9559C14.2092 22.096 13.9677 22.0816 13.8276 21.9239C13.6875 21.7661 13.7018 21.5246 13.8596 21.3845C14.4837 20.8302 16.1762 20.0232 18.1773 20.937C18.3693 21.0246 18.4538 21.2513 18.3662 21.4432C18.2785 21.6352 18.0519 21.7197 17.8599 21.6321Z" fill="black"/>
<path d="M19.1617 17.3294C19.3133 17.8861 18.6604 18.3697 17.7641 18.6137C16.8678 18.8578 16.0676 18.7697 15.916 18.213C15.7645 17.6564 16.3682 17.0073 17.2645 16.7633C18.1607 16.5193 19.0102 16.7727 19.1617 17.3294Z" fill="black"/>
<path fill-rule="evenodd" clip-rule="evenodd" d="M10.5591 19.7959C12.8754 19.1653 14.435 17.4858 14.0426 16.0445C13.6503 14.6033 11.4545 13.9461 9.13821 14.5767C6.82193 15.2073 5.2623 16.8869 5.65466 18.3281C6.04703 19.7693 8.24282 20.4265 10.5591 19.7959ZM11.1061 17.8465C12.0024 17.6025 12.6061 16.9534 12.4545 16.3967C12.303 15.84 11.4862 15.9077 10.59 16.1517C9.6937 16.3957 9.05728 16.7237 9.20884 17.2803C9.36039 17.837 10.2098 18.0905 11.1061 17.8465Z" fill="black"/>
<path fill-rule="evenodd" clip-rule="evenodd" d="M24.1578 17.5534C26.2008 16.9972 27.5742 15.5077 27.2254 14.2265C26.8766 12.9453 24.9377 12.3576 22.8947 12.9138C20.8517 13.47 19.4783 14.9595 19.8271 16.2407C20.1759 17.5219 22.1148 18.1096 24.1578 17.5534ZM24.2574 15.7719C24.9334 15.5878 25.3668 15.0172 25.2253 14.4974C25.0837 13.9777 24.4363 14.027 23.7602 14.211C23.0842 14.3951 22.6356 14.6442 22.7771 15.1639C22.9186 15.6837 23.5814 15.9559 24.2574 15.7719Z" fill="black"/>
</svg>
