<svg width="16" height="16" viewBox="0 0 16 16" fill="none" xmlns="http://www.w3.org/2000/svg">
<path fill-rule="evenodd" clip-rule="evenodd" d="M0.424716 8.43164L0.423552 8.41739C0.296828 6.867 1.13274 5.48388 2.46322 4.4674C3.79289 3.45154 5.64529 2.77405 7.66044 2.60934C9.6859 2.44378 11.5833 2.87653 13.0146 3.72885C14.446 4.58126 15.4326 5.87005 15.5581 7.40576C15.6837 8.94147 14.9195 10.3734 13.6454 11.4469C12.3715 12.5203 10.5696 13.2555 8.54415 13.421C6.58282 13.5813 4.73622 13.5094 3.2811 12.795C1.79131 12.0636 0.785564 10.6981 0.426965 8.44577L0.424716 8.43164Z" fill="white"/>
<path fill-rule="evenodd" clip-rule="evenodd" d="M0.424716 8.43164L0.423552 8.41739C0.296828 6.867 1.13274 5.48388 2.46322 4.4674C3.79289 3.45154 5.64529 2.77405 7.66044 2.60934C9.6859 2.44378 11.5833 2.87653 13.0146 3.72885C14.446 4.58126 15.4326 5.87005 15.5581 7.40576C15.6837 8.94147 14.9195 10.3734 13.6454 11.4469C12.3715 12.5203 10.5696 13.2555 8.54415 13.421C6.58282 13.5813 4.73621 13.5094 3.2811 12.795C1.79131 12.0636 0.785564 10.6981 0.426965 8.44577L0.424716 8.43164ZM8.51202 13.0279C12.401 12.71 15.3702 10.208 15.1439 7.43961C14.9177 4.67119 11.5816 2.68462 7.69258 3.00249C3.80359 3.32036 0.611484 5.6151 0.837765 8.38353C1.52525 12.7015 4.62303 13.3457 8.51202 13.0279Z" fill="black"/>
<path d="M13.9172 7.65178C14.092 9.78981 11.6481 11.7344 8.45853 11.9951C5.269 12.2558 2.60056 11.4538 2.36696 8.59586C2.1922 6.45783 4.63616 4.51327 7.82568 4.25257C11.0152 3.99187 13.7425 5.51375 13.9172 7.65178Z" fill="white"/>
<path fill-rule="evenodd" clip-rule="evenodd" d="M12.705 10.7518C11.6408 11.5736 10.1483 12.1366 8.48123 12.2729C6.85393 12.4059 5.30252 12.2826 4.11116 11.7311C2.88816 11.1649 2.06851 10.1555 1.94289 8.61852C1.84362 7.40403 2.51574 6.29179 3.57727 5.47202C4.6414 4.65025 6.13391 4.08716 7.80102 3.9509C9.46812 3.81463 11.0323 4.12788 12.2157 4.76594C13.3963 5.40245 14.2401 6.39079 14.3394 7.60528C14.4386 8.81976 13.7665 9.93201 12.705 10.7518ZM8.44772 11.8629C11.6372 11.6022 14.0856 9.71151 13.9163 7.63986C13.7469 5.56821 11.024 4.10015 7.83452 4.36085C4.645 4.62155 2.19665 6.51229 2.36598 8.58394C2.59232 11.3531 5.25819 12.1236 8.44772 11.8629Z" fill="black"/>
<path fill-rule="evenodd" clip-rule="evenodd" d="M8.93009 10.8161C8.09682 10.4356 7.4092 10.7776 7.18359 10.978C7.1047 11.048 6.98397 11.0409 6.91391 10.962C6.84386 10.8831 6.85102 10.7624 6.92991 10.6923C7.242 10.4152 8.08823 10.0116 9.08879 10.4686C9.18476 10.5124 9.22703 10.6257 9.18321 10.7217C9.13938 10.8176 9.02606 10.8599 8.93009 10.8161Z" fill="black"/>
<path d="M9.58086 8.66471C9.65663 8.94305 9.33019 9.18487 8.88205 9.30687C8.43391 9.42888 8.03378 9.38486 7.95801 9.10652C7.88223 8.82818 8.18409 8.50364 8.63223 8.38163C9.08037 8.25963 9.50508 8.38637 9.58086 8.66471Z" fill="black"/>
<path fill-rule="evenodd" clip-rule="evenodd" d="M5.27955 9.89795C6.43769 9.58266 7.21751 8.74288 7.02132 8.02227C6.82514 7.30165 5.72724 6.97307 4.56911 7.28837C3.41097 7.60366 2.63115 8.44344 2.82733 9.16405C3.02352 9.88467 4.12141 10.2132 5.27955 9.89795ZM5.55311 8.92316C6.00125 8.80116 6.30311 8.47662 6.22733 8.19828C6.15156 7.91994 5.74319 7.95378 5.29505 8.07578C4.84691 8.19779 4.5287 8.36175 4.60448 8.64009C4.68026 8.91843 5.10497 9.04517 5.55311 8.92316Z" fill="black"/>
<path fill-rule="evenodd" clip-rule="evenodd" d="M12.0789 8.77676C13.1004 8.49867 13.7871 7.75392 13.6127 7.11332C13.4383 6.47273 12.4688 6.17886 11.4473 6.45695C10.4258 6.73505 9.73914 7.4798 9.91354 8.12039C10.0879 8.76099 11.0574 9.05485 12.0789 8.77676ZM12.1286 7.88605C12.4666 7.79403 12.6832 7.50874 12.6125 7.24885C12.5417 6.98895 12.218 7.01362 11.88 7.10564C11.542 7.19767 11.3177 7.3222 11.3884 7.58209C11.4592 7.84199 11.7905 7.97807 12.1286 7.88605Z" fill="black"/>
</svg>
