<svg width="32" height="32" viewBox="0 0 32 32" fill="none" xmlns="http://www.w3.org/2000/svg">
<g clip-path="url(#clip0_261_240)">
<path fill-rule="evenodd" clip-rule="evenodd" d="M1.9743 31.2619C1.68658 31.1728 1.45013 30.9563 1.33863 30.6718C1.33645 30.6697 1.33419 30.6675 1.33183 30.6653C1.32549 30.6592 1.31842 30.6524 1.31031 30.6446C1.2845 30.6198 1.2491 30.5856 1.21251 30.5477C1.14481 30.4776 1.03135 30.3532 0.939622 30.1845C0.911325 30.1324 0.896782 30.1108 0.87345 30.0761C0.84907 30.0398 0.815095 29.9892 0.745805 29.8748C0.656373 29.7271 0.515133 29.4754 0.45935 29.1579C0.257849 28.0111 0.1043 26.8545 0.044177 25.6413C-0.0356587 24.0302 0.00585636 22.4294 0.0653173 20.8612C0.0772667 20.5461 0.0899073 20.2328 0.102488 19.921C0.153006 18.6691 0.202564 17.441 0.202564 16.21V2.97263C0.202564 2.94603 0.201803 2.90734 0.200889 2.86095C0.19811 2.71976 0.193924 2.50713 0.205521 2.34628C0.225351 2.07124 0.291033 1.7394 0.500604 1.40423C0.722729 1.04899 1.05433 0.872598 1.23523 0.789046C1.38222 0.721155 1.56683 0.658032 1.65021 0.629518C1.66724 0.623697 1.68004 0.619319 1.68745 0.616637C2.12852 0.456884 2.87761 0.222607 3.4656 0.177536C4.931 0.0652065 6.3693 0 7.8607 0H24.8937C25.8941 0 27.1113 0.111721 28.1754 0.601157C28.7889 0.883327 29.199 1.4062 29.4558 1.87841C29.719 2.36244 29.8824 2.90326 29.9442 3.38283L29.944 3.38144C29.944 3.38144 29.9463 3.39435 29.9569 3.42718C29.9688 3.46384 29.9818 3.49816 30.0036 3.55604C30.0089 3.57014 30.0148 3.58565 30.0213 3.60293L30.025 3.61282C30.0784 3.75483 30.1853 4.03884 30.1938 4.3724C30.1988 4.56851 30.2278 4.76969 30.2683 5.04552L30.2693 5.05258C30.3066 5.30674 30.3541 5.6305 30.3582 5.9714C30.3676 6.75476 30.4157 7.55078 30.4986 8.33187C30.5378 8.70103 30.616 9.06806 30.7078 9.49878L30.7081 9.50004C30.7964 9.91433 30.8976 10.3892 30.9464 10.8886C30.9744 11.1757 31.0366 11.4553 31.114 11.8034C31.1258 11.8568 31.1381 11.9118 31.1506 11.9687C31.2385 12.3683 31.3381 12.853 31.3432 13.3732C31.3529 14.3434 31.4755 15.2795 31.6108 16.3129C31.6161 16.3532 31.6214 16.3937 31.6267 16.4343C31.8008 17.7654 31.8132 19.1191 31.8249 20.3988C31.8277 20.7117 31.8305 21.0202 31.8357 21.3228C31.8461 21.9393 31.8798 22.5542 31.9147 23.1914C31.9183 23.2559 31.9218 23.3206 31.9254 23.3856C31.9634 24.0848 32 24.8095 32 25.5446V27.4653C32 28.427 31.5555 29.16 30.9698 29.6692C30.4092 30.1565 29.7144 30.4491 29.1076 30.6249C28.6777 30.7495 28.1707 30.8624 27.7327 30.9344C27.4498 30.9808 27.1609 31.0659 26.8116 31.1756C26.776 31.1868 26.7396 31.1983 26.7024 31.2101C26.3952 31.3072 26.0359 31.4208 25.6658 31.5008C24.2566 31.8053 22.9149 31.9858 21.4415 31.9858H6.37402C6.10113 31.9858 5.81548 31.9892 5.52294 31.9926C4.9102 31.9998 4.26721 32.0073 3.64774 31.9852C3.39931 31.9763 3.19548 31.9063 3.05204 31.8432C2.93247 31.7905 2.81947 31.7255 2.75836 31.6903C2.75163 31.6864 2.74553 31.6829 2.74012 31.6798C2.70964 31.6624 2.68693 31.6502 2.67092 31.6419C2.38837 31.6164 2.13973 31.4732 1.9743 31.2619Z" fill="#9EDD80"/>
<path fill-rule="evenodd" clip-rule="evenodd" d="M7.8607 2C6.42882 2 5.04227 2.06254 3.61846 2.17169C3.31834 2.19469 2.785 2.34625 2.36853 2.4971C2.33248 2.51015 2.29609 2.5227 2.26648 2.53291L2.26179 2.53452C2.23809 2.54269 2.21755 2.54977 2.19768 2.55677C2.19719 2.58663 2.19731 2.62268 2.19802 2.66791C2.19833 2.68794 2.19883 2.71212 2.19938 2.73898C2.20079 2.80746 2.20256 2.89338 2.20256 2.97263V16.21C2.20256 17.4854 2.15089 18.7644 2.10016 20.0202C2.08776 20.3273 2.07541 20.633 2.06388 20.937C2.00476 22.4961 1.96647 24.0237 2.04173 25.5423C2.09607 26.6389 2.23467 27.6996 2.42367 28.7804C2.42904 28.791 2.43918 28.8101 2.45671 28.839C2.47663 28.8719 2.49599 28.9019 2.52307 28.9439C2.53249 28.9585 2.54285 28.9745 2.55448 28.9926C2.5854 29.0407 2.62505 29.1031 2.66503 29.1726C2.67649 29.1841 2.68403 29.1912 2.69465 29.2012C2.70972 29.2153 2.731 29.2353 2.77848 29.2822C2.83809 29.341 2.94017 29.4448 3.0316 29.5796C3.0525 29.6104 3.07401 29.6446 3.09517 29.6819C3.38756 29.7443 3.609 29.8721 3.71325 29.9323C3.72027 29.9364 3.72676 29.9401 3.73271 29.9435C3.77051 29.9651 3.79598 29.9796 3.81387 29.9896C4.35456 30.0062 4.88283 29.9998 5.4338 29.9932C5.7383 29.9896 6.04973 29.9858 6.37402 29.9858H21.4415C22.741 29.9858 23.9379 29.828 25.2434 29.5459C25.5166 29.4869 25.7843 29.4025 26.104 29.3016C26.1393 29.2905 26.1753 29.2792 26.2119 29.2677C26.561 29.1579 26.9709 29.0327 27.4085 28.9608C27.7725 28.901 28.2016 28.8052 28.551 28.7039C29.0082 28.5714 29.3988 28.3848 29.6576 28.1598C29.8912 27.9567 30 27.7443 30 27.4653V25.5446C30 24.8698 29.9664 24.194 29.9283 23.4943C29.9248 23.4289 29.9212 23.3633 29.9175 23.2974C29.8829 22.6661 29.8471 22.0132 29.836 21.3567C29.8302 21.0193 29.8271 20.6875 29.824 20.3602C29.8119 19.0929 29.8004 17.8929 29.6436 16.6936C29.6367 16.6412 29.6299 16.5886 29.6229 16.536C29.4913 15.5321 29.3542 14.4871 29.3433 13.3932C29.3404 13.0984 29.2836 12.7906 29.1973 12.3985C29.1868 12.3509 29.1758 12.3015 29.1644 12.2505C29.0885 11.9114 28.9967 11.5015 28.9558 11.0831C28.9196 10.7126 28.8431 10.3441 28.752 9.91697L28.7427 9.87292C28.6574 9.4732 28.5602 9.01741 28.5098 8.54306C28.4204 7.70167 28.3686 6.84321 28.3583 5.99556C28.356 5.80501 28.3291 5.60606 28.2894 5.33573C28.2877 5.32365 28.2859 5.3114 28.284 5.29897C28.2487 5.05875 28.2041 4.75579 28.1949 4.43962C28.192 4.43004 28.1815 4.39279 28.1491 4.30639C28.1453 4.29639 28.1409 4.2848 28.1359 4.27176C28.0894 4.1509 27.9949 3.9051 27.9606 3.63841C27.9288 3.39161 27.838 3.08982 27.6988 2.8339C27.5532 2.56615 27.4127 2.45174 27.3397 2.41819C26.6634 2.10712 25.7866 2 24.8937 2H7.8607ZM1.9743 31.2619C1.68658 31.1728 1.45013 30.9563 1.33863 30.6718C1.33645 30.6697 1.33419 30.6675 1.33183 30.6653C1.32549 30.6592 1.31842 30.6524 1.31031 30.6446C1.2845 30.6198 1.2491 30.5856 1.21251 30.5477C1.14481 30.4776 1.03135 30.3532 0.939622 30.1845C0.911325 30.1324 0.896782 30.1108 0.87345 30.0761C0.84907 30.0398 0.815095 29.9892 0.745805 29.8748C0.656373 29.7271 0.515133 29.4754 0.45935 29.1579C0.257849 28.0111 0.1043 26.8545 0.044177 25.6413C-0.0356587 24.0302 0.00585636 22.4294 0.0653173 20.8612C0.0772667 20.5461 0.0899073 20.2328 0.102488 19.921C0.153006 18.6691 0.202564 17.441 0.202564 16.21V2.97263C0.202564 2.94603 0.201803 2.90734 0.200889 2.86095C0.19811 2.71976 0.193924 2.50713 0.205521 2.34628C0.225351 2.07124 0.291033 1.7394 0.500604 1.40423C0.722729 1.04899 1.05433 0.872598 1.23523 0.789046C1.38222 0.721155 1.56683 0.658032 1.65021 0.629518C1.66724 0.623697 1.68004 0.619319 1.68745 0.616637C2.12852 0.456884 2.87761 0.222607 3.4656 0.177536C4.931 0.0652065 6.3693 0 7.8607 0H24.8937C25.8941 0 27.1113 0.111721 28.1754 0.601157C28.7889 0.883327 29.199 1.4062 29.4558 1.87841C29.719 2.36244 29.8824 2.90326 29.9442 3.38283C29.9441 3.38192 29.944 3.38144 29.944 3.38144C29.944 3.38144 29.9463 3.39435 29.9569 3.42718C29.9688 3.46384 29.9818 3.49816 30.0036 3.55604C30.0089 3.57014 30.0148 3.58565 30.0213 3.60293L30.025 3.61282C30.0784 3.75483 30.1853 4.03884 30.1938 4.3724C30.1988 4.56851 30.2278 4.76969 30.2683 5.04552L30.2693 5.05258C30.3066 5.30674 30.3541 5.6305 30.3582 5.9714C30.3676 6.75476 30.4157 7.55078 30.4986 8.33187C30.5378 8.70103 30.616 9.06806 30.7078 9.49878L30.7081 9.50004C30.7964 9.91433 30.8976 10.3892 30.9464 10.8886C30.9744 11.1757 31.0366 11.4553 31.114 11.8034C31.1258 11.8568 31.1381 11.9118 31.1506 11.9687C31.2385 12.3683 31.3381 12.853 31.3432 13.3732C31.3529 14.3434 31.4755 15.2795 31.6108 16.3129C31.6161 16.3532 31.6214 16.3937 31.6267 16.4343C31.8008 17.7654 31.8132 19.1191 31.8249 20.3988C31.8277 20.7117 31.8305 21.0202 31.8357 21.3228C31.8461 21.9393 31.8798 22.5542 31.9147 23.1914C31.9183 23.2559 31.9218 23.3206 31.9254 23.3856C31.9634 24.0848 32 24.8095 32 25.5446V27.4653C32 28.427 31.5555 29.16 30.9698 29.6692C30.4092 30.1565 29.7144 30.4491 29.1076 30.6249C28.6777 30.7495 28.1707 30.8624 27.7327 30.9344C27.4498 30.9808 27.1609 31.0659 26.8116 31.1756C26.776 31.1868 26.7396 31.1983 26.7024 31.2101C26.3952 31.3072 26.0359 31.4208 25.6658 31.5008C24.2566 31.8053 22.9149 31.9858 21.4415 31.9858H6.37402C6.10113 31.9858 5.81548 31.9892 5.52294 31.9926C4.9102 31.9998 4.26721 32.0073 3.64774 31.9852C3.39931 31.9763 3.19548 31.9063 3.05204 31.8432C2.93247 31.7905 2.81947 31.7255 2.75836 31.6903C2.75163 31.6864 2.74553 31.6829 2.74012 31.6798C2.70964 31.6624 2.68693 31.6502 2.67092 31.6419C2.38837 31.6164 2.13973 31.4732 1.9743 31.2619Z" fill="black"/>
<path fill-rule="evenodd" clip-rule="evenodd" d="M24.3066 7.04792C24.8323 7.2172 25.1213 7.7806 24.952 8.3063C24.8435 8.64302 24.6428 8.96351 24.4939 9.18646C24.4131 9.30759 24.3301 9.42483 24.2589 9.52521L24.252 9.53492C24.1805 9.63585 24.1242 9.71527 24.078 9.78452C23.5819 10.5282 23.1305 11.2933 22.6627 12.0864C22.5344 12.3039 22.4049 12.5235 22.2728 12.7453C21.3828 14.2405 20.4226 15.7017 19.4763 17.1417C19.0675 17.7639 18.6612 18.3822 18.2644 18.9975C18.2224 19.0626 18.1804 19.1276 18.1385 19.1926C17.4463 20.2655 16.7656 21.3206 16.1211 22.3992C16.094 22.4445 16.0622 22.5004 16.0258 22.5643C15.8536 22.8667 15.5813 23.3452 15.2497 23.6884C15.0152 23.9311 14.6988 24.0238 14.4117 23.9945C14.1787 23.9707 14.0143 23.8736 13.944 23.8278C13.7991 23.7332 13.7017 23.6193 13.6652 23.576C13.5724 23.4657 13.4883 23.3363 13.4321 23.2465C13.3696 23.1467 13.3108 23.0456 13.2683 22.9716C13.2256 22.8973 13.2126 22.8749 13.213 22.8747C13.2132 22.8746 13.2162 22.8791 13.2204 22.8855C12.8866 22.3844 12.6352 22.0117 12.3316 21.7511C11.8058 21.2997 11.2378 20.8808 10.6386 20.4528C10.5 20.3539 10.3589 20.2539 10.2162 20.1527C9.75291 19.8243 9.27325 19.4843 8.81221 19.1326C8.58657 18.9605 8.3651 18.7854 8.15111 18.6161L8.12869 18.5983C7.9205 18.4335 7.71945 18.2744 7.51688 18.1191C7.51641 18.1187 7.51567 18.1182 7.51471 18.1174C7.50404 18.1093 7.46496 18.0796 7.42491 18.0455C7.38857 18.0145 7.30368 17.9405 7.22412 17.8363C7.18442 17.7843 7.1163 17.6867 7.06583 17.551C7.01524 17.4149 6.9559 17.1656 7.04877 16.8746C7.24975 16.2449 7.85775 16.1663 7.93043 16.1569L7.93128 16.1568C8.36565 16.1006 8.77093 16.3321 8.95542 16.7035C9.09447 16.8121 9.23161 16.9206 9.36575 17.0268L9.39232 17.0478C9.60767 17.2183 9.81576 17.3827 10.0251 17.5424C10.4557 17.8708 10.8957 18.1828 11.3526 18.5067C11.5002 18.6113 11.6495 18.7172 11.8009 18.8253C12.41 19.2602 13.0378 19.7215 13.6343 20.2335C13.9775 20.5281 14.2632 20.8815 14.5007 21.2125C15.1346 20.1594 15.7985 19.1303 16.4532 18.1156C16.4967 18.0482 16.5402 17.9808 16.5836 17.9135C17.0007 17.2669 17.4182 16.6315 17.8329 16.0004C18.7676 14.5782 19.6877 13.1781 20.5542 11.7223C20.6769 11.5162 20.8003 11.307 20.9248 11.096C21.3964 10.2963 21.8843 9.46907 22.4142 8.67468C22.4768 8.58078 22.5486 8.47954 22.6136 8.38784L22.6274 8.36847C22.6996 8.26661 22.7674 8.17063 22.8307 8.07579C22.9702 7.86681 23.0318 7.74441 23.0483 7.69326C23.2175 7.16756 23.7809 6.87863 24.3066 7.04792ZM8.70749 16.5108C8.70782 16.5109 8.71176 16.5141 8.7183 16.5198C8.71043 16.5136 8.70716 16.5107 8.70749 16.5108Z" fill="black"/>
</g>
<defs>
<clipPath id="clip0_261_240">
<rect width="32" height="32" fill="white"/>
</clipPath>
</defs>
</svg>
