<svg width="64" height="64" viewBox="0 0 64 64" fill="none" xmlns="http://www.w3.org/2000/svg">
<g clip-path="url(#clip0_93_97)">
<path fill-rule="evenodd" clip-rule="evenodd" d="M0.754146 33.564L0.749335 33.5052C0.225946 27.1018 3.6784 21.3893 9.1735 17.1911C14.6652 12.9954 22.3159 10.1973 30.6389 9.51698C39.0043 8.83322 46.8407 10.6205 52.7523 14.1408C58.6645 17.6613 62.7392 22.9843 63.2576 29.327C63.776 35.6697 60.6198 41.5836 55.3578 46.0175C50.0963 50.451 42.6541 53.4871 34.2887 54.1709C26.1881 54.833 18.5613 54.536 12.5515 51.5854C6.39841 48.5646 2.2445 42.9247 0.763435 33.6224L0.754146 33.564Z" fill="white"/>
<path fill-rule="evenodd" clip-rule="evenodd" d="M0.754146 33.564L0.749335 33.5052C0.225946 27.1018 3.6784 21.3893 9.1735 17.1911C14.6652 12.9954 22.3159 10.1973 30.6388 9.51698C39.0043 8.83322 46.8407 10.6205 52.7523 14.1408C58.6645 17.6613 62.7392 22.9843 63.2576 29.327C63.776 35.6697 60.6198 41.5836 55.3578 46.0175C50.0963 50.451 42.6541 53.4871 34.2887 54.1709C26.1881 54.833 18.5613 54.536 12.5515 51.5854C6.39841 48.5646 2.2445 42.9247 0.763435 33.6224L0.754146 33.564ZM34.156 52.5471C50.2181 51.2343 62.4814 40.9008 61.5468 29.4668C60.6123 18.0327 46.8337 9.8279 30.7716 11.1408C14.7094 12.4536 1.52552 21.9313 2.4601 33.3653C5.29954 51.1993 18.0938 53.86 34.156 52.5471Z" fill="black"/>
<path d="M56.4802 30.3429C57.2019 39.1733 47.108 47.2046 33.9348 48.2813C20.7615 49.3581 9.74042 46.0457 8.77562 34.2421C8.05386 25.4116 18.1478 17.3803 31.321 16.3036C44.4943 15.2268 55.7584 21.5124 56.4802 30.3429Z" fill="white"/>
<path fill-rule="evenodd" clip-rule="evenodd" d="M51.4734 43.1461C47.0784 46.5401 40.9141 48.8657 34.0287 49.4285C27.3077 49.9779 20.9001 49.4685 15.9796 47.1907C10.9284 44.8523 7.54316 40.6831 7.02432 34.3354C6.61433 29.3193 9.39029 24.7256 13.7746 21.3398C18.1696 17.9458 24.3339 15.6201 31.2193 15.0574C38.1047 14.4946 44.5649 15.7883 49.4527 18.4236C54.3286 21.0525 57.8137 25.1345 58.2237 30.1505C58.6337 35.1665 55.8577 39.7603 51.4734 43.1461ZM33.8903 47.7354C47.0635 46.6586 57.1756 38.8496 56.4763 30.2933C55.7769 21.7371 44.531 15.6738 31.3577 16.7505C18.1845 17.8272 8.07238 25.6363 8.77174 34.1925C9.70657 45.6297 20.7171 48.8121 33.8903 47.7354Z" fill="black"/>
<path fill-rule="evenodd" clip-rule="evenodd" d="M35.8826 43.4117C32.4411 41.8401 29.6011 43.2529 28.6693 44.0804C28.3435 44.3697 27.8448 44.3401 27.5555 44.0143C27.2662 43.6885 27.2957 43.1898 27.6215 42.9005C28.9105 41.7559 32.4056 40.0892 36.5381 41.9763C36.9344 42.1573 37.109 42.6254 36.928 43.0217C36.747 43.4181 36.279 43.5927 35.8826 43.4117Z" fill="black"/>
<path d="M38.5706 34.5264C38.8836 35.676 37.5353 36.6748 35.6844 37.1787C33.8335 37.6826 32.1809 37.5008 31.8679 36.3512C31.555 35.2016 32.8017 33.8612 34.6526 33.3573C36.5035 32.8534 38.2576 33.3768 38.5706 34.5264Z" fill="black"/>
<path fill-rule="evenodd" clip-rule="evenodd" d="M20.8056 39.6197C25.5889 38.3174 28.8096 34.849 27.9994 31.8728C27.1891 28.8965 22.6546 27.5394 17.8713 28.8417C13.088 30.1439 9.86725 33.6123 10.6775 36.5886C11.4878 39.5648 16.0223 40.9219 20.8056 39.6197ZM21.9351 35.594C23.7859 35.0902 25.0327 33.7497 24.7197 32.6002C24.4067 31.4506 22.7201 31.5903 20.8692 32.0942C19.0183 32.5981 17.7041 33.2753 18.0171 34.4249C18.33 35.5745 20.0842 36.0979 21.9351 35.594Z" fill="black"/>
<path fill-rule="evenodd" clip-rule="evenodd" d="M48.8875 34.9888C53.1065 33.8402 55.9427 30.7643 55.2224 28.1185C54.5021 25.4728 50.498 24.2591 46.2791 25.4076C42.0602 26.5562 39.224 29.6321 39.9443 32.2779C40.6646 34.9237 44.6686 36.1374 48.8875 34.9888ZM49.0932 31.3097C50.4893 30.9296 51.3841 29.7513 51.0919 28.6779C50.7997 27.6045 49.4626 27.7064 48.0665 28.0865C46.6704 28.4665 45.7441 28.9809 46.0363 30.0543C46.3285 31.1277 47.6972 31.6897 49.0932 31.3097Z" fill="black"/>
</g>
<defs>
<clipPath id="clip0_93_97">
<rect width="64" height="64" fill="white"/>
</clipPath>
</defs>
</svg>
