<svg width="48" height="48" viewBox="0 0 48 48" fill="none" xmlns="http://www.w3.org/2000/svg">
<g clip-path="url(#clip0_93_79)">
<path fill-rule="evenodd" clip-rule="evenodd" d="M1.30069 25.6972L1.29713 25.6536C0.909035 20.9055 3.46902 16.6697 7.54362 13.5567C11.6157 10.4456 17.2887 8.37082 23.4601 7.86639C29.6631 7.35938 35.4738 8.68467 39.8572 11.2949C44.241 13.9054 47.2624 17.8523 47.6468 22.5554C48.0312 27.2585 45.6909 31.6437 41.7892 34.9314C37.8878 38.2189 32.3694 40.4701 26.1665 40.9771C20.1599 41.4681 14.5047 41.2479 10.0484 39.06C5.4859 36.8201 2.40579 32.6381 1.30758 25.7405L1.30069 25.6972Z" fill="white"/>
<path fill-rule="evenodd" clip-rule="evenodd" d="M1.30069 25.6972L1.29713 25.6536C0.909035 20.9055 3.46902 16.6697 7.54362 13.5567C11.6157 10.4456 17.2887 8.37082 23.4601 7.86639C29.6631 7.35938 35.4738 8.68467 39.8572 11.2949C44.241 13.9054 47.2624 17.8523 47.6468 22.5554C48.0312 27.2585 45.6909 31.6437 41.7892 34.9314C37.8878 38.2189 32.3694 40.4701 26.1665 40.9771C20.1599 41.4681 14.5047 41.2479 10.0484 39.06C5.4859 36.8201 2.40579 32.6381 1.30758 25.7405L1.30069 25.6972ZM26.0681 39.7731C37.9781 38.7996 47.0713 31.1374 46.3783 22.6591C45.6853 14.1808 35.4685 8.09693 23.5585 9.07042C11.6485 10.0439 1.87267 17.0716 2.56566 25.5499C4.67109 38.7737 14.158 40.7466 26.0681 39.7731Z" fill="black"/>
<path d="M42.6213 23.3087C43.1565 29.8564 35.6719 35.8116 25.904 36.61C16.1361 37.4084 7.96398 34.9523 7.24858 26.1999C6.7134 19.6522 14.198 13.697 23.9659 12.8986C33.7338 12.1002 42.0862 16.761 42.6213 23.3087Z" fill="white"/>
<path fill-rule="evenodd" clip-rule="evenodd" d="M38.9089 32.8022C35.65 35.3188 31.0792 37.0433 25.9737 37.4606C20.9901 37.8679 16.2389 37.4903 12.5904 35.8012C8.8449 34.0674 6.33474 30.9759 5.95002 26.2691C5.64601 22.5497 7.70438 19.1434 10.9553 16.6329C14.2142 14.1162 18.785 12.3918 23.8905 11.9745C28.9961 11.5572 33.7862 12.5165 37.4105 14.4706C41.026 16.4199 43.6102 19.4466 43.9142 23.166C44.2182 26.8854 42.1598 30.2916 38.9089 32.8022ZM25.8711 36.2051C35.639 35.4067 43.1371 29.6163 42.6185 23.2719C42.0999 16.9275 33.7611 12.4316 23.9932 13.2299C14.2252 14.0283 6.72716 19.8187 7.24573 26.1632C7.9389 34.6438 16.1031 37.0035 25.8711 36.2051Z" fill="black"/>
<path fill-rule="evenodd" clip-rule="evenodd" d="M27.3483 32.9991C24.7964 31.8338 22.6905 32.8814 21.9996 33.495C21.758 33.7095 21.3882 33.6876 21.1737 33.446C20.9592 33.2044 20.9811 32.8346 21.2227 32.6201C22.1785 31.7714 24.7701 30.5355 27.8343 31.9348C28.1282 32.0691 28.2576 32.4161 28.1234 32.71C27.9892 33.0039 27.6421 33.1334 27.3483 32.9991Z" fill="black"/>
<path d="M29.3413 26.4107C29.5734 27.2631 28.5737 28.0037 27.2012 28.3774C25.8288 28.751 24.6034 28.6162 24.3714 27.7638C24.1393 26.9114 25.0637 25.9174 26.4362 25.5438C27.8086 25.1702 29.1093 25.5583 29.3413 26.4107Z" fill="black"/>
<path fill-rule="evenodd" clip-rule="evenodd" d="M16.1688 30.1874C19.7156 29.2218 22.1038 26.65 21.503 24.4432C20.9022 22.2363 17.5399 21.23 13.9931 22.1956C10.4463 23.1612 8.05812 25.733 8.65893 27.9399C9.25974 30.1468 12.622 31.153 16.1688 30.1874ZM17.0064 27.2024C18.3789 26.8288 19.3033 25.8348 19.0712 24.9824C18.8392 24.13 17.5885 24.2337 16.2161 24.6073C14.8437 24.9809 13.8692 25.4831 14.1013 26.3355C14.3333 27.1879 15.634 27.576 17.0064 27.2024Z" fill="black"/>
<path fill-rule="evenodd" clip-rule="evenodd" d="M36.9919 26.7537C40.1202 25.902 42.2232 23.6212 41.6891 21.6594C41.155 19.6976 38.186 18.7976 35.0577 19.6493C31.9294 20.5009 29.8264 22.7817 30.3605 24.7435C30.8946 26.7054 33.8635 27.6053 36.9919 26.7537ZM37.1442 24.0256C38.1794 23.7438 38.8429 22.8701 38.6263 22.0742C38.4096 21.2783 37.4181 21.3538 36.3829 21.6356C35.3477 21.9174 34.6609 22.2988 34.8775 23.0947C35.0942 23.8907 36.1091 24.3074 37.1442 24.0256Z" fill="black"/>
</g>
<defs>
<clipPath id="clip0_93_79">
<rect width="48" height="48" fill="white"/>
</clipPath>
</defs>
</svg>
