<svg width="128" height="128" viewBox="0 0 128 128" fill="none" xmlns="http://www.w3.org/2000/svg">
<g clip-path="url(#clip0_93_70)">
<path fill-rule="evenodd" clip-rule="evenodd" d="M0.560683 67.9214L0.550918 67.8019C-0.511493 54.8039 6.49652 43.2083 17.6508 34.6864C28.7983 26.1698 44.3283 20.49 61.2227 19.1091C78.2034 17.7211 94.1103 21.3491 106.11 28.4947C118.111 35.641 126.382 46.4458 127.434 59.3207C128.487 72.1956 122.08 84.2001 111.399 93.2003C100.719 102.2 85.6121 108.363 68.6314 109.751C52.1882 111.095 36.7069 110.492 24.5076 104.502C12.0178 98.3705 3.58591 86.9222 0.579538 68.0398L0.560683 67.9214Z" fill="white"/>
<path fill-rule="evenodd" clip-rule="evenodd" d="M0.560683 67.9214L0.550918 67.8019C-0.511493 54.8039 6.49652 43.2083 17.6508 34.6864C28.7983 26.1698 44.3282 20.49 61.2227 19.1091C78.2034 17.7211 94.1103 21.3491 106.11 28.4947C118.111 35.641 126.382 46.4458 127.434 59.3207C128.487 72.1956 122.08 84.2001 111.399 93.2003C100.719 102.2 85.6121 108.363 68.6314 109.751C52.1882 111.095 36.7069 110.492 24.5076 104.502C12.0178 98.3705 3.58591 86.9222 0.579538 68.0398L0.560683 67.9214ZM68.362 106.455C100.966 103.79 125.859 82.8141 123.962 59.6045C122.065 36.3949 94.0961 19.7402 61.4921 22.4051C28.8881 25.0701 2.12648 44.3084 4.02355 67.518C9.78723 103.719 35.758 109.119 68.362 106.455Z" fill="black"/>
<path d="M113.677 61.3827C115.142 79.3073 94.6531 95.6098 67.9132 97.7955C41.1732 99.9811 18.8019 93.2575 16.8435 69.2976C15.3784 51.373 35.8677 35.0705 62.6076 32.8849C89.3475 30.6992 112.212 43.4582 113.677 61.3827Z" fill="white"/>
<path fill-rule="evenodd" clip-rule="evenodd" d="M103.514 87.3716C94.5923 94.2611 82.0796 98.9818 68.1031 100.124C54.4604 101.239 41.4539 100.205 31.466 95.5817C21.2127 90.8351 14.341 82.3722 13.2879 69.4871C12.4556 59.3053 18.0905 49.9806 26.99 43.1079C35.9113 36.2184 48.424 31.4977 62.4005 30.3553C76.377 29.2129 89.4902 31.8391 99.4118 37.1884C109.309 42.5246 116.384 50.8105 117.216 60.9924C118.048 71.1743 112.413 80.499 103.514 87.3716ZM67.8222 96.6873C94.5622 94.5017 115.088 78.6504 113.669 61.2823C112.249 43.9143 89.4213 31.6066 62.6814 33.7922C35.9415 35.9778 15.4153 51.8292 16.8349 69.1972C18.7325 92.4132 41.0823 98.873 67.8222 96.6873Z" fill="black"/>
<path fill-rule="evenodd" clip-rule="evenodd" d="M71.8668 87.9107C64.8809 84.7205 59.1162 87.5884 57.2247 89.268C56.5634 89.8553 55.5511 89.7953 54.9638 89.1339C54.3765 88.4726 54.4366 87.4603 55.0979 86.873C57.7144 84.5496 64.8089 81.1665 73.1973 84.9971C74.0019 85.3645 74.3562 86.3146 73.9888 87.1191C73.6214 87.9237 72.6714 88.2781 71.8668 87.9107Z" fill="black"/>
<path d="M77.3231 69.875C77.9584 72.2085 75.2216 74.2358 71.4645 75.2587C67.7075 76.2815 64.353 75.9125 63.7177 73.579C63.0824 71.2454 65.6131 68.5246 69.3701 67.5018C73.1272 66.4789 76.6878 67.5414 77.3231 69.875Z" fill="black"/>
<path fill-rule="evenodd" clip-rule="evenodd" d="M41.2623 80.2137C50.9718 77.5704 57.5095 70.53 55.8648 64.4886C54.22 58.4472 45.0156 55.6925 35.3062 58.3358C25.5967 60.9791 19.059 68.0195 20.7037 74.061C22.3485 80.1024 31.5529 82.8571 41.2623 80.2137ZM43.5556 72.0422C47.3126 71.0193 49.8433 68.2985 49.208 65.965C48.5728 63.6314 45.1491 63.9152 41.3921 64.938C37.635 65.9608 34.9673 67.3354 35.6026 69.669C36.2379 72.0025 39.7986 73.065 43.5556 72.0422Z" fill="black"/>
<path fill-rule="evenodd" clip-rule="evenodd" d="M98.265 70.8136C106.829 68.4821 112.586 62.2384 111.124 56.8678C109.662 51.4973 101.534 49.0336 92.9703 51.3651C84.4064 53.6965 78.6493 59.9402 80.1114 65.3108C81.5735 70.6813 89.7012 73.145 98.265 70.8136ZM98.683 63.3454C101.517 62.5739 103.333 60.1821 102.74 58.0033C102.147 55.8244 99.4327 56.0312 96.5989 56.8027C93.7651 57.5742 91.8847 58.6182 92.4779 60.7971C93.0711 62.9759 95.8492 64.1168 98.683 63.3454Z" fill="black"/>
</g>
<defs>
<clipPath id="clip0_93_70">
<rect width="128" height="128" fill="white"/>
</clipPath>
</defs>
</svg>
