<svg width="110" height="25" viewBox="0 0 110 25" fill="none" xmlns="http://www.w3.org/2000/svg">
<rect x="1" y="1" width="108" height="23" rx="2" fill="#8AC0FF" stroke="black" stroke-width="2"/>
<path fill-rule="evenodd" clip-rule="evenodd" d="M97 12L100.728 15.4483L104.456 12H97Z" fill="#505050"/>
<path d="M18.4072 16.256C18.2872 16.36 18.1192 16.464 17.9032 16.568C17.6872 16.664 17.4472 16.752 17.1832 16.832C16.9272 16.912 16.6592 16.976 16.3792 17.024C16.1072 17.072 15.8512 17.096 15.6112 17.096C14.9152 17.096 14.2872 16.988 13.7272 16.772C13.1752 16.556 12.6992 16.256 12.2992 15.872C11.9072 15.488 11.6032 15.036 11.3872 14.516C11.1792 13.996 11.0752 13.432 11.0752 12.824C11.0752 12.104 11.1912 11.46 11.4232 10.892C11.6632 10.316 11.9872 9.832 12.3952 9.44C12.8112 9.04 13.2872 8.74 13.8232 8.54C14.3592 8.332 14.9272 8.228 15.5272 8.228C16.0312 8.228 16.4992 8.288 16.9312 8.408C17.3632 8.528 17.7432 8.68 18.0712 8.864L17.6752 9.932C17.5152 9.836 17.3152 9.748 17.0752 9.668C16.8432 9.588 16.6032 9.524 16.3552 9.476C16.1072 9.42 15.8752 9.392 15.6592 9.392C15.1472 9.392 14.6832 9.472 14.2672 9.632C13.8512 9.784 13.4952 10.008 13.1992 10.304C12.9032 10.592 12.6752 10.944 12.5152 11.36C12.3552 11.768 12.2752 12.228 12.2752 12.74C12.2752 13.212 12.3552 13.644 12.5152 14.036C12.6752 14.428 12.9032 14.768 13.1992 15.056C13.4952 15.336 13.8472 15.556 14.2552 15.716C14.6712 15.868 15.1272 15.944 15.6232 15.944C15.9192 15.944 16.2112 15.916 16.4992 15.86C16.7872 15.796 17.0352 15.708 17.2432 15.596V13.868H15.5152V12.752H18.4072V16.256ZM22.9429 8.324C23.5749 8.324 24.1149 8.432 24.5629 8.648C25.0109 8.856 25.3549 9.16 25.5949 9.56C25.8429 9.96 25.9669 10.444 25.9669 11.012C25.9669 11.356 25.9149 11.696 25.8109 12.032C25.7069 12.36 25.5389 12.66 25.3069 12.932C25.0829 13.196 24.7869 13.408 24.4189 13.568C24.0509 13.728 23.6029 13.808 23.0749 13.808H21.7909V17H20.6269V8.324H22.9429ZM23.0629 12.692C23.4069 12.692 23.6909 12.636 23.9149 12.524C24.1389 12.412 24.3149 12.272 24.4429 12.104C24.5709 11.928 24.6629 11.744 24.7189 11.552C24.7749 11.36 24.8029 11.188 24.8029 11.036C24.8029 10.86 24.7749 10.68 24.7189 10.496C24.6629 10.304 24.5669 10.132 24.4309 9.98C24.3029 9.82 24.1309 9.692 23.9149 9.596C23.7069 9.492 23.4469 9.44 23.1349 9.44H21.7909V12.692H23.0629ZM27.1276 8.324H32.8876V9.44H30.5596V17H29.3956V9.44H27.1276V8.324ZM42.5292 9.104L40.4172 12.5L39.7212 12.176C39.8252 12.12 39.9412 12.08 40.0692 12.056C40.1972 12.032 40.3252 12.02 40.4532 12.02C40.7492 12.004 41.0372 12.036 41.3172 12.116C41.5972 12.196 41.8492 12.328 42.0732 12.512C42.2972 12.696 42.4732 12.94 42.6012 13.244C42.7372 13.548 42.8052 13.924 42.8052 14.372C42.8052 14.932 42.6772 15.416 42.4212 15.824C42.1652 16.232 41.8252 16.548 41.4012 16.772C40.9852 16.988 40.5212 17.096 40.0092 17.096C39.6252 17.096 39.2412 17.02 38.8572 16.868C38.4812 16.708 38.1692 16.5 37.9212 16.244L38.5092 15.284C38.6612 15.46 38.8692 15.62 39.1332 15.764C39.4052 15.908 39.6852 15.98 39.9732 15.98C40.2772 15.98 40.5492 15.912 40.7892 15.776C41.0372 15.64 41.2332 15.448 41.3772 15.2C41.5292 14.944 41.6052 14.648 41.6052 14.312C41.6052 13.848 41.4692 13.484 41.1972 13.22C40.9332 12.956 40.5692 12.824 40.1052 12.824C39.8732 12.824 39.6772 12.844 39.5172 12.884C39.3572 12.916 39.2132 12.956 39.0852 13.004L39.0492 12.956L40.9092 10.064L41.2692 10.22H38.3772V9.104H42.5292ZM43.9744 16.364C43.9744 16.188 44.0384 16.04 44.1664 15.92C44.3024 15.792 44.4504 15.728 44.6104 15.728C44.7544 15.728 44.8904 15.792 45.0184 15.92C45.1544 16.04 45.2224 16.188 45.2224 16.364C45.2224 16.556 45.1544 16.712 45.0184 16.832C44.8904 16.944 44.7544 17 44.6104 17C44.4504 17 44.3024 16.944 44.1664 16.832C44.0384 16.712 43.9744 16.556 43.9744 16.364ZM48.522 17.096C48.098 17.096 47.69 17.02 47.298 16.868C46.914 16.716 46.602 16.52 46.362 16.28L46.986 15.38C47.146 15.564 47.358 15.712 47.622 15.824C47.894 15.936 48.162 15.992 48.426 15.992C48.722 15.992 48.982 15.928 49.206 15.8C49.438 15.664 49.618 15.484 49.746 15.26C49.874 15.028 49.938 14.764 49.938 14.468C49.938 14.148 49.878 13.864 49.758 13.616C49.646 13.368 49.474 13.176 49.242 13.04C49.018 12.896 48.734 12.824 48.39 12.824C48.11 12.824 47.85 12.864 47.61 12.944C47.37 13.016 47.122 13.128 46.866 13.28H46.854V9.104H50.634V10.22H47.862V12.236L47.706 11.996C47.842 11.948 47.994 11.912 48.162 11.888C48.338 11.856 48.506 11.84 48.666 11.84C49.202 11.84 49.65 11.96 50.01 12.2C50.378 12.432 50.654 12.744 50.838 13.136C51.03 13.528 51.126 13.96 51.126 14.432C51.126 14.928 51.014 15.38 50.79 15.788C50.566 16.188 50.258 16.508 49.866 16.748C49.474 16.98 49.026 17.096 48.522 17.096ZM56.2722 8.324H62.0322V9.44H59.7042V17H58.5402V9.44H56.2722V8.324ZM64.462 17.192C64.014 17.192 63.642 17.056 63.346 16.784C63.058 16.504 62.906 16.144 62.89 15.704V12.032H64.006V15.308C64.022 15.58 64.098 15.8 64.234 15.968C64.378 16.136 64.602 16.224 64.906 16.232C65.186 16.232 65.434 16.152 65.65 15.992C65.874 15.824 66.054 15.6 66.19 15.32C66.326 15.032 66.394 14.708 66.394 14.348V12.032H67.51V17H66.49L66.394 15.776L66.454 15.992C66.358 16.224 66.21 16.432 66.01 16.616C65.818 16.792 65.59 16.932 65.326 17.036C65.062 17.14 64.774 17.192 64.462 17.192ZM70.4368 12.032L70.5448 13.472L70.4848 13.28C70.6128 12.976 70.7968 12.72 71.0368 12.512C71.2848 12.296 71.5408 12.132 71.8048 12.02C72.0768 11.9 72.3128 11.84 72.5128 11.84L72.4528 12.944C72.0768 12.92 71.7448 12.992 71.4568 13.16C71.1768 13.328 70.9528 13.552 70.7848 13.832C70.6248 14.112 70.5448 14.412 70.5448 14.732V17H69.4408V12.032H70.4368ZM76.9765 17.12C76.5205 17.12 76.1165 17.02 75.7645 16.82C75.4205 16.62 75.1445 16.368 74.9365 16.064L75.0685 15.716V17H73.9525V7.712H75.0565V13.172L75.0205 12.752C75.2205 12.48 75.5045 12.26 75.8725 12.092C76.2485 11.916 76.6645 11.828 77.1205 11.828C77.5685 11.828 77.9765 11.936 78.3445 12.152C78.7125 12.368 79.0045 12.672 79.2205 13.064C79.4445 13.448 79.5565 13.908 79.5565 14.444C79.5565 15.004 79.4365 15.484 79.1965 15.884C78.9645 16.284 78.6525 16.592 78.2605 16.808C77.8685 17.016 77.4405 17.12 76.9765 17.12ZM76.7485 16.172C77.0685 16.172 77.3565 16.096 77.6125 15.944C77.8685 15.792 78.0685 15.588 78.2125 15.332C78.3565 15.068 78.4285 14.768 78.4285 14.432C78.4285 14.112 78.3525 13.824 78.2005 13.568C78.0565 13.304 77.8565 13.096 77.6005 12.944C77.3525 12.792 77.0685 12.716 76.7485 12.716C76.4765 12.716 76.2245 12.768 75.9925 12.872C75.7605 12.976 75.5645 13.12 75.4045 13.304C75.2445 13.48 75.1325 13.688 75.0685 13.928V14.924C75.1325 15.164 75.2405 15.38 75.3925 15.572C75.5445 15.756 75.7365 15.904 75.9685 16.016C76.2005 16.12 76.4605 16.172 76.7485 16.172ZM80.6338 14.468C80.6338 13.972 80.7498 13.524 80.9818 13.124C81.2218 12.724 81.5498 12.408 81.9658 12.176C82.3818 11.944 82.8538 11.828 83.3818 11.828C83.9258 11.828 84.4018 11.944 84.8098 12.176C85.2178 12.408 85.5338 12.724 85.7578 13.124C85.9818 13.524 86.0938 13.972 86.0938 14.468C86.0938 14.964 85.9818 15.416 85.7578 15.824C85.5338 16.224 85.2138 16.54 84.7978 16.772C84.3898 17.004 83.9138 17.12 83.3698 17.12C82.8418 17.12 82.3698 17.012 81.9538 16.796C81.5458 16.572 81.2218 16.264 80.9818 15.872C80.7498 15.472 80.6338 15.004 80.6338 14.468ZM81.7498 14.48C81.7498 14.8 81.8218 15.092 81.9658 15.356C82.1098 15.612 82.3018 15.816 82.5418 15.968C82.7898 16.12 83.0618 16.196 83.3578 16.196C83.6698 16.196 83.9458 16.12 84.1858 15.968C84.4338 15.816 84.6258 15.612 84.7618 15.356C84.8978 15.092 84.9658 14.8 84.9658 14.48C84.9658 14.16 84.8978 13.872 84.7618 13.616C84.6258 13.352 84.4338 13.144 84.1858 12.992C83.9458 12.832 83.6698 12.752 83.3578 12.752C83.0538 12.752 82.7778 12.832 82.5298 12.992C82.2898 13.152 82.0978 13.364 81.9538 13.628C81.8178 13.884 81.7498 14.168 81.7498 14.48Z" fill="black"/>
</svg>
