<svg width="110" height="25" viewBox="0 0 110 25" fill="none" xmlns="http://www.w3.org/2000/svg">
<rect x="1" y="1" width="108" height="23" rx="2" fill="#FFD686" stroke="black" stroke-width="2"/>
<path fill-rule="evenodd" clip-rule="evenodd" d="M97 12L100.728 15.4483L104.456 12H97Z" fill="#505050"/>
<path d="M22.4853 16.256C22.3653 16.36 22.1973 16.464 21.9813 16.568C21.7653 16.664 21.5253 16.752 21.2613 16.832C21.0053 16.912 20.7373 16.976 20.4573 17.024C20.1853 17.072 19.9293 17.096 19.6893 17.096C18.9933 17.096 18.3653 16.988 17.8053 16.772C17.2533 16.556 16.7773 16.256 16.3773 15.872C15.9853 15.488 15.6813 15.036 15.4653 14.516C15.2573 13.996 15.1533 13.432 15.1533 12.824C15.1533 12.104 15.2693 11.46 15.5013 10.892C15.7413 10.316 16.0653 9.832 16.4733 9.44C16.8893 9.04 17.3653 8.74 17.9013 8.54C18.4373 8.332 19.0053 8.228 19.6053 8.228C20.1093 8.228 20.5773 8.288 21.0093 8.408C21.4413 8.528 21.8213 8.68 22.1493 8.864L21.7533 9.932C21.5933 9.836 21.3933 9.748 21.1533 9.668C20.9213 9.588 20.6813 9.524 20.4333 9.476C20.1853 9.42 19.9533 9.392 19.7373 9.392C19.2253 9.392 18.7613 9.472 18.3453 9.632C17.9293 9.784 17.5733 10.008 17.2773 10.304C16.9813 10.592 16.7533 10.944 16.5933 11.36C16.4333 11.768 16.3533 12.228 16.3533 12.74C16.3533 13.212 16.4333 13.644 16.5933 14.036C16.7533 14.428 16.9813 14.768 17.2773 15.056C17.5733 15.336 17.9253 15.556 18.3333 15.716C18.7493 15.868 19.2053 15.944 19.7013 15.944C19.9973 15.944 20.2893 15.916 20.5773 15.86C20.8653 15.796 21.1133 15.708 21.3213 15.596V13.868H19.5933V12.752H22.4853V16.256ZM27.021 8.324C27.653 8.324 28.193 8.432 28.641 8.648C29.089 8.856 29.433 9.16 29.673 9.56C29.921 9.96 30.045 10.444 30.045 11.012C30.045 11.356 29.993 11.696 29.889 12.032C29.785 12.36 29.617 12.66 29.385 12.932C29.161 13.196 28.865 13.408 28.497 13.568C28.129 13.728 27.681 13.808 27.153 13.808H25.869V17H24.705V8.324H27.021ZM27.141 12.692C27.485 12.692 27.769 12.636 27.993 12.524C28.217 12.412 28.393 12.272 28.521 12.104C28.649 11.928 28.741 11.744 28.797 11.552C28.853 11.36 28.881 11.188 28.881 11.036C28.881 10.86 28.853 10.68 28.797 10.496C28.741 10.304 28.645 10.132 28.509 9.98C28.381 9.82 28.209 9.692 27.993 9.596C27.785 9.492 27.525 9.44 27.213 9.44H25.869V12.692H27.141ZM31.2058 8.324H36.9658V9.44H34.6378V17H33.4738V9.44H31.2058V8.324ZM41.5193 15.092V15.08L46.3313 9.008H46.3433V14.204H47.3633V15.092H46.3433V17H45.1793V15.092H41.5193ZM45.2513 11.636L43.2233 14.264L43.0433 14.204H45.1793V11.42L45.2513 11.636ZM52.194 8.324H57.954V9.44H55.626V17H54.462V9.44H52.194V8.324ZM60.3838 17.192C59.9358 17.192 59.5638 17.056 59.2678 16.784C58.9798 16.504 58.8278 16.144 58.8118 15.704V12.032H59.9278V15.308C59.9438 15.58 60.0198 15.8 60.1558 15.968C60.2998 16.136 60.5238 16.224 60.8278 16.232C61.1078 16.232 61.3558 16.152 61.5718 15.992C61.7958 15.824 61.9758 15.6 62.1118 15.32C62.2478 15.032 62.3158 14.708 62.3158 14.348V12.032H63.4318V17H62.4118L62.3158 15.776L62.3758 15.992C62.2798 16.224 62.1318 16.432 61.9318 16.616C61.7398 16.792 61.5118 16.932 61.2478 17.036C60.9838 17.14 60.6958 17.192 60.3838 17.192ZM66.3586 12.032L66.4666 13.472L66.4066 13.28C66.5346 12.976 66.7186 12.72 66.9586 12.512C67.2066 12.296 67.4626 12.132 67.7266 12.02C67.9986 11.9 68.2346 11.84 68.4346 11.84L68.3746 12.944C67.9986 12.92 67.6666 12.992 67.3786 13.16C67.0986 13.328 66.8746 13.552 66.7066 13.832C66.5466 14.112 66.4666 14.412 66.4666 14.732V17H65.3626V12.032H66.3586ZM72.8983 17.12C72.4423 17.12 72.0383 17.02 71.6863 16.82C71.3423 16.62 71.0663 16.368 70.8583 16.064L70.9903 15.716V17H69.8743V7.712H70.9783V13.172L70.9423 12.752C71.1423 12.48 71.4263 12.26 71.7943 12.092C72.1703 11.916 72.5863 11.828 73.0423 11.828C73.4903 11.828 73.8983 11.936 74.2663 12.152C74.6343 12.368 74.9263 12.672 75.1423 13.064C75.3663 13.448 75.4783 13.908 75.4783 14.444C75.4783 15.004 75.3583 15.484 75.1183 15.884C74.8863 16.284 74.5743 16.592 74.1823 16.808C73.7903 17.016 73.3623 17.12 72.8983 17.12ZM72.6703 16.172C72.9903 16.172 73.2783 16.096 73.5343 15.944C73.7903 15.792 73.9903 15.588 74.1343 15.332C74.2783 15.068 74.3503 14.768 74.3503 14.432C74.3503 14.112 74.2743 13.824 74.1223 13.568C73.9783 13.304 73.7783 13.096 73.5223 12.944C73.2743 12.792 72.9903 12.716 72.6703 12.716C72.3983 12.716 72.1463 12.768 71.9143 12.872C71.6823 12.976 71.4863 13.12 71.3263 13.304C71.1663 13.48 71.0543 13.688 70.9903 13.928V14.924C71.0543 15.164 71.1623 15.38 71.3143 15.572C71.4663 15.756 71.6583 15.904 71.8903 16.016C72.1223 16.12 72.3823 16.172 72.6703 16.172ZM76.5556 14.468C76.5556 13.972 76.6716 13.524 76.9036 13.124C77.1436 12.724 77.4716 12.408 77.8876 12.176C78.3036 11.944 78.7756 11.828 79.3036 11.828C79.8476 11.828 80.3236 11.944 80.7316 12.176C81.1396 12.408 81.4556 12.724 81.6796 13.124C81.9036 13.524 82.0156 13.972 82.0156 14.468C82.0156 14.964 81.9036 15.416 81.6796 15.824C81.4556 16.224 81.1356 16.54 80.7196 16.772C80.3116 17.004 79.8356 17.12 79.2916 17.12C78.7636 17.12 78.2916 17.012 77.8756 16.796C77.4676 16.572 77.1436 16.264 76.9036 15.872C76.6716 15.472 76.5556 15.004 76.5556 14.468ZM77.6716 14.48C77.6716 14.8 77.7436 15.092 77.8876 15.356C78.0316 15.612 78.2236 15.816 78.4636 15.968C78.7116 16.12 78.9836 16.196 79.2796 16.196C79.5916 16.196 79.8676 16.12 80.1076 15.968C80.3556 15.816 80.5476 15.612 80.6836 15.356C80.8196 15.092 80.8876 14.8 80.8876 14.48C80.8876 14.16 80.8196 13.872 80.6836 13.616C80.5476 13.352 80.3556 13.144 80.1076 12.992C79.8676 12.832 79.5916 12.752 79.2796 12.752C78.9756 12.752 78.6996 12.832 78.4516 12.992C78.2116 13.152 78.0196 13.364 77.8756 13.628C77.7396 13.884 77.6716 14.168 77.6716 14.48Z" fill="black"/>
</svg>
