<svg width="98" height="25" viewBox="0 0 98 25" fill="none" xmlns="http://www.w3.org/2000/svg">
<rect x="1" y="1" width="96" height="23" rx="2" fill="#FF8686" stroke="black" stroke-width="2"/>
<path fill-rule="evenodd" clip-rule="evenodd" d="M85 12L88.7279 15.4483L92.4558 12H85Z" fill="#505050"/>
<path d="M11.1367 7.324H12.3007V16H11.1367V7.324ZM15.5129 11.032L15.6089 12.244L15.5609 12.052C15.7209 11.684 15.9809 11.392 16.3409 11.176C16.7009 10.952 17.1169 10.84 17.5889 10.84C18.0609 10.84 18.4449 10.98 18.7409 11.26C19.0449 11.532 19.2009 11.888 19.2089 12.328V16H18.0809V12.724C18.0729 12.452 17.9929 12.232 17.8409 12.064C17.6969 11.888 17.4689 11.8 17.1569 11.8C16.8689 11.8 16.6089 11.88 16.3769 12.04C16.1449 12.2 15.9609 12.42 15.8249 12.7C15.6969 12.98 15.6329 13.304 15.6329 13.672V16H14.5169V11.032H15.5129ZM21.6297 8.848H22.7457V11.056H24.1137V11.932H22.7457V16H21.6297V11.932H20.7177V11.056H21.6297V8.848ZM27.7662 16.12C27.1982 16.12 26.7102 16.008 26.3022 15.784C25.8942 15.552 25.5782 15.24 25.3542 14.848C25.1382 14.448 25.0302 13.992 25.0302 13.48C25.0302 12.992 25.1542 12.548 25.4022 12.148C25.6502 11.748 25.9822 11.428 26.3982 11.188C26.8142 10.948 27.2782 10.828 27.7902 10.828C28.4462 10.828 28.9902 11.02 29.4222 11.404C29.8542 11.788 30.1462 12.316 30.2982 12.988L26.2062 14.428L25.9422 13.768L29.3022 12.544L29.0622 12.7C28.9662 12.436 28.8062 12.208 28.5822 12.016C28.3582 11.816 28.0662 11.716 27.7062 11.716C27.4022 11.716 27.1302 11.792 26.8902 11.944C26.6502 12.088 26.4622 12.288 26.3262 12.544C26.1902 12.8 26.1222 13.092 26.1222 13.42C26.1222 13.764 26.1942 14.068 26.3382 14.332C26.4822 14.588 26.6782 14.792 26.9262 14.944C27.1822 15.088 27.4702 15.16 27.7902 15.16C28.0062 15.16 28.2142 15.12 28.4142 15.04C28.6222 14.96 28.8142 14.856 28.9902 14.728L29.5062 15.556C29.2582 15.724 28.9782 15.86 28.6662 15.964C28.3622 16.068 28.0622 16.12 27.7662 16.12ZM32.6926 11.032L32.8006 12.472L32.7406 12.28C32.8686 11.976 33.0526 11.72 33.2926 11.512C33.5406 11.296 33.7966 11.132 34.0606 11.02C34.3326 10.9 34.5686 10.84 34.7686 10.84L34.7086 11.944C34.3326 11.92 34.0006 11.992 33.7126 12.16C33.4326 12.328 33.2086 12.552 33.0406 12.832C32.8806 13.112 32.8006 13.412 32.8006 13.732V16H31.6966V11.032H32.6926ZM37.2043 11.032L37.3003 12.148L37.2523 12.052C37.4363 11.676 37.6963 11.38 38.0323 11.164C38.3763 10.948 38.7683 10.84 39.2083 10.84C39.4883 10.84 39.7363 10.884 39.9523 10.972C40.1683 11.06 40.3443 11.188 40.4803 11.356C40.6243 11.516 40.7163 11.716 40.7563 11.956L40.6963 11.992C40.8883 11.632 41.1523 11.352 41.4883 11.152C41.8323 10.944 42.1923 10.84 42.5683 10.84C43.0563 10.84 43.4403 10.98 43.7203 11.26C44.0083 11.532 44.1563 11.888 44.1643 12.328V16H43.0483V12.724C43.0403 12.468 42.9763 12.256 42.8563 12.088C42.7443 11.912 42.5443 11.816 42.2563 11.8C41.9683 11.8 41.7083 11.888 41.4763 12.064C41.2523 12.24 41.0763 12.468 40.9483 12.748C40.8203 13.02 40.7523 13.316 40.7443 13.636V16H39.6283V12.724C39.6203 12.468 39.5523 12.256 39.4243 12.088C39.3043 11.912 39.1003 11.816 38.8123 11.8C38.5163 11.8 38.2563 11.888 38.0323 12.064C37.8083 12.24 37.6323 12.468 37.5043 12.748C37.3843 13.028 37.3243 13.328 37.3243 13.648V16H36.2083V11.032H37.2043ZM48.4147 16.12C47.8467 16.12 47.3587 16.008 46.9507 15.784C46.5427 15.552 46.2267 15.24 46.0027 14.848C45.7867 14.448 45.6787 13.992 45.6787 13.48C45.6787 12.992 45.8027 12.548 46.0507 12.148C46.2987 11.748 46.6307 11.428 47.0467 11.188C47.4627 10.948 47.9267 10.828 48.4387 10.828C49.0947 10.828 49.6387 11.02 50.0707 11.404C50.5027 11.788 50.7947 12.316 50.9467 12.988L46.8547 14.428L46.5907 13.768L49.9507 12.544L49.7107 12.7C49.6147 12.436 49.4547 12.208 49.2307 12.016C49.0067 11.816 48.7147 11.716 48.3547 11.716C48.0507 11.716 47.7787 11.792 47.5387 11.944C47.2987 12.088 47.1107 12.288 46.9747 12.544C46.8387 12.8 46.7707 13.092 46.7707 13.42C46.7707 13.764 46.8427 14.068 46.9867 14.332C47.1307 14.588 47.3267 14.792 47.5747 14.944C47.8307 15.088 48.1187 15.16 48.4387 15.16C48.6547 15.16 48.8627 15.12 49.0627 15.04C49.2707 14.96 49.4627 14.856 49.6387 14.728L50.1547 15.556C49.9067 15.724 49.6267 15.86 49.3147 15.964C49.0107 16.068 48.7107 16.12 48.4147 16.12ZM54.361 16.12C53.905 16.12 53.489 16.012 53.113 15.796C52.745 15.572 52.453 15.26 52.237 14.86C52.021 14.452 51.913 13.984 51.913 13.456C51.913 12.904 52.025 12.432 52.249 12.04C52.481 11.648 52.793 11.348 53.185 11.14C53.577 10.932 54.017 10.828 54.505 10.828C54.897 10.828 55.269 10.912 55.621 11.08C55.981 11.248 56.261 11.48 56.461 11.776L56.413 12.172V6.712H57.517V16H56.401V14.764L56.521 15.076C56.289 15.38 55.989 15.632 55.621 15.832C55.253 16.024 54.833 16.12 54.361 16.12ZM54.709 15.172C55.005 15.172 55.269 15.12 55.501 15.016C55.733 14.904 55.925 14.752 56.077 14.56C56.229 14.368 56.337 14.14 56.401 13.876V12.94C56.337 12.7 56.221 12.492 56.053 12.316C55.893 12.132 55.697 11.988 55.465 11.884C55.241 11.772 54.989 11.716 54.709 11.716C54.405 11.716 54.125 11.792 53.869 11.944C53.621 12.088 53.421 12.288 53.269 12.544C53.117 12.8 53.041 13.096 53.041 13.432C53.041 13.76 53.117 14.056 53.269 14.32C53.421 14.576 53.625 14.784 53.881 14.944C54.137 15.096 54.413 15.172 54.709 15.172ZM59.4583 11.032H60.5743V16H59.4583V11.032ZM59.3743 9.232C59.3743 9.056 59.4423 8.908 59.5783 8.788C59.7223 8.668 59.8783 8.608 60.0463 8.608C60.2143 8.608 60.3623 8.668 60.4903 8.788C60.6263 8.908 60.6943 9.056 60.6943 9.232C60.6943 9.416 60.6263 9.568 60.4903 9.688C60.3623 9.8 60.2143 9.856 60.0463 9.856C59.8783 9.856 59.7223 9.796 59.5783 9.676C59.4423 9.556 59.3743 9.408 59.3743 9.232ZM64.5692 16.12C64.1052 16.12 63.6812 16.02 63.2972 15.82C62.9212 15.62 62.6212 15.328 62.3972 14.944C62.1812 14.552 62.0732 14.076 62.0732 13.516C62.0732 12.964 62.1892 12.488 62.4212 12.088C62.6532 11.68 62.9612 11.368 63.3452 11.152C63.7372 10.936 64.1652 10.828 64.6292 10.828C65.0932 10.828 65.4852 10.936 65.8052 11.152C66.1252 11.36 66.3692 11.608 66.5372 11.896L66.4652 12.088L66.5732 11.032H67.6052V16H66.4892V14.704L66.6092 14.992C66.5772 15.072 66.5052 15.176 66.3932 15.304C66.2892 15.424 66.1452 15.548 65.9612 15.676C65.7852 15.804 65.5812 15.912 65.3492 16C65.1172 16.08 64.8572 16.12 64.5692 16.12ZM64.8692 15.196C65.1492 15.196 65.4012 15.144 65.6252 15.04C65.8492 14.936 66.0332 14.792 66.1772 14.608C66.3292 14.416 66.4332 14.188 66.4892 13.924V12.952C66.4252 12.712 66.3132 12.504 66.1532 12.328C65.9932 12.144 65.8012 12.004 65.5772 11.908C65.3532 11.804 65.1052 11.752 64.8332 11.752C64.5372 11.752 64.2652 11.824 64.0172 11.968C63.7692 12.112 63.5692 12.312 63.4172 12.568C63.2732 12.824 63.2012 13.124 63.2012 13.468C63.2012 13.788 63.2772 14.08 63.4292 14.344C63.5812 14.608 63.7852 14.816 64.0412 14.968C64.2972 15.12 64.5732 15.196 64.8692 15.196ZM70.0165 8.848H71.1325V11.056H72.5005V11.932H71.1325V16H70.0165V11.932H69.1045V11.056H70.0165V8.848ZM76.153 16.12C75.585 16.12 75.097 16.008 74.689 15.784C74.281 15.552 73.965 15.24 73.741 14.848C73.525 14.448 73.417 13.992 73.417 13.48C73.417 12.992 73.541 12.548 73.789 12.148C74.037 11.748 74.369 11.428 74.785 11.188C75.201 10.948 75.665 10.828 76.177 10.828C76.833 10.828 77.377 11.02 77.809 11.404C78.241 11.788 78.533 12.316 78.685 12.988L74.593 14.428L74.329 13.768L77.689 12.544L77.449 12.7C77.353 12.436 77.193 12.208 76.969 12.016C76.745 11.816 76.453 11.716 76.093 11.716C75.789 11.716 75.517 11.792 75.277 11.944C75.037 12.088 74.849 12.288 74.713 12.544C74.577 12.8 74.509 13.092 74.509 13.42C74.509 13.764 74.581 14.068 74.725 14.332C74.869 14.588 75.065 14.792 75.313 14.944C75.569 15.088 75.857 15.16 76.177 15.16C76.393 15.16 76.601 15.12 76.801 15.04C77.009 14.96 77.201 14.856 77.377 14.728L77.893 15.556C77.645 15.724 77.365 15.86 77.053 15.964C76.749 16.068 76.449 16.12 76.153 16.12Z" fill="black"/>
</svg>
