<svg width="32" height="32" viewBox="0 0 32 32" fill="none" xmlns="http://www.w3.org/2000/svg">
<path fill-rule="evenodd" clip-rule="evenodd" d="M7.63896 8.50421C8.02949 8.11369 8.66265 8.11369 9.05318 8.50421C9.56601 9.01705 10.1567 9.47168 10.8067 9.94999C10.9108 10.0265 11.0168 10.104 11.1243 10.1826C11.6704 10.5817 12.2538 11.008 12.7959 11.4734C15.4226 13.7285 17.9529 16.0581 20.4036 18.5088L26.0116 24.1167C26.4021 24.5072 26.4021 25.1404 26.0116 25.5309C25.6211 25.9214 24.9879 25.9214 24.5974 25.5309L18.9894 19.923C16.5776 17.5111 14.0848 15.2159 11.4931 12.9909C11.016 12.5812 10.5073 12.2093 9.96206 11.8105C9.85006 11.7286 9.73652 11.6456 9.62139 11.5609C8.96335 11.0767 8.26682 10.5463 7.63896 9.91843C7.24844 9.5279 7.24844 8.89474 7.63896 8.50421Z" fill="black" stroke="black" stroke-width="0.5" stroke-linecap="round"/>
<path fill-rule="evenodd" clip-rule="evenodd" d="M24.9929 8.97393C25.5093 8.85404 25.8457 8.34831 25.7498 7.82112C25.651 7.27774 25.1304 6.91734 24.5871 7.01614C24.0955 7.10551 23.7392 7.40708 23.5889 7.53432C23.5776 7.54388 23.5675 7.55247 23.5585 7.5599C23.3786 7.70943 23.1993 7.85868 23.0204 8.00761C22.364 8.55396 21.7128 9.09601 21.0541 9.63209C20.9815 9.69114 20.9089 9.75021 20.8363 9.8093C17.6948 12.3657 14.5151 14.9533 11.6302 17.9121C11.377 18.1719 11.1158 18.435 10.8505 18.7024C9.62623 19.936 8.31261 21.2596 7.27077 22.7573C7.18223 22.8846 7.09967 22.9846 6.99578 23.1106C6.90998 23.2146 6.80962 23.3362 6.67933 23.5054C6.45957 23.7907 6.15424 24.2183 6.02985 24.7159C5.8959 25.2517 6.22166 25.7946 6.75746 25.9286C7.29325 26.0625 7.83619 25.7367 7.97013 25.2009C7.98575 25.1385 8.05726 24.994 8.26384 24.7258C8.31016 24.6656 8.37845 24.5815 8.45542 24.4867C8.60825 24.2984 8.79531 24.068 8.91258 23.8994C9.84528 22.5587 11.0079 21.3857 12.2258 20.1569C12.5024 19.8778 12.7819 19.5958 13.0622 19.3083C15.8656 16.433 18.9676 13.9086 22.1356 11.3306C22.1959 11.2815 22.2562 11.2324 22.3165 11.1833C22.9846 10.6396 23.6468 10.0883 24.3044 9.54102C24.4822 9.39303 24.6596 9.24531 24.8368 9.09811L24.8417 9.09405C24.8857 9.05746 24.9156 9.03264 24.9448 9.00967C24.9667 8.99252 24.9821 8.98131 24.9929 8.97393Z" fill="black" stroke="black" stroke-width="0.5" stroke-linecap="round"/>
</svg>
