<svg width="32" height="32" viewBox="0 0 32 32" fill="none" xmlns="http://www.w3.org/2000/svg">
<g clip-path="url(#clip0_239_17)">
<path fill-rule="evenodd" clip-rule="evenodd" d="M1.9743 31.2619C1.68658 31.1728 1.45013 30.9563 1.33863 30.6718C1.33645 30.6697 1.33419 30.6675 1.33183 30.6653C1.32549 30.6592 1.31842 30.6524 1.31031 30.6446C1.2845 30.6198 1.2491 30.5856 1.21251 30.5477C1.14481 30.4776 1.03135 30.3532 0.939622 30.1845C0.911325 30.1324 0.896782 30.1108 0.87345 30.0761C0.84907 30.0398 0.815095 29.9892 0.745805 29.8748C0.656373 29.7271 0.515133 29.4754 0.45935 29.1579C0.257849 28.0111 0.1043 26.8545 0.044177 25.6413C-0.0356587 24.0302 0.00585636 22.4294 0.0653173 20.8612C0.0772667 20.5461 0.0899073 20.2328 0.102488 19.921C0.153006 18.6691 0.202564 17.441 0.202564 16.21V2.97263C0.202564 2.94603 0.201803 2.90734 0.200889 2.86095C0.19811 2.71976 0.193924 2.50713 0.205521 2.34628C0.225351 2.07124 0.291033 1.7394 0.500604 1.40423C0.722729 1.04899 1.05433 0.872598 1.23523 0.789046C1.38222 0.721155 1.56683 0.658032 1.65021 0.629518C1.66724 0.623697 1.68004 0.619319 1.68745 0.616637C2.12852 0.456884 2.87761 0.222607 3.4656 0.177536C4.931 0.0652065 6.3693 0 7.8607 0H24.8937C25.8941 0 27.1113 0.111721 28.1754 0.601157C28.7889 0.883327 29.199 1.4062 29.4558 1.87841C29.719 2.36244 29.8824 2.90326 29.9442 3.38283L29.944 3.38144C29.944 3.38144 29.9463 3.39435 29.9569 3.42718C29.9688 3.46384 29.9818 3.49816 30.0036 3.55604C30.0089 3.57014 30.0148 3.58565 30.0213 3.60293L30.025 3.61282C30.0784 3.75483 30.1853 4.03884 30.1938 4.3724C30.1988 4.56851 30.2278 4.76969 30.2683 5.04552L30.2693 5.05258C30.3066 5.30674 30.3541 5.6305 30.3582 5.9714C30.3676 6.75476 30.4157 7.55078 30.4986 8.33187C30.5378 8.70103 30.616 9.06806 30.7078 9.49878L30.7081 9.50004C30.7964 9.91433 30.8976 10.3892 30.9464 10.8886C30.9744 11.1757 31.0366 11.4553 31.114 11.8034C31.1258 11.8568 31.1381 11.9118 31.1506 11.9687C31.2385 12.3683 31.3381 12.853 31.3432 13.3732C31.3529 14.3434 31.4755 15.2795 31.6108 16.3129C31.6161 16.3532 31.6214 16.3937 31.6267 16.4343C31.8008 17.7654 31.8132 19.1191 31.8249 20.3988C31.8277 20.7117 31.8305 21.0202 31.8357 21.3228C31.8461 21.9393 31.8798 22.5542 31.9147 23.1914C31.9183 23.2559 31.9218 23.3206 31.9254 23.3856C31.9634 24.0848 32 24.8095 32 25.5446V27.4653C32 28.427 31.5555 29.16 30.9698 29.6692C30.4092 30.1565 29.7144 30.4491 29.1076 30.6249C28.6777 30.7495 28.1707 30.8624 27.7327 30.9344C27.4498 30.9808 27.1609 31.0659 26.8116 31.1756C26.776 31.1868 26.7396 31.1983 26.7024 31.2101C26.3952 31.3072 26.0359 31.4208 25.6658 31.5008C24.2566 31.8053 22.9149 31.9858 21.4415 31.9858H6.37402C6.10113 31.9858 5.81548 31.9892 5.52294 31.9926C4.9102 31.9998 4.26721 32.0073 3.64774 31.9852C3.39931 31.9763 3.19548 31.9063 3.05204 31.8432C2.93247 31.7905 2.81947 31.7255 2.75836 31.6903C2.75163 31.6864 2.74553 31.6829 2.74012 31.6798C2.70964 31.6624 2.68693 31.6502 2.67092 31.6419C2.38837 31.6164 2.13973 31.4732 1.9743 31.2619Z" fill="#C1C1C1"/>
<path fill-rule="evenodd" clip-rule="evenodd" d="M7.8607 2C6.42882 2 5.04227 2.06254 3.61846 2.17169C3.31834 2.19469 2.785 2.34625 2.36853 2.4971C2.33248 2.51015 2.29609 2.5227 2.26648 2.53291L2.26179 2.53452C2.23809 2.54269 2.21755 2.54977 2.19768 2.55677C2.19719 2.58663 2.19731 2.62268 2.19802 2.66791C2.19833 2.68794 2.19883 2.71212 2.19938 2.73898C2.20079 2.80746 2.20256 2.89338 2.20256 2.97263V16.21C2.20256 17.4854 2.15089 18.7644 2.10016 20.0202C2.08776 20.3273 2.07541 20.633 2.06388 20.937C2.00476 22.4961 1.96647 24.0237 2.04173 25.5423C2.09607 26.6389 2.23467 27.6996 2.42367 28.7804C2.42904 28.791 2.43918 28.8101 2.45671 28.839C2.47663 28.8719 2.49599 28.9019 2.52307 28.9439C2.53249 28.9585 2.54285 28.9745 2.55448 28.9926C2.5854 29.0407 2.62505 29.1031 2.66503 29.1726C2.67649 29.1841 2.68403 29.1912 2.69465 29.2012C2.70972 29.2153 2.731 29.2353 2.77848 29.2822C2.83809 29.341 2.94017 29.4448 3.0316 29.5796C3.0525 29.6104 3.07401 29.6446 3.09517 29.6819C3.38756 29.7443 3.609 29.8721 3.71325 29.9323C3.72027 29.9364 3.72676 29.9401 3.73271 29.9435C3.77051 29.9651 3.79598 29.9796 3.81387 29.9896C4.35456 30.0062 4.88283 29.9998 5.4338 29.9932C5.7383 29.9896 6.04973 29.9858 6.37402 29.9858H21.4415C22.741 29.9858 23.9379 29.828 25.2434 29.5459C25.5166 29.4869 25.7843 29.4025 26.104 29.3016C26.1393 29.2905 26.1753 29.2792 26.2119 29.2677C26.561 29.1579 26.9709 29.0327 27.4085 28.9608C27.7725 28.901 28.2016 28.8052 28.551 28.7039C29.0082 28.5714 29.3988 28.3848 29.6576 28.1598C29.8912 27.9567 30 27.7443 30 27.4653V25.5446C30 24.8698 29.9664 24.194 29.9283 23.4943C29.9248 23.4289 29.9212 23.3633 29.9175 23.2974C29.8829 22.6661 29.8471 22.0132 29.836 21.3567C29.8302 21.0193 29.8271 20.6875 29.824 20.3602C29.8119 19.0929 29.8004 17.8929 29.6436 16.6936C29.6367 16.6412 29.6299 16.5886 29.6229 16.536C29.4913 15.5321 29.3542 14.4871 29.3433 13.3932C29.3404 13.0984 29.2836 12.7906 29.1973 12.3985C29.1868 12.3509 29.1758 12.3015 29.1644 12.2505C29.0885 11.9114 28.9967 11.5015 28.9558 11.0831C28.9196 10.7126 28.8431 10.3441 28.752 9.91697L28.7427 9.87292C28.6574 9.4732 28.5602 9.01741 28.5098 8.54306C28.4204 7.70167 28.3686 6.84321 28.3583 5.99556C28.356 5.80501 28.3291 5.60606 28.2894 5.33573C28.2877 5.32365 28.2859 5.3114 28.284 5.29897C28.2487 5.05875 28.2041 4.75579 28.1949 4.43962C28.192 4.43004 28.1815 4.39279 28.1491 4.30639C28.1453 4.29639 28.1409 4.2848 28.1359 4.27176C28.0894 4.1509 27.9949 3.9051 27.9606 3.63841C27.9288 3.39161 27.838 3.08982 27.6988 2.8339C27.5532 2.56615 27.4127 2.45174 27.3397 2.41819C26.6634 2.10712 25.7866 2 24.8937 2H7.8607ZM1.9743 31.2619C1.68658 31.1728 1.45013 30.9563 1.33863 30.6718C1.33645 30.6697 1.33419 30.6675 1.33183 30.6653C1.32549 30.6592 1.31842 30.6524 1.31031 30.6446C1.2845 30.6198 1.2491 30.5856 1.21251 30.5477C1.14481 30.4776 1.03135 30.3532 0.939622 30.1845C0.911325 30.1324 0.896782 30.1108 0.87345 30.0761C0.84907 30.0398 0.815095 29.9892 0.745805 29.8748C0.656373 29.7271 0.515133 29.4754 0.45935 29.1579C0.257849 28.0111 0.1043 26.8545 0.044177 25.6413C-0.0356587 24.0302 0.00585636 22.4294 0.0653173 20.8612C0.0772667 20.5461 0.0899073 20.2328 0.102488 19.921C0.153006 18.6691 0.202564 17.441 0.202564 16.21V2.97263C0.202564 2.94603 0.201803 2.90734 0.200889 2.86095C0.19811 2.71976 0.193924 2.50713 0.205521 2.34628C0.225351 2.07124 0.291033 1.7394 0.500604 1.40423C0.722729 1.04899 1.05433 0.872598 1.23523 0.789046C1.38222 0.721155 1.56683 0.658032 1.65021 0.629518C1.66724 0.623697 1.68004 0.619319 1.68745 0.616637C2.12852 0.456884 2.87761 0.222607 3.4656 0.177536C4.931 0.0652065 6.3693 0 7.8607 0H24.8937C25.8941 0 27.1113 0.111721 28.1754 0.601157C28.7889 0.883327 29.199 1.4062 29.4558 1.87841C29.719 2.36244 29.8824 2.90326 29.9442 3.38283C29.9441 3.38192 29.944 3.38144 29.944 3.38144C29.944 3.38144 29.9463 3.39435 29.9569 3.42718C29.9688 3.46384 29.9818 3.49816 30.0036 3.55604C30.0089 3.57014 30.0148 3.58565 30.0213 3.60293L30.025 3.61282C30.0784 3.75483 30.1853 4.03884 30.1938 4.3724C30.1988 4.56851 30.2278 4.76969 30.2683 5.04552L30.2693 5.05258C30.3066 5.30674 30.3541 5.6305 30.3582 5.9714C30.3676 6.75476 30.4157 7.55078 30.4986 8.33187C30.5378 8.70103 30.616 9.06806 30.7078 9.49878L30.7081 9.50004C30.7964 9.91433 30.8976 10.3892 30.9464 10.8886C30.9744 11.1757 31.0366 11.4553 31.114 11.8034C31.1258 11.8568 31.1381 11.9118 31.1506 11.9687C31.2385 12.3683 31.3381 12.853 31.3432 13.3732C31.3529 14.3434 31.4755 15.2795 31.6108 16.3129C31.6161 16.3532 31.6214 16.3937 31.6267 16.4343C31.8008 17.7654 31.8132 19.1191 31.8249 20.3988C31.8277 20.7117 31.8305 21.0202 31.8357 21.3228C31.8461 21.9393 31.8798 22.5542 31.9147 23.1914C31.9183 23.2559 31.9218 23.3206 31.9254 23.3856C31.9634 24.0848 32 24.8095 32 25.5446V27.4653C32 28.427 31.5555 29.16 30.9698 29.6692C30.4092 30.1565 29.7144 30.4491 29.1076 30.6249C28.6777 30.7495 28.1707 30.8624 27.7327 30.9344C27.4498 30.9808 27.1609 31.0659 26.8116 31.1756C26.776 31.1868 26.7396 31.1983 26.7024 31.2101C26.3952 31.3072 26.0359 31.4208 25.6658 31.5008C24.2566 31.8053 22.9149 31.9858 21.4415 31.9858H6.37402C6.10113 31.9858 5.81548 31.9892 5.52294 31.9926C4.9102 31.9998 4.26721 32.0073 3.64774 31.9852C3.39931 31.9763 3.19548 31.9063 3.05204 31.8432C2.93247 31.7905 2.81947 31.7255 2.75836 31.6903C2.75163 31.6864 2.74553 31.6829 2.74012 31.6798C2.70964 31.6624 2.68693 31.6502 2.67092 31.6419C2.38837 31.6164 2.13973 31.4732 1.9743 31.2619Z" fill="black"/>
<path fill-rule="evenodd" clip-rule="evenodd" d="M15.8022 8.97331C15.0202 9.04873 14.2248 9.21948 13.503 9.38499C12.6739 9.57513 12.0657 9.8469 11.5682 10.2122C11.0676 10.5798 10.6291 11.0787 10.1909 11.789C9.83467 12.3663 9.62373 13.1306 9.39264 13.9679C9.34739 14.1319 9.30137 14.2986 9.25333 14.4673C9.01842 15.2922 8.93631 16.252 9.12007 16.9811C9.56952 18.7644 10.3588 20.1459 11.6461 21.4909C12.4078 22.2867 13.1172 22.8119 13.9758 22.9595C15.4951 23.2206 17.1676 22.9582 18.9097 22.6801C20.0276 22.5017 21.1644 21.9918 21.9131 21.2449C22.0949 21.0634 22.3787 20.7743 22.6256 20.4775C22.7493 20.3289 22.8513 20.1931 22.9234 20.0793C22.9856 19.9812 23.0019 19.9361 23.0028 19.9364C23.0028 19.9364 23.0028 19.9365 23.0028 19.9366C23.1184 19.4205 23.6459 19.0876 24.1881 19.1914C24.7349 19.2962 25.0896 19.8056 24.9802 20.3294C24.9188 20.6232 24.7724 20.8896 24.6496 21.0832C24.517 21.2923 24.3585 21.4985 24.205 21.6829C23.8976 22.0523 23.5607 22.394 23.3699 22.5843C22.2644 23.6872 20.7021 24.3548 19.2417 24.5879C19.201 24.5944 19.1601 24.601 19.119 24.6076C17.4805 24.8695 15.4986 25.1863 13.619 24.8632C12.0927 24.6008 11.0047 23.6831 10.1574 22.7979C8.64843 21.2213 7.68978 19.5491 7.15692 17.4349C6.86667 16.2833 7.01598 14.9732 7.30496 13.9584C7.34114 13.8314 7.3787 13.6934 7.41846 13.5473C7.64315 12.722 7.93821 11.6381 8.45224 10.805C8.98035 9.94905 9.57734 9.23681 10.3395 8.6772C11.1047 8.11529 11.9865 7.74391 13.0328 7.50399C13.7604 7.33712 14.6709 7.13846 15.5998 7.04887C16.5194 6.96019 17.5448 6.9684 18.4783 7.27668C19.229 7.52461 19.8225 8.03664 20.2145 8.38999C20.2717 8.44153 20.3168 8.4675 20.4203 8.52714C20.482 8.56269 20.5645 8.6102 20.6827 8.68222C20.9434 8.8411 21.3194 9.09916 21.5743 9.56295C21.6579 9.71499 21.7809 9.8877 21.9456 10.1187C21.9918 10.1835 22.0413 10.253 22.094 10.3278C22.2942 10.6116 22.5743 11.0171 22.7142 11.419C22.8906 11.9257 22.6046 12.4734 22.0756 12.6423C21.5465 12.8112 20.9747 12.5374 20.7983 12.0307C20.7596 11.9195 20.643 11.7259 20.4206 11.4105C20.3879 11.3641 20.3521 11.3141 20.3143 11.2613C20.1425 11.0211 19.9307 10.725 19.7872 10.4638L19.7871 10.4636C19.7782 10.4474 19.7585 10.4115 19.5986 10.3141C19.5575 10.289 19.5141 10.2639 19.4589 10.2319L19.4559 10.2302C19.4045 10.2005 19.3421 10.1643 19.2789 10.1258C19.1497 10.0469 18.9883 9.94073 18.8304 9.79846C18.4365 9.44335 18.1198 9.20422 17.82 9.10519C17.284 8.92819 16.5935 8.89699 15.8022 8.97331Z" fill="black"/>
<path fill-rule="evenodd" clip-rule="evenodd" d="M24.5666 7.78483C24.931 7.49735 25.0565 6.98448 24.8407 6.55301C24.5937 6.05903 23.9931 5.8588 23.4991 6.10579C23.2986 6.20603 23.1625 6.34719 23.0928 6.4256C23.0112 6.51745 22.9417 6.61493 22.8853 6.70157C22.7719 6.87572 22.6676 7.0742 22.581 7.25824C22.4931 7.44496 22.4126 7.64001 22.3508 7.81605C22.302 7.95484 22.2238 8.19254 22.2106 8.41628C22.1718 9.07604 21.9031 9.9168 21.6378 10.7466C21.5974 10.873 21.5571 10.9991 21.5177 11.1243C21.4028 11.4892 21.3675 11.8558 21.3431 12.1098C21.3413 12.1292 21.3395 12.1478 21.3377 12.1658C21.3367 12.1761 21.3357 12.1863 21.3347 12.1963C21.3109 12.1952 21.2848 12.1943 21.2589 12.1943H18.6944C18.389 12.1943 18.0979 12.132 17.7185 12.0336C17.6763 12.0226 17.6323 12.011 17.5865 11.9989C17.2508 11.9102 16.8242 11.7975 16.3679 11.756C15.8179 11.706 15.3315 12.1113 15.2815 12.6613C15.2315 13.2114 15.6369 13.6978 16.1869 13.7478C16.4652 13.7731 16.722 13.8403 17.0733 13.9322C17.1192 13.9442 17.1668 13.9566 17.2162 13.9694C17.6164 14.0733 18.1172 14.1943 18.6944 14.1943H21.2589C21.2444 14.1943 21.2446 14.1945 21.3769 14.2047C21.4693 14.2119 21.602 14.2212 21.7405 14.2219C21.8665 14.2226 22.0609 14.2172 22.2574 14.1698C22.3802 14.1401 22.911 14.0025 23.1163 13.4377C23.2618 13.0378 23.3007 12.6413 23.3273 12.3694L23.3281 12.3611C23.3585 12.0514 23.3765 11.8801 23.4254 11.7249C23.4576 11.6224 23.4936 11.511 23.5319 11.3922C23.7843 10.6105 24.139 9.51181 24.2039 8.58432C24.2103 8.56124 24.2212 8.52603 24.2377 8.47909C24.2748 8.37335 24.3288 8.24125 24.3907 8.10975C24.4538 7.97557 24.5145 7.86477 24.5613 7.79289C24.5632 7.79004 24.5649 7.78736 24.5666 7.78483Z" fill="black"/>
</g>
<defs>
<clipPath id="clip0_239_17">
<rect width="32" height="32" fill="white"/>
</clipPath>
</defs>
</svg>
