<svg width="32" height="32" viewBox="0 0 32 32" fill="none" xmlns="http://www.w3.org/2000/svg">
<g clip-path="url(#clip0_153_1152)">
<path fill-rule="evenodd" clip-rule="evenodd" d="M29.461 0.333522C29.4684 0.334967 29.4816 0.337384 29.502 0.34048C29.5278 0.344401 29.5543 0.347935 29.5917 0.352922L29.6093 0.355263C29.6518 0.360946 29.707 0.368411 29.7647 0.377847L29.7659 0.378052C29.9398 0.406509 30.4456 0.489276 30.7985 0.919981L30.7974 0.918608C30.7974 0.918608 30.8043 0.926501 30.8199 0.941969C30.8377 0.95957 30.8602 0.980345 30.8849 1.00169C30.9097 1.02309 30.9329 1.04157 30.9515 1.05546C30.9632 1.06422 30.97 1.06874 30.9718 1.06995C31.5542 1.41096 31.7695 2.03225 31.8642 2.43638C31.9704 2.88916 31.9987 3.3975 32 3.85517C32.0012 4.32211 31.9738 4.79181 31.9479 5.18037C31.9423 5.2649 31.9369 5.34356 31.9319 5.4166C31.9123 5.70425 31.8986 5.90493 31.8986 6.03498C31.8986 7.34226 31.787 8.62562 31.6797 9.8599L31.6779 9.88049C31.5689 11.1349 31.4648 12.3397 31.4648 13.5541C31.4648 14.7776 31.4916 15.9996 31.5188 17.2337L31.5189 17.241C31.546 18.4691 31.5732 19.7094 31.5732 20.9535C31.5732 21.649 31.641 22.3524 31.7147 23.1182C31.7527 23.5124 31.7922 23.9231 31.825 24.3578C31.9161 25.568 31.943 26.8957 31.5901 28.1508C31.4467 28.6611 31.2339 29.1003 31.0315 29.4807C30.9524 29.6295 30.8799 29.7607 30.8117 29.8842C30.6908 30.1033 30.5832 30.2981 30.4754 30.5236C30.3155 30.858 30.0963 31.2405 29.7474 31.5328C29.3621 31.8557 28.9042 32 28.4043 32H23.4158C20.9209 32 18.431 31.9716 15.9478 31.9432L15.9457 31.9432C13.4598 31.9148 10.9806 31.8866 8.49843 31.8866C8.20912 31.8866 7.91027 31.8915 7.60388 31.8966C5.80032 31.9265 3.73605 31.9607 1.82479 31.0136C1.13614 30.6724 0.936009 29.9906 0.856654 29.6371C0.815167 29.4523 0.787852 29.2626 0.767197 29.1191C0.765702 29.1088 0.764243 29.0986 0.762815 29.0887C0.738756 28.9223 0.722468 28.8205 0.702903 28.7431C0.37195 27.4352 0.177597 25.9767 0.084418 24.6608C-0.0506621 22.7531 -0.00207156 20.8424 0.0805081 18.9706C0.102053 18.4822 0.125794 17.9981 0.149377 17.5173C0.217033 16.1379 0.283383 14.7851 0.292812 13.4337C0.299037 12.5415 0.351448 11.6548 0.402097 10.7979C0.403951 10.7666 0.405803 10.7353 0.40765 10.704C0.4605 9.80875 0.50968 8.94467 0.50968 8.08336C0.50968 7.99757 0.503889 7.78643 0.495484 7.48001C0.492114 7.35715 0.488324 7.21896 0.484319 7.0674C0.470746 6.55381 0.455676 5.91538 0.450195 5.29099C0.444756 4.67141 0.448515 4.046 0.474694 3.56501C0.487072 3.33757 0.506063 3.10857 0.539139 2.91787C0.37669 2.64104 0.350159 2.29109 0.498991 1.9797C0.740223 1.47498 1.22569 1.31313 1.42574 1.25835C1.67768 1.18937 1.94264 1.16899 2.14956 1.16233C2.36679 1.15534 2.58092 1.16225 2.74858 1.16955C2.82303 1.17279 2.88179 1.17566 2.92913 1.17797C3.00638 1.18174 3.05322 1.18403 3.08817 1.18403H6.4982C7.87594 1.18403 9.20548 0.885743 10.6875 0.530834C12.6161 0.0689877 14.3684 0.049542 16.2102 0.049542H25.4221C25.6874 0.049542 25.9658 0.0382969 26.2744 0.0258371L26.3021 0.0247169C26.6139 0.0121347 26.9539 -0.00121804 27.2965 8.87902e-05C27.969 0.002654 28.7303 0.0601587 29.461 0.333522Z" fill="#FF8686"/>
<path fill-rule="evenodd" clip-rule="evenodd" d="M7.78412 8.01207C7.79782 8.01302 7.81097 8.01394 7.82354 8.01478C8.10035 8.03323 8.42962 8.11976 8.68258 8.38523C8.93828 8.65358 9 8.98259 9 9.23675C9 9.41008 8.98509 9.65383 8.91396 9.9057C8.89902 9.99425 8.86818 10.0805 8.82168 10.1597C8.69169 10.4456 8.45104 10.7594 8.02705 10.9087C7.57073 11.0694 7.07297 11.0236 6.68853 10.7269C6.64148 10.6906 6.59766 10.6516 6.55707 10.6104C6.47317 10.5403 6.3945 10.4565 6.32396 10.3568C6.17512 10.1463 6.06333 9.86249 6.02 9.58351C5.98051 9.32921 5.96792 8.86944 6.29394 8.50273C6.79184 7.94269 7.44996 7.9887 7.78412 8.01207Z" fill="black"/>
<path fill-rule="evenodd" clip-rule="evenodd" d="M7.48019 15.0096C7.96771 15.0789 8.56417 15.0096 8.92551 15.864C9.08711 16.2461 8.94084 16.8585 8.90464 17.0723C8.86745 17.292 8.76334 17.5736 8.48375 17.7959C8.32517 17.9221 8.15024 17.9635 8.05867 17.9797C7.95737 17.9976 7.86449 18.0001 7.80253 18C7.73767 17.9998 7.67726 17.9964 7.63922 17.9941C7.6085 17.9922 7.59456 17.9914 7.58844 17.9911C7.58429 17.9908 7.58396 17.9908 7.58396 17.9908C7.10226 17.9859 6.72455 17.827 6.40683 17.5989C6.0807 17.3647 6.06909 17.0204 6.07087 16.9007C6.07099 16.893 6.07118 16.8854 6.07145 16.8777C5.9924 16.6097 5.96125 16.0818 6.07142 15.864C6.38351 15.2471 6.99301 14.9404 7.48019 15.0096Z" fill="black"/>
<path fill-rule="evenodd" clip-rule="evenodd" d="M6.99584 22.0915C7.10392 22.0494 7.26453 22 7.44441 22C8.08708 22 8.56189 22.3793 8.82703 22.7954C8.96366 23.0097 8.99606 23.2368 8.99964 23.3983C9.00341 23.5681 8.97698 23.7319 8.93919 23.8738C8.8726 24.1238 8.7263 24.4656 8.46024 24.69C8.27585 24.8455 8.06384 24.9181 7.9037 24.9543C7.73357 24.9929 7.55793 25.0047 7.39458 24.9984C7.23106 24.992 7.05771 24.9665 6.89225 24.9159C6.73633 24.8682 6.53397 24.782 6.363 24.6198C5.96804 24.2451 5.97998 23.7184 6.01724 23.4511C6.03121 23.3507 6.05414 23.2456 6.08612 23.1408C6.10475 22.8737 6.23393 22.6762 6.32434 22.5653C6.42556 22.4412 6.54416 22.3446 6.64967 22.2734C6.75768 22.2005 6.87637 22.1379 6.99584 22.0915Z" fill="black"/>
<path fill-rule="evenodd" clip-rule="evenodd" d="M24.4798 24.8188C24.4464 24.8208 24.3969 24.8235 24.3458 24.8235H14.5828C14.4236 24.8235 14.2843 24.821 14.1565 24.8186C13.8994 24.8139 13.6891 24.8101 13.4589 24.8296C13.4341 24.8317 13.3986 24.8393 13.2478 24.8816C13.2434 24.8829 13.2389 24.8841 13.2343 24.8854C13.113 24.9196 12.8918 24.9819 12.6428 24.9942C12.465 25.0031 12.254 24.9998 12.0943 24.9972C12.0332 24.9963 11.9796 24.9954 11.9382 24.9954C11.4201 24.9954 11 24.5919 11 24.094C11 23.5962 11.4201 23.1926 11.9382 23.1926C12.0498 23.1926 12.1379 23.1942 12.2151 23.1956C12.3361 23.1978 12.4304 23.1995 12.5459 23.1938C12.5458 23.1938 12.5459 23.1938 12.5459 23.1938C12.5459 23.1938 12.5566 23.193 12.5847 23.187C12.6175 23.1798 12.656 23.1695 12.7214 23.1512C12.7293 23.1489 12.7379 23.1465 12.747 23.1439C12.8608 23.1116 13.0679 23.0528 13.294 23.0337C13.6289 23.0053 14.0001 23.0118 14.2998 23.0171C14.4043 23.0189 14.5002 23.0206 14.5828 23.0206H24.3458C24.3448 23.0206 24.3462 23.0205 24.3537 23.02C24.3656 23.0193 24.3928 23.0175 24.4494 23.0135C24.5185 23.0087 24.6212 23.0017 24.7266 23.0003C24.8224 22.999 24.9762 23.0008 25.1356 23.0327C25.2165 23.0489 25.3383 23.0804 25.4674 23.148C25.5989 23.217 25.7816 23.3474 25.9007 23.5762C26.1325 24.0215 25.9446 24.563 25.4812 24.7856C25.2222 24.9101 24.9319 24.9086 24.6858 24.8054C24.6564 24.8069 24.6234 24.809 24.5854 24.8117C24.5799 24.8121 24.5742 24.8125 24.5682 24.8129C24.5406 24.8148 24.5086 24.8171 24.4798 24.8188Z" fill="black"/>
<path fill-rule="evenodd" clip-rule="evenodd" d="M14.1684 10.8522C13.4252 10.8558 12.6795 10.8595 11.9308 10.8595C11.4167 10.8595 11 10.4465 11 9.93706C11 9.42761 11.4167 9.01463 11.9308 9.01463C12.6583 9.01463 13.39 9.011 14.1247 9.00736C16.7364 8.99441 19.386 8.98128 22.0152 9.13017C22.6742 9.16748 23.3156 9.1562 23.9932 9.14429C24.34 9.13819 24.6963 9.13192 25.0692 9.13192C25.5833 9.13192 26 9.54491 26 10.0544C26 10.5638 25.5833 10.9768 25.0692 10.9768C24.767 10.9768 24.4472 10.9822 24.118 10.9879C23.3997 11.0001 22.6359 11.0132 21.909 10.972C19.3433 10.8267 16.7707 10.8394 14.1684 10.8522Z" fill="black"/>
<path fill-rule="evenodd" clip-rule="evenodd" d="M21.2236 17.7731C20.727 17.7815 20.2279 17.7899 19.7241 17.7962C19.375 17.8005 19.0228 17.8352 18.623 17.875L18.6089 17.8764C18.2263 17.9146 17.7978 17.9573 17.3588 17.9622C16.8467 17.9679 16.3286 17.966 15.8187 17.9641C15.5678 17.9632 15.3189 17.9623 15.0737 17.9623C15.0741 17.9623 15.073 17.9623 15.07 17.9623L15.0583 17.9625L15.0188 17.9633C14.986 17.964 14.9438 17.9651 14.8925 17.9665C14.8584 17.9674 14.8204 17.9685 14.7791 17.9696C14.6977 17.9719 14.6034 17.9745 14.5013 17.9772C14.1925 17.9853 13.8002 17.9945 13.4132 17.9982C13.0303 18.002 12.6363 18.0006 12.3298 17.9862C12.1817 17.9792 12.0233 17.9679 11.8883 17.9462C11.8275 17.9365 11.7217 17.9173 11.611 17.8755C11.5577 17.8554 11.4542 17.8123 11.3472 17.7293C11.2425 17.648 11.0479 17.4589 11.0071 17.1445C10.9451 16.6674 11.2967 16.2324 11.7924 16.1728C11.9589 16.1527 12.1205 16.1776 12.2641 16.2376C12.3023 16.2408 12.3533 16.2443 12.4183 16.2473C12.6692 16.2592 13.0194 16.2611 13.3949 16.2574C13.7664 16.2538 14.1466 16.245 14.4519 16.2369C14.5379 16.2347 14.6208 16.2324 14.697 16.2303C14.8765 16.2253 15.0185 16.2214 15.0737 16.2214C15.334 16.2214 15.5904 16.2223 15.8449 16.2233C16.346 16.2251 16.8392 16.227 17.3379 16.2214C17.6857 16.2176 18.0372 16.1832 18.4366 16.1434L18.457 16.1413C18.8377 16.1034 19.264 16.0608 19.7007 16.0554C20.1866 16.0494 20.6768 16.0411 21.1695 16.0328C22.1404 16.0165 23.1207 16 24.0956 16C24.5951 16 25 16.3897 25 16.8705C25 17.3512 24.5951 17.7409 24.0956 17.7409C23.1356 17.7409 22.1841 17.757 21.2236 17.7731ZM12.802 16.9285C12.7994 16.9082 12.796 16.8882 12.792 16.8685C12.796 16.8879 12.7993 16.9079 12.802 16.9285Z" fill="black"/>
<path fill-rule="evenodd" clip-rule="evenodd" d="M29.461 0.333522C29.4684 0.334967 29.4816 0.337384 29.502 0.34048C29.5278 0.344401 29.5543 0.347935 29.5917 0.352922L29.6093 0.355263C29.6518 0.360946 29.707 0.368411 29.7647 0.377847L29.7659 0.378052C29.9398 0.406509 30.4456 0.489276 30.7985 0.919981C30.7978 0.91907 30.7974 0.918614 30.7974 0.918608C30.7974 0.918584 30.8043 0.926501 30.8199 0.941969C30.8377 0.95957 30.8602 0.980345 30.8849 1.00169C30.9097 1.02309 30.9329 1.04157 30.9515 1.05546C30.9632 1.06422 30.97 1.06874 30.9718 1.06995C31.5542 1.41096 31.7695 2.03225 31.8642 2.43638C31.9704 2.88916 31.9987 3.3975 32 3.85517C32.0012 4.32211 31.9738 4.79181 31.9479 5.18037C31.9423 5.2649 31.9369 5.34356 31.9319 5.4166C31.9123 5.70425 31.8986 5.90493 31.8986 6.03498C31.8986 7.34226 31.787 8.62562 31.6797 9.8599L31.6779 9.88049C31.5689 11.1349 31.4648 12.3397 31.4648 13.5541C31.4648 14.7776 31.4916 15.9996 31.5188 17.2337L31.5189 17.241C31.546 18.4691 31.5732 19.7094 31.5732 20.9535C31.5732 21.649 31.641 22.3524 31.7147 23.1182C31.7527 23.5124 31.7922 23.9231 31.825 24.3578C31.9161 25.568 31.943 26.8957 31.5901 28.1508C31.4467 28.6611 31.2339 29.1003 31.0315 29.4807C30.9524 29.6295 30.8799 29.7607 30.8117 29.8842C30.6908 30.1033 30.5832 30.2981 30.4754 30.5236C30.3155 30.858 30.0963 31.2405 29.7474 31.5328C29.3621 31.8557 28.9042 32 28.4043 32H23.4158C20.9209 32 18.431 31.9716 15.9478 31.9432L15.9457 31.9432C13.4598 31.9148 10.9806 31.8866 8.49843 31.8866C8.20912 31.8866 7.91027 31.8915 7.60388 31.8966C5.80032 31.9265 3.73605 31.9607 1.82479 31.0136C1.13614 30.6724 0.936009 29.9906 0.856654 29.6371C0.815167 29.4523 0.787852 29.2626 0.767197 29.1191C0.765702 29.1088 0.764243 29.0986 0.762815 29.0887C0.738756 28.9223 0.722468 28.8205 0.702903 28.7431C0.37195 27.4352 0.177597 25.9767 0.084418 24.6608C-0.0506621 22.7531 -0.00207156 20.8424 0.0805081 18.9706C0.102053 18.4822 0.125794 17.9981 0.149377 17.5173C0.217033 16.1379 0.283383 14.7851 0.292812 13.4337C0.299037 12.5415 0.351448 11.6548 0.402097 10.7979C0.403951 10.7666 0.405803 10.7353 0.40765 10.704C0.4605 9.80875 0.50968 8.94467 0.50968 8.08336C0.50968 7.99757 0.503889 7.78643 0.495484 7.48001C0.492114 7.35715 0.488324 7.21896 0.484319 7.0674C0.470746 6.55381 0.455676 5.91538 0.450195 5.29099C0.444756 4.67141 0.448515 4.046 0.474694 3.56501C0.487072 3.33757 0.506063 3.10857 0.539139 2.91787C0.37669 2.64104 0.350159 2.29109 0.498991 1.9797C0.740223 1.47498 1.22569 1.31313 1.42574 1.25835C1.67768 1.18937 1.94264 1.16899 2.14956 1.16233C2.36679 1.15534 2.58092 1.16225 2.74858 1.16955C2.82303 1.17279 2.88179 1.17566 2.92913 1.17797C3.00638 1.18174 3.05322 1.18403 3.08817 1.18403H6.4982C7.87594 1.18403 9.20548 0.885743 10.6875 0.530834C12.6161 0.0689877 14.3684 0.049542 16.2102 0.049542H25.4221C25.6874 0.049542 25.9658 0.0382969 26.2744 0.0258371L26.3021 0.0247169C26.6139 0.0121347 26.9539 -0.00121804 27.2965 8.87902e-05C27.969 0.002654 28.7303 0.0601587 29.461 0.333522ZM2.57251 3.1641C2.60215 3.16517 2.63188 3.16637 2.6616 3.16766C2.69297 3.16903 2.72822 3.17073 2.76522 3.17253C2.87605 3.1779 3.00266 3.18403 3.08817 3.18403H6.4982C8.14301 3.18403 9.68777 2.8268 11.1533 2.47584C12.828 2.07479 14.3665 2.04954 16.2102 2.04954H25.4221C25.7288 2.04954 26.0438 2.0368 26.3396 2.02483L26.3828 2.02309C26.6988 2.01034 26.9967 1.99896 27.2889 2.00007C27.8792 2.00233 28.367 2.05714 28.7717 2.2111C28.9415 2.27566 29.1054 2.30321 29.2022 2.31789C29.2473 2.32472 29.2934 2.33086 29.3292 2.33562L29.3444 2.33764C29.3632 2.34016 29.3795 2.34237 29.3942 2.34444C29.5347 2.48618 29.7092 2.6327 29.8711 2.7397C29.8827 2.76866 29.8993 2.81736 29.917 2.89297C29.9718 3.12637 29.9989 3.45771 30 3.86065C30.001 4.25431 29.9778 4.66613 29.9524 5.04746C29.9481 5.11103 29.9437 5.17563 29.9392 5.24029C29.9189 5.53415 29.8986 5.8293 29.8986 6.03498C29.8986 7.2485 29.7945 8.45279 29.6854 9.70728L29.6838 9.72654C29.5764 10.9613 29.4648 12.2455 29.4648 13.5541C29.4648 14.802 29.4921 16.0448 29.5192 17.2741L29.5193 17.2777C29.5464 18.5119 29.5732 19.7326 29.5732 20.9535C29.5732 21.7438 29.6564 22.6133 29.735 23.436C29.7705 23.8067 29.805 24.1678 29.8306 24.5079C29.9182 25.6718 29.9184 26.7074 29.6648 27.6095C29.5788 27.9154 29.4436 28.2072 29.2659 28.5413C29.2166 28.6339 29.1595 28.7377 29.0984 28.8485C28.9605 29.099 28.8026 29.3856 28.6709 29.6612C28.6138 29.7805 28.5671 29.8626 28.5283 29.9196C28.4976 29.9648 28.477 29.9867 28.4677 29.9956C28.4577 29.9974 28.4376 30 28.4043 30H23.4158C20.9336 30 18.4543 29.9717 15.9685 29.9433L15.9654 29.9433C13.4825 29.915 10.9929 29.8866 8.49843 29.8866C8.14982 29.8866 7.81242 29.8907 7.48487 29.8947C5.71588 29.9165 4.23449 29.9347 2.82788 29.277C2.82195 29.2566 2.81525 29.2309 2.8081 29.1991C2.7841 29.0921 2.7668 28.9725 2.74243 28.8039L2.74144 28.7971C2.71994 28.6484 2.69061 28.4455 2.6418 28.2525C2.34808 27.0918 2.16702 25.7567 2.07942 24.5195C1.95277 22.7308 1.99672 20.9139 2.07856 19.0587C2.09912 18.5927 2.12219 18.1225 2.14539 17.6498C2.21365 16.2585 2.28301 14.8448 2.29276 13.4476C2.29862 12.6086 2.34827 11.7681 2.39975 10.8967L2.40417 10.8218C2.45665 9.93291 2.50968 9.01226 2.50968 8.08336C2.50968 7.96803 2.50253 7.70759 2.4935 7.37887C2.49036 7.26461 2.48699 7.1421 2.48362 7.01456C2.47013 6.50418 2.45544 5.87984 2.45012 5.27343C2.44475 4.66221 2.44915 4.08879 2.47174 3.6737C2.47974 3.52663 2.48923 3.41625 2.49841 3.33933C2.52847 3.28368 2.55335 3.22504 2.57251 3.1641Z" fill="black"/>
</g>
<defs>
<clipPath id="clip0_153_1152">
<rect width="32" height="32" fill="white"/>
</clipPath>
</defs>
</svg>
