<svg width="40" height="26" viewBox="0 0 40 26" fill="none" xmlns="http://www.w3.org/2000/svg">
<path d="M1.17047 13.8572C1.17047 16.9389 1.17047 21.5643 1.58732 23.597C1.64872 23.7387 2.192 23.9577 2.3689 23.9577C3.0361 23.9577 3.73684 24.2734 4.36628 24.4988C6.52704 25.2726 9.01259 24.9197 11.2442 24.9197H35.1432C38.9578 24.9197 38.9578 24.1764 38.9578 23.5426C38.9578 22.7337 38.8269 17.7774 38.9578 16.9844C38.9578 15.527 38.8196 14.1999 38.9578 12.9766C39.0802 11.8942 38.9578 2.67448 38.3021 2.43399C36.7505 2.43399 34.8301 1.44123 33.2785 1.44123C26.3105 0.448463 23.015 1.44123 16.2087 1.44123C12.2233 1.44123 8.07999 1.36938 4.09465 1.44123C2.63433 1.46756 1.33148 1.09533 1.17047 2.67448C1.06255 3.73294 1.18461 8.23529 1.0662 9.29415C0.8707 11.0424 1.17047 12.0929 1.17047 13.8572Z" fill="#FFD686" stroke="black" stroke-width="2" stroke-linecap="round"/>
<path fill-rule="evenodd" clip-rule="evenodd" d="M26 13L29.7279 16.4483L33.4558 13H26Z" fill="#505050"/>
<path d="M15.7438 10.872C15.4478 10.72 15.1238 10.588 14.7718 10.476C14.4198 10.364 14.0758 10.308 13.7398 10.308C13.2758 10.308 12.9038 10.416 12.6238 10.632C12.3518 10.848 12.2158 11.136 12.2158 11.496C12.2158 11.768 12.3038 12 12.4798 12.192C12.6558 12.376 12.8878 12.536 13.1758 12.672C13.4638 12.808 13.7638 12.936 14.0758 13.056C14.3478 13.16 14.6158 13.276 14.8798 13.404C15.1438 13.532 15.3798 13.692 15.5878 13.884C15.8038 14.076 15.9718 14.312 16.0918 14.592C16.2198 14.872 16.2838 15.22 16.2838 15.636C16.2838 16.092 16.1678 16.508 15.9358 16.884C15.7118 17.26 15.3878 17.556 14.9638 17.772C14.5398 17.988 14.0358 18.096 13.4518 18.096C13.0678 18.096 12.6998 18.052 12.3478 17.964C12.0038 17.876 11.6838 17.764 11.3878 17.628C11.0918 17.484 10.8278 17.336 10.5958 17.184L11.1118 16.272C11.3038 16.408 11.5238 16.54 11.7718 16.668C12.0198 16.788 12.2798 16.888 12.5518 16.968C12.8238 17.04 13.0878 17.076 13.3438 17.076C13.6158 17.076 13.8838 17.028 14.1478 16.932C14.4198 16.828 14.6438 16.672 14.8198 16.464C14.9958 16.256 15.0838 15.98 15.0838 15.636C15.0838 15.34 15.0038 15.096 14.8438 14.904C14.6918 14.704 14.4878 14.536 14.2318 14.4C13.9758 14.256 13.7038 14.128 13.4158 14.016C13.1438 13.912 12.8678 13.8 12.5878 13.68C12.3078 13.552 12.0478 13.4 11.8078 13.224C11.5678 13.04 11.3758 12.816 11.2318 12.552C11.0878 12.288 11.0158 11.968 11.0158 11.592C11.0158 11.136 11.1238 10.74 11.3398 10.404C11.5638 10.06 11.8678 9.792 12.2518 9.6C12.6358 9.4 13.0758 9.292 13.5718 9.276C14.1318 9.276 14.6238 9.344 15.0478 9.48C15.4798 9.616 15.8598 9.784 16.1878 9.984L15.7438 10.872Z" fill="black"/>
</svg>
