<svg width="98" height="25" viewBox="0 0 98 25" fill="none" xmlns="http://www.w3.org/2000/svg">
<rect x="1" y="1" width="96" height="23" rx="2" fill="#FFD686" stroke="black" stroke-width="2"/>
<path fill-rule="evenodd" clip-rule="evenodd" d="M85 12L88.7279 15.4483L92.4558 12H85Z" fill="#505050"/>
<path d="M18.0715 16L21.8635 6.964H21.9355L25.7155 16H24.3835L21.5515 8.788L22.3795 8.248L19.2115 16H18.0715ZM20.2915 12.712H23.5195L23.9035 13.72H19.9555L20.2915 12.712ZM28.9724 16.12C28.5164 16.12 28.1004 16.012 27.7244 15.796C27.3564 15.572 27.0644 15.26 26.8484 14.86C26.6324 14.452 26.5244 13.984 26.5244 13.456C26.5244 12.904 26.6364 12.432 26.8604 12.04C27.0924 11.648 27.4044 11.348 27.7964 11.14C28.1884 10.932 28.6284 10.828 29.1164 10.828C29.5084 10.828 29.8804 10.912 30.2324 11.08C30.5924 11.248 30.8724 11.48 31.0724 11.776L31.0244 12.172V6.712H32.1284V16H31.0124V14.764L31.1324 15.076C30.9004 15.38 30.6004 15.632 30.2324 15.832C29.8644 16.024 29.4444 16.12 28.9724 16.12ZM29.3204 15.172C29.6164 15.172 29.8804 15.12 30.1124 15.016C30.3444 14.904 30.5364 14.752 30.6884 14.56C30.8404 14.368 30.9484 14.14 31.0124 13.876V12.94C30.9484 12.7 30.8324 12.492 30.6644 12.316C30.5044 12.132 30.3084 11.988 30.0764 11.884C29.8524 11.772 29.6004 11.716 29.3204 11.716C29.0164 11.716 28.7364 11.792 28.4804 11.944C28.2324 12.088 28.0324 12.288 27.8804 12.544C27.7284 12.8 27.6524 13.096 27.6524 13.432C27.6524 13.76 27.7284 14.056 27.8804 14.32C28.0324 14.576 28.2364 14.784 28.4924 14.944C28.7484 15.096 29.0244 15.172 29.3204 15.172ZM36.0857 16.144L33.3257 11.032H34.6457L36.5177 14.98L35.8337 14.956L37.5497 11.032H38.7977L36.1457 16.144H36.0857ZM41.8641 16.12C41.4001 16.12 40.9761 16.02 40.5921 15.82C40.2161 15.62 39.9161 15.328 39.6921 14.944C39.4761 14.552 39.3681 14.076 39.3681 13.516C39.3681 12.964 39.4841 12.488 39.7161 12.088C39.9481 11.68 40.2561 11.368 40.6401 11.152C41.0321 10.936 41.4601 10.828 41.9241 10.828C42.3881 10.828 42.7801 10.936 43.1001 11.152C43.4201 11.36 43.6641 11.608 43.8321 11.896L43.7601 12.088L43.8681 11.032H44.9001V16H43.7841V14.704L43.9041 14.992C43.8721 15.072 43.8001 15.176 43.6881 15.304C43.5841 15.424 43.4401 15.548 43.2561 15.676C43.0801 15.804 42.8761 15.912 42.6441 16C42.4121 16.08 42.1521 16.12 41.8641 16.12ZM42.1641 15.196C42.4441 15.196 42.6961 15.144 42.9201 15.04C43.1441 14.936 43.3281 14.792 43.4721 14.608C43.6241 14.416 43.7281 14.188 43.7841 13.924V12.952C43.7201 12.712 43.6081 12.504 43.4481 12.328C43.2881 12.144 43.0961 12.004 42.8721 11.908C42.6481 11.804 42.4001 11.752 42.1281 11.752C41.8321 11.752 41.5601 11.824 41.3121 11.968C41.0641 12.112 40.8641 12.312 40.7121 12.568C40.5681 12.824 40.4961 13.124 40.4961 13.468C40.4961 13.788 40.5721 14.08 40.7241 14.344C40.8761 14.608 41.0801 14.816 41.3361 14.968C41.5921 15.12 41.8681 15.196 42.1641 15.196ZM47.8274 11.032L47.9234 12.244L47.8754 12.052C48.0354 11.684 48.2954 11.392 48.6554 11.176C49.0154 10.952 49.4314 10.84 49.9034 10.84C50.3754 10.84 50.7594 10.98 51.0554 11.26C51.3594 11.532 51.5154 11.888 51.5234 12.328V16H50.3954V12.724C50.3874 12.452 50.3074 12.232 50.1554 12.064C50.0114 11.888 49.7834 11.8 49.4714 11.8C49.1834 11.8 48.9234 11.88 48.6914 12.04C48.4594 12.2 48.2754 12.42 48.1394 12.7C48.0114 12.98 47.9474 13.304 47.9474 13.672V16H46.8314V11.032H47.8274ZM57.4962 15.544C57.2722 15.72 57.0042 15.86 56.6922 15.964C56.3802 16.068 56.0682 16.12 55.7562 16.12C55.2122 16.12 54.7362 16.012 54.3282 15.796C53.9202 15.58 53.6002 15.28 53.3682 14.896C53.1442 14.504 53.0322 14.044 53.0322 13.516C53.0322 12.988 53.1522 12.528 53.3922 12.136C53.6402 11.744 53.9602 11.444 54.3522 11.236C54.7522 11.02 55.1802 10.912 55.6362 10.912C56.0362 10.912 56.3922 10.968 56.7042 11.08C57.0242 11.192 57.2962 11.344 57.5202 11.536L56.9682 12.256C56.8242 12.144 56.6482 12.044 56.4402 11.956C56.2322 11.868 55.9962 11.824 55.7322 11.824C55.4442 11.824 55.1762 11.9 54.9282 12.052C54.6882 12.196 54.4962 12.396 54.3522 12.652C54.2162 12.908 54.1482 13.196 54.1482 13.516C54.1482 13.82 54.2202 14.104 54.3642 14.368C54.5082 14.624 54.7082 14.828 54.9642 14.98C55.2202 15.124 55.5122 15.196 55.8402 15.196C56.0562 15.196 56.2522 15.164 56.4282 15.1C56.6122 15.036 56.7762 14.948 56.9202 14.836L57.4962 15.544ZM61.2408 16.12C60.6728 16.12 60.1848 16.008 59.7768 15.784C59.3688 15.552 59.0528 15.24 58.8288 14.848C58.6128 14.448 58.5048 13.992 58.5048 13.48C58.5048 12.992 58.6288 12.548 58.8768 12.148C59.1248 11.748 59.4568 11.428 59.8728 11.188C60.2888 10.948 60.7528 10.828 61.2648 10.828C61.9208 10.828 62.4648 11.02 62.8968 11.404C63.3288 11.788 63.6208 12.316 63.7728 12.988L59.6808 14.428L59.4168 13.768L62.7768 12.544L62.5368 12.7C62.4408 12.436 62.2808 12.208 62.0568 12.016C61.8328 11.816 61.5408 11.716 61.1808 11.716C60.8768 11.716 60.6048 11.792 60.3648 11.944C60.1248 12.088 59.9368 12.288 59.8008 12.544C59.6648 12.8 59.5968 13.092 59.5968 13.42C59.5968 13.764 59.6688 14.068 59.8128 14.332C59.9568 14.588 60.1528 14.792 60.4008 14.944C60.6568 15.088 60.9448 15.16 61.2648 15.16C61.4808 15.16 61.6888 15.12 61.8888 15.04C62.0968 14.96 62.2888 14.856 62.4648 14.728L62.9808 15.556C62.7328 15.724 62.4528 15.86 62.1408 15.964C61.8368 16.068 61.5368 16.12 61.2408 16.12ZM67.1872 16.12C66.7312 16.12 66.3152 16.012 65.9392 15.796C65.5712 15.572 65.2792 15.26 65.0632 14.86C64.8472 14.452 64.7392 13.984 64.7392 13.456C64.7392 12.904 64.8512 12.432 65.0752 12.04C65.3072 11.648 65.6192 11.348 66.0112 11.14C66.4032 10.932 66.8432 10.828 67.3312 10.828C67.7232 10.828 68.0952 10.912 68.4472 11.08C68.8072 11.248 69.0872 11.48 69.2872 11.776L69.2392 12.172V6.712H70.3432V16H69.2272V14.764L69.3472 15.076C69.1152 15.38 68.8152 15.632 68.4472 15.832C68.0792 16.024 67.6592 16.12 67.1872 16.12ZM67.5352 15.172C67.8312 15.172 68.0952 15.12 68.3272 15.016C68.5592 14.904 68.7512 14.752 68.9032 14.56C69.0552 14.368 69.1632 14.14 69.2272 13.876V12.94C69.1632 12.7 69.0472 12.492 68.8792 12.316C68.7192 12.132 68.5232 11.988 68.2912 11.884C68.0672 11.772 67.8152 11.716 67.5352 11.716C67.2312 11.716 66.9512 11.792 66.6952 11.944C66.4472 12.088 66.2472 12.288 66.0952 12.544C65.9432 12.8 65.8672 13.096 65.8672 13.432C65.8672 13.76 65.9432 14.056 66.0952 14.32C66.2472 14.576 66.4512 14.784 66.7072 14.944C66.9632 15.096 67.2392 15.172 67.5352 15.172Z" fill="black"/>
</svg>
