<svg width="64" height="64" viewBox="0 0 64 64" fill="none" xmlns="http://www.w3.org/2000/svg">
<path fill-rule="evenodd" clip-rule="evenodd" d="M36.0361 9.02455C36.6413 9.03608 37.2317 9.04732 37.7956 9.04732C38.4487 9.04732 39.1072 9.0447 39.7687 9.04206C41.103 9.03673 42.4493 9.03136 43.7864 9.04741C44.6717 9.05804 45.4901 9.25074 46.1963 9.43792C46.3557 9.48019 46.5077 9.52157 46.6542 9.56145C47.1947 9.70859 47.6599 9.83526 48.1473 9.91047C49.0618 10.0516 49.8875 10.4173 50.5792 10.7522C50.7656 10.8424 50.9401 10.9291 51.1063 11.0116C51.6049 11.2593 52.0287 11.4697 52.475 11.6285C53.3339 11.9341 54.0569 12.4626 54.6433 12.9249C54.8134 13.059 54.9701 13.1856 55.118 13.3051C55.5273 13.6357 55.8695 13.9121 56.2421 14.1433C57.2888 14.7928 58.232 15.5625 59.1083 16.2775C59.1658 16.3245 59.223 16.3711 59.2799 16.4175C59.8719 16.9 60.338 17.5164 60.7122 18.0573C60.8808 18.3011 61.0232 18.5167 61.1548 18.716C61.351 19.0131 61.5234 19.2742 61.7236 19.539C63.9339 22.462 64.3104 25.9257 63.7958 29.29C63.7658 29.486 63.7357 29.6916 63.7045 29.9042C63.5869 30.7069 63.4546 31.6102 63.2584 32.4825C63.0082 33.5946 62.6325 34.7696 61.9707 35.7951C61.7705 36.1053 61.5682 36.424 61.3625 36.7479C60.4761 38.144 59.5281 39.637 58.4272 40.9632C56.7222 43.0171 54.9387 44.9363 52.8477 46.6858C51.2373 48.0334 49.3519 49.2317 47.5873 50.2415C46.5817 50.8169 45.5525 51.154 44.5814 51.4174C44.1711 51.5287 43.796 51.6215 43.4348 51.7109C42.8834 51.8473 42.3641 51.9758 41.8006 52.15C39.2599 52.9354 36.6438 53.578 34.0774 54.146C31.6447 54.6846 29.1338 54.651 26.7975 54.6199C26.2626 54.6127 25.7368 54.6057 25.2231 54.6057C22.6152 54.6057 20.1775 54.2139 17.7004 53.4611C17.5792 53.4242 17.4578 53.3875 17.3363 53.3507C15.4123 52.7685 13.4546 52.176 11.5461 50.9878L11.4435 50.924C9.89962 49.9631 8.12259 48.8572 6.74645 47.3465C5.40316 45.8719 4.06602 44.1876 3.01965 42.4237C1.87629 40.4963 1.25735 38.3011 0.707025 36.3493C0.687457 36.2799 0.667975 36.2108 0.64856 36.142C0.241389 34.6999 0 33.401 0 31.8265C0 30.3711 0.327052 28.9351 0.617666 27.6592C0.699576 27.2996 0.77859 26.9526 0.846572 26.6216C1.03195 25.7188 1.492 24.8535 1.97264 24.1257C2.46226 23.3844 3.02853 22.7044 3.50427 22.1682C4.94281 20.5467 6.79789 19.0969 8.56523 17.9702C9.02516 17.677 9.48689 17.3602 9.96817 17.0273C10.0218 16.9903 10.0756 16.953 10.1298 16.9155C10.5561 16.6204 10.9987 16.3141 11.4477 16.0186C12.4589 15.3532 13.5648 14.7007 14.7821 14.2566C15.476 14.0035 16.2453 13.7345 17.0227 13.5011C17.1899 13.3579 17.3596 13.2611 17.4976 13.1935C17.6014 13.1427 17.7136 13.0963 17.7808 13.0686C17.792 13.0639 17.802 13.0598 17.8105 13.0563C17.8887 13.0236 17.9214 13.0081 17.9419 12.9967C18.3806 12.7539 18.9275 12.4014 19.3472 12.0963C21.1002 10.8221 23.2589 10.3155 25.0968 9.88428C25.4612 9.79877 25.8129 9.71623 26.1465 9.63124C27.5614 9.27069 29.0599 9.20539 30.4019 9.14691C30.8749 9.1263 31.3285 9.10654 31.752 9.07499C33.1638 8.96985 34.6394 8.99795 36.0361 9.02455Z" fill="white"/>
<path fill-rule="evenodd" clip-rule="evenodd" d="M36.0361 9.02455C36.6413 9.03608 37.2317 9.04732 37.7956 9.04732C38.4487 9.04732 39.1072 9.0447 39.7687 9.04206C41.103 9.03673 42.4493 9.03136 43.7864 9.04741C44.6717 9.05804 45.4901 9.25074 46.1963 9.43792C46.3557 9.48019 46.5077 9.52157 46.6542 9.56145C47.1947 9.70859 47.6599 9.83526 48.1473 9.91047C49.0618 10.0516 49.8875 10.4173 50.5792 10.7522C50.7656 10.8424 50.9401 10.9291 51.1063 11.0116C51.6049 11.2593 52.0287 11.4697 52.475 11.6285C53.3339 11.9341 54.0569 12.4626 54.6433 12.9249C54.8134 13.059 54.9701 13.1856 55.118 13.3051C55.5273 13.6357 55.8695 13.9121 56.2421 14.1433C57.2888 14.7928 58.232 15.5625 59.1083 16.2775C59.1658 16.3245 59.223 16.3711 59.2799 16.4175C59.8719 16.9 60.338 17.5164 60.7122 18.0573C60.8808 18.3011 61.0232 18.5167 61.1548 18.716C61.351 19.0131 61.5234 19.2742 61.7236 19.539C63.9339 22.462 64.3104 25.9257 63.7958 29.29C63.7658 29.486 63.7357 29.6916 63.7045 29.9042C63.5869 30.7069 63.4546 31.6102 63.2584 32.4825C63.0082 33.5946 62.6325 34.7696 61.9707 35.7951C61.7705 36.1053 61.5682 36.424 61.3625 36.7479C60.4761 38.144 59.5281 39.637 58.4272 40.9632C56.7221 43.017 54.9387 44.9362 52.8477 46.6858C51.2373 48.0334 49.3519 49.2317 47.5873 50.2415C46.5817 50.8169 45.5525 51.154 44.5814 51.4174C44.1711 51.5287 43.796 51.6215 43.4348 51.7109C42.8834 51.8473 42.3641 51.9758 41.8006 52.15C39.2599 52.9354 36.6438 53.578 34.0774 54.146C31.6447 54.6846 29.1338 54.651 26.7975 54.6199C26.2626 54.6127 25.7368 54.6057 25.2231 54.6057C22.6152 54.6057 20.1775 54.2139 17.7004 53.4611C17.5792 53.4242 17.4578 53.3875 17.3363 53.3507C15.4123 52.7685 13.4546 52.176 11.5461 50.9878L11.4435 50.924C9.89962 49.9631 8.12259 48.8572 6.74645 47.3465C5.40316 45.8719 4.06602 44.1876 3.01965 42.4237C1.87629 40.4963 1.25735 38.3011 0.707025 36.3493C0.687457 36.2799 0.667975 36.2108 0.64856 36.142C0.241389 34.6999 0 33.401 0 31.8265C0 30.3711 0.327052 28.9351 0.617666 27.6592C0.699576 27.2996 0.77859 26.9526 0.846572 26.6216C1.03195 25.7188 1.492 24.8535 1.97264 24.1257C2.46226 23.3844 3.02853 22.7044 3.50427 22.1682C4.94281 20.5467 6.79789 19.0969 8.56523 17.9702C9.02516 17.677 9.48689 17.3602 9.96817 17.0273C10.0218 16.9903 10.0756 16.953 10.1298 16.9155C10.5561 16.6204 10.9987 16.3141 11.4477 16.0186C12.4589 15.3532 13.5648 14.7007 14.7821 14.2566C15.476 14.0035 16.2453 13.7345 17.0227 13.5011C17.1899 13.3579 17.3596 13.2611 17.4976 13.1935C17.6014 13.1427 17.7136 13.0963 17.7808 13.0686C17.792 13.0639 17.802 13.0598 17.8105 13.0563C17.8887 13.0236 17.9214 13.0081 17.9419 12.9967C18.3806 12.7539 18.9275 12.4014 19.3472 12.0963C21.1002 10.8221 23.2589 10.3155 25.0968 9.88428C25.4612 9.79877 25.8129 9.71623 26.1465 9.63124C27.5614 9.27069 29.0599 9.20539 30.4019 9.14691C30.8749 9.1263 31.3285 9.10654 31.752 9.07499C33.1638 8.96985 34.6394 8.99795 36.0361 9.02455ZM18.3062 15.6922C18.5165 15.6353 18.7239 15.5831 18.927 15.5367C18.9223 15.5378 18.9268 15.5372 18.9519 15.5341C18.9812 15.5304 19.0384 15.5234 19.1416 15.5113C19.2881 15.4943 19.4948 15.4699 19.7037 15.4319C19.9012 15.396 20.1725 15.336 20.4307 15.2229C20.6379 15.1322 21.1523 14.8734 21.3554 14.2664C21.4193 14.0754 21.4336 13.8798 21.4051 13.6935C22.5879 13.0158 23.9573 12.689 25.5105 12.3183C25.9141 12.222 26.33 12.1228 26.7583 12.0136C27.9076 11.7208 29.0163 11.6726 30.2649 11.6183C30.7925 11.5953 31.345 11.5713 31.9361 11.5273C33.2302 11.4309 34.5096 11.4557 35.8468 11.4816C36.4808 11.4939 37.1278 11.5064 37.7956 11.5064C38.4701 11.5064 39.1394 11.5038 39.8059 11.5011C41.1278 11.4958 42.4385 11.4905 43.7566 11.5064C44.3182 11.5131 44.8884 11.6359 45.5614 11.8143C45.6815 11.8462 45.8072 11.8805 45.9374 11.9161C46.492 12.0677 47.1293 12.2418 47.7693 12.3406C48.2957 12.4218 48.841 12.6448 49.5 12.9639C49.6303 13.027 49.7686 13.0958 49.9129 13.1676C50.4385 13.4292 51.0449 13.731 51.6447 13.9444C52.0979 14.1056 52.5538 14.4138 53.1112 14.8532C53.2237 14.9419 53.344 15.0392 53.4704 15.1414C53.909 15.4963 54.4209 15.9105 54.9367 16.2306C55.8431 16.793 56.6714 17.4684 57.5771 18.207C57.6234 18.2448 57.6699 18.2827 57.7166 18.3208C58.028 18.5746 58.3336 18.9529 58.6793 19.4526C58.7825 19.6018 58.8989 19.7772 59.022 19.9627C59.2563 20.3158 59.5147 20.7052 59.7517 21.0186C61.4346 23.2441 61.807 25.9662 61.3552 28.9196C61.3204 29.1474 61.287 29.3744 61.2538 29.6006C61.1378 30.3914 61.0231 31.1725 60.8494 31.9448C60.6279 32.9293 60.332 33.7867 59.8941 34.4653C59.6719 34.8095 59.4547 35.1513 59.2397 35.4896C58.3589 36.8755 57.5157 38.2023 56.5246 39.3961C54.8764 41.3816 53.1982 43.181 51.2598 44.8029C49.8084 46.0173 48.0637 47.1329 46.3576 48.1092C45.6189 48.5319 44.8228 48.8033 43.9328 49.0447C43.6355 49.1253 43.3042 49.2079 42.9573 49.2943C42.3426 49.4474 41.679 49.6128 41.0688 49.8014C38.6181 50.559 36.0743 51.1849 33.5419 51.7455C31.4174 52.2158 29.2645 52.1892 26.95 52.1606C26.3847 52.1537 25.8097 52.1466 25.2231 52.1466C22.8775 52.1466 20.6825 51.7963 18.4208 51.109C18.3244 51.0797 18.2289 51.0507 18.1341 51.022C16.144 50.4183 14.4773 49.9128 12.8545 48.9025C11.2257 47.8885 9.71042 46.9408 8.57469 45.694C7.30353 44.2986 6.08039 42.7494 5.14503 41.1726C4.16847 39.5264 3.62555 37.6033 3.04755 35.5558L3.02507 35.4762C2.66028 34.1842 2.46872 33.1159 2.46872 31.8265C2.46872 30.6727 2.71122 29.602 2.98781 28.3807C3.07906 27.9778 3.17402 27.5585 3.26521 27.1144C3.35964 26.6545 3.62807 26.0935 4.03504 25.4773C4.43303 24.8747 4.91352 24.2933 5.35415 23.7966C6.59744 22.3952 8.25669 21.0866 9.896 20.0415C10.3992 19.7207 10.895 19.38 11.3761 19.0473C11.4304 19.0098 11.4845 18.9723 11.5384 18.935C11.9676 18.638 12.3852 18.3489 12.8084 18.0705C13.7616 17.4433 14.6805 16.9125 15.631 16.5658C16.2982 16.3224 16.9984 16.0785 17.6838 15.871C17.9037 15.8675 18.119 15.8053 18.3062 15.6922Z" fill="black"/>
<path fill-rule="evenodd" clip-rule="evenodd" d="M30.6028 14.5776C30.8343 14.5826 31.05 14.5874 31.22 14.5874H36.6034C38.7312 14.5874 40.8416 14.6317 42.9599 14.7026C44.3089 14.7477 45.7385 15.3362 46.7897 15.7689C46.9174 15.8215 47.0396 15.8718 47.1553 15.9185C48.3663 16.4074 49.4515 17.1218 50.4147 17.8611C50.6693 18.0566 50.9151 18.2261 51.1865 18.4132C51.3678 18.5382 51.5605 18.6711 51.7748 18.8248C52.2617 19.1739 52.7957 19.5893 53.2412 20.1003C53.4887 20.3842 53.7716 20.6341 54.1186 20.9408C54.1773 20.9928 54.238 21.0463 54.3006 21.102C54.7052 21.4616 55.1809 21.8992 55.5711 22.4494C56.2011 23.3377 56.8209 24.2524 57.2858 25.3739C57.9151 26.8921 57.8906 28.6061 57.871 29.9802C57.8678 30.2075 57.8646 30.4254 57.8646 30.6317C57.8646 30.7491 57.8657 30.8762 57.8669 31.0086C57.8694 31.2959 57.8721 31.6086 57.8643 31.9032C57.8548 32.2591 57.7596 32.5704 57.5869 32.8491C57.4591 33.0554 57.2915 33.2304 57.2012 33.3247C57.1918 33.3345 57.1833 33.3434 57.1757 33.3514C57.1322 33.3973 57.0893 33.4622 57.0394 33.5961C57.0132 33.6668 56.9877 33.7488 56.9574 33.8559C56.9486 33.8866 56.9375 33.927 56.9251 33.9716C56.9031 34.0513 56.8772 34.1447 56.855 34.2208C56.6238 35.0112 56.1985 35.7041 55.8152 36.2819C55.7054 36.4474 55.6006 36.6015 55.501 36.748C55.225 37.1541 54.9885 37.5021 54.7926 37.8745C54.1357 39.123 53.306 39.8832 52.2936 40.6123C50.9698 41.5657 49.6157 42.4182 48.2415 43.2402C47.339 43.7801 46.3996 44.1946 45.5065 44.5693C45.3201 44.6475 45.1367 44.7236 44.9559 44.7986C44.2502 45.0914 43.5837 45.3679 42.9307 45.6901C40.6027 46.8389 38.322 47.5678 35.9047 48.2494C35.6863 48.311 35.4619 48.3754 35.2325 48.4413C33.5075 48.9366 31.4976 49.5136 29.5776 49.588C28.1348 49.6438 26.6614 49.6268 25.225 49.6103C24.5506 49.6025 23.8844 49.5948 23.2334 49.5948C19.1132 49.5948 14.4918 48.5533 11.1027 45.8774C9.39167 44.5265 7.98219 42.8569 6.93618 40.9565C6.43878 40.0528 6.13886 38.8843 5.93127 38.0756L5.92966 38.0693C5.92384 38.0466 5.91794 38.0237 5.91198 38.0005C5.75933 37.4071 5.56519 36.6523 5.56519 35.8664C5.56519 34.3337 6.01958 32.857 6.44794 31.5887C6.48041 31.4925 6.51294 31.3954 6.54577 31.2973C6.91072 30.2074 7.31232 29.0081 8.07035 27.8859C10.0268 24.9896 12.2856 21.7166 15.7493 19.9292C16.2374 19.4262 16.8283 19.1106 17.4097 18.9043C17.5147 18.6945 17.6874 18.5156 17.9157 18.4029C18.6273 18.0517 19.753 17.4186 20.691 16.891C21.0038 16.715 21.2957 16.5508 21.5444 16.4128C22.0635 16.1246 22.6125 15.9666 23.0652 15.8496C23.1937 15.8164 23.3124 15.7869 23.4238 15.7592C23.7431 15.6797 24.0022 15.6152 24.2599 15.5227C24.9088 15.2899 25.5811 15.2006 26.1242 15.1287L26.135 15.1273C26.7139 15.0507 27.1611 14.9915 27.5701 14.8595C28.2491 14.6404 28.9196 14.5804 29.5266 14.5678C29.8489 14.5611 30.2447 14.5698 30.6028 14.5776ZM21.8901 18.7767C21.9615 18.8814 22.0159 19 22.0485 19.1296C22.1985 19.7256 21.8304 20.3288 21.2264 20.4768C20.8776 20.5623 20.4598 20.6078 20.1033 20.6466L20.0615 20.6512C19.6752 20.6933 19.3003 20.7341 18.9295 20.8027C18.1498 20.9467 17.6186 21.1761 17.3134 21.5375L17.1625 21.7162L16.9517 21.8203C13.9943 23.2796 11.9879 26.0959 9.94544 29.1196C9.3636 29.981 9.05318 30.9035 8.66899 32.0453C8.6417 32.1264 8.61403 32.2086 8.58587 32.292C8.15912 33.5555 7.81876 34.7287 7.81876 35.8664C7.81876 36.356 7.94488 36.8634 8.11423 37.5231C8.33778 38.3941 8.5776 39.2792 8.91645 39.8948C9.82074 41.5378 11.0366 42.977 12.5105 44.1407C15.3698 46.3983 19.4287 47.3707 23.2334 47.3707C23.9418 47.3707 24.6379 47.3788 25.3266 47.3868C26.73 47.4032 28.1031 47.4192 29.4893 47.3655C31.1124 47.3027 32.8355 46.8102 34.597 46.3068C34.8259 46.2413 35.0555 46.1757 35.2856 46.1108C37.6595 45.4415 39.7823 44.7571 41.9229 43.7008C42.6489 43.3425 43.402 43.0303 44.1146 42.7348C44.2874 42.6632 44.4578 42.5925 44.6249 42.5224C45.5017 42.1546 46.3164 41.7909 47.0735 41.3381C48.4203 40.5325 49.7141 39.7167 50.9652 38.8157C51.8173 38.202 52.3533 37.6845 52.7925 36.8496C53.0523 36.3557 53.3897 35.86 53.6839 35.4278C53.7707 35.3002 53.8537 35.1782 53.9299 35.0634C54.2949 34.5132 54.558 34.0545 54.6898 33.604C54.7021 33.5618 54.7154 33.5114 54.7305 33.4542C54.8322 33.0687 55.015 32.3752 55.53 31.8319C55.561 31.7993 55.583 31.7762 55.6054 31.7523C55.6083 31.7492 55.611 31.7462 55.6137 31.7434C55.6177 31.5229 55.6158 31.31 55.6137 31.0817C55.6124 30.9395 55.6111 30.7913 55.6111 30.6317C55.6111 30.371 55.6135 30.1172 55.6159 29.8699C55.6293 28.4715 55.6407 27.2791 55.2 26.216C54.8369 25.3401 54.3436 24.5971 53.7249 23.7249C53.4942 23.3996 53.1885 23.1067 52.7924 22.7546C52.7412 22.7091 52.6878 22.6621 52.6327 22.6135C52.2912 22.3126 51.8848 21.9544 51.533 21.5509C51.2617 21.2398 50.8986 20.9457 50.4501 20.624C50.3086 20.5226 50.1455 20.4097 49.9741 20.2911C49.6605 20.0741 49.319 19.8378 49.0311 19.6168C48.1499 18.9403 47.2479 18.3589 46.302 17.9771C46.181 17.9282 46.0611 17.8794 45.9423 17.831C44.8166 17.3728 43.7921 16.9558 42.8836 16.9254C40.7838 16.8552 38.6997 16.8115 36.6034 16.8115H31.22C30.9153 16.8115 30.6689 16.8051 30.438 16.7991C30.1532 16.7917 29.892 16.7849 29.574 16.7915C29.0746 16.8019 28.652 16.8504 28.2704 16.9736C27.6601 17.1705 27.0284 17.2535 26.5134 17.3213C26.4831 17.3253 26.4532 17.3292 26.4238 17.3331C25.8524 17.4087 25.416 17.4745 25.03 17.613C24.6534 17.7481 24.2399 17.8507 23.8967 17.9358C23.8038 17.9588 23.7161 17.9805 23.6357 18.0013C23.2138 18.1103 22.9017 18.2111 22.6492 18.3513C22.4356 18.4699 22.1758 18.616 21.8901 18.7767Z" fill="black"/>
<path fill-rule="evenodd" clip-rule="evenodd" d="M22.1049 26.8177C22.2764 26.8214 22.4348 26.8248 22.5716 26.8248C23.6519 26.8248 24.6476 27.1887 25.397 27.8445C25.6023 27.8853 25.9689 27.9695 26.3245 28.2396C26.7759 28.5823 26.9248 29.0378 26.9902 29.2859C27.0088 29.3568 27.0455 29.5194 27.0525 29.5503C27.0532 29.5535 27.0536 29.5553 27.0536 29.5554C27.0603 29.5832 27.0646 29.5976 27.0662 29.6029C27.3903 30.3333 27.2684 31.0865 27.104 31.611C26.9316 32.1608 26.6519 32.6568 26.411 33.0091C26.2652 33.2224 26.1041 33.421 25.9665 33.5876C25.9322 33.6291 25.8996 33.6682 25.8685 33.7057C25.765 33.8302 25.6775 33.9355 25.594 34.0442C25.3613 34.3471 25.1002 34.5319 24.9273 34.6479C24.8749 34.6831 24.8327 34.7109 24.7976 34.7341C24.7003 34.7983 24.6577 34.8264 24.6034 34.8745C24.2378 35.1984 23.8308 35.445 23.4819 35.6423C23.3427 35.721 23.2186 35.789 23.1032 35.8522C22.8971 35.9651 22.7189 36.0627 22.5323 36.179C21.7251 36.6819 20.8952 36.9362 20.1468 37.1228C19.8828 37.1886 19.6405 37.244 19.4104 37.2966C18.9431 37.4036 18.5265 37.4989 18.0825 37.646C17.9653 37.6848 17.8479 37.7243 17.7301 37.764C16.5573 38.1587 15.3397 38.5685 13.8059 38.4845C13.5622 38.4712 13.3194 38.4522 13.0776 38.4221C12.5837 38.4958 12.0512 38.5022 11.5441 38.4275C10.7352 38.3083 9.68892 37.9301 9.14795 36.926C8.60454 35.9173 7.82393 34.3594 8.84643 32.6542C8.89389 32.5751 8.93264 32.5019 8.97645 32.4167C8.98195 32.406 8.98787 32.3944 8.99415 32.3821C9.03239 32.3073 9.08428 32.2059 9.14022 32.109C9.29616 31.8391 9.49434 31.5808 9.81679 31.3137C10.0372 31.1312 10.2861 30.9803 10.4503 30.8807C10.4742 30.8662 10.4964 30.8527 10.5164 30.8404C10.7092 30.7221 10.7966 30.6581 10.8523 30.6017C11.2628 30.1861 11.7599 29.9278 12.1037 29.7522C12.1377 29.7348 12.1704 29.7182 12.2019 29.7021C12.5419 29.5288 12.7454 29.4251 12.9115 29.2918C13.3469 28.9424 13.7598 28.7777 14.1193 28.6677C14.2801 28.6185 14.396 28.5874 14.4944 28.561C14.6436 28.5209 14.7529 28.4916 14.9179 28.4262C15.4081 28.232 15.9102 28.1074 16.3782 28.0119C16.7883 27.8629 17.2182 27.7186 17.6625 27.6013C17.936 27.529 18.1846 27.4494 18.4621 27.3605C18.6347 27.3052 18.8186 27.2463 19.0265 27.1834C19.5216 27.0336 20.0903 26.8835 20.6928 26.8347C21.1553 26.7973 21.6718 26.8084 22.1049 26.8177ZM13.2401 32.2437C13.2401 32.2436 13.2407 32.2459 13.2415 32.2507C13.2404 32.2462 13.24 32.2438 13.2401 32.2437ZM23.5897 32.2378C23.5533 32.1979 23.5197 32.1597 23.4899 32.1252C23.4138 32.037 23.3394 31.9457 23.2831 31.8767C23.2758 31.8677 23.2688 31.8591 23.2621 31.8509C23.221 31.8005 23.1978 31.7729 23.1869 31.7599C23.1775 31.7487 23.177 31.7481 23.1817 31.7528C23.0669 31.6367 22.9183 31.5274 22.6805 31.3662C22.6582 31.351 22.6347 31.3351 22.6102 31.3186C22.4032 31.179 22.1246 30.9912 21.8699 30.7656C21.2959 30.257 20.6368 30.1075 20.1805 30.2923C19.8709 30.4177 19.5249 30.62 19.1273 30.8803C18.9915 30.9692 18.8304 31.0783 18.6621 31.1924C18.4071 31.3651 18.1355 31.5491 17.9097 31.6913C17.724 31.8083 17.5879 31.8882 17.4661 31.9596C17.3188 32.046 17.1926 32.1201 17.0248 32.2328C16.7822 32.3957 16.6321 32.532 16.5346 32.6678C16.2825 33.0186 16.1763 33.3498 16.1753 33.5542C16.1749 33.6411 16.1927 33.6843 16.2062 33.7076C16.2185 33.7287 16.259 33.7893 16.3941 33.8619C16.6211 33.9839 17.0601 34.0579 17.713 34.0178C18.3293 33.98 18.9761 33.8526 19.5034 33.731C19.7454 33.6752 20.0039 33.6247 20.2475 33.5772C20.269 33.573 20.2904 33.5688 20.3117 33.5646C20.5819 33.5118 20.8394 33.4606 21.0889 33.4014C21.6044 33.279 21.9841 33.1441 22.2376 32.9808C22.5235 32.7965 22.8207 32.6431 23.0659 32.5168L23.0779 32.5106C23.2751 32.409 23.4404 32.3238 23.5897 32.2378Z" fill="black"/>
<path fill-rule="evenodd" clip-rule="evenodd" d="M50.4849 24.0985C51.5231 24.211 52.6274 24.4957 53.6269 25.231C53.6976 25.283 53.7916 25.3419 53.9473 25.4395L53.968 25.4525C54.1183 25.5467 54.3126 25.6692 54.502 25.8104C54.84 26.0622 55.4033 26.5421 55.5641 27.3149C55.6442 27.6998 55.6824 28.1689 55.6243 28.6375C55.5678 29.0925 55.4032 29.6745 54.9614 30.1295C53.8808 31.2423 52.2328 32.4418 50.6125 32.8868C48.9252 33.3502 47.2094 33.4846 45.5419 33.4846C45.46 33.4846 45.3748 33.4852 45.2868 33.4858C44.7122 33.4895 44.0173 33.494 43.3209 33.3505C43.0338 33.2914 42.6727 33.1444 42.3765 32.9852C42.2198 32.901 42.0442 32.7938 41.8823 32.6645C41.7433 32.5535 41.5103 32.3458 41.3627 32.0333C41.3598 32.0289 41.3466 32.0092 41.3126 31.9722C41.2565 31.9113 41.1881 31.8488 41.069 31.7408C41.0589 31.7315 41.0478 31.7216 41.036 31.711C40.8452 31.5393 40.449 31.1829 40.2466 30.6712C40.1465 30.4181 40.0929 30.1616 40.0643 29.9269C40.0258 29.8684 39.9888 29.8113 39.953 29.7561C39.6091 29.2249 39.4581 28.6386 39.5312 28.0414C39.6013 27.4698 39.8627 27.0005 40.1452 26.6437C40.6912 25.954 41.4943 25.462 42.047 25.1693C42.5694 24.8925 43.0957 24.7534 43.5278 24.6502C43.6203 24.6281 43.7073 24.6079 43.79 24.5886C44.1249 24.5106 44.3886 24.4491 44.655 24.3512C45.5777 24.0118 46.4914 24.0236 47.2252 24.033C47.3404 24.0345 47.4512 24.0359 47.5568 24.0359C47.7452 24.0359 47.9442 24.0336 48.1508 24.0313C48.8789 24.023 49.7013 24.0137 50.4849 24.0985ZM47.0113 27.2219C46.814 27.4614 46.5731 27.6093 46.3856 27.6963C46.1244 27.8176 45.8231 27.8868 45.6504 27.9266C45.632 27.9308 45.6151 27.9347 45.5999 27.9382C45.5359 27.9532 45.4839 27.9661 45.4416 27.9772C45.4486 28.0825 45.4892 28.1676 45.5548 28.2586C45.7004 28.4605 45.983 28.6851 46.4074 28.9036C46.6605 29.0339 46.8759 29.1991 47.0097 29.3016C47.0189 29.3087 47.0278 29.3155 47.0363 29.322C47.1863 29.4367 47.2525 29.4825 47.306 29.5097C47.3148 29.5118 47.3507 29.5197 47.4311 29.5227C47.4912 29.525 47.5597 29.5243 47.6514 29.522C47.6675 29.5215 47.6852 29.521 47.704 29.5205C47.7793 29.5184 47.873 29.5158 47.961 29.5158C48.0765 29.5158 48.1983 29.5196 48.2961 29.5227C48.3261 29.5237 48.3539 29.5246 48.3785 29.5253C48.4986 29.5285 48.581 29.5286 48.6492 29.5239C48.7143 29.5194 48.7482 29.5116 48.7645 29.5066C48.7773 29.5027 48.7823 29.4997 48.7878 29.4958C48.7986 29.4881 48.8094 29.4804 48.8204 29.4726C49.0383 29.3172 49.2867 29.14 49.5432 28.9725C49.5967 28.8305 49.6906 28.6398 49.8633 28.4614C49.8652 28.459 49.8746 28.4472 49.8917 28.4193C49.9189 28.375 49.947 28.322 49.997 28.2256C50.0018 28.2165 50.0068 28.2067 50.0122 28.1963C50.0961 28.0335 50.2582 27.7192 50.5166 27.4531C50.523 27.4465 50.5292 27.44 50.5351 27.4337C50.4837 27.4118 50.4241 27.3892 50.3566 27.367C50.0446 27.2641 49.7296 27.2219 49.6019 27.2219H47.0113ZM50.729 27.5388C50.7289 27.5389 50.7274 27.5377 50.7249 27.5353C50.7278 27.5376 50.729 27.5388 50.729 27.5388ZM49.4632 29.2419C49.4612 29.2495 49.4612 29.2483 49.4636 29.2403C49.4635 29.2409 49.4633 29.2414 49.4632 29.2419ZM45.2681 28.0333C45.2681 28.0334 45.268 28.0334 45.268 28.0334C45.2679 28.0335 45.2678 28.0335 45.2678 28.0335" fill="black"/>
<path fill-rule="evenodd" clip-rule="evenodd" d="M34.719 35.7865C34.6661 35.83 34.6187 35.8629 34.5826 35.8864C34.2631 36.0945 33.8793 36.1754 33.6368 36.214C33.353 36.2591 33.0474 36.2766 32.7774 36.2668C32.6424 36.2619 32.4966 36.2496 32.3553 36.2237C32.2448 36.2035 32.0165 36.1555 31.7949 36.0145C31.457 35.7995 31.1187 35.4634 30.8894 35.0334C30.6547 34.5933 30.4864 33.9471 30.7225 33.2519C31.0684 32.2335 31.9199 31.7668 32.5258 31.5515C33.1694 31.3227 33.8496 31.2607 34.3222 31.2607C35.3272 31.2607 36.351 31.6097 37.1821 32.3146C37.4057 32.5043 37.9391 33.0235 37.8285 33.8415C37.7235 34.6187 37.1241 34.9414 36.9588 35.0242C36.5632 35.2225 36.0841 35.2895 35.7922 35.3032C35.7749 35.3163 35.7587 35.328 35.7439 35.3385C35.6272 35.4208 35.5088 35.4852 35.4081 35.534C35.2066 35.6316 34.9938 35.7067 34.8219 35.7575C34.7935 35.7659 34.7586 35.776 34.719 35.7865Z" fill="black"/>
<path fill-rule="evenodd" clip-rule="evenodd" d="M31.7592 42.3707C31.4449 42.4569 30.9921 42.5811 30.5143 42.5954C30.2739 42.6026 30.0968 42.6716 29.7512 42.8063C29.6163 42.8589 29.4558 42.9214 29.2558 42.9942C28.9721 43.0975 28.7859 43.1892 28.6506 43.2913C28.6448 43.2986 28.6385 43.3064 28.6305 43.3164C28.6249 43.3235 28.6183 43.3317 28.6104 43.3416C28.5886 43.3688 28.5581 43.4067 28.524 43.4467C28.4606 43.521 28.3501 43.6445 28.2015 43.7577C28.0494 43.8734 27.8101 44.0149 27.4938 44.0528C26.8328 44.1319 26.2374 43.6184 26.164 42.9058C26.1067 42.3498 26.384 41.8368 26.8226 41.6006C26.8331 41.5875 26.8443 41.5736 26.855 41.5605C26.8823 41.5272 26.9194 41.4828 26.9628 41.4359C27.0057 41.3894 27.0646 41.3295 27.1374 41.2688C27.5948 40.8875 28.0916 40.6774 28.4853 40.5341C28.5491 40.5108 28.6255 40.4803 28.7123 40.4455C29.1257 40.2802 29.7764 40.0199 30.4474 39.9998C30.6415 39.994 30.8507 39.9398 31.2339 39.8355L31.2491 39.8314C31.5834 39.7404 32.067 39.6086 32.5944 39.6086H33.2486C33.715 39.6086 34.0577 39.8286 34.2073 39.9373C34.5612 40.0083 34.8337 40.1633 34.962 40.2363C34.9727 40.2423 34.9824 40.2478 34.991 40.2527C35.0273 40.273 35.0542 40.2872 35.0731 40.297C35.6898 40.3535 36.1739 40.9111 36.1739 41.5905C36.1739 42.3076 35.6347 42.8888 34.9696 42.8888C34.4647 42.8888 34.0664 42.6624 33.9072 42.5719C33.8974 42.5663 33.8885 42.5613 33.8806 42.5569C33.8173 42.5214 33.779 42.5018 33.7589 42.4917C33.5024 42.466 33.299 42.3751 33.1593 42.2952C33.1086 42.2663 33.0595 42.2343 33.0174 42.2053H32.5944C32.4005 42.2053 32.1869 42.2542 31.8235 42.3531C31.8028 42.3588 31.7813 42.3647 31.7592 42.3707ZM32.8672 42.0967C32.867 42.0962 32.872 42.0993 32.8829 42.1071C32.8728 42.101 32.8674 42.0971 32.8672 42.0967ZM28.6755 43.2614C28.6755 43.2615 28.6743 43.2628 28.6722 43.2651C28.6745 43.2625 28.6755 43.2613 28.6755 43.2614Z" fill="black"/>
</svg>
