<svg width="16" height="16" viewBox="0 0 16 16" fill="none" xmlns="http://www.w3.org/2000/svg">
<rect width="16" height="16" fill="#3C3C3C"/>
<path fill-rule="evenodd" clip-rule="evenodd" d="M9.00902 2.00614C9.16032 2.00902 9.30791 2.01183 9.4489 2.01183C9.61217 2.01183 9.77681 2.01117 9.94218 2.01051C10.2758 2.00918 10.6123 2.00784 10.9466 2.01185C11.1679 2.01451 11.3725 2.06269 11.5491 2.10948C11.5889 2.12005 11.6269 2.13039 11.6636 2.14036C11.7987 2.17715 11.915 2.20881 12.0368 2.22762C12.2654 2.2629 12.4719 2.35432 12.6448 2.43804C12.6914 2.4606 12.735 2.48227 12.7766 2.50291C12.9012 2.56481 13.0072 2.61744 13.1188 2.65713C13.3335 2.73352 13.5142 2.86565 13.6608 2.98123C13.7033 3.01476 13.7425 3.0464 13.7795 3.07628C13.8818 3.15892 13.9674 3.22802 14.0605 3.28583C14.3222 3.4482 14.558 3.64062 14.7771 3.81939C14.7914 3.83112 14.8057 3.84279 14.82 3.85439C14.968 3.975 15.0845 4.12909 15.178 4.26432C15.2202 4.32527 15.2558 4.37916 15.2887 4.429C15.3377 4.50329 15.3808 4.56856 15.4309 4.63476C15.9835 5.3655 16.0776 6.23143 15.9489 7.0725C15.9414 7.12151 15.9339 7.1729 15.9261 7.22605C15.8967 7.42673 15.8637 7.65255 15.8146 7.87062C15.7521 8.14865 15.6581 8.4424 15.4927 8.69877C15.4426 8.77632 15.392 8.856 15.3406 8.93698C15.119 9.28601 14.882 9.65924 14.6068 9.9908C14.1805 10.5043 13.7347 10.9841 13.2119 11.4215C12.8093 11.7583 12.338 12.0579 11.8968 12.3104C11.6454 12.4542 11.3881 12.5385 11.1454 12.6044C11.0428 12.6322 10.949 12.6554 10.8587 12.6777C10.7208 12.7118 10.591 12.7439 10.4501 12.7875C9.81498 12.9839 9.16095 13.1445 8.51936 13.2865C7.91117 13.4211 7.28346 13.4128 6.69938 13.405C6.56564 13.4032 6.43419 13.4014 6.30578 13.4014C5.65379 13.4014 5.04438 13.3035 4.42509 13.1153C4.39479 13.1061 4.36445 13.0969 4.33408 13.0877C3.85306 12.9421 3.36364 12.794 2.88652 12.497L2.86088 12.481C2.47491 12.2408 2.03065 11.9643 1.68661 11.5866C1.35079 11.218 1.01651 10.7969 0.754912 10.3559C0.469074 9.87407 0.314339 9.32528 0.176756 8.83732C0.171864 8.81997 0.166994 8.80269 0.16214 8.7855C0.0603473 8.42498 0 8.10025 0 7.70663C0 7.34277 0.0817631 6.98378 0.154417 6.6648C0.174894 6.57489 0.194648 6.48816 0.211643 6.4054C0.257988 6.1797 0.372999 5.96337 0.49316 5.78143C0.615566 5.5961 0.757132 5.4261 0.876067 5.29204C1.2357 4.88667 1.69947 4.52423 2.14131 4.24256C2.25629 4.16925 2.37172 4.09005 2.49204 4.00683C2.50544 3.99757 2.51891 3.98824 2.53244 3.97888C2.63903 3.9051 2.74967 3.82851 2.86192 3.75465C3.11474 3.5883 3.3912 3.42516 3.69551 3.31416C3.86901 3.25087 4.06132 3.18364 4.25567 3.12528C4.29747 3.08947 4.3399 3.06529 4.37441 3.04838C4.40035 3.03566 4.42839 3.02408 4.44519 3.01714C4.44801 3.01598 4.45051 3.01495 4.45263 3.01407C4.47216 3.00591 4.48035 3.00201 4.48547 2.99918C4.59514 2.93849 4.73188 2.85035 4.83681 2.77408C5.27506 2.45552 5.81473 2.32888 6.27419 2.22107C6.36529 2.19969 6.45324 2.17906 6.53662 2.15781C6.89034 2.06767 7.26498 2.05135 7.60047 2.03673C7.71872 2.03158 7.83211 2.02663 7.93801 2.01875C8.29096 1.99246 8.65985 1.99949 9.00902 2.00614Z" fill="white"/>
<path fill-rule="evenodd" clip-rule="evenodd" d="M9.00902 2.00614C9.16032 2.00902 9.30791 2.01183 9.4489 2.01183C9.61217 2.01183 9.77681 2.01117 9.94218 2.01051C10.2758 2.00918 10.6123 2.00784 10.9466 2.01185C11.1679 2.01451 11.3725 2.06269 11.5491 2.10948C11.5889 2.12005 11.6269 2.13039 11.6636 2.14036C11.7987 2.17715 11.915 2.20881 12.0368 2.22762C12.2654 2.2629 12.4719 2.35432 12.6448 2.43804C12.6914 2.4606 12.735 2.48227 12.7766 2.50291C12.9012 2.56481 13.0072 2.61744 13.1188 2.65713C13.3335 2.73352 13.5142 2.86565 13.6608 2.98123C13.7033 3.01476 13.7425 3.0464 13.7795 3.07628C13.8818 3.15892 13.9674 3.22802 14.0605 3.28583C14.3222 3.4482 14.558 3.64062 14.7771 3.81939C14.7914 3.83112 14.8057 3.84279 14.82 3.85438C14.968 3.975 15.0845 4.12909 15.178 4.26432C15.2202 4.32527 15.2558 4.37916 15.2887 4.429C15.3377 4.50329 15.3808 4.56855 15.4309 4.63476C15.9835 5.3655 16.0776 6.23143 15.9489 7.0725C15.9414 7.12151 15.9339 7.1729 15.9261 7.22605C15.8967 7.42673 15.8637 7.65255 15.8146 7.87062C15.7521 8.14865 15.6581 8.4424 15.4927 8.69877C15.4426 8.77632 15.392 8.856 15.3406 8.93698C15.119 9.28601 14.882 9.65924 14.6068 9.9908C14.1805 10.5043 13.7347 10.9841 13.2119 11.4215C12.8093 11.7583 12.338 12.0579 11.8968 12.3104C11.6454 12.4542 11.3881 12.5385 11.1454 12.6044C11.0428 12.6322 10.949 12.6554 10.8587 12.6777C10.7208 12.7118 10.591 12.7439 10.4501 12.7875C9.81498 12.9839 9.16095 13.1445 8.51936 13.2865C7.91117 13.4211 7.28346 13.4128 6.69938 13.405C6.56564 13.4032 6.43419 13.4014 6.30578 13.4014C5.65379 13.4014 5.04438 13.3035 4.42509 13.1153C4.39479 13.1061 4.36445 13.0969 4.33408 13.0877C3.85306 12.9421 3.36364 12.794 2.88652 12.497L2.86088 12.481C2.47491 12.2408 2.03065 11.9643 1.68661 11.5866C1.35079 11.218 1.01651 10.7969 0.754912 10.3559C0.469074 9.87407 0.314339 9.32528 0.176756 8.83732C0.171864 8.81997 0.166994 8.80269 0.16214 8.7855C0.0603473 8.42498 0 8.10025 0 7.70663C0 7.34277 0.0817631 6.98378 0.154417 6.6648C0.174894 6.57489 0.194648 6.48816 0.211643 6.40539C0.257988 6.1797 0.372999 5.96337 0.49316 5.78143C0.615566 5.5961 0.757132 5.4261 0.876067 5.29204C1.2357 4.88667 1.69947 4.52423 2.14131 4.24256C2.25629 4.16925 2.37172 4.09004 2.49204 4.00683C2.50544 3.99757 2.51891 3.98824 2.53244 3.97888C2.63903 3.9051 2.74967 3.82851 2.86192 3.75465C3.11474 3.5883 3.3912 3.42516 3.69551 3.31416C3.86901 3.25087 4.06132 3.18364 4.25567 3.12528C4.29747 3.08947 4.3399 3.06529 4.37441 3.04838C4.40035 3.03566 4.42839 3.02408 4.44519 3.01714C4.44801 3.01598 4.45051 3.01495 4.45263 3.01407C4.47216 3.00591 4.48035 3.00201 4.48547 2.99918C4.59514 2.93849 4.73188 2.85035 4.83681 2.77408C5.27506 2.45552 5.81473 2.32888 6.27419 2.22107C6.36529 2.19969 6.45324 2.17906 6.53662 2.15781C6.89034 2.06767 7.26498 2.05135 7.60047 2.03673C7.71872 2.03158 7.83211 2.02663 7.93801 2.01875C8.29096 1.99246 8.65985 1.99949 9.00902 2.00614ZM4.57655 3.67306C4.62912 3.65883 4.68097 3.64578 4.73174 3.63417C4.73057 3.63444 4.73169 3.6343 4.73798 3.63352C4.7453 3.63261 4.7596 3.63084 4.7854 3.62783C4.82202 3.62357 4.87371 3.61747 4.92591 3.60798C4.97531 3.59901 5.04312 3.584 5.10768 3.55573C5.15948 3.53304 5.28807 3.46835 5.33885 3.3166C5.35483 3.26884 5.35839 3.21994 5.35127 3.17337C5.64697 3.00394 5.98932 2.92225 6.37764 2.82958C6.47852 2.80551 6.5825 2.7807 6.68957 2.75341C6.97689 2.6802 7.25407 2.66814 7.56624 2.65457C7.69812 2.64883 7.83625 2.64282 7.98402 2.63182C8.30756 2.60772 8.62739 2.61392 8.9617 2.6204C9.1202 2.62348 9.28196 2.62661 9.4489 2.62661C9.61754 2.62661 9.78486 2.62594 9.95147 2.62527C10.282 2.62395 10.6096 2.62263 10.9392 2.62659C11.0796 2.62827 11.2221 2.65898 11.3904 2.70359C11.4204 2.71154 11.4518 2.72013 11.4843 2.72903C11.623 2.76692 11.7823 2.81046 11.9423 2.83515C12.0739 2.85546 12.2102 2.9112 12.375 2.99096C12.4076 3.00674 12.4421 3.02394 12.4782 3.0419C12.6096 3.1073 12.7612 3.18276 12.9112 3.2361C13.0245 3.2764 13.1385 3.35344 13.2778 3.4633C13.3059 3.48548 13.336 3.50981 13.3676 3.53536C13.4773 3.62408 13.6052 3.72761 13.7342 3.80764C13.9608 3.94825 14.1678 4.1171 14.3943 4.30176C14.4058 4.3112 14.4175 4.32068 14.4292 4.3302C14.507 4.39365 14.5834 4.48822 14.6698 4.61315C14.6956 4.65045 14.7247 4.69431 14.7555 4.74066C14.8141 4.82895 14.8787 4.9263 14.9379 5.00465C15.3587 5.56102 15.4518 6.24154 15.3388 6.97989C15.3301 7.03684 15.3218 7.0936 15.3135 7.15015C15.2844 7.34785 15.2558 7.54312 15.2123 7.7362C15.157 7.98232 15.083 8.19668 14.9735 8.36632C14.918 8.45238 14.8637 8.53783 14.8099 8.6224C14.5897 8.96886 14.3789 9.30057 14.1312 9.59902C13.7191 10.0954 13.2996 10.5452 12.815 10.9507C12.4521 11.2543 12.0159 11.5332 11.5894 11.7773C11.4047 11.883 11.2057 11.9508 10.9832 12.0112C10.9089 12.0313 10.826 12.052 10.7393 12.0736C10.5856 12.1119 10.4197 12.1532 10.2672 12.2003C9.65451 12.3898 9.01856 12.5462 8.38547 12.6864C7.85434 12.8039 7.31612 12.7973 6.7375 12.7902C6.59617 12.7884 6.45242 12.7866 6.30578 12.7866C5.71938 12.7866 5.17062 12.6991 4.60519 12.5272C4.58111 12.5199 4.55723 12.5127 4.53352 12.5055C4.036 12.3546 3.61932 12.2282 3.21363 11.9756C2.80643 11.7221 2.4276 11.4852 2.14367 11.1735C1.82588 10.8246 1.5201 10.4373 1.28626 10.0432C1.04212 9.6316 0.906388 9.15082 0.761889 8.63896L0.756268 8.61905C0.665069 8.29605 0.617179 8.02897 0.617179 7.70663C0.617179 7.41818 0.677805 7.15049 0.746952 6.84517C0.769765 6.74444 0.793506 6.63961 0.816303 6.52859C0.839911 6.41363 0.907017 6.27338 1.00876 6.11933C1.10826 5.96869 1.22838 5.82332 1.33854 5.69915C1.64936 5.34879 2.06417 5.02164 2.474 4.76037C2.59979 4.68017 2.72376 4.59501 2.84403 4.51183C2.8576 4.50244 2.87112 4.49308 2.8846 4.48376C2.9919 4.40949 3.09631 4.33722 3.20209 4.26762C3.44039 4.11082 3.67013 3.97812 3.90774 3.89145C4.07456 3.8306 4.2496 3.76963 4.42096 3.71776C4.47593 3.71688 4.52974 3.70133 4.57655 3.67306Z" fill="black"/>
<path fill-rule="evenodd" clip-rule="evenodd" d="M7.65065 3.39437C7.70852 3.39563 7.76245 3.39681 7.80493 3.39681H9.15079C9.68275 3.39681 10.2103 3.4079 10.7399 3.42562C11.0772 3.4369 11.4346 3.58402 11.6974 3.6922C11.7293 3.70535 11.7598 3.71792 11.7888 3.7296C12.0915 3.85183 12.3628 4.03041 12.6036 4.21525C12.6673 4.26411 12.7287 4.30649 12.7966 4.35328C12.8419 4.38453 12.8901 4.41774 12.9436 4.45616C13.0654 4.54345 13.1989 4.64729 13.3102 4.77503C13.3721 4.84601 13.4428 4.90851 13.5296 4.98517C13.5443 4.99816 13.5594 5.01156 13.5751 5.02547C13.6762 5.11538 13.7952 5.22478 13.8927 5.36232C14.0502 5.58439 14.2052 5.81308 14.3214 6.09344C14.4787 6.47299 14.4726 6.90149 14.4677 7.24503C14.4669 7.30184 14.4661 7.35632 14.4661 7.40788C14.4661 7.43725 14.4664 7.46902 14.4667 7.50213C14.4673 7.57396 14.468 7.65211 14.466 7.72578C14.4636 7.81474 14.4398 7.89257 14.3967 7.96225C14.3647 8.01382 14.3228 8.05756 14.3002 8.08115C14.2979 8.08359 14.2958 8.08582 14.2939 8.08781C14.283 8.09929 14.2723 8.11552 14.2598 8.149C14.2532 8.16666 14.2469 8.18717 14.2393 8.21394C14.2371 8.22162 14.2343 8.23171 14.2312 8.24287C14.2257 8.2628 14.2192 8.28614 14.2137 8.30517C14.1559 8.50277 14.0496 8.67599 13.9537 8.82044C13.9263 8.86182 13.9001 8.90034 13.8752 8.93697C13.8062 9.03849 13.7471 9.12548 13.6981 9.21859C13.5339 9.53071 13.3264 9.72077 13.0733 9.90305C12.7424 10.1414 12.4039 10.3545 12.0603 10.56C11.8347 10.695 11.5998 10.7986 11.3766 10.8923C11.33 10.9118 11.2841 10.9309 11.2389 10.9496C11.0625 11.0228 10.8959 11.0919 10.7326 11.1725C10.1506 11.4597 9.58044 11.6419 8.97612 11.8123C8.9215 11.8277 8.86541 11.8438 8.80806 11.8603C8.37682 11.9841 7.87434 12.1284 7.39433 12.147C7.03365 12.1609 6.66529 12.1567 6.30619 12.1525C6.1376 12.1506 5.97105 12.1487 5.80829 12.1487C4.77823 12.1487 3.62288 11.8883 2.7756 11.2193C2.34786 10.8816 1.99549 10.4642 1.73398 9.98909C1.60963 9.76316 1.53465 9.47105 1.48276 9.26886L1.48235 9.2673C1.4809 9.26163 1.47942 9.2559 1.47793 9.2501C1.43977 9.10173 1.39124 8.91304 1.39124 8.71656C1.39124 8.33339 1.50483 7.96421 1.61192 7.64714C1.62004 7.6231 1.62817 7.59882 1.63638 7.57431C1.72762 7.30183 1.82802 7.002 2.01753 6.72145C2.50663 5.99738 3.07135 5.17911 3.93725 4.73226C4.0593 4.60653 4.207 4.52762 4.35236 4.47604C4.37861 4.42359 4.42178 4.37886 4.47888 4.35068C4.65676 4.2629 4.93818 4.10461 5.17269 3.97271C5.25088 3.92873 5.32386 3.88768 5.38604 3.85316C5.51581 3.78112 5.65306 3.74161 5.76625 3.71238C5.79837 3.70408 5.82804 3.69669 5.85589 3.68977C5.93571 3.6699 6.00049 3.65377 6.06491 3.63066C6.22713 3.57244 6.39522 3.55012 6.531 3.53215L6.53368 3.53179C6.67842 3.51264 6.7902 3.49784 6.89246 3.46485C7.06222 3.41008 7.22984 3.39508 7.38159 3.39193C7.46216 3.39025 7.56112 3.39241 7.65065 3.39437ZM5.47248 4.44414C5.49032 4.47032 5.50392 4.49996 5.51207 4.53236C5.54956 4.68138 5.45754 4.83218 5.30655 4.86917C5.21933 4.89055 5.1149 4.90192 5.02577 4.91163L5.01531 4.91277C4.91874 4.92329 4.82502 4.93351 4.7323 4.95063C4.53738 4.98664 4.40459 5.04399 4.32829 5.13435L4.29057 5.17903L4.23786 5.20503C3.49851 5.56988 2.99692 6.27395 2.4863 7.02988C2.34084 7.24522 2.26323 7.47585 2.16719 7.76129C2.16036 7.78157 2.15345 7.80212 2.14641 7.82297C2.03972 8.13885 1.95463 8.43214 1.95463 8.71656C1.95463 8.83898 1.98616 8.96581 2.0285 9.13075C2.08438 9.34848 2.14434 9.56977 2.22905 9.72368C2.45513 10.1344 2.75909 10.4942 3.12755 10.7851C3.8424 11.3495 4.85711 11.5926 5.80829 11.5926C5.98539 11.5926 6.1594 11.5947 6.3316 11.5967C6.68243 11.6008 7.02571 11.6048 7.37226 11.5914C7.77803 11.5756 8.20881 11.4525 8.64919 11.3267C8.70642 11.3103 8.76381 11.2939 8.82134 11.2777C9.41481 11.1103 9.9455 10.9392 10.4807 10.6752C10.6622 10.5856 10.8504 10.5075 11.0286 10.4337C11.0718 10.4158 11.1144 10.3981 11.1562 10.3806C11.3754 10.2886 11.579 10.1977 11.7683 10.0845C12.105 9.8831 12.4285 9.67914 12.7412 9.45389C12.9543 9.30047 13.0883 9.17109 13.1981 8.96236C13.263 8.8389 13.3474 8.71496 13.4209 8.60692C13.4426 8.57503 13.4634 8.54453 13.4824 8.51583C13.5737 8.37828 13.6394 8.26359 13.6724 8.15097C13.6755 8.14043 13.6788 8.12783 13.6826 8.11353C13.708 8.01713 13.7537 7.84378 13.8824 7.70795C13.8902 7.69979 13.8957 7.69402 13.9013 7.68805C13.902 7.68728 13.9027 7.68653 13.9034 7.68581C13.9044 7.6307 13.9039 7.57747 13.9034 7.5204C13.903 7.48485 13.9027 7.4478 13.9027 7.40788C13.9027 7.34272 13.9033 7.27927 13.9039 7.21744C13.9073 6.86785 13.9101 6.56975 13.7999 6.30398C13.7092 6.08498 13.5858 5.89924 13.4312 5.68119C13.3735 5.59987 13.2971 5.52666 13.198 5.43863C13.1852 5.42725 13.1719 5.41548 13.1581 5.40334C13.0727 5.32812 12.9711 5.23858 12.8832 5.1377C12.8154 5.05992 12.7246 4.9864 12.6125 4.90598C12.5771 4.88061 12.5363 4.85239 12.4935 4.82274C12.4151 4.76848 12.3297 4.70941 12.2577 4.65416C12.0374 4.48505 11.8119 4.33971 11.5754 4.24424C11.5452 4.23202 11.5152 4.21982 11.4855 4.20773C11.2041 4.09317 10.948 3.98893 10.7208 3.98133C10.1959 3.96377 9.67487 3.95284 9.15079 3.95284H7.80493C7.72875 3.95284 7.66716 3.95124 7.60944 3.94974C7.53824 3.94788 7.47294 3.94619 7.39345 3.94784C7.2686 3.95043 7.16293 3.96258 7.06753 3.99336C6.91496 4.04259 6.75705 4.06336 6.62828 4.08029C6.62071 4.08129 6.61324 4.08227 6.60588 4.08325C6.46304 4.10215 6.35393 4.11859 6.25744 4.15321C6.16329 4.187 6.05991 4.21264 5.9741 4.23392C5.9509 4.23967 5.92897 4.24511 5.90887 4.2503C5.80339 4.27754 5.72537 4.30274 5.66225 4.33779C5.60884 4.36744 5.54389 4.40396 5.47248 4.44414Z" fill="black"/>
<path fill-rule="evenodd" clip-rule="evenodd" d="M5.52617 6.45445C5.56904 6.45537 5.60865 6.45623 5.64285 6.45623C5.91291 6.45623 6.16183 6.5472 6.34918 6.71116C6.40052 6.72135 6.49215 6.7424 6.58107 6.80993C6.69392 6.89562 6.73115 7.00948 6.74748 7.07151C6.75214 7.08923 6.76131 7.12989 6.76306 7.13761C6.76323 7.1384 6.76333 7.13885 6.76334 7.13889C6.76502 7.14583 6.76608 7.14943 6.76649 7.15075C6.84752 7.33336 6.81705 7.52167 6.77594 7.65277C6.73285 7.79023 6.66292 7.91423 6.60268 8.00231C6.56624 8.05562 6.52597 8.10529 6.49155 8.14692C6.48298 8.1573 6.47484 8.16709 6.46707 8.17644C6.4412 8.20758 6.41931 8.23391 6.39845 8.26107C6.34026 8.33682 6.27498 8.383 6.23177 8.412C6.21866 8.42079 6.20811 8.42776 6.19934 8.43355C6.17501 8.4496 6.16436 8.45663 6.15079 8.46865C6.05938 8.54964 5.95764 8.61129 5.87042 8.66061C5.83561 8.68029 5.80458 8.69729 5.77573 8.71309C5.72422 8.74131 5.67967 8.76571 5.63302 8.79478C5.43121 8.92052 5.22374 8.98407 5.03663 9.03073C4.97064 9.04718 4.91006 9.06104 4.85255 9.07419C4.73571 9.10092 4.63157 9.12474 4.52057 9.16152C4.49127 9.17123 4.46192 9.18111 4.43246 9.19102C4.13926 9.2897 3.83486 9.39214 3.4514 9.37116C3.39049 9.36782 3.32978 9.36308 3.26935 9.35556C3.14585 9.37399 3.01275 9.37558 2.88597 9.3569C2.68373 9.3271 2.42217 9.23255 2.28693 8.98152C2.15107 8.72935 1.95592 8.33987 2.21155 7.91359C2.22341 7.89381 2.2331 7.87551 2.24405 7.8542C2.24543 7.85153 2.24691 7.84863 2.24848 7.84556C2.25804 7.82687 2.27101 7.8015 2.28499 7.77729C2.32398 7.70979 2.37352 7.64524 2.45414 7.57846C2.50923 7.53283 2.57146 7.4951 2.6125 7.47021C2.6185 7.46657 2.62404 7.46321 2.62904 7.46014C2.67724 7.43055 2.69909 7.41455 2.713 7.40047C2.81564 7.29655 2.93991 7.23198 3.02586 7.18808C3.03435 7.18374 3.04253 7.17957 3.05042 7.17555C3.13541 7.13223 3.1863 7.10629 3.22781 7.07299C3.33668 6.98564 3.43989 6.94447 3.52975 6.91696C3.56996 6.90466 3.59893 6.89688 3.62355 6.89027C3.66085 6.88026 3.68816 6.87293 3.72942 6.85659C3.85196 6.80804 3.97749 6.77687 4.0945 6.75301C4.197 6.71576 4.30448 6.67969 4.41556 6.65035C4.48394 6.63229 4.54608 6.61238 4.61547 6.59016C4.65862 6.57633 4.70458 6.56161 4.75657 6.54588C4.88034 6.50844 5.02251 6.47091 5.17314 6.45871C5.28876 6.44935 5.41788 6.45212 5.52617 6.45445ZM3.30995 7.81096C3.30997 7.81093 3.31011 7.8115 3.31031 7.81271C3.31004 7.81159 3.30994 7.81098 3.30995 7.81096ZM5.89738 7.80947C5.88825 7.7995 5.87986 7.78996 5.87242 7.78134C5.85339 7.75929 5.83478 7.73645 5.82072 7.7192C5.81888 7.71695 5.81713 7.7148 5.81546 7.71276C5.80518 7.70016 5.7994 7.69326 5.79665 7.68999C5.79431 7.6872 5.79419 7.68705 5.79536 7.68824C5.76667 7.6592 5.72952 7.63188 5.67008 7.59157C5.66449 7.58778 5.65861 7.58382 5.65248 7.57968C5.60073 7.54479 5.5311 7.49784 5.46743 7.44144C5.3239 7.31429 5.15915 7.27691 5.04507 7.32311C4.96766 7.35446 4.88117 7.40502 4.78176 7.47011C4.74781 7.49233 4.70755 7.51961 4.66545 7.54812C4.60173 7.59129 4.53382 7.63729 4.47737 7.67286C4.43093 7.70211 4.39691 7.72207 4.36648 7.73993C4.32965 7.76154 4.29808 7.78006 4.25615 7.80822C4.19549 7.84896 4.15796 7.88302 4.13358 7.91697C4.07057 8.00468 4.04402 8.08749 4.04377 8.13859C4.04366 8.16029 4.04811 8.1711 4.05149 8.17693C4.05456 8.18221 4.06469 8.19736 4.09847 8.21551C4.15521 8.24599 4.26497 8.2645 4.4282 8.25449C4.58225 8.24504 4.74396 8.21319 4.8758 8.18278C4.9363 8.16882 5.00092 8.15621 5.06181 8.14432C5.06719 8.14327 5.07254 8.14222 5.07786 8.14118C5.14542 8.12798 5.2098 8.11517 5.27216 8.10037C5.40104 8.06978 5.49597 8.03604 5.55934 7.99522C5.63081 7.94917 5.70512 7.9108 5.7664 7.87923L5.76941 7.87768C5.81872 7.85227 5.86003 7.83099 5.89738 7.80947Z" fill="black"/>
<path fill-rule="evenodd" clip-rule="evenodd" d="M12.6212 5.77463C12.8808 5.80274 13.1569 5.87394 13.4067 6.05774C13.4244 6.07075 13.4479 6.08548 13.4868 6.10988L13.492 6.11312C13.5296 6.13667 13.5781 6.16731 13.6255 6.2026C13.71 6.26555 13.8508 6.38552 13.891 6.57872C13.9111 6.67496 13.9206 6.79222 13.9061 6.90937C13.8919 7.02313 13.8508 7.16863 13.7403 7.28239C13.4702 7.56058 13.0582 7.86044 12.6531 7.97169C12.2313 8.08754 11.8024 8.12116 11.3855 8.12116C11.365 8.12116 11.3437 8.12129 11.3217 8.12144C11.1781 8.12237 11.0043 8.1235 10.8302 8.08764C10.7585 8.07285 10.6682 8.03611 10.5941 7.9963C10.555 7.97525 10.5111 7.94844 10.4706 7.91612C10.4358 7.88837 10.3776 7.83645 10.3407 7.75832C10.34 7.75722 10.3366 7.75231 10.3281 7.74306C10.3141 7.72782 10.297 7.71219 10.2673 7.68519C10.2647 7.68289 10.262 7.68041 10.259 7.67775C10.2113 7.63484 10.1122 7.54573 10.0616 7.4178C10.0366 7.35453 10.0232 7.29041 10.0161 7.23173C10.0065 7.2171 9.99719 7.20283 9.98826 7.18903C9.90229 7.05622 9.86451 6.90965 9.88281 6.76034C9.90032 6.61744 9.96567 6.50012 10.0363 6.41092C10.1728 6.23849 10.3736 6.11549 10.5117 6.04231C10.6424 5.97313 10.7739 5.93835 10.882 5.91255C10.9051 5.90703 10.9268 5.90197 10.9475 5.89715C11.0312 5.87764 11.0972 5.86229 11.1637 5.83779C11.3944 5.75295 11.6229 5.75589 11.8063 5.75825C11.8351 5.75862 11.8628 5.75898 11.8892 5.75898C11.9363 5.75898 11.986 5.75841 12.0377 5.75782C12.2197 5.75575 12.4253 5.75342 12.6212 5.77463ZM11.7528 6.55548C11.7035 6.61536 11.6433 6.65232 11.5964 6.67408C11.5311 6.7044 11.4558 6.72171 11.4126 6.73164C11.408 6.73269 11.4038 6.73366 11.4 6.73456C11.384 6.73831 11.371 6.74153 11.3604 6.74431C11.3621 6.77062 11.3723 6.79189 11.3887 6.81466C11.4251 6.86513 11.4958 6.92127 11.6019 6.9759C11.6651 7.00848 11.719 7.04976 11.7524 7.07541C11.7547 7.07718 11.757 7.07888 11.7591 7.0805C11.7966 7.10917 11.8131 7.12062 11.8265 7.12742C11.8287 7.12794 11.8377 7.12993 11.8578 7.13069C11.8728 7.13125 11.8899 7.13108 11.9128 7.13049C11.9169 7.13038 11.9213 7.13026 11.926 7.13013C11.9448 7.1296 11.9683 7.12894 11.9903 7.12894C12.0191 7.12894 12.0496 7.12991 12.074 7.13069C12.0815 7.13092 12.0885 7.13114 12.0946 7.13131C12.1247 7.13214 12.1452 7.13214 12.1623 7.13097C12.1786 7.12985 12.1871 7.1279 12.1911 7.12665C12.1943 7.12567 12.1956 7.12493 12.1969 7.12395C12.1996 7.12203 12.2024 7.12009 12.2051 7.11814C12.2596 7.07929 12.3217 7.03499 12.3858 6.99312C12.3992 6.95762 12.4227 6.90996 12.4658 6.86535C12.4663 6.86476 12.4686 6.8618 12.4729 6.85483C12.4797 6.84375 12.4868 6.83049 12.4993 6.80641C12.5004 6.80413 12.5017 6.80168 12.5031 6.79907C12.524 6.75838 12.5646 6.6798 12.6291 6.61328C12.6307 6.61162 12.6323 6.61001 12.6338 6.60844C12.6209 6.60295 12.606 6.5973 12.5891 6.59174C12.5111 6.56603 12.4324 6.55548 12.4005 6.55548H11.7528ZM12.6822 6.63471C12.6822 6.63471 12.6819 6.63443 12.6812 6.63384C12.6819 6.6344 12.6823 6.6347 12.6822 6.63471ZM12.3658 7.06047C12.3653 7.06238 12.3653 7.06207 12.3659 7.06008C12.3659 7.06022 12.3658 7.06035 12.3658 7.06047ZM11.317 6.75833C11.317 6.75834 11.317 6.75835 11.317 6.75836C11.317 6.75837 11.317 6.75837 11.317 6.75838" fill="black"/>
<path fill-rule="evenodd" clip-rule="evenodd" d="M8.67981 8.69666C8.66659 8.70753 8.65474 8.71575 8.64571 8.72163C8.56584 8.77365 8.4699 8.79389 8.40927 8.80352C8.33832 8.81479 8.26192 8.81918 8.1944 8.81674C8.16065 8.81552 8.1242 8.81242 8.0889 8.80596C8.06127 8.80091 8.00419 8.7889 7.94878 8.75365C7.86431 8.69991 7.77973 8.61589 7.72241 8.50838C7.66374 8.39834 7.62166 8.23681 7.68069 8.063C7.76716 7.8084 7.98005 7.69174 8.13151 7.6379C8.29242 7.5807 8.46245 7.56522 8.58061 7.56522C8.83185 7.56522 9.08782 7.65246 9.29558 7.82869C9.35149 7.87612 9.48483 8.00592 9.45719 8.2104C9.43093 8.40471 9.28108 8.48538 9.23977 8.50608C9.14087 8.55565 9.02108 8.57241 8.94812 8.57584C8.94378 8.57911 8.93973 8.58204 8.93604 8.58465C8.90687 8.60524 8.87725 8.62132 8.85209 8.63352C8.80171 8.65794 8.74851 8.67672 8.70554 8.6894C8.69843 8.6915 8.6897 8.69402 8.67981 8.69666Z" fill="black"/>
<path fill-rule="evenodd" clip-rule="evenodd" d="M7.93985 10.3427C7.86128 10.3643 7.74808 10.3953 7.62863 10.3989C7.56853 10.4007 7.52426 10.4179 7.43785 10.4516C7.40413 10.4647 7.364 10.4804 7.31401 10.4986C7.24308 10.5244 7.19653 10.5473 7.16272 10.5729C7.16125 10.5747 7.15969 10.5766 7.1577 10.5791C7.15628 10.5809 7.15464 10.583 7.15266 10.5854C7.14722 10.5922 7.1396 10.6017 7.13106 10.6117C7.11521 10.6303 7.08759 10.6612 7.05043 10.6894C7.01242 10.7184 6.95258 10.7538 6.87352 10.7632C6.70827 10.783 6.55941 10.6546 6.54105 10.4765C6.52673 10.3375 6.59606 10.2092 6.70571 10.1502C6.70833 10.1469 6.71114 10.1434 6.71382 10.1402C6.72063 10.1318 6.72992 10.1207 6.74076 10.109C6.75148 10.0974 6.76621 10.0824 6.78442 10.0672C6.89875 9.97191 7.02296 9.91937 7.12138 9.88355C7.13735 9.87773 7.15643 9.8701 7.17814 9.86142C7.28149 9.82007 7.44416 9.75499 7.61192 9.74997C7.66043 9.74852 7.71274 9.73499 7.80853 9.70891L7.81234 9.70788C7.89591 9.68512 8.01682 9.65219 8.14866 9.65219H8.31221C8.42882 9.65219 8.51448 9.70717 8.55189 9.73436C8.64037 9.7521 8.70848 9.79084 8.74057 9.8091C8.74324 9.81062 8.74566 9.81199 8.74782 9.8132C8.75688 9.81828 8.76361 9.82184 8.76834 9.82427C8.9225 9.83841 9.04353 9.9778 9.04353 10.1477C9.04353 10.3269 8.90874 10.4722 8.74247 10.4722C8.61624 10.4722 8.51665 10.4156 8.47685 10.393C8.47441 10.3916 8.47219 10.3904 8.47021 10.3892C8.45438 10.3804 8.44481 10.3755 8.43979 10.3729C8.37566 10.3665 8.32481 10.3438 8.28988 10.3238C8.27722 10.3166 8.26493 10.3086 8.25441 10.3013H8.14866C8.10019 10.3013 8.04678 10.3136 7.95594 10.3383C7.95075 10.3397 7.94539 10.3412 7.93985 10.3427ZM8.21686 10.2742C8.21681 10.2741 8.21807 10.2748 8.22078 10.2768C8.21826 10.2753 8.21691 10.2743 8.21686 10.2742ZM7.16894 10.5654C7.16893 10.5654 7.16865 10.5657 7.16811 10.5663C7.16867 10.5657 7.16895 10.5654 7.16894 10.5654Z" fill="black"/>
</svg>
