<svg width="40" height="26" viewBox="0 0 40 26" fill="none" xmlns="http://www.w3.org/2000/svg">
<path d="M1.17047 13.8572C1.17047 16.9389 1.17047 21.5643 1.58732 23.597C1.64872 23.7387 2.192 23.9577 2.3689 23.9577C3.0361 23.9577 3.73684 24.2734 4.36628 24.4988C6.52704 25.2726 9.01259 24.9197 11.2442 24.9197H35.1432C38.9578 24.9197 38.9578 24.1764 38.9578 23.5426C38.9578 22.7337 38.8269 17.7774 38.9578 16.9844C38.9578 15.527 38.8196 14.1999 38.9578 12.9766C39.0802 11.8942 38.9578 2.67448 38.3021 2.43399C36.7505 2.43399 34.8301 1.44123 33.2785 1.44123C26.3105 0.448463 23.015 1.44123 16.2087 1.44123C12.2233 1.44123 8.07999 1.36938 4.09465 1.44123C2.63433 1.46756 1.33148 1.09533 1.17047 2.67448C1.06255 3.73294 1.18461 8.23529 1.0662 9.29415C0.8707 11.0424 1.17047 12.0929 1.17047 13.8572Z" fill="#FFD686" stroke="black" stroke-width="2" stroke-linecap="round"/>
<path fill-rule="evenodd" clip-rule="evenodd" d="M26 13L29.7279 16.4483L33.4558 13H26Z" fill="#505050"/>
<path d="M11.0156 9.324H12.1796V16.884H16.5836V18H11.0156V9.324Z" fill="black"/>
</svg>
