<svg width="77" height="27" viewBox="0 0 77 27" fill="none" xmlns="http://www.w3.org/2000/svg">
<path d="M75.719 13.6614C75.719 17.0739 76.4951 21.0536 75.4676 24.5C75.3465 24.6569 73.7045 24.8459 73.3557 24.8459C72.04 24.8459 70.6581 25.1955 69.4168 25.4451C65.1558 26.3018 60.2543 25.9111 55.8535 25.9111L8.7245 25.9111C1.20205 25.9111 1.20205 25.088 1.20205 24.3862C1.20205 23.4905 1.46019 18.0023 1.20205 17.1242C1.20205 15.5104 1.47475 14.0409 1.20205 12.6863C0.960747 11.4877 0.579361 0.582989 2.49516 1.01234H14.9489C28.3737 1.01234 32.807 1.14549 46.2291 1.14549C54.0883 1.14549 61.9459 1.19908 69.805 1.27864C72.6848 1.30779 74.3625 2.52586 74.68 4.27448C74.8929 5.44653 74.7091 6.66001 74.9426 7.8325L74.956 7.89939C75.3371 9.813 75.719 11.7303 75.719 13.6614Z" fill="#FFD686" stroke="black" stroke-width="2" stroke-linecap="round"/>
<path d="M15.7031 8.98242C15.6094 8.85352 15.5625 8.73633 15.5625 8.63086C15.5625 8.45508 15.6445 8.30273 15.8086 8.17383C15.9727 8.04492 16.1426 7.98047 16.3184 7.98047C16.4355 7.98047 16.541 8.02148 16.6348 8.10352C16.7402 8.17383 16.834 8.26758 16.916 8.38477C17.0098 8.50195 17.0918 8.625 17.1621 8.75391C17.2441 8.87109 17.3145 8.98242 17.373 9.08789C17.6426 8.85352 17.9473 8.6543 18.2871 8.49023C18.627 8.32617 19.0078 8.24414 19.4297 8.24414C20.0391 8.24414 20.5488 8.34375 20.959 8.54297C21.3809 8.73047 21.7207 8.98242 21.9785 9.29883C22.248 9.61523 22.4473 9.97852 22.5762 10.3887C22.7051 10.7871 22.7812 11.1973 22.8047 11.6191C22.8047 11.959 22.7402 12.3164 22.6113 12.6914C22.4824 13.0664 22.2891 13.418 22.0312 13.7461C21.7734 14.0625 21.4453 14.3262 21.0469 14.5371C20.6484 14.748 20.1797 14.8535 19.6406 14.8535C19.3242 14.8535 19.0312 14.8242 18.7617 14.7656C18.5039 14.707 18.2637 14.6309 18.041 14.5371C18.041 15.2402 18.0293 15.9082 18.0059 16.541C17.9824 17.1738 17.9414 17.7012 17.8828 18.123C17.8594 18.2988 17.7832 18.4277 17.6543 18.5098C17.5371 18.6035 17.4141 18.6504 17.2852 18.6504C17.0859 18.6504 16.9043 18.5977 16.7402 18.4922C16.5879 18.3867 16.5117 18.2402 16.5117 18.0527C16.5117 17.5605 16.5293 16.9863 16.5645 16.3301C16.6113 15.6738 16.6348 14.9883 16.6348 14.2734C16.6348 13.5938 16.6289 12.9199 16.6172 12.252C16.6055 11.584 16.582 10.9863 16.5469 10.459C16.4414 10.2363 16.3184 9.99609 16.1777 9.73828C16.0371 9.48047 15.8789 9.22852 15.7031 8.98242ZM17.9004 10.3887C17.9355 10.8105 17.959 11.2559 17.9707 11.7246C17.9941 12.1816 18.0117 12.6445 18.0234 13.1133C18.2227 13.3008 18.4453 13.4355 18.6914 13.5176C18.9492 13.5879 19.2539 13.623 19.6055 13.623C19.957 13.623 20.25 13.5469 20.4844 13.3945C20.7188 13.2422 20.9062 13.0547 21.0469 12.832C21.1875 12.6094 21.2871 12.375 21.3457 12.1289C21.4043 11.8711 21.4336 11.6426 21.4336 11.4434C21.4102 11.2324 21.3574 11.0156 21.2754 10.793C21.1934 10.5703 21.0762 10.3711 20.9238 10.1953C20.7715 10.0195 20.5781 9.87305 20.3438 9.75586C20.1211 9.63867 19.8516 9.58008 19.5352 9.58008C19.125 9.58008 18.791 9.65625 18.5332 9.80859C18.2754 9.96094 18.0645 10.1543 17.9004 10.3887ZM24.8086 8.98242C24.7148 8.85352 24.668 8.73633 24.668 8.63086C24.668 8.45508 24.75 8.30273 24.9141 8.17383C25.0781 8.04492 25.248 7.98047 25.4238 7.98047C25.5879 7.98047 25.7461 8.0625 25.8984 8.22656C26.0625 8.39062 26.209 8.58984 26.3379 8.82422C26.4668 9.04688 26.584 9.28125 26.6895 9.52734C26.7949 9.76172 26.8828 9.95508 26.9531 10.1074C26.9883 10.6113 27.0117 11.1211 27.0234 11.6367C27.0352 12.1406 27.041 12.6562 27.041 13.1836C27.041 14.0273 27.0293 14.8418 27.0059 15.627C26.9941 16.4004 26.9766 17.1387 26.9531 17.8418C26.9414 18.0176 26.8828 18.1465 26.7773 18.2285C26.6719 18.3223 26.543 18.3691 26.3906 18.3691C26.2148 18.3691 26.0391 18.3164 25.8633 18.2109C25.6992 18.1055 25.6172 17.959 25.6172 17.7715C25.6172 17.2793 25.6348 16.7227 25.6699 16.1016C25.7168 15.4688 25.7402 14.8125 25.7402 14.1328C25.7402 13.4883 25.7344 12.8496 25.7227 12.2168C25.7109 11.5723 25.6875 10.9863 25.6523 10.459C25.5469 10.2363 25.4238 9.99609 25.2832 9.73828C25.1426 9.48047 24.9844 9.22852 24.8086 8.98242ZM31.0488 12.5156C31.1191 12.457 31.2188 12.4277 31.3477 12.4277C31.7461 12.4629 32.1035 12.5742 32.4199 12.7617C32.7363 12.9375 33 13.1602 33.2109 13.4297C33.4336 13.6875 33.5977 13.9746 33.7031 14.291C33.8203 14.6074 33.8789 14.9121 33.8789 15.2051V15.293C33.9609 15.5625 34.0488 15.7734 34.1426 15.9258C34.2363 16.0781 34.3359 16.1953 34.4414 16.2773C34.5586 16.3594 34.6699 16.4121 34.7754 16.4355C34.8926 16.4473 35.0098 16.4531 35.127 16.4531C35.2324 16.4531 35.3438 16.4297 35.4609 16.3828C35.5898 16.3359 35.7363 16.3125 35.9004 16.3125C36.0527 16.3125 36.1758 16.377 36.2695 16.5059C36.375 16.623 36.4277 16.752 36.4277 16.8926C36.4277 17.0215 36.3867 17.1387 36.3047 17.2441C36.2344 17.3379 36.1348 17.4199 36.0059 17.4902C35.8887 17.5488 35.7539 17.5957 35.6016 17.6309C35.4609 17.6543 35.3203 17.666 35.1797 17.666C34.7344 17.666 34.3477 17.5723 34.0195 17.3848C33.6914 17.1973 33.4336 16.9805 33.2461 16.7344C33.0117 17.0039 32.7305 17.2148 32.4023 17.3672C32.0742 17.5195 31.7285 17.5957 31.3652 17.5957C31.0371 17.5957 30.709 17.543 30.3809 17.4375C30.0527 17.332 29.7598 17.1738 29.502 16.9629C29.2441 16.752 29.0332 16.4941 28.8691 16.1895C28.7051 15.873 28.623 15.5039 28.623 15.082C28.623 14.8359 28.6641 14.5781 28.7461 14.3086C28.8398 14.0391 28.9746 13.7812 29.1504 13.5352C29.3262 13.2891 29.5371 13.0723 29.7832 12.8848C30.041 12.6973 30.3398 12.5684 30.6797 12.498H30.7852C30.9023 12.498 30.9902 12.5039 31.0488 12.5156ZM31.1543 13.623C30.7441 13.752 30.4453 13.9395 30.2578 14.1855C30.0703 14.4199 29.9766 14.6953 29.9766 15.0117C29.9766 15.3867 30.0703 15.709 30.2578 15.9785C30.457 16.2363 30.8203 16.3652 31.3477 16.3652C31.6523 16.3652 31.9219 16.2539 32.1562 16.0312C32.3906 15.8086 32.5078 15.5098 32.5078 15.1348C32.5078 14.877 32.4668 14.666 32.3848 14.502C32.3145 14.3262 32.2148 14.1855 32.0859 14.0801C31.9688 13.9629 31.8281 13.875 31.6641 13.8164C31.5 13.7461 31.3301 13.6816 31.1543 13.623ZM40.6289 20.9355C40.2891 21.2051 39.8965 21.3398 39.4512 21.3398C39.0645 21.3398 38.6777 21.2461 38.291 21.0586C37.916 20.8711 37.6172 20.6191 37.3945 20.3027C37.3477 20.2559 37.3242 20.1914 37.3242 20.1094C37.3242 19.957 37.377 19.793 37.4824 19.6172C37.5996 19.4531 37.7344 19.3711 37.8867 19.3711C37.9453 19.3711 38.0039 19.3887 38.0625 19.4238C38.2734 19.6113 38.4902 19.7578 38.7129 19.8633C38.9473 19.9688 39.1699 20.0215 39.3809 20.0215C39.7676 20.0215 40.0781 19.7754 40.3125 19.2832C40.5586 18.8027 40.752 18.0938 40.8926 17.1562C40.7168 17.2148 40.5352 17.2617 40.3477 17.2969C40.1719 17.3203 39.9844 17.332 39.7852 17.332C39.6094 17.332 39.3691 17.3203 39.0645 17.2969C38.7598 17.2734 38.4551 17.168 38.1504 16.9805C37.8457 16.793 37.582 16.5 37.3594 16.1016C37.1367 15.6914 37.0254 15.0996 37.0254 14.3262C37.0254 14.1152 37.0312 13.8984 37.043 13.6758C37.0547 13.4531 37.0664 13.2363 37.0781 13.0254C37.1016 12.8027 37.125 12.5977 37.1484 12.4102C37.1719 12.2109 37.1953 12.041 37.2188 11.9004C37.2422 11.7129 37.3125 11.5781 37.4297 11.4961C37.5469 11.4141 37.6758 11.373 37.8164 11.373C37.9805 11.373 38.1328 11.4199 38.2734 11.5137C38.4141 11.6074 38.4844 11.7363 38.4844 11.9004C38.4844 12.1113 38.4609 12.3691 38.4141 12.6738C38.3672 12.9785 38.3438 13.2949 38.3438 13.623C38.3438 14.0801 38.3555 14.4668 38.3789 14.7832C38.4023 15.0879 38.4668 15.3398 38.5723 15.5391C38.6777 15.7266 38.8301 15.8613 39.0293 15.9434C39.2402 16.0254 39.5215 16.0664 39.873 16.0664C40.084 16.0664 40.2715 16.0371 40.4355 15.9785C40.6113 15.9199 40.8164 15.8613 41.0508 15.8027C41.1211 14.9238 41.1562 14.0391 41.1562 13.1484C41.1562 12.75 41.1504 12.3691 41.1387 12.0059C41.127 11.6309 41.1094 11.291 41.0859 10.9863C41.0859 10.8574 41.1504 10.752 41.2793 10.6699C41.4082 10.5762 41.5664 10.5293 41.7539 10.5293C41.8945 10.5293 42.0293 10.5586 42.1582 10.6172C42.2871 10.6641 42.375 10.752 42.4219 10.8809C42.4453 11.1504 42.4629 11.4375 42.4746 11.7422C42.4863 12.0352 42.4922 12.334 42.4922 12.6387C42.4922 13.459 42.4512 14.3086 42.3691 15.1875C42.2988 16.0547 42.1816 16.875 42.0176 17.6484C41.8652 18.4219 41.6719 19.1016 41.4375 19.6875C41.2031 20.2734 40.9336 20.6895 40.6289 20.9355ZM44.7422 10.8105C44.7305 10.752 44.7246 10.6992 44.7246 10.6523C44.7246 10.5938 44.7246 10.5352 44.7246 10.4766C44.7246 10.1953 44.7715 9.89648 44.8652 9.58008C44.959 9.26367 45.1113 8.97656 45.3223 8.71875C45.5332 8.44922 45.8086 8.22656 46.1484 8.05078C46.4883 7.875 46.9043 7.78711 47.3965 7.78711C47.5957 7.78711 47.8184 7.83398 48.0645 7.92773C48.3223 8.02148 48.5625 8.15039 48.7852 8.31445C49.0195 8.47852 49.2129 8.67188 49.3652 8.89453C49.5293 9.11719 49.6113 9.35156 49.6113 9.59766C49.6113 9.79688 49.5352 9.95508 49.3828 10.0723C49.2305 10.1895 49.0723 10.248 48.9082 10.248C48.7441 10.248 48.6152 10.1895 48.5215 10.0723C48.4277 9.94336 48.334 9.80859 48.2402 9.66797C48.1465 9.52734 48.041 9.39844 47.9238 9.28125C47.8066 9.15234 47.6367 9.08789 47.4141 9.08789C46.9102 9.08789 46.5527 9.22266 46.3418 9.49219C46.1426 9.75 46.043 10.043 46.043 10.3711C46.043 10.6758 46.0605 10.9746 46.0957 11.2676C46.1426 11.5605 46.1836 11.8242 46.2188 12.0586C46.2305 12.4688 46.2656 12.8496 46.3242 13.2012C46.8867 13.2012 47.4316 13.1953 47.959 13.1836C48.4863 13.1602 48.8906 13.1309 49.1719 13.0957C49.3125 13.1191 49.4121 13.1953 49.4707 13.3242C49.541 13.4414 49.5762 13.5703 49.5762 13.7109C49.5762 13.9219 49.5059 14.0801 49.3652 14.1855C49.2363 14.291 49.0371 14.3613 48.7676 14.3965C48.498 14.4316 48.1641 14.4492 47.7656 14.4492C47.3789 14.4375 46.9219 14.4316 46.3945 14.4316C46.3945 14.7129 46.3945 15.0059 46.3945 15.3105C46.4062 15.6152 46.4121 15.9375 46.4121 16.2773C46.4121 16.4531 46.418 16.6641 46.4297 16.9102C46.4414 17.1562 46.4297 17.3906 46.3945 17.6133C46.3711 17.8242 46.3008 18.0059 46.1836 18.1582C46.0781 18.3223 45.9023 18.4043 45.6562 18.4043C45.4922 18.4043 45.3457 18.3516 45.2168 18.2461C45.0879 18.1523 45.0234 18.0117 45.0234 17.8242C45.0234 17.3672 45.0352 16.9512 45.0586 16.5762C45.082 16.1895 45.0938 15.8203 45.0938 15.4688C45.0938 15.293 45.0938 15.123 45.0938 14.959C45.0938 14.7832 45.0879 14.6074 45.0762 14.4316H44.4609C44.2969 14.4316 44.1504 14.4316 44.0215 14.4316C43.8926 14.4199 43.7812 14.3965 43.6875 14.3613C43.6055 14.3145 43.541 14.2441 43.4941 14.1504C43.4473 14.0566 43.4238 13.9219 43.4238 13.7461C43.4238 13.6055 43.4531 13.4824 43.5117 13.377C43.582 13.2598 43.6875 13.2012 43.8281 13.2012C43.8984 13.2012 43.9746 13.207 44.0566 13.2188C44.1387 13.2188 44.2266 13.2188 44.3203 13.2188H44.9883C44.9297 12.8789 44.8887 12.5156 44.8652 12.1289C44.8418 11.7422 44.8008 11.3027 44.7422 10.8105ZM50.9648 16.0488C50.9648 15.6504 50.9648 15.293 50.9648 14.9766C50.9766 14.6484 50.9824 14.3379 50.9824 14.0449C50.9941 13.7402 51 13.4297 51 13.1133C51.0117 12.7852 51.0234 12.416 51.0352 12.0059C51.0352 11.7715 51.1172 11.6016 51.2812 11.4961C51.457 11.3789 51.6387 11.3203 51.8262 11.3203C51.9668 11.3203 52.0898 11.373 52.1953 11.4785C52.3125 11.5723 52.3711 11.7129 52.3711 11.9004C52.3711 12.3105 52.3652 12.6855 52.3535 13.0254C52.3535 13.3535 52.3477 13.6816 52.3359 14.0098C52.3242 14.3262 52.3125 14.6484 52.3008 14.9766C52.3008 15.3047 52.3008 15.668 52.3008 16.0664C52.3008 16.2773 52.3359 16.459 52.4062 16.6113C52.4883 16.7637 52.5879 16.8926 52.7051 16.998C52.834 17.1035 52.9688 17.1797 53.1094 17.2266C53.25 17.2734 53.3848 17.2969 53.5137 17.2969C53.7598 17.2969 54.0352 17.2031 54.3398 17.0156C54.6562 16.8164 54.9258 16.5645 55.1484 16.2598C55.125 15.8262 55.1074 15.4336 55.0957 15.082C55.084 14.7188 55.0781 14.3848 55.0781 14.0801C55.0781 13.7637 55.0781 13.4355 55.0781 13.0957C55.0781 12.7559 55.1016 12.4512 55.1484 12.1816C55.1953 11.9004 55.2773 11.6719 55.3945 11.4961C55.5117 11.3203 55.6934 11.2324 55.9395 11.2324C56.0918 11.2559 56.2324 11.3203 56.3613 11.4258C56.4902 11.5195 56.5547 11.6543 56.5547 11.8301C56.5195 12.252 56.4844 12.709 56.4492 13.2012C56.4141 13.6816 56.3965 14.1973 56.3965 14.748C56.3965 15.0293 56.4023 15.3281 56.4141 15.6445C56.4258 15.9492 56.4492 16.2598 56.4844 16.5762C56.5312 16.6934 56.6016 16.834 56.6953 16.998C56.8008 17.1621 56.9004 17.3262 56.9941 17.4902C57.0996 17.6543 57.1875 17.8125 57.2578 17.9648C57.3281 18.1055 57.3633 18.2168 57.3633 18.2988C57.3633 18.4863 57.2871 18.6445 57.1348 18.7734C56.9824 18.9023 56.8184 18.9668 56.6426 18.9668C56.5371 18.9668 56.4258 18.9199 56.3086 18.8262C56.2031 18.7441 56.1035 18.6387 56.0098 18.5098C55.916 18.3809 55.8281 18.2461 55.7461 18.1055C55.6758 17.9766 55.623 17.8594 55.5879 17.7539C55.2832 18.0117 54.9316 18.2227 54.5332 18.3867C54.1348 18.5508 53.7188 18.6328 53.2852 18.6328C52.9102 18.6328 52.5762 18.5566 52.2832 18.4043C52.002 18.252 51.7617 18.0527 51.5625 17.8066C51.3633 17.5605 51.2109 17.2852 51.1055 16.9805C51.0117 16.6641 50.9648 16.3535 50.9648 16.0488ZM59.0859 8.98242C58.9922 8.85352 58.9453 8.73633 58.9453 8.63086C58.9453 8.45508 59.0273 8.30273 59.1914 8.17383C59.3555 8.04492 59.5254 7.98047 59.7012 7.98047C59.8652 7.98047 60.0234 8.0625 60.1758 8.22656C60.3398 8.39062 60.4863 8.58984 60.6152 8.82422C60.7441 9.04688 60.8613 9.28125 60.9668 9.52734C61.0723 9.76172 61.1602 9.95508 61.2305 10.1074C61.2656 10.6113 61.2891 11.1211 61.3008 11.6367C61.3125 12.1406 61.3184 12.6562 61.3184 13.1836C61.3184 14.0273 61.3066 14.8418 61.2832 15.627C61.2715 16.4004 61.2539 17.1387 61.2305 17.8418C61.2188 18.0176 61.1602 18.1465 61.0547 18.2285C60.9492 18.3223 60.8203 18.3691 60.668 18.3691C60.4922 18.3691 60.3164 18.3164 60.1406 18.2109C59.9766 18.1055 59.8945 17.959 59.8945 17.7715C59.8945 17.2793 59.9121 16.7227 59.9473 16.1016C59.9941 15.4688 60.0176 14.8125 60.0176 14.1328C60.0176 13.4883 60.0117 12.8496 60 12.2168C59.9883 11.5723 59.9648 10.9863 59.9297 10.459C59.8242 10.2363 59.7012 9.99609 59.5605 9.73828C59.4199 9.48047 59.2617 9.22852 59.0859 8.98242Z" fill="black"/>
</svg>
