<svg width="128" height="128" viewBox="0 0 128 128" fill="none" xmlns="http://www.w3.org/2000/svg">
<path fill-rule="evenodd" clip-rule="evenodd" d="M72.0722 18.0491C73.2826 18.0722 74.4633 18.0946 75.5912 18.0946C76.8973 18.0946 78.2145 18.0894 79.5374 18.0841C82.2061 18.0735 84.8986 18.0627 87.5728 18.0948C89.3435 18.1161 90.9802 18.5015 92.3925 18.8758C92.7115 18.9604 93.0155 19.0431 93.3084 19.1229C94.3893 19.4172 95.3199 19.6705 96.2945 19.8209C98.1235 20.1032 99.775 20.8345 101.158 21.5043C101.531 21.6848 101.88 21.8582 102.213 22.0232C103.21 22.5185 104.057 22.9395 104.95 23.2571C106.668 23.8682 108.114 24.9252 109.287 25.8499C109.627 26.1181 109.94 26.3712 110.236 26.6102C111.055 27.2714 111.739 27.8242 112.484 28.2866C114.578 29.5856 116.464 31.125 118.217 32.5551C118.332 32.6489 118.446 32.7423 118.56 32.8351C119.744 33.8 120.676 35.0327 121.424 36.1146C121.762 36.6022 122.046 37.0333 122.31 37.432C122.702 38.0263 123.047 38.5484 123.447 39.0781C127.868 44.924 128.621 51.8514 127.592 58.58C127.532 58.9721 127.471 59.3832 127.409 59.8084C127.174 61.4138 126.909 63.2204 126.517 64.965C126.016 67.1892 125.265 69.5392 123.941 71.5902C123.541 72.2106 123.136 72.848 122.725 73.4958C120.952 76.2881 119.056 79.2739 116.854 81.9264C113.444 86.0341 109.877 89.8725 105.695 93.3717C102.475 96.0667 98.7039 98.4634 95.1746 100.483C93.1634 101.634 91.1049 102.308 89.1628 102.835C88.3421 103.057 87.592 103.243 86.8695 103.422C85.7667 103.695 84.7282 103.952 83.6011 104.3C78.5199 105.871 73.2876 107.156 68.1549 108.292C63.2893 109.369 58.2677 109.302 53.5951 109.24C52.5251 109.225 51.4735 109.211 50.4462 109.211C45.2303 109.211 40.355 108.428 35.4008 106.922C35.1583 106.848 34.9156 106.775 34.6726 106.701C30.8245 105.537 26.9092 104.352 23.0922 101.976L22.8871 101.848C19.7992 99.9263 16.2452 97.7144 13.4929 94.6931C10.8063 91.7438 8.13205 88.3751 6.03929 84.8473C3.75259 80.9926 2.51471 76.6022 1.41405 72.6985C1.37491 72.5597 1.33595 72.4215 1.29712 72.284C0.482779 69.3998 0 66.802 0 63.653C0 60.7421 0.654104 57.8703 1.23533 55.3184C1.39915 54.5991 1.55718 53.9053 1.69314 53.2432C2.0639 51.4376 2.98399 49.7069 3.94528 48.2515C4.92453 46.7688 6.05705 45.4088 7.00854 44.3363C9.88561 41.0933 13.5958 38.1938 17.1305 35.9405C18.0503 35.354 18.9738 34.7204 19.9363 34.0547C20.0435 33.9805 20.1513 33.906 20.2595 33.831C21.1122 33.2408 21.9974 32.6281 22.8953 32.0372C24.9179 30.7064 27.1296 29.4013 29.5641 28.5133C30.9521 28.007 32.4906 27.4691 34.0453 27.0023C34.3798 26.7157 34.7192 26.5223 34.9953 26.387C35.2028 26.2853 35.4271 26.1927 35.5616 26.1372C35.5841 26.1279 35.604 26.1196 35.621 26.1125C35.7773 26.0473 35.8428 26.0161 35.8837 25.9935C36.7611 25.5079 37.855 24.8028 38.6945 24.1926C42.2005 21.6441 46.5179 20.6311 50.1935 19.7686C50.9223 19.5975 51.6259 19.4325 52.2929 19.2625C55.1227 18.5414 58.1198 18.4108 60.8038 18.2938C61.7498 18.2526 62.6569 18.2131 63.5041 18.15C66.3277 17.9397 69.2788 17.9959 72.0722 18.0491Z" fill="white"/>
<path fill-rule="evenodd" clip-rule="evenodd" d="M72.0722 18.0491C73.2826 18.0722 74.4633 18.0946 75.5912 18.0946C76.8973 18.0946 78.2145 18.0894 79.5374 18.0841C82.2061 18.0735 84.8986 18.0627 87.5728 18.0948C89.3435 18.1161 90.9802 18.5015 92.3925 18.8758C92.7115 18.9604 93.0155 19.0431 93.3084 19.1229C94.3893 19.4172 95.3199 19.6705 96.2945 19.8209C98.1235 20.1032 99.775 20.8345 101.158 21.5043C101.531 21.6848 101.88 21.8582 102.213 22.0232C103.21 22.5185 104.057 22.9395 104.95 23.2571C106.668 23.8682 108.114 24.9252 109.287 25.8499C109.627 26.1181 109.94 26.3712 110.236 26.6102C111.055 27.2714 111.739 27.8242 112.484 28.2866C114.578 29.5856 116.464 31.125 118.217 32.5551C118.332 32.6489 118.446 32.7423 118.56 32.8351C119.744 33.8 120.676 35.0327 121.424 36.1146C121.762 36.6022 122.046 37.0333 122.31 37.432C122.702 38.0263 123.047 38.5484 123.447 39.0781C127.868 44.924 128.621 51.8514 127.592 58.58C127.532 58.9721 127.471 59.3832 127.409 59.8084C127.174 61.4138 126.909 63.2204 126.517 64.965C126.016 67.1892 125.265 69.5392 123.941 71.5902C123.541 72.2106 123.136 72.848 122.725 73.4958C120.952 76.288 119.056 79.2739 116.854 81.9264C113.444 86.0341 109.877 89.8725 105.695 93.3717C102.475 96.0667 98.7039 98.4634 95.1746 100.483C93.1634 101.634 91.1049 102.308 89.1628 102.835C88.3421 103.057 87.592 103.243 86.8695 103.422C85.7667 103.695 84.7282 103.952 83.6011 104.3C78.5198 105.871 73.2876 107.156 68.1549 108.292C63.2893 109.369 58.2677 109.302 53.5951 109.24C52.5251 109.225 51.4735 109.211 50.4462 109.211C45.2303 109.211 40.355 108.428 35.4008 106.922C35.1583 106.848 34.9156 106.775 34.6726 106.701C30.8245 105.537 26.9092 104.352 23.0922 101.976L22.8871 101.848C19.7992 99.9263 16.2452 97.7144 13.4929 94.693C10.8063 91.7438 8.13205 88.3751 6.03929 84.8473C3.75259 80.9925 2.51471 76.6022 1.41405 72.6985C1.37491 72.5597 1.33595 72.4215 1.29712 72.284C0.482779 69.3998 0 66.802 0 63.653C0 60.7421 0.654104 57.8703 1.23533 55.3184C1.39915 54.5991 1.55718 53.9053 1.69314 53.2432C2.0639 51.4376 2.98399 49.7069 3.94528 48.2515C4.92453 46.7688 6.05705 45.4088 7.00854 44.3363C9.88561 41.0933 13.5958 38.1938 17.1305 35.9404C18.0503 35.354 18.9738 34.7204 19.9363 34.0547C20.0435 33.9805 20.1513 33.906 20.2595 33.831C21.1122 33.2408 21.9974 32.6281 22.8953 32.0372C24.9179 30.7064 27.1296 29.4013 29.5641 28.5133C30.9521 28.007 32.4906 27.4691 34.0453 27.0023C34.3798 26.7157 34.7192 26.5223 34.9953 26.387C35.2028 26.2853 35.4271 26.1927 35.5616 26.1372C35.5841 26.1279 35.604 26.1196 35.621 26.1125C35.7773 26.0473 35.8428 26.0161 35.8837 25.9935C36.7611 25.5079 37.855 24.8028 38.6945 24.1926C42.2005 21.6441 46.5179 20.6311 50.1935 19.7686C50.9223 19.5975 51.6259 19.4325 52.2929 19.2625C55.1227 18.5414 58.1198 18.4108 60.8038 18.2938C61.7498 18.2526 62.6569 18.2131 63.5041 18.15C66.3277 17.9397 69.2788 17.9959 72.0722 18.0491ZM36.6124 31.3845C37.0329 31.2707 37.4478 31.1662 37.8539 31.0734C37.8446 31.0755 37.8535 31.0744 37.9039 31.0682C37.9624 31.0609 38.0768 31.0467 38.2832 31.0227C38.5762 30.9885 38.9897 30.9397 39.4073 30.8639C39.8025 30.7921 40.345 30.672 40.8614 30.4458C41.2758 30.2643 42.3046 29.7468 42.7108 28.5328C42.8387 28.1507 42.8671 27.7595 42.8102 27.387C45.1758 26.0315 47.9145 25.378 51.0211 24.6367C51.8281 24.4441 52.66 24.2456 53.5166 24.0273C55.8151 23.4416 58.0326 23.3451 60.5299 23.2365C61.585 23.1906 62.69 23.1426 63.8722 23.0545C66.4605 22.8618 69.0191 22.9114 71.6936 22.9632C72.9616 22.9878 74.2557 23.0129 75.5912 23.0129C76.9403 23.0129 78.2789 23.0075 79.6118 23.0022C82.2557 22.9916 84.8771 22.9811 87.5133 23.0127C88.6364 23.0262 89.7767 23.2719 91.1228 23.6287C91.363 23.6924 91.6143 23.761 91.8748 23.8322C92.984 24.1353 94.2586 24.4837 95.5386 24.6812C96.5913 24.8437 97.6819 25.2896 98.9999 25.9277C99.2606 26.0539 99.5371 26.1915 99.8258 26.3352C100.877 26.8584 102.09 27.462 103.289 27.8888C104.196 28.2112 105.108 28.8275 106.222 29.7064C106.447 29.8838 106.688 30.0784 106.941 30.2829C107.818 30.9926 108.842 31.8209 109.873 32.4611C111.686 33.586 113.343 34.9368 115.154 36.4141C115.247 36.4896 115.34 36.5654 115.433 36.6416C116.056 37.1492 116.667 37.9057 117.359 38.9052C117.565 39.2036 117.798 39.5544 118.044 39.9253C118.513 40.6316 119.029 41.4104 119.503 42.0372C122.869 46.4881 123.614 51.9323 122.71 57.8391C122.641 58.2947 122.574 58.7488 122.508 59.2012C122.276 60.7828 122.046 62.345 121.699 63.8896C121.256 65.8586 120.664 67.5734 119.788 68.9306C119.344 69.6191 118.909 70.3027 118.479 70.9792C116.718 73.7509 115.031 76.4045 113.049 78.7922C109.753 82.7632 106.396 86.3619 102.52 89.6058C99.6169 92.0347 96.1274 94.2657 92.7152 96.2183C91.2377 97.0638 89.6455 97.6066 87.8656 98.0894C87.2709 98.2507 86.6084 98.4157 85.9147 98.5886C84.6852 98.8949 83.3579 99.2255 82.1377 99.6027C77.2361 101.118 72.1485 102.37 67.0838 103.491C62.8347 104.432 58.529 104.378 53.9 104.321C52.7693 104.307 51.6194 104.293 50.4462 104.293C45.755 104.293 41.365 103.593 36.8415 102.218C36.6489 102.159 36.4578 102.101 36.2682 102.044C32.288 100.837 28.9545 99.8256 25.709 97.805C22.4514 95.7769 19.4208 93.8815 17.1494 91.388C14.6071 88.5972 12.1608 85.4988 10.2901 82.3453C8.33693 79.0528 7.25111 75.2065 6.09511 71.1117L6.05014 70.9524C5.32055 68.3684 4.93743 66.2317 4.93743 63.653C4.93743 61.3455 5.42244 59.2039 5.97562 56.7614C6.15812 55.9555 6.34805 55.1169 6.53042 54.2288C6.71929 53.309 7.25614 52.187 8.07008 50.9546C8.86605 49.7495 9.82704 48.5865 10.7083 47.5932C13.1949 44.7904 16.5134 42.1731 19.792 40.0829C20.7983 39.4414 21.7901 38.7601 22.7522 38.0946C22.8608 38.0195 22.969 37.9447 23.0768 37.8701C23.9352 37.2759 24.7705 36.6978 25.6167 36.141C27.5231 34.8865 29.3611 33.825 31.2619 33.1316C32.5965 32.6448 33.9968 32.157 35.3677 31.7421C35.8075 31.735 36.2379 31.6107 36.6124 31.3845Z" fill="black"/>
<path fill-rule="evenodd" clip-rule="evenodd" d="M61.2057 29.1552C61.6686 29.1653 62.1001 29.1747 62.4399 29.1747H73.2068C77.4625 29.1747 81.6832 29.2634 85.9199 29.4052C88.6179 29.4954 91.4769 30.6724 93.5794 31.5379C93.8349 31.643 94.0792 31.7436 94.3106 31.8371C96.7325 32.8149 98.9029 34.2435 100.829 35.7223C101.338 36.1131 101.83 36.4522 102.373 36.8265C102.736 37.0765 103.121 37.3422 103.55 37.6495C104.523 38.3479 105.591 39.1786 106.482 40.2005C106.977 40.7683 107.543 41.2683 108.237 41.8816C108.355 41.9855 108.476 42.0927 108.601 42.204C109.41 42.9233 110.362 43.7985 111.142 44.8988C112.402 46.6753 113.642 48.5049 114.572 50.7478C115.83 53.7841 115.781 57.2122 115.742 59.9604C115.736 60.4149 115.729 60.8508 115.729 61.2633C115.729 61.4982 115.731 61.7524 115.734 62.0173C115.739 62.5919 115.744 63.2171 115.729 63.8065C115.71 64.5181 115.519 65.1408 115.174 65.6982C114.918 66.1108 114.583 66.4607 114.402 66.6494C114.384 66.669 114.367 66.6868 114.351 66.7028C114.264 66.7945 114.179 66.9244 114.079 67.1923C114.026 67.3335 113.975 67.4976 113.915 67.7118C113.897 67.7732 113.875 67.8539 113.85 67.9432C113.806 68.1027 113.754 68.2894 113.71 68.4416C113.248 70.0224 112.397 71.4082 111.63 72.5637C111.411 72.8948 111.201 73.203 111.002 73.496C110.45 74.3082 109.977 75.0041 109.585 75.7489C108.271 78.2459 106.612 79.7664 104.587 81.2247C101.94 83.1314 99.2314 84.8365 96.483 86.4804C94.6779 87.5601 92.7992 88.3892 91.013 89.1386C90.6402 89.2949 90.2734 89.4471 89.9118 89.5972C88.5004 90.1827 87.1674 90.7358 85.8615 91.3802C81.2055 93.6778 76.644 95.1356 71.8094 96.4988C71.3725 96.622 70.9238 96.7509 70.465 96.8826C67.015 97.8731 62.9952 99.0273 59.1552 99.1759C56.2697 99.2876 53.3228 99.2537 50.45 99.2206C49.1013 99.205 47.7688 99.1897 46.4668 99.1897C38.2263 99.1897 28.9836 97.1066 22.2053 91.7548C18.7833 89.053 15.9644 85.7138 13.8724 81.9129C12.8776 80.1055 12.2777 77.7687 11.8625 76.1512L11.8593 76.1386C11.8477 76.0933 11.8359 76.0474 11.824 76.0011C11.5187 74.8141 11.1304 73.3046 11.1304 71.7328C11.1304 68.6673 12.0392 65.714 12.8959 63.1773C12.9608 62.9851 13.0259 62.7908 13.0915 62.5947C13.8214 60.4149 14.6246 58.0162 16.1407 55.7718C20.0535 49.9793 24.5713 43.4331 31.4985 39.8583C32.4749 38.8525 33.6565 38.2212 34.8194 37.8086C35.0294 37.389 35.3747 37.0311 35.8315 36.8057C37.2546 36.1035 39.5059 34.8371 41.382 33.7819C42.0075 33.4301 42.5913 33.1017 43.0888 32.8255C44.127 32.2492 45.225 31.9331 46.1305 31.6992C46.3875 31.6329 46.6248 31.5738 46.8476 31.5184C47.4862 31.3594 48.0044 31.2304 48.5197 31.0455C49.8175 30.5797 51.1622 30.4012 52.2485 30.2574L52.2699 30.2546C53.4278 30.1013 54.3221 29.983 55.1402 29.719C56.4982 29.2809 57.8392 29.1609 59.0532 29.1357C59.6978 29.1223 60.4894 29.1395 61.2057 29.1552ZM43.7803 37.5533C43.9231 37.7628 44.0318 37.9999 44.097 38.2591C44.3969 39.4513 43.6608 40.6576 42.4529 40.9536C41.7551 41.1246 40.9197 41.2156 40.2066 41.2933L40.1229 41.3024C39.3504 41.3866 38.6006 41.4683 37.8589 41.6053C36.2995 41.8934 35.2372 42.3521 34.6268 43.075L34.325 43.4325L33.9034 43.6405C27.9886 46.5593 23.9759 52.1919 19.8909 58.2393C18.7272 59.962 18.1064 61.807 17.338 64.0906C17.2834 64.2528 17.2281 64.4172 17.1717 64.584C16.3182 67.111 15.6375 69.4573 15.6375 71.7328C15.6375 72.7121 15.8897 73.7267 16.2285 75.0463C16.6756 76.7881 17.1552 78.5584 17.8329 79.7896C19.6415 83.0756 22.0732 85.954 25.0209 88.2813C30.7397 92.7966 38.8574 94.7414 46.4668 94.7414C47.8836 94.7414 49.2757 94.7576 50.6533 94.7737C53.4599 94.8064 56.2062 94.8384 58.9785 94.7311C62.2247 94.6054 65.6709 93.6205 69.194 92.6136C69.6519 92.4827 70.111 92.3515 70.5712 92.2217C75.319 90.8829 79.5645 89.5142 83.8458 87.4016C85.2978 86.6851 86.804 86.0605 88.2291 85.4696C88.5748 85.3263 88.9156 85.185 89.2498 85.0448C91.0033 84.3091 92.6329 83.5819 94.147 82.6763C96.8406 81.065 99.4283 79.4334 101.93 77.6314C103.635 76.404 104.707 75.369 105.585 73.6991C106.105 72.7115 106.779 71.7199 107.368 70.8556C107.541 70.6005 107.707 70.3565 107.86 70.1269C108.59 69.0265 109.116 68.109 109.38 67.208C109.404 67.1237 109.431 67.0229 109.461 66.9085C109.664 66.1373 110.03 64.7505 111.06 63.6639C111.122 63.5986 111.166 63.5524 111.211 63.5047C111.217 63.4984 111.222 63.4925 111.227 63.4867C111.235 63.0458 111.232 62.62 111.227 62.1634C111.225 61.879 111.222 61.5827 111.222 61.2633C111.222 60.742 111.227 60.2344 111.232 59.7397C111.259 56.943 111.281 54.5583 110.4 52.4321C109.674 50.6801 108.687 49.1942 107.45 47.4497C106.988 46.7992 106.377 46.2135 105.585 45.5093C105.482 45.4182 105.376 45.3241 105.265 45.227C104.582 44.6252 103.77 43.9089 103.066 43.1019C102.523 42.4796 101.797 41.8914 100.9 41.2481C100.617 41.0451 100.291 40.8194 99.9481 40.5821C99.3209 40.1481 98.6381 39.6756 98.0622 39.2335C96.2998 37.8807 94.4957 36.7179 92.6041 35.9541C92.362 35.8564 92.1222 35.7588 91.8846 35.6621C89.6331 34.7456 87.5843 33.9117 85.7672 33.8509C81.5677 33.7104 77.3994 33.623 73.2068 33.623H62.4399C61.8305 33.623 61.3378 33.6102 60.876 33.5981C60.3064 33.5833 59.784 33.5697 59.1481 33.5829C58.1493 33.6037 57.3039 33.7009 56.5407 33.9471C55.3201 34.3409 54.0569 34.5071 53.0267 34.6426C52.9662 34.6506 52.9064 34.6584 52.8475 34.6662C51.7048 34.8175 50.8319 34.9489 50.06 35.2259C49.3068 35.4963 48.4797 35.7014 47.7933 35.8716C47.6077 35.9176 47.4323 35.9611 47.2715 36.0026C46.4276 36.2206 45.8035 36.4222 45.2985 36.7025C44.8712 36.9398 44.3516 37.2319 43.7803 37.5533Z" fill="black"/>
<path fill-rule="evenodd" clip-rule="evenodd" d="M44.2098 53.6354C44.5528 53.6427 44.8697 53.6496 45.1433 53.6496C47.3038 53.6496 49.2951 54.3773 50.794 55.689C51.2046 55.7705 51.9377 55.939 52.6491 56.4792C53.5519 57.1647 53.8497 58.0756 53.9803 58.5718C54.0176 58.7136 54.091 59.0389 54.1049 59.1007C54.1064 59.107 54.1072 59.1105 54.1072 59.1109C54.1206 59.1664 54.1292 59.1952 54.1324 59.2058C54.7807 60.6666 54.5368 62.1731 54.208 63.2219C53.8633 64.3216 53.3038 65.3136 52.822 66.0183C52.5304 66.4447 52.2082 66.842 51.9329 67.1752C51.8643 67.2582 51.7992 67.3365 51.737 67.4113C51.53 67.6604 51.355 67.8711 51.1881 68.0883C50.7226 68.6943 50.2003 69.0638 49.8546 69.2957C49.7498 69.3661 49.6654 69.4218 49.5952 69.4681C49.4006 69.5966 49.3154 69.6528 49.2068 69.749C48.4755 70.3969 47.6616 70.8901 46.9638 71.2846C46.6854 71.4421 46.4371 71.5781 46.2064 71.7045C45.7942 71.9302 45.4378 72.1255 45.0646 72.358C43.4502 73.3639 41.7904 73.8724 40.2935 74.2456C39.7656 74.3772 39.2809 74.4881 38.8209 74.5933C37.8861 74.8071 37.053 74.9977 36.1651 75.2919C35.9307 75.3696 35.6959 75.4486 35.4602 75.5279C33.1146 76.3174 30.6794 77.1369 27.6117 76.969C27.1244 76.9423 26.6387 76.9044 26.1553 76.8443C25.1673 76.9917 24.1025 77.0044 23.0882 76.8549C21.4703 76.6165 19.3778 75.8602 18.2959 73.8519C17.2091 71.8346 15.6479 68.7187 17.6929 65.3085C17.7878 65.1502 17.8653 65.0038 17.9529 64.8334C17.9639 64.812 17.9757 64.7888 17.9883 64.7642C18.0648 64.6147 18.1686 64.4117 18.2804 64.2181C18.5923 63.6781 18.9887 63.1617 19.6336 62.6275C20.0743 62.2624 20.5721 61.9605 20.9005 61.7614C20.9485 61.7323 20.9928 61.7055 21.0328 61.6809C21.4184 61.4442 21.5932 61.3162 21.7045 61.2035C22.5256 60.3722 23.5198 59.8556 24.2074 59.5044C24.2753 59.4697 24.3407 59.4363 24.4038 59.4042C25.0838 59.0576 25.4909 58.8501 25.8229 58.5837C26.6939 57.8849 27.5196 57.5555 28.2385 57.3355C28.5602 57.237 28.7919 57.1748 28.9889 57.122C29.2873 57.0419 29.5057 56.9832 29.8358 56.8525C30.8161 56.4641 31.8204 56.2147 32.7565 56.0238C33.5765 55.7258 34.4363 55.4373 35.325 55.2026C35.872 55.0581 36.3692 54.8988 36.9243 54.721C37.2695 54.6104 37.6371 54.4927 38.0531 54.3668C39.0432 54.0672 40.1806 53.7671 41.3856 53.6694C42.3105 53.5945 43.3436 53.6167 44.2098 53.6354ZM26.4801 64.4874C26.4802 64.4872 26.4813 64.4918 26.483 64.5015C26.4808 64.4924 26.48 64.4876 26.4801 64.4874ZM47.1795 64.4755C47.1065 64.3958 47.0394 64.3194 46.9799 64.2505C46.8276 64.0741 46.6787 63.8914 46.5662 63.7534C46.5516 63.7354 46.5375 63.7182 46.5242 63.7018C46.4419 63.601 46.3957 63.5459 46.3737 63.5197C46.355 63.4974 46.354 63.4962 46.3634 63.5057C46.1339 63.2733 45.8366 63.0548 45.3611 62.7323C45.3164 62.702 45.2694 62.6703 45.2203 62.6372C44.8063 62.3581 44.2493 61.9825 43.7399 61.5312C42.5917 60.514 41.2737 60.215 40.361 60.5846C39.7418 60.8354 39.0499 61.2399 38.2546 61.7606C37.983 61.9384 37.6609 62.1566 37.3241 62.3847C36.8143 62.7301 36.271 63.0981 35.8194 63.3826C35.448 63.6166 35.1758 63.7763 34.9323 63.9192C34.6377 64.092 34.3852 64.2402 34.0497 64.4655C33.5644 64.7914 33.2642 65.064 33.0691 65.3355C32.5651 66.0372 32.3526 66.6997 32.3506 67.1085C32.3498 67.2821 32.3854 67.3685 32.4124 67.4152C32.4369 67.4575 32.518 67.5786 32.7883 67.7238C33.2422 67.9677 34.1203 68.1158 35.4261 68.0357C36.6585 67.9601 37.9522 67.7053 39.0069 67.462C39.4909 67.3503 40.0079 67.2494 40.4949 67.1543C40.538 67.1459 40.5808 67.1375 40.6234 67.1292C41.1639 67.0236 41.6789 66.9212 42.1778 66.8027C43.2088 66.558 43.9683 66.2881 44.4752 65.9615C45.047 65.5931 45.6415 65.2862 46.1317 65.0336L46.1558 65.0212C46.5503 64.8179 46.8807 64.6477 47.1795 64.4755Z" fill="black"/>
<path fill-rule="evenodd" clip-rule="evenodd" d="M100.97 48.1971C103.046 48.4219 105.255 48.9915 107.254 50.4619C107.395 50.566 107.583 50.6838 107.895 50.8791L107.936 50.905C108.237 51.0933 108.625 51.3385 109.004 51.6208C109.68 52.1244 110.807 53.0842 111.128 54.6298C111.288 55.3997 111.365 56.3378 111.249 57.275C111.136 58.1851 110.806 59.349 109.923 60.2591C107.762 62.4847 104.466 64.8835 101.225 65.7735C97.8505 66.7003 94.4188 66.9693 91.0838 66.9693C90.92 66.9693 90.7496 66.9704 90.5736 66.9715C89.4245 66.979 88.0346 66.988 86.6418 66.7011C86.0676 66.5828 85.3454 66.2889 84.7529 65.9704C84.4396 65.802 84.0885 65.5875 83.7647 65.329C83.4866 65.107 83.0205 64.6916 82.7254 64.0666C82.7197 64.0577 82.6932 64.0184 82.6251 63.9444C82.513 63.8226 82.3761 63.6975 82.138 63.4815C82.1177 63.4631 82.0957 63.4432 82.072 63.422C81.6904 63.0787 80.898 62.3659 80.4931 61.3424C80.2929 60.8363 80.1858 60.3233 80.1286 59.8538C80.0517 59.7368 79.9775 59.6227 79.906 59.5122C79.2183 58.4498 78.9161 57.2772 79.0625 56.0827C79.2025 54.9396 79.7254 54.001 80.2903 53.2874C81.3824 51.9079 82.9886 50.924 84.0939 50.3385C85.1388 49.7851 86.1914 49.5068 87.0557 49.3004C87.2406 49.2563 87.4147 49.2157 87.58 49.1772C88.2499 49.0211 88.7772 48.8983 89.31 48.7023C91.1553 48.0236 92.9829 48.0471 94.4504 48.066C94.6808 48.069 94.9023 48.0718 95.1137 48.0718C95.4904 48.0718 95.8884 48.0673 96.3016 48.0626C97.7578 48.046 99.4026 48.0273 100.97 48.1971ZM94.0226 54.4438C93.6281 54.9229 93.1463 55.2185 92.7712 55.3927C92.2489 55.6352 91.6462 55.7737 91.3007 55.8531C91.264 55.8615 91.2303 55.8693 91.1998 55.8765C91.0718 55.9065 90.9679 55.9323 90.8833 55.9545C90.8972 56.165 90.9783 56.3351 91.1096 56.5173C91.4008 56.921 91.9661 57.3702 92.8148 57.8072C93.321 58.0679 93.7518 58.3981 94.0194 58.6033C94.0379 58.6175 94.0556 58.6311 94.0726 58.644C94.3727 58.8733 94.5051 58.9649 94.6119 59.0193C94.6295 59.0235 94.7013 59.0394 94.8622 59.0455C94.9825 59.05 95.1195 59.0486 95.3027 59.0439C95.335 59.0431 95.3704 59.0421 95.408 59.041C95.5587 59.0368 95.7461 59.0316 95.9221 59.0316C96.153 59.0316 96.3966 59.0393 96.5921 59.0455C96.6522 59.0474 96.7078 59.0492 96.757 59.0505C96.9973 59.0571 97.162 59.0571 97.2985 59.0477C97.4287 59.0388 97.4964 59.0232 97.529 59.0132C97.5546 59.0054 97.5646 58.9994 97.5755 58.9916C97.5971 58.9762 97.6189 58.9607 97.6408 58.9451C98.0765 58.6343 98.5734 58.28 99.0864 57.9449C99.1934 57.661 99.3813 57.2797 99.7266 56.9228C99.7304 56.9181 99.7492 56.8944 99.7834 56.8387C99.8379 56.75 99.8941 56.6439 99.9941 56.4513C100.004 56.433 100.014 56.4134 100.024 56.3926C100.192 56.067 100.516 55.4384 101.033 54.9062C101.046 54.893 101.058 54.8801 101.07 54.8675C100.967 54.8236 100.848 54.7784 100.713 54.7339C100.089 54.5283 99.4592 54.4438 99.2039 54.4438H94.0226ZM101.458 55.0777C101.458 55.0777 101.455 55.0754 101.45 55.0707C101.456 55.0752 101.458 55.0776 101.458 55.0777ZM98.9264 58.4838C98.9224 58.499 98.9224 58.4965 98.9272 58.4806C98.9269 58.4817 98.9266 58.4828 98.9264 58.4838ZM90.5363 56.0667C90.5361 56.0667 90.536 56.0668 90.5359 56.0668C90.5357 56.0669 90.5356 56.067 90.5356 56.067" fill="black"/>
<path fill-rule="evenodd" clip-rule="evenodd" d="M69.438 71.5731C69.3322 71.66 69.2375 71.7257 69.1652 71.7728C68.5262 72.189 67.7587 72.3508 67.2737 72.4279C66.706 72.5181 66.0948 72.5532 65.5547 72.5336C65.2847 72.5239 64.9931 72.4992 64.7107 72.4475C64.4897 72.407 64.033 72.3109 63.5898 72.029C62.914 71.5991 62.2373 70.9269 61.7788 70.0668C61.3094 69.1865 60.9728 67.8943 61.445 66.5038C62.1368 64.4669 63.8399 63.5336 65.0516 63.103C66.3389 62.6454 67.6991 62.5215 68.6444 62.5215C70.6543 62.5215 72.702 63.2194 74.3642 64.6293C74.8115 65.0087 75.8781 66.0471 75.657 67.683C75.4469 69.2374 74.2481 69.8828 73.9176 70.0484C73.1265 70.4449 72.1681 70.5791 71.5845 70.6065C71.5497 70.6326 71.5173 70.6561 71.4878 70.6769C71.2545 70.8417 71.0176 70.9703 70.8162 71.0679C70.4132 71.2633 69.9876 71.4135 69.6438 71.515C69.5869 71.5318 69.5171 71.552 69.438 71.5731Z" fill="black"/>
<path fill-rule="evenodd" clip-rule="evenodd" d="M63.5183 84.7415C62.8897 84.9138 61.9841 85.1621 61.0286 85.1908C60.5478 85.2052 60.1936 85.3432 59.5023 85.6126C59.2326 85.7177 58.9115 85.8429 58.5116 85.9884C57.9441 86.195 57.5718 86.3783 57.3013 86.5826C57.2895 86.5972 57.277 86.6128 57.2611 86.6328C57.2498 86.647 57.2367 86.6634 57.2208 86.6832C57.1772 86.7376 57.1163 86.8133 57.048 86.8934C56.9212 87.0421 56.7002 87.2891 56.403 87.5154C56.0989 87.7468 55.6202 88.0298 54.9877 88.1055C53.6656 88.2639 52.4748 87.2368 52.3279 85.8115C52.2133 84.6995 52.768 83.6737 53.6452 83.2012C53.6662 83.1751 53.6886 83.1472 53.7101 83.121C53.7645 83.0545 53.8389 82.9657 53.9256 82.8718C54.0113 82.7789 54.1292 82.6591 54.2749 82.5376C55.1895 81.775 56.1832 81.3547 56.9705 81.0681C57.0983 81.0216 57.251 80.9605 57.4246 80.8911C58.2514 80.5603 59.5528 80.0397 60.8948 79.9995C61.2829 79.9879 61.7015 79.8797 62.4677 79.6711L62.4982 79.6628C63.1668 79.4807 64.1341 79.2173 65.1888 79.2173H66.4972C67.4301 79.2173 68.1153 79.6571 68.4146 79.8746C69.1225 80.0166 69.6673 80.3265 69.9241 80.4725C69.9454 80.4847 69.9648 80.4957 69.9821 80.5054C70.0546 80.546 70.1084 80.5745 70.1462 80.5939C71.3795 80.7071 72.3478 81.8222 72.3478 83.1811C72.3478 84.6151 71.2694 85.7777 69.9393 85.7777C68.9294 85.7777 68.1327 85.3248 67.8143 85.1438C67.7948 85.1327 67.7771 85.1226 67.7612 85.1137C67.6345 85.0428 67.558 85.0035 67.5179 84.9833C67.0048 84.9319 66.598 84.7502 66.3185 84.5904C66.2173 84.5325 66.119 84.4685 66.0348 84.4105H65.1888C64.801 84.4105 64.3737 84.5085 63.647 84.7063C63.6055 84.7176 63.5626 84.7293 63.5183 84.7415ZM65.7344 84.1933C65.734 84.1925 65.7441 84.1985 65.7657 84.2141C65.7456 84.202 65.7348 84.1942 65.7344 84.1933ZM57.351 86.5228C57.351 86.5229 57.3487 86.5256 57.3444 86.5303C57.3489 86.525 57.3511 86.5226 57.351 86.5228Z" fill="black"/>
</svg>
