<svg width="48" height="48" viewBox="0 0 48 48" fill="none" xmlns="http://www.w3.org/2000/svg">
<g clip-path="url(#clip0_93_11)">
<path fill-rule="evenodd" clip-rule="evenodd" d="M27.2101 7.01854C27.667 7.02724 28.1128 7.03573 28.5386 7.03573C29.0317 7.03573 29.529 7.03375 30.0285 7.03176C31.036 7.02774 32.0525 7.02368 33.0621 7.0358C33.7306 7.04382 34.3486 7.18933 34.8818 7.33067C35.0022 7.36258 35.117 7.39383 35.2276 7.42394C35.6356 7.53504 35.987 7.63068 36.3549 7.68747C37.0455 7.79404 37.6689 8.07014 38.1912 8.32301C38.332 8.39117 38.4637 8.45661 38.5892 8.51893C38.9657 8.70592 39.2857 8.86485 39.6227 8.98475C40.2713 9.21547 40.8171 9.61453 41.2599 9.96363C41.3884 10.0649 41.5067 10.1605 41.6184 10.2507C41.9274 10.5003 42.1858 10.709 42.4672 10.8836C43.2575 11.374 43.9697 11.9552 44.6313 12.4951C44.6748 12.5305 44.718 12.5658 44.7609 12.6008C45.2079 12.9651 45.5599 13.4305 45.8424 13.839C45.9698 14.0231 46.0772 14.1858 46.1766 14.3363C46.3248 14.5607 46.4549 14.7578 46.6062 14.9578C48.2751 17.1648 48.5594 19.7802 48.1708 22.3205C48.1481 22.4686 48.1254 22.6238 48.1019 22.7843C48.0131 23.3904 47.9132 24.0725 47.765 24.7311C47.5761 25.5708 47.2924 26.4581 46.7927 27.2324C46.6416 27.4666 46.4888 27.7073 46.3335 27.9518C45.6641 29.006 44.9484 30.1333 44.1171 31.1347C42.8296 32.6855 41.483 34.1347 39.9041 35.4558C38.6881 36.4732 37.2646 37.3781 35.9321 38.1405C35.1728 38.5751 34.3957 38.8296 33.6624 39.0285C33.3526 39.1125 33.0694 39.1826 32.7966 39.2501C32.3803 39.3531 31.9882 39.4501 31.5627 39.5816C29.6443 40.1747 27.6689 40.6598 25.7311 41.0888C23.8942 41.4954 21.9983 41.4701 20.2342 41.4466C19.8303 41.4412 19.4333 41.4359 19.0454 41.4359C17.0762 41.4359 15.2356 41.14 13.3652 40.5716C13.2736 40.5438 13.182 40.516 13.0903 40.4883C11.6375 40.0486 10.1593 39.6013 8.7182 38.7041L8.64076 38.6559C7.47499 37.9304 6.13319 37.0953 5.0941 35.9546C4.07981 34.8412 3.07017 33.5694 2.28007 32.2375C1.41675 30.7821 0.949401 29.1246 0.533859 27.6508C0.519083 27.5984 0.504373 27.5463 0.489713 27.4943C0.182268 26.4054 0 25.4247 0 24.2358C0 23.1368 0.24695 22.0526 0.466386 21.0891C0.528234 20.8176 0.587896 20.5556 0.639228 20.3057C0.779203 19.624 1.12657 18.9706 1.4895 18.4211C1.8592 17.8614 2.28677 17.3479 2.646 16.943C3.7322 15.7186 5.13294 14.624 6.46741 13.7732C6.8147 13.5518 7.16334 13.3126 7.52675 13.0613C7.56721 13.0333 7.60788 13.0051 7.64876 12.9768C7.97069 12.754 8.30486 12.5227 8.64388 12.2996C9.40748 11.7971 10.2425 11.3044 11.1616 10.9692C11.6856 10.778 12.2665 10.5749 12.8534 10.3987C12.9797 10.2905 13.1079 10.2175 13.2121 10.1664C13.2904 10.128 13.3751 10.0931 13.4259 10.0721C13.4344 10.0686 13.4419 10.0655 13.4483 10.0628C13.5073 10.0382 13.532 10.0264 13.5475 10.0178C13.8788 9.83452 14.2917 9.56833 14.6087 9.33796C15.9323 8.3758 17.5623 7.99333 18.95 7.6677C19.2252 7.60314 19.4908 7.54081 19.7426 7.47664C20.811 7.2044 21.9425 7.15509 22.9558 7.11093C23.313 7.09537 23.6554 7.08044 23.9753 7.05662C25.0413 6.97723 26.1555 6.99845 27.2101 7.01854Z" fill="white"/>
<path fill-rule="evenodd" clip-rule="evenodd" d="M27.2101 7.01854C27.667 7.02724 28.1128 7.03573 28.5386 7.03573C29.0317 7.03573 29.529 7.03375 30.0285 7.03176C31.036 7.02774 32.0525 7.02368 33.0621 7.0358C33.7306 7.04382 34.3486 7.18933 34.8818 7.33067C35.0022 7.36258 35.117 7.39383 35.2276 7.42394C35.6356 7.53504 35.987 7.63068 36.3549 7.68747C37.0455 7.79404 37.6689 8.07014 38.1912 8.32301C38.332 8.39117 38.4637 8.45661 38.5892 8.51893C38.9657 8.70592 39.2857 8.86485 39.6227 8.98475C40.2713 9.21547 40.8171 9.61453 41.2599 9.96363C41.3884 10.0649 41.5067 10.1605 41.6184 10.2507C41.9274 10.5003 42.1858 10.709 42.4671 10.8836C43.2575 11.374 43.9697 11.9552 44.6313 12.4951C44.6748 12.5305 44.7179 12.5658 44.7609 12.6008C45.2079 12.9651 45.5599 13.4305 45.8424 13.839C45.9698 14.0231 46.0772 14.1858 46.1766 14.3363C46.3248 14.5607 46.4549 14.7578 46.6062 14.9578C48.2751 17.1648 48.5594 19.7802 48.1708 22.3205C48.1481 22.4686 48.1254 22.6238 48.1019 22.7843C48.0131 23.3904 47.9132 24.0725 47.765 24.7311C47.5761 25.5708 47.2924 26.4581 46.7927 27.2324C46.6416 27.4666 46.4888 27.7073 46.3335 27.9518C45.6641 29.006 44.9484 30.1333 44.1171 31.1347C42.8296 32.6855 41.483 34.1347 39.9041 35.4558C38.6881 36.4732 37.2646 37.3781 35.9321 38.1405C35.1728 38.5751 34.3957 38.8296 33.6624 39.0285C33.3526 39.1125 33.0694 39.1826 32.7966 39.2501C32.3803 39.3531 31.9882 39.4501 31.5627 39.5816C29.6443 40.1747 27.6689 40.6598 25.7311 41.0888C23.8942 41.4954 21.9983 41.4701 20.2342 41.4466C19.8303 41.4412 19.4333 41.4359 19.0454 41.4359C17.0762 41.4359 15.2356 41.14 13.3652 40.5716C13.2736 40.5438 13.182 40.516 13.0903 40.4883C11.6375 40.0486 10.1593 39.6013 8.7182 38.7041L8.64076 38.6559C7.47499 37.9304 6.13319 37.0953 5.0941 35.9546C4.07981 34.8412 3.07017 33.5694 2.28007 32.2375C1.41675 30.7821 0.949401 29.1246 0.533859 27.6508C0.519083 27.5984 0.504373 27.5463 0.489713 27.4943C0.182268 26.4054 0 25.4247 0 24.2358C0 23.1368 0.24695 22.0526 0.466386 21.0891C0.528234 20.8176 0.587896 20.5556 0.639228 20.3057C0.779203 19.624 1.12657 18.9706 1.4895 18.4211C1.8592 17.8614 2.28677 17.3479 2.646 16.943C3.7322 15.7186 5.13294 14.624 6.46741 13.7732C6.8147 13.5518 7.16334 13.3126 7.52675 13.0613C7.56721 13.0333 7.60788 13.0051 7.64876 12.9768C7.97069 12.754 8.30486 12.5227 8.64388 12.2996C9.40748 11.7971 10.2425 11.3044 11.1616 10.9692C11.6856 10.778 12.2665 10.5749 12.8534 10.3987C12.9797 10.2905 13.1079 10.2175 13.2121 10.1664C13.2904 10.128 13.3751 10.0931 13.4259 10.0721C13.4344 10.0686 13.4419 10.0655 13.4483 10.0628C13.5073 10.0382 13.532 10.0264 13.5475 10.0178C13.8788 9.83452 14.2917 9.56833 14.6087 9.33796C15.9323 8.3758 17.5623 7.99333 18.95 7.6677C19.2252 7.60314 19.4908 7.54081 19.7426 7.47664C20.811 7.2044 21.9425 7.15509 22.9558 7.11093C23.313 7.09537 23.6554 7.08044 23.9753 7.05662C25.0413 6.97723 26.1555 6.99845 27.2101 7.01854ZM13.8226 12.0532C13.9814 12.0102 14.138 11.9708 14.2913 11.9357C14.2878 11.9365 14.2912 11.9361 14.3102 11.9337C14.3323 11.931 14.3755 11.9256 14.4534 11.9166C14.564 11.9037 14.7201 11.8853 14.8778 11.8566C15.027 11.8295 15.2318 11.7842 15.4268 11.6988C15.5832 11.6303 15.9716 11.4349 16.125 10.9765C16.1733 10.8323 16.184 10.6846 16.1625 10.5439C17.0556 10.0322 18.0896 9.78548 19.2624 9.5056C19.5671 9.43289 19.8812 9.35795 20.2046 9.27554C21.0724 9.05441 21.9096 9.018 22.8524 8.97699C23.2507 8.95967 23.6679 8.94153 24.1142 8.90829C25.0914 8.83551 26.0574 8.85424 27.0671 8.87381C27.5458 8.88309 28.0344 8.89256 28.5386 8.89256C29.048 8.89256 29.5533 8.89054 30.0565 8.88852C31.0547 8.88452 32.0444 8.88055 33.0397 8.89249C33.4637 8.89758 33.8942 8.99034 34.4024 9.12505C34.4931 9.14908 34.588 9.17502 34.6863 9.20189C35.1051 9.31633 35.5863 9.44783 36.0695 9.52241C36.467 9.58375 36.8787 9.75211 37.3763 9.99302C37.4747 10.0407 37.5791 10.0926 37.6881 10.1469C38.085 10.3444 38.5429 10.5723 38.9958 10.7334C39.3379 10.8551 39.6822 11.0878 40.1031 11.4196C40.1881 11.4866 40.2789 11.5601 40.3743 11.6373C40.7055 11.9052 41.092 12.2179 41.4815 12.4596C42.1659 12.8843 42.7913 13.3943 43.4752 13.952C43.5101 13.9805 43.5453 14.0092 43.5805 14.0379C43.8157 14.2296 44.0464 14.5152 44.3075 14.8925C44.3854 15.0052 44.4733 15.1376 44.5662 15.2777C44.7432 15.5443 44.9383 15.8383 45.1172 16.075C46.3879 17.7554 46.6691 19.8108 46.328 22.0408C46.3017 22.2128 46.2765 22.3842 46.2514 22.5551C46.1638 23.1522 46.0772 23.742 45.946 24.3251C45.7788 25.0685 45.5554 25.7159 45.2247 26.2283C45.057 26.4882 44.8929 26.7463 44.7306 27.0017C44.0656 28.0481 43.4288 29.05 42.6805 29.9514C41.4359 31.4506 40.1688 32.8093 38.7052 34.034C37.6092 34.951 36.2918 35.7933 35.0036 36.5305C34.4458 36.8497 33.8447 37.0546 33.1727 37.2369C32.9482 37.2978 32.698 37.3601 32.4361 37.4253C31.972 37.541 31.4709 37.6658 31.0102 37.8082C29.1596 38.3803 27.2389 38.8529 25.3267 39.2762C23.7226 39.6313 22.097 39.6112 20.3494 39.5897C19.9225 39.5844 19.4883 39.579 19.0454 39.579C17.2743 39.579 15.6169 39.3146 13.9091 38.7956C13.8364 38.7735 13.7642 38.7516 13.6926 38.7299C12.19 38.2741 10.9315 37.8923 9.70616 37.1295C8.47628 36.3638 7.33212 35.6482 6.47456 34.7068C5.51473 33.6532 4.59116 32.4834 3.8849 31.2928C3.14752 30.0498 2.73758 28.5977 2.30114 27.0517L2.28417 26.9916C2.00872 26.016 1.86407 25.2094 1.86407 24.2358C1.86407 23.3646 2.04718 22.5561 2.25603 21.6339C2.32493 21.3297 2.39663 21.0131 2.46549 20.6778C2.53679 20.3305 2.73948 19.9069 3.04677 19.4417C3.34728 18.9867 3.71009 18.5476 4.0428 18.1726C4.98158 17.1144 6.23444 16.1263 7.47225 15.3372C7.85219 15.095 8.2266 14.8377 8.58985 14.5865C8.63085 14.5582 8.67168 14.5299 8.71238 14.5017C9.03647 14.2774 9.35183 14.0591 9.67131 13.8489C10.391 13.3753 11.0849 12.9745 11.8026 12.7128C12.3064 12.529 12.8351 12.3448 13.3527 12.1882C13.5187 12.1855 13.6812 12.1386 13.8226 12.0532Z" fill="black"/>
<path fill-rule="evenodd" clip-rule="evenodd" d="M23.1075 11.2116C23.2823 11.2154 23.4452 11.219 23.5735 11.219H27.6384C29.2451 11.219 30.8386 11.2524 32.4381 11.306C33.4567 11.34 34.5361 11.7844 35.3299 12.1111C35.4263 12.1508 35.5185 12.1888 35.6059 12.2241C36.5203 12.5933 37.3397 13.1326 38.067 13.6909C38.2592 13.8385 38.4449 13.9665 38.6498 14.1078C38.7867 14.2022 38.9322 14.3025 39.094 14.4185C39.4617 14.6822 39.8649 14.9958 40.2013 15.3816C40.3882 15.596 40.6017 15.7847 40.8637 16.0163C40.9081 16.0555 40.9539 16.096 41.0012 16.138C41.3067 16.4096 41.6659 16.74 41.9605 17.1554C42.4362 17.8261 42.9042 18.5168 43.2552 19.3636C43.7304 20.51 43.7119 21.8042 43.6971 22.8418C43.6947 23.0134 43.6923 23.1779 43.6923 23.3336C43.6923 23.4223 43.6932 23.5183 43.694 23.6183C43.6959 23.8352 43.698 24.0713 43.692 24.2938C43.6849 24.5625 43.613 24.7976 43.4826 25.008C43.3861 25.1638 43.2596 25.2959 43.1914 25.3671C43.1843 25.3745 43.1779 25.3812 43.1721 25.3872C43.1393 25.4219 43.1068 25.4709 43.0692 25.5721C43.0494 25.6254 43.0302 25.6873 43.0072 25.7682C43.0007 25.7914 42.9922 25.8219 42.9829 25.8556C42.9663 25.9158 42.9467 25.9863 42.9299 26.0437C42.7554 26.6405 42.4343 27.1637 42.1448 27.6C42.0619 27.725 41.9828 27.8413 41.9076 27.952C41.6992 28.2586 41.5206 28.5213 41.3727 28.8025C40.8767 29.7452 40.2502 30.3193 39.4857 30.8698C38.4862 31.5897 37.4637 32.2334 36.4261 32.8541C35.7446 33.2617 35.0353 33.5747 34.3609 33.8576C34.2202 33.9167 34.0817 33.9741 33.9452 34.0308C33.4123 34.2519 32.9091 34.4606 32.416 34.7039C30.6582 35.5714 28.9361 36.1217 27.1109 36.6364C26.9459 36.6829 26.7765 36.7316 26.6033 36.7813C25.3008 37.1553 23.7831 37.591 22.3334 37.6471C21.244 37.6893 20.1314 37.6765 19.0468 37.664C18.5376 37.6581 18.0346 37.6523 17.543 37.6523C14.4319 37.6523 10.9424 36.8659 8.38337 34.8454C7.09144 33.8253 6.02717 32.5647 5.23736 31.1297C4.86178 30.4473 4.63532 29.5651 4.47857 28.9544L4.47736 28.9497C4.47296 28.9325 4.46851 28.9152 4.464 28.8977C4.34874 28.4496 4.20215 27.8797 4.20215 27.2863C4.20215 26.129 4.54525 25.0139 4.8687 24.0563C4.89321 23.9837 4.91778 23.9103 4.94256 23.8363C5.21813 23.0133 5.52137 22.1077 6.09374 21.2604C7.57098 19.0735 9.27662 16.6021 11.8919 15.2524C12.2605 14.8727 12.7066 14.6344 13.1457 14.4786C13.225 14.3202 13.3553 14.185 13.5278 14.0999C14.0651 13.8348 14.915 13.3567 15.6233 12.9583C15.8595 12.8255 16.0799 12.7015 16.2677 12.5973C16.6596 12.3797 17.0742 12.2603 17.4161 12.1721C17.5131 12.147 17.6027 12.1247 17.6868 12.1038C17.9279 12.0438 18.1235 11.9951 18.3181 11.9252C18.8081 11.7494 19.3157 11.682 19.7258 11.6277L19.7339 11.6266C20.1711 11.5688 20.5087 11.5241 20.8176 11.4245C21.3303 11.259 21.8366 11.2137 22.2949 11.2042C22.5382 11.1991 22.8371 11.2057 23.1075 11.2116ZM16.5288 14.3822C16.5827 14.4613 16.6237 14.5508 16.6484 14.6487C16.7616 15.0987 16.4837 15.5542 16.0276 15.666C15.7642 15.7305 15.4488 15.7649 15.1796 15.7942L15.148 15.7976C14.8563 15.8294 14.5732 15.8603 14.2932 15.912C13.7045 16.0207 13.3034 16.1939 13.073 16.4669L12.959 16.6018L12.7999 16.6804C10.5668 17.7823 9.05182 19.9088 7.50958 22.192C7.07025 22.8424 6.83586 23.5389 6.54576 24.401C6.52516 24.4623 6.50426 24.5244 6.483 24.5873C6.16077 25.5414 5.90377 26.4272 5.90377 27.2863C5.90377 27.656 5.999 28.0391 6.12687 28.5372C6.29568 29.1949 6.47676 29.8632 6.73261 30.3281C7.41543 31.5686 8.3335 32.6553 9.44637 33.534C11.6054 35.2387 14.6702 35.9729 17.543 35.9729C18.0779 35.9729 18.6035 35.9791 19.1236 35.9851C20.1832 35.9975 21.22 36.0095 22.2667 35.969C23.4923 35.9216 24.7933 35.5497 26.1234 35.1696C26.2963 35.1202 26.4696 35.0706 26.6434 35.0216C28.4359 34.5162 30.0387 33.9995 31.6551 33.2019C32.2032 32.9313 32.7719 32.6956 33.3099 32.4725C33.4404 32.4184 33.5691 32.365 33.6953 32.3121C34.3573 32.0343 34.9725 31.7598 35.5441 31.4179C36.5611 30.8096 37.538 30.1936 38.4827 29.5132C39.1261 29.0498 39.5308 28.6591 39.8625 28.0286C40.0586 27.6558 40.3134 27.2814 40.5355 26.9551C40.601 26.8588 40.6637 26.7667 40.7212 26.68C40.9969 26.2645 41.1956 25.9181 41.2951 25.578C41.3044 25.5462 41.3144 25.5081 41.3258 25.4649C41.4026 25.1738 41.5407 24.6502 41.9295 24.24C41.9529 24.2153 41.9695 24.1979 41.9864 24.1798C41.9886 24.1775 41.9907 24.1752 41.9927 24.1731C41.9957 24.0066 41.9943 23.8458 41.9927 23.6735C41.9917 23.5661 41.9907 23.4542 41.9907 23.3336C41.9907 23.1368 41.9925 22.9452 41.9943 22.7584C42.0044 21.7026 42.013 20.8022 41.6803 19.9995C41.4061 19.3381 41.0336 18.7771 40.5665 18.1185C40.3923 17.8729 40.1615 17.6518 39.8624 17.3859C39.8237 17.3515 39.7834 17.316 39.7418 17.2793C39.4839 17.0521 39.1771 16.7817 38.9114 16.477C38.7066 16.2421 38.4324 16.02 38.0937 15.7771C37.9869 15.7005 37.8638 15.6153 37.7343 15.5257C37.4975 15.3618 37.2397 15.1834 37.0223 15.0165C36.3569 14.5058 35.6758 14.0668 34.9617 13.7784C34.8703 13.7415 34.7797 13.7047 34.69 13.6682C33.84 13.3222 33.0665 13.0073 32.3805 12.9844C30.795 12.9313 29.2213 12.8983 27.6384 12.8983H23.5735C23.3434 12.8983 23.1574 12.8935 22.9831 12.889C22.768 12.8834 22.5708 12.8782 22.3307 12.8832C21.9536 12.8911 21.6345 12.9277 21.3463 13.0207C20.8855 13.1694 20.4086 13.2321 20.0197 13.2833C19.9968 13.2863 19.9742 13.2893 19.952 13.2922C19.5206 13.3493 19.191 13.3989 18.8996 13.5035C18.6153 13.6056 18.303 13.683 18.0438 13.7473C17.9737 13.7647 17.9075 13.7811 17.8468 13.7968C17.5282 13.879 17.2926 13.9552 17.1019 14.061C16.9406 14.1506 16.7445 14.2609 16.5288 14.3822Z" fill="black"/>
<path fill-rule="evenodd" clip-rule="evenodd" d="M16.6908 20.4536C16.8203 20.4564 16.94 20.459 17.0433 20.459C17.8589 20.459 18.6107 20.7338 19.1766 21.229C19.3317 21.2597 19.6084 21.3233 19.877 21.5273C20.2178 21.7861 20.3303 22.13 20.3796 22.3173C20.3937 22.3709 20.4214 22.4937 20.4266 22.517C20.4272 22.5194 20.4275 22.5207 20.4275 22.5209C20.4326 22.5418 20.4358 22.5527 20.437 22.5567C20.6818 23.1082 20.5897 23.677 20.4656 24.0729C20.3354 24.4881 20.1242 24.8626 19.9423 25.1287C19.8322 25.2897 19.7106 25.4397 19.6066 25.5654C19.5807 25.5968 19.5561 25.6263 19.5327 25.6546C19.4545 25.7486 19.3884 25.8282 19.3254 25.9102C19.1497 26.139 18.9525 26.2785 18.822 26.366C18.7824 26.3926 18.7505 26.4136 18.724 26.4311C18.6506 26.4796 18.6184 26.5008 18.5774 26.5372C18.3013 26.7818 17.994 26.968 17.7306 27.1169C17.6255 27.1764 17.5317 27.2277 17.4446 27.2754C17.289 27.3607 17.1545 27.4344 17.0136 27.5222C16.4041 27.9019 15.7774 28.0939 15.2123 28.2348C15.013 28.2845 14.83 28.3263 14.6563 28.3661C14.3034 28.4468 13.9889 28.5188 13.6536 28.6298C13.5651 28.6592 13.4765 28.689 13.3875 28.7189C12.5019 29.017 11.5826 29.3264 10.4244 29.263C10.2404 29.2529 10.0571 29.2386 9.87454 29.2159C9.50155 29.2716 9.09953 29.2763 8.71662 29.2199C8.10579 29.1299 7.31579 28.8444 6.90732 28.0862C6.49701 27.3245 5.90759 26.1482 6.67965 24.8607C6.71549 24.8009 6.74475 24.7457 6.77782 24.6813C6.78198 24.6732 6.78645 24.6645 6.79119 24.6552C6.82007 24.5988 6.85925 24.5221 6.90148 24.449C7.01923 24.2452 7.16887 24.0502 7.41235 23.8485C7.57874 23.7107 7.76669 23.5967 7.89067 23.5215C7.90877 23.5106 7.9255 23.5004 7.94061 23.4911C8.08618 23.4018 8.15219 23.3534 8.19421 23.3109C8.50419 22.9971 8.87954 22.802 9.13914 22.6694C9.16479 22.6563 9.18948 22.6437 9.2133 22.6316C9.47002 22.5007 9.6237 22.4224 9.74907 22.3218C10.0779 22.058 10.3896 21.9336 10.6611 21.8506C10.7825 21.8134 10.87 21.7899 10.9443 21.77C11.057 21.7397 11.1395 21.7176 11.2641 21.6682C11.6342 21.5216 12.0134 21.4274 12.3668 21.3554C12.6764 21.2429 13.001 21.1339 13.3365 21.0453C13.543 20.9908 13.7307 20.9306 13.9403 20.8635C14.0706 20.8218 14.2094 20.7773 14.3664 20.7298C14.7403 20.6167 15.1696 20.5034 15.6246 20.4665C15.9738 20.4382 16.3638 20.4466 16.6908 20.4536ZM9.99718 24.5507C9.99723 24.5506 9.99765 24.5523 9.99827 24.556C9.99744 24.5526 9.99713 24.5508 9.99718 24.5507ZM17.812 24.5462C17.7845 24.5161 17.7591 24.4873 17.7366 24.4613C17.6791 24.3947 17.6229 24.3257 17.5805 24.2736C17.5749 24.2668 17.5696 24.2603 17.5646 24.2541C17.5335 24.2161 17.5161 24.1952 17.5078 24.1854C17.5007 24.1769 17.5003 24.1765 17.5039 24.1801C17.4172 24.0923 17.305 24.0099 17.1255 23.8881C17.1086 23.8766 17.0909 23.8647 17.0723 23.8522C16.916 23.7468 16.7057 23.605 16.5134 23.4346C16.0799 23.0506 15.5823 22.9377 15.2378 23.0773C15.004 23.1719 14.7428 23.3247 14.4425 23.5212C14.34 23.5884 14.2183 23.6707 14.0912 23.7569C13.8987 23.8873 13.6936 24.0262 13.5231 24.1336C13.3829 24.222 13.2801 24.2823 13.1882 24.3362C13.077 24.4014 12.9816 24.4574 12.855 24.5424C12.6718 24.6655 12.5584 24.7684 12.4848 24.8709C12.2945 25.1358 12.2143 25.3859 12.2135 25.5403C12.2132 25.6058 12.2266 25.6384 12.2369 25.6561C12.2461 25.672 12.2767 25.7178 12.3788 25.7726C12.5501 25.8647 12.8816 25.9206 13.3746 25.8903C13.8399 25.8618 14.3283 25.7656 14.7265 25.6737C14.9092 25.6316 15.1044 25.5935 15.2883 25.5576C15.3046 25.5544 15.3208 25.5512 15.3368 25.5481C15.5409 25.5082 15.7353 25.4695 15.9237 25.4248C16.3129 25.3324 16.5996 25.2305 16.791 25.1072C17.0069 24.9681 17.2313 24.8523 17.4164 24.7569L17.4255 24.7522C17.5745 24.6755 17.6992 24.6112 17.812 24.5462Z" fill="black"/>
<path fill-rule="evenodd" clip-rule="evenodd" d="M38.12 18.4004C38.9038 18.4853 39.7377 18.7003 40.4924 19.2555C40.5458 19.2948 40.6167 19.3392 40.7344 19.4129L40.75 19.4227C40.8634 19.4938 41.0101 19.5864 41.1532 19.693C41.4084 19.8831 41.8337 20.2454 41.9552 20.829C42.0156 21.1196 42.0445 21.4738 42.0006 21.8276C41.9579 22.1712 41.8336 22.6107 41.5 22.9543C40.6842 23.7945 39.4398 24.7002 38.2163 25.0362C36.9423 25.3861 35.6467 25.4876 34.3876 25.4876C34.3257 25.4876 34.2614 25.488 34.195 25.4885C33.7611 25.4913 33.2364 25.4947 32.7106 25.3864C32.4938 25.3417 32.2211 25.2307 31.9974 25.1105C31.8792 25.0469 31.7466 24.966 31.6243 24.8683C31.5194 24.7845 31.3434 24.6277 31.232 24.3917C31.2298 24.3884 31.2198 24.3736 31.1941 24.3456C31.1518 24.2996 31.1001 24.2524 31.0102 24.1709C31.0026 24.1639 30.9942 24.1564 30.9853 24.1484C30.8412 24.0188 30.5421 23.7497 30.3892 23.3633C30.3136 23.1722 30.2732 22.9785 30.2516 22.8013C30.2225 22.7571 30.1945 22.714 30.1676 22.6723C29.9079 22.2712 29.7938 21.8285 29.8491 21.3775C29.902 20.9459 30.0994 20.5916 30.3126 20.3222C30.725 19.8014 31.3313 19.4299 31.7486 19.2089C32.1431 18.9999 32.5405 18.8949 32.8668 18.8169C32.9366 18.8003 33.0024 18.785 33.0648 18.7704C33.3177 18.7115 33.5168 18.6651 33.7179 18.5911C34.4146 18.3349 35.1046 18.3438 35.6586 18.3509C35.7456 18.352 35.8292 18.3531 35.909 18.3531C36.0513 18.3531 36.2015 18.3514 36.3575 18.3496C36.9073 18.3434 37.5283 18.3363 38.12 18.4004ZM35.4971 20.7588C35.3482 20.9396 35.1663 21.0513 35.0247 21.117C34.8275 21.2086 34.5999 21.2609 34.4695 21.2908C34.4557 21.294 34.4429 21.2969 34.4314 21.2997C34.3831 21.311 34.3438 21.3207 34.3119 21.3291C34.3171 21.4086 34.3478 21.4728 34.3974 21.5416C34.5073 21.694 34.7207 21.8636 35.0411 22.0286C35.2322 22.127 35.3949 22.2517 35.4959 22.3291C35.5029 22.3345 35.5096 22.3396 35.516 22.3445C35.6293 22.4311 35.6793 22.4657 35.7196 22.4862C35.7262 22.4878 35.7534 22.4938 35.8141 22.4961C35.8595 22.4978 35.9112 22.4973 35.9804 22.4955C35.9926 22.4952 36.0059 22.4948 36.0201 22.4944C36.077 22.4928 36.1478 22.4908 36.2142 22.4908C36.3014 22.4908 36.3934 22.4937 36.4672 22.4961C36.4899 22.4968 36.5109 22.4975 36.5295 22.498C36.6202 22.5005 36.6823 22.5005 36.7339 22.4969C36.783 22.4936 36.8086 22.4877 36.8209 22.4839C36.8306 22.4809 36.8343 22.4787 36.8385 22.4757C36.8466 22.4699 36.8548 22.4641 36.8631 22.4582C37.0276 22.3409 37.2152 22.2071 37.4089 22.0806C37.4493 21.9734 37.5202 21.8294 37.6506 21.6947C37.652 21.6929 37.6591 21.684 37.672 21.6629C37.6926 21.6294 37.7138 21.5894 37.7516 21.5167C37.7552 21.5098 37.759 21.5024 37.763 21.4945C37.8264 21.3716 37.9488 21.1343 38.1439 20.9334C38.1487 20.9284 38.1534 20.9235 38.1578 20.9187C38.119 20.9022 38.074 20.8851 38.0231 20.8683C37.7875 20.7907 37.5496 20.7588 37.4532 20.7588H35.4971ZM38.3042 20.9981C38.3042 20.9981 38.3031 20.9972 38.3011 20.9954C38.3033 20.9972 38.3043 20.9981 38.3042 20.9981ZM37.3485 22.284C37.347 22.2898 37.347 22.2888 37.3488 22.2828C37.3487 22.2832 37.3486 22.2836 37.3485 22.284ZM34.1809 21.3715C34.1808 21.3715 34.1808 21.3715 34.1808 21.3715C34.1807 21.3716 34.1806 21.3716 34.1806 21.3716" fill="black"/>
<path fill-rule="evenodd" clip-rule="evenodd" d="M26.2157 27.2259C26.1758 27.2587 26.14 27.2836 26.1127 27.3013C25.8715 27.4584 25.5817 27.5196 25.3986 27.5487C25.1843 27.5827 24.9535 27.5959 24.7496 27.5886C24.6477 27.5849 24.5376 27.5756 24.431 27.556C24.3475 27.5408 24.1751 27.5045 24.0078 27.398C23.7526 27.2357 23.4972 26.9819 23.324 26.6572C23.1469 26.3249 23.0198 25.837 23.198 25.3121C23.4592 24.5431 24.1022 24.1907 24.5597 24.0281C25.0457 23.8554 25.5592 23.8086 25.9161 23.8086C26.6749 23.8086 27.448 24.0721 28.0755 24.6044C28.2444 24.7476 28.6471 25.1396 28.5636 25.7573C28.4843 26.3441 28.0317 26.5878 27.9069 26.6503C27.6083 26.8 27.2464 26.8506 27.0261 26.861C27.013 26.8709 27.0007 26.8797 26.9896 26.8876C26.9015 26.9498 26.812 26.9984 26.736 27.0352C26.5839 27.109 26.4232 27.1657 26.2934 27.204C26.2719 27.2103 26.2456 27.2179 26.2157 27.2259Z" fill="black"/>
<path fill-rule="evenodd" clip-rule="evenodd" d="M23.9807 32.1977C23.7434 32.2627 23.4015 32.3565 23.0407 32.3673C22.8592 32.3727 22.7255 32.4248 22.4645 32.5265C22.3627 32.5662 22.2414 32.6135 22.0905 32.6684C21.8762 32.7464 21.7356 32.8156 21.6335 32.8927C21.6291 32.8983 21.6244 32.9042 21.6183 32.9117C21.6141 32.9171 21.6091 32.9232 21.6031 32.9307C21.5867 32.9513 21.5637 32.9799 21.5379 33.0101C21.49 33.0662 21.4066 33.1595 21.2944 33.2449C21.1796 33.3323 20.9988 33.4391 20.76 33.4677C20.2609 33.5275 19.8113 33.1398 19.7559 32.6016C19.7126 32.1818 19.922 31.7945 20.2532 31.6161C20.2611 31.6063 20.2696 31.5958 20.2777 31.5859C20.2983 31.5608 20.3263 31.5272 20.3591 31.4918C20.3914 31.4567 20.4359 31.4115 20.4909 31.3656C20.8363 31.0777 21.2114 30.919 21.5087 30.8108C21.5569 30.7933 21.6145 30.7702 21.6801 30.744C21.9922 30.6191 22.4836 30.4226 22.9902 30.4074C23.1367 30.403 23.2948 30.3621 23.5841 30.2834L23.5956 30.2802C23.848 30.2115 24.2132 30.1121 24.6114 30.1121H25.1053C25.4575 30.1121 25.7162 30.2781 25.8292 30.3602C26.0965 30.4138 26.3022 30.5308 26.3991 30.586C26.4072 30.5906 26.4145 30.5947 26.421 30.5984C26.4484 30.6137 26.4687 30.6245 26.483 30.6318C26.9486 30.6745 27.3142 31.0955 27.3142 31.6085C27.3142 32.15 26.907 32.5889 26.4048 32.5889C26.0236 32.5889 25.7228 32.4179 25.6026 32.3495C25.5952 32.3454 25.5885 32.3416 25.5825 32.3382C25.5347 32.3114 25.5058 32.2966 25.4907 32.289C25.297 32.2696 25.1434 32.201 25.0379 32.1406C24.9997 32.1188 24.9625 32.0946 24.9308 32.0727H24.6114C24.465 32.0727 24.3036 32.1097 24.0293 32.1844C24.0136 32.1886 23.9974 32.1931 23.9807 32.1977ZM24.8173 31.9907C24.8172 31.9904 24.821 31.9927 24.8292 31.9986C24.8216 31.994 24.8175 31.991 24.8173 31.9907ZM21.6523 32.8702C21.6523 32.8702 21.6514 32.8712 21.6498 32.873C21.6515 32.871 21.6523 32.8701 21.6523 32.8702Z" fill="black"/>
</g>
<defs>
<clipPath id="clip0_93_11">
<rect width="48" height="48" fill="white"/>
</clipPath>
</defs>
</svg>
