<svg width="110" height="25" viewBox="0 0 110 25" fill="none" xmlns="http://www.w3.org/2000/svg">
<rect x="1" y="1" width="108" height="23" rx="2" fill="#FF8686" stroke="black" stroke-width="2"/>
<path d="M24.4072 16.256C24.2872 16.36 24.1192 16.464 23.9032 16.568C23.6872 16.664 23.4472 16.752 23.1832 16.832C22.9272 16.912 22.6592 16.976 22.3792 17.024C22.1072 17.072 21.8512 17.096 21.6112 17.096C20.9152 17.096 20.2872 16.988 19.7272 16.772C19.1752 16.556 18.6992 16.256 18.2992 15.872C17.9072 15.488 17.6032 15.036 17.3872 14.516C17.1792 13.996 17.0752 13.432 17.0752 12.824C17.0752 12.104 17.1912 11.46 17.4232 10.892C17.6632 10.316 17.9872 9.832 18.3952 9.44C18.8112 9.04 19.2872 8.74 19.8232 8.54C20.3592 8.332 20.9272 8.228 21.5272 8.228C22.0312 8.228 22.4992 8.288 22.9312 8.408C23.3632 8.528 23.7432 8.68 24.0712 8.864L23.6752 9.932C23.5152 9.836 23.3152 9.748 23.0752 9.668C22.8432 9.588 22.6032 9.524 22.3552 9.476C22.1072 9.42 21.8752 9.392 21.6592 9.392C21.1472 9.392 20.6832 9.472 20.2672 9.632C19.8512 9.784 19.4952 10.008 19.1992 10.304C18.9032 10.592 18.6752 10.944 18.5152 11.36C18.3552 11.768 18.2752 12.228 18.2752 12.74C18.2752 13.212 18.3552 13.644 18.5152 14.036C18.6752 14.428 18.9032 14.768 19.1992 15.056C19.4952 15.336 19.8472 15.556 20.2552 15.716C20.6712 15.868 21.1272 15.944 21.6232 15.944C21.9192 15.944 22.2112 15.916 22.4992 15.86C22.7872 15.796 23.0352 15.708 23.2432 15.596V13.868H21.5152V12.752H24.4072V16.256ZM28.9429 8.324C29.5749 8.324 30.1149 8.432 30.5629 8.648C31.0109 8.856 31.3549 9.16 31.5949 9.56C31.8429 9.96 31.9669 10.444 31.9669 11.012C31.9669 11.356 31.9149 11.696 31.8109 12.032C31.7069 12.36 31.5389 12.66 31.3069 12.932C31.0829 13.196 30.7869 13.408 30.4189 13.568C30.0509 13.728 29.6029 13.808 29.0749 13.808H27.7909V17H26.6269V8.324H28.9429ZM29.0629 12.692C29.4069 12.692 29.6909 12.636 29.9149 12.524C30.1389 12.412 30.3149 12.272 30.4429 12.104C30.5709 11.928 30.6629 11.744 30.7189 11.552C30.7749 11.36 30.8029 11.188 30.8029 11.036C30.8029 10.86 30.7749 10.68 30.7189 10.496C30.6629 10.304 30.5669 10.132 30.4309 9.98C30.3029 9.82 30.1309 9.692 29.9149 9.596C29.7069 9.492 29.4469 9.44 29.1349 9.44H27.7909V12.692H29.0629ZM33.1276 8.324H38.8876V9.44H36.5596V17H35.3956V9.44H33.1276V8.324ZM48.5292 9.104L46.4172 12.5L45.7212 12.176C45.8252 12.12 45.9412 12.08 46.0692 12.056C46.1972 12.032 46.3252 12.02 46.4532 12.02C46.7492 12.004 47.0372 12.036 47.3172 12.116C47.5972 12.196 47.8492 12.328 48.0732 12.512C48.2972 12.696 48.4732 12.94 48.6012 13.244C48.7372 13.548 48.8052 13.924 48.8052 14.372C48.8052 14.932 48.6772 15.416 48.4212 15.824C48.1652 16.232 47.8252 16.548 47.4012 16.772C46.9852 16.988 46.5212 17.096 46.0092 17.096C45.6252 17.096 45.2412 17.02 44.8572 16.868C44.4812 16.708 44.1692 16.5 43.9212 16.244L44.5092 15.284C44.6612 15.46 44.8692 15.62 45.1332 15.764C45.4052 15.908 45.6852 15.98 45.9732 15.98C46.2772 15.98 46.5492 15.912 46.7892 15.776C47.0372 15.64 47.2332 15.448 47.3772 15.2C47.5292 14.944 47.6052 14.648 47.6052 14.312C47.6052 13.848 47.4692 13.484 47.1972 13.22C46.9332 12.956 46.5692 12.824 46.1052 12.824C45.8732 12.824 45.6772 12.844 45.5172 12.884C45.3572 12.916 45.2132 12.956 45.0852 13.004L45.0492 12.956L46.9092 10.064L47.2692 10.22H44.3772V9.104H48.5292ZM49.9744 16.364C49.9744 16.188 50.0384 16.04 50.1664 15.92C50.3024 15.792 50.4504 15.728 50.6104 15.728C50.7544 15.728 50.8904 15.792 51.0184 15.92C51.1544 16.04 51.2224 16.188 51.2224 16.364C51.2224 16.556 51.1544 16.712 51.0184 16.832C50.8904 16.944 50.7544 17 50.6104 17C50.4504 17 50.3024 16.944 50.1664 16.832C50.0384 16.712 49.9744 16.556 49.9744 16.364ZM54.522 17.096C54.098 17.096 53.69 17.02 53.298 16.868C52.914 16.716 52.602 16.52 52.362 16.28L52.986 15.38C53.146 15.564 53.358 15.712 53.622 15.824C53.894 15.936 54.162 15.992 54.426 15.992C54.722 15.992 54.982 15.928 55.206 15.8C55.438 15.664 55.618 15.484 55.746 15.26C55.874 15.028 55.938 14.764 55.938 14.468C55.938 14.148 55.878 13.864 55.758 13.616C55.646 13.368 55.474 13.176 55.242 13.04C55.018 12.896 54.734 12.824 54.39 12.824C54.11 12.824 53.85 12.864 53.61 12.944C53.37 13.016 53.122 13.128 52.866 13.28H52.854V9.104H56.634V10.22H53.862V12.236L53.706 11.996C53.842 11.948 53.994 11.912 54.162 11.888C54.338 11.856 54.506 11.84 54.666 11.84C55.202 11.84 55.65 11.96 56.01 12.2C56.378 12.432 56.654 12.744 56.838 13.136C57.03 13.528 57.126 13.96 57.126 14.432C57.126 14.928 57.014 15.38 56.79 15.788C56.566 16.188 56.258 16.508 55.866 16.748C55.474 16.98 55.026 17.096 54.522 17.096ZM62.2722 8.324H68.0322V9.44H65.7042V17H64.5402V9.44H62.2722V8.324ZM70.462 17.192C70.014 17.192 69.642 17.056 69.346 16.784C69.058 16.504 68.906 16.144 68.89 15.704V12.032H70.006V15.308C70.022 15.58 70.098 15.8 70.234 15.968C70.378 16.136 70.602 16.224 70.906 16.232C71.186 16.232 71.434 16.152 71.65 15.992C71.874 15.824 72.054 15.6 72.19 15.32C72.326 15.032 72.394 14.708 72.394 14.348V12.032H73.51V17H72.49L72.394 15.776L72.454 15.992C72.358 16.224 72.21 16.432 72.01 16.616C71.818 16.792 71.59 16.932 71.326 17.036C71.062 17.14 70.774 17.192 70.462 17.192ZM76.4368 12.032L76.5448 13.472L76.4848 13.28C76.6128 12.976 76.7968 12.72 77.0368 12.512C77.2848 12.296 77.5408 12.132 77.8048 12.02C78.0768 11.9 78.3128 11.84 78.5128 11.84L78.4528 12.944C78.0768 12.92 77.7448 12.992 77.4568 13.16C77.1768 13.328 76.9528 13.552 76.7848 13.832C76.6248 14.112 76.5448 14.412 76.5448 14.732V17H75.4408V12.032H76.4368ZM82.9765 17.12C82.5205 17.12 82.1165 17.02 81.7645 16.82C81.4205 16.62 81.1445 16.368 80.9365 16.064L81.0685 15.716V17H79.9525V7.712H81.0565V13.172L81.0205 12.752C81.2205 12.48 81.5045 12.26 81.8725 12.092C82.2485 11.916 82.6645 11.828 83.1205 11.828C83.5685 11.828 83.9765 11.936 84.3445 12.152C84.7125 12.368 85.0045 12.672 85.2205 13.064C85.4445 13.448 85.5565 13.908 85.5565 14.444C85.5565 15.004 85.4365 15.484 85.1965 15.884C84.9645 16.284 84.6525 16.592 84.2605 16.808C83.8685 17.016 83.4405 17.12 82.9765 17.12ZM82.7485 16.172C83.0685 16.172 83.3565 16.096 83.6125 15.944C83.8685 15.792 84.0685 15.588 84.2125 15.332C84.3565 15.068 84.4285 14.768 84.4285 14.432C84.4285 14.112 84.3525 13.824 84.2005 13.568C84.0565 13.304 83.8565 13.096 83.6005 12.944C83.3525 12.792 83.0685 12.716 82.7485 12.716C82.4765 12.716 82.2245 12.768 81.9925 12.872C81.7605 12.976 81.5645 13.12 81.4045 13.304C81.2445 13.48 81.1325 13.688 81.0685 13.928V14.924C81.1325 15.164 81.2405 15.38 81.3925 15.572C81.5445 15.756 81.7365 15.904 81.9685 16.016C82.2005 16.12 82.4605 16.172 82.7485 16.172ZM86.6338 14.468C86.6338 13.972 86.7498 13.524 86.9818 13.124C87.2218 12.724 87.5498 12.408 87.9658 12.176C88.3818 11.944 88.8538 11.828 89.3818 11.828C89.9258 11.828 90.4018 11.944 90.8098 12.176C91.2178 12.408 91.5338 12.724 91.7578 13.124C91.9818 13.524 92.0938 13.972 92.0938 14.468C92.0938 14.964 91.9818 15.416 91.7578 15.824C91.5338 16.224 91.2138 16.54 90.7978 16.772C90.3898 17.004 89.9138 17.12 89.3698 17.12C88.8418 17.12 88.3698 17.012 87.9538 16.796C87.5458 16.572 87.2218 16.264 86.9818 15.872C86.7498 15.472 86.6338 15.004 86.6338 14.468ZM87.7498 14.48C87.7498 14.8 87.8218 15.092 87.9658 15.356C88.1098 15.612 88.3018 15.816 88.5418 15.968C88.7898 16.12 89.0618 16.196 89.3578 16.196C89.6698 16.196 89.9458 16.12 90.1858 15.968C90.4338 15.816 90.6258 15.612 90.7618 15.356C90.8978 15.092 90.9658 14.8 90.9658 14.48C90.9658 14.16 90.8978 13.872 90.7618 13.616C90.6258 13.352 90.4338 13.144 90.1858 12.992C89.9458 12.832 89.6698 12.752 89.3578 12.752C89.0538 12.752 88.7778 12.832 88.5298 12.992C88.2898 13.152 88.0978 13.364 87.9538 13.628C87.8178 13.884 87.7498 14.168 87.7498 14.48Z" fill="black"/>
</svg>
