<svg width="110" height="25" viewBox="0 0 110 25" fill="none" xmlns="http://www.w3.org/2000/svg">
<rect x="1" y="1" width="108" height="23" rx="2" fill="#9EDD80" stroke="black" stroke-width="2"/>
<path d="M28.4853 16.256C28.3653 16.36 28.1973 16.464 27.9813 16.568C27.7653 16.664 27.5253 16.752 27.2613 16.832C27.0053 16.912 26.7373 16.976 26.4573 17.024C26.1853 17.072 25.9293 17.096 25.6893 17.096C24.9933 17.096 24.3653 16.988 23.8053 16.772C23.2533 16.556 22.7773 16.256 22.3773 15.872C21.9853 15.488 21.6813 15.036 21.4653 14.516C21.2573 13.996 21.1533 13.432 21.1533 12.824C21.1533 12.104 21.2693 11.46 21.5013 10.892C21.7413 10.316 22.0653 9.832 22.4733 9.44C22.8893 9.04 23.3653 8.74 23.9013 8.54C24.4373 8.332 25.0053 8.228 25.6053 8.228C26.1093 8.228 26.5773 8.288 27.0093 8.408C27.4413 8.528 27.8213 8.68 28.1493 8.864L27.7533 9.932C27.5933 9.836 27.3933 9.748 27.1533 9.668C26.9213 9.588 26.6813 9.524 26.4333 9.476C26.1853 9.42 25.9533 9.392 25.7373 9.392C25.2253 9.392 24.7613 9.472 24.3453 9.632C23.9293 9.784 23.5733 10.008 23.2773 10.304C22.9813 10.592 22.7533 10.944 22.5933 11.36C22.4333 11.768 22.3533 12.228 22.3533 12.74C22.3533 13.212 22.4333 13.644 22.5933 14.036C22.7533 14.428 22.9813 14.768 23.2773 15.056C23.5733 15.336 23.9253 15.556 24.3333 15.716C24.7493 15.868 25.2053 15.944 25.7013 15.944C25.9973 15.944 26.2893 15.916 26.5773 15.86C26.8653 15.796 27.1133 15.708 27.3213 15.596V13.868H25.5933V12.752H28.4853V16.256ZM33.021 8.324C33.653 8.324 34.193 8.432 34.641 8.648C35.089 8.856 35.433 9.16 35.673 9.56C35.921 9.96 36.045 10.444 36.045 11.012C36.045 11.356 35.993 11.696 35.889 12.032C35.785 12.36 35.617 12.66 35.385 12.932C35.161 13.196 34.865 13.408 34.497 13.568C34.129 13.728 33.681 13.808 33.153 13.808H31.869V17H30.705V8.324H33.021ZM33.141 12.692C33.485 12.692 33.769 12.636 33.993 12.524C34.217 12.412 34.393 12.272 34.521 12.104C34.649 11.928 34.741 11.744 34.797 11.552C34.853 11.36 34.881 11.188 34.881 11.036C34.881 10.86 34.853 10.68 34.797 10.496C34.741 10.304 34.645 10.132 34.509 9.98C34.381 9.82 34.209 9.692 33.993 9.596C33.785 9.492 33.525 9.44 33.213 9.44H31.869V12.692H33.141ZM37.2058 8.324H42.9658V9.44H40.6378V17H39.4738V9.44H37.2058V8.324ZM47.5193 15.092V15.08L52.3313 9.008H52.3433V14.204H53.3633V15.092H52.3433V17H51.1793V15.092H47.5193ZM51.2513 11.636L49.2233 14.264L49.0433 14.204H51.1793V11.42L51.2513 11.636ZM58.194 8.324H63.954V9.44H61.626V17H60.462V9.44H58.194V8.324ZM66.3838 17.192C65.9358 17.192 65.5638 17.056 65.2678 16.784C64.9798 16.504 64.8278 16.144 64.8118 15.704V12.032H65.9278V15.308C65.9438 15.58 66.0198 15.8 66.1558 15.968C66.2998 16.136 66.5238 16.224 66.8278 16.232C67.1078 16.232 67.3558 16.152 67.5718 15.992C67.7958 15.824 67.9758 15.6 68.1118 15.32C68.2478 15.032 68.3158 14.708 68.3158 14.348V12.032H69.4318V17H68.4118L68.3158 15.776L68.3758 15.992C68.2798 16.224 68.1318 16.432 67.9318 16.616C67.7398 16.792 67.5118 16.932 67.2478 17.036C66.9838 17.14 66.6958 17.192 66.3838 17.192ZM72.3586 12.032L72.4666 13.472L72.4066 13.28C72.5346 12.976 72.7186 12.72 72.9586 12.512C73.2066 12.296 73.4626 12.132 73.7266 12.02C73.9986 11.9 74.2346 11.84 74.4346 11.84L74.3746 12.944C73.9986 12.92 73.6666 12.992 73.3786 13.16C73.0986 13.328 72.8746 13.552 72.7066 13.832C72.5466 14.112 72.4666 14.412 72.4666 14.732V17H71.3626V12.032H72.3586ZM78.8983 17.12C78.4423 17.12 78.0383 17.02 77.6863 16.82C77.3423 16.62 77.0663 16.368 76.8583 16.064L76.9903 15.716V17H75.8743V7.712H76.9783V13.172L76.9423 12.752C77.1423 12.48 77.4263 12.26 77.7943 12.092C78.1703 11.916 78.5863 11.828 79.0423 11.828C79.4903 11.828 79.8983 11.936 80.2663 12.152C80.6343 12.368 80.9263 12.672 81.1423 13.064C81.3663 13.448 81.4783 13.908 81.4783 14.444C81.4783 15.004 81.3583 15.484 81.1183 15.884C80.8863 16.284 80.5743 16.592 80.1823 16.808C79.7903 17.016 79.3623 17.12 78.8983 17.12ZM78.6703 16.172C78.9903 16.172 79.2783 16.096 79.5343 15.944C79.7903 15.792 79.9903 15.588 80.1343 15.332C80.2783 15.068 80.3503 14.768 80.3503 14.432C80.3503 14.112 80.2743 13.824 80.1223 13.568C79.9783 13.304 79.7783 13.096 79.5223 12.944C79.2743 12.792 78.9903 12.716 78.6703 12.716C78.3983 12.716 78.1463 12.768 77.9143 12.872C77.6823 12.976 77.4863 13.12 77.3263 13.304C77.1663 13.48 77.0543 13.688 76.9903 13.928V14.924C77.0543 15.164 77.1623 15.38 77.3143 15.572C77.4663 15.756 77.6583 15.904 77.8903 16.016C78.1223 16.12 78.3823 16.172 78.6703 16.172ZM82.5556 14.468C82.5556 13.972 82.6716 13.524 82.9036 13.124C83.1436 12.724 83.4716 12.408 83.8876 12.176C84.3036 11.944 84.7756 11.828 85.3036 11.828C85.8476 11.828 86.3236 11.944 86.7316 12.176C87.1396 12.408 87.4556 12.724 87.6796 13.124C87.9036 13.524 88.0156 13.972 88.0156 14.468C88.0156 14.964 87.9036 15.416 87.6796 15.824C87.4556 16.224 87.1356 16.54 86.7196 16.772C86.3116 17.004 85.8356 17.12 85.2916 17.12C84.7636 17.12 84.2916 17.012 83.8756 16.796C83.4676 16.572 83.1436 16.264 82.9036 15.872C82.6716 15.472 82.5556 15.004 82.5556 14.468ZM83.6716 14.48C83.6716 14.8 83.7436 15.092 83.8876 15.356C84.0316 15.612 84.2236 15.816 84.4636 15.968C84.7116 16.12 84.9836 16.196 85.2796 16.196C85.5916 16.196 85.8676 16.12 86.1076 15.968C86.3556 15.816 86.5476 15.612 86.6836 15.356C86.8196 15.092 86.8876 14.8 86.8876 14.48C86.8876 14.16 86.8196 13.872 86.6836 13.616C86.5476 13.352 86.3556 13.144 86.1076 12.992C85.8676 12.832 85.5916 12.752 85.2796 12.752C84.9756 12.752 84.6996 12.832 84.4516 12.992C84.2116 13.152 84.0196 13.364 83.8756 13.628C83.7396 13.884 83.6716 14.168 83.6716 14.48Z" fill="black"/>
</svg>
